<svg xmlns="http://www.w3.org/2000/svg" xmlns:xlink="http://www.w3.org/1999/xlink" viewBox="0 0 107.62 148.96"><defs><style>.cls-1{fill:none;}.cls-2{isolation:isolate;}.cls-3,.cls-49{fill:#0e3332;}.cls-4{fill:#256865;}.cls-5{fill:#bed6d3;}.cls-10,.cls-13,.cls-15,.cls-18,.cls-21,.cls-28,.cls-42,.cls-5,.cls-51,.cls-56,.cls-63,.cls-68,.cls-70,.cls-72,.cls-75,.cls-88{mix-blend-mode:multiply;}.cls-6{fill:#0f2b2a;}.cls-17,.cls-22,.cls-27,.cls-49,.cls-52,.cls-54,.cls-6,.cls-62,.cls-71,.cls-73,.cls-77,.cls-79,.cls-9{mix-blend-mode:screen;}.cls-7{fill:#348482;}.cls-8{fill:#efab24;}.cls-9{fill:#4d4433;}.cls-10{fill:#efd5a0;}.cls-11{fill:#eaa494;}.cls-12,.cls-20,.cls-23,.cls-24,.cls-25,.cls-31,.cls-32,.cls-41,.cls-43,.cls-44,.cls-59,.cls-60,.cls-65,.cls-66,.cls-82,.cls-83,.cls-87,.cls-89{mix-blend-mode:hard-light;}.cls-12{fill:url(#linear-gradient);}.cls-13{fill:#e8d6cc;}.cls-14{fill:#5c3b6b;}.cls-15{fill:#ccb2a5;}.cls-16{fill:#409999;}.cls-17{fill:#1d5452;}.cls-18{fill:#cce6e2;}.cls-19{fill:#fac4a6;}.cls-20{fill:url(#linear-gradient-2);}.cls-21{fill:#f5f0ed;}.cls-22{fill:#804728;}.cls-23{fill:url(#linear-gradient-3);}.cls-24{fill:url(#linear-gradient-4);}.cls-25{fill:url(#linear-gradient-5);}.cls-26{fill:#7c331c;}.cls-27{fill:#33150c;}.cls-28{fill:#c49d8f;}.cls-29{fill:#63250f;}.cls-30{clip-path:url(#clip-path);}.cls-31{fill:url(#radial-gradient);}.cls-32{fill:url(#radial-gradient-2);}.cls-33{fill:#471b0b;}.cls-34{fill:#ffe6db;}.cls-35{fill:#cf9b84;}.cls-36{fill:#662020;}.cls-37{fill:#d6496e;}.cls-38{fill:#fff;}.cls-39{fill:#b22f4b;}.cls-40{fill:#4f5108;}.cls-41{fill:url(#linear-gradient-6);}.cls-42{fill:#d3e3e3;}.cls-43{fill:url(#linear-gradient-7);}.cls-44{fill:url(#linear-gradient-8);}.cls-45{fill:#4fb2af;}.cls-46{fill:#9e6457;}.cls-47{fill:#210d05;}.cls-48{fill:#913636;}.cls-50{fill:#a18dc6;}.cls-51{fill:#cbc7d4;}.cls-52{fill:#544c5e;}.cls-53{fill:#8e746e;}.cls-54{fill:#2e2524;}.cls-55{fill:#776058;}.cls-56{fill:#c7bbb7;}.cls-57{fill:#c4b3e0;}.cls-58{fill:#27455b;}.cls-59{fill:url(#linear-gradient-9);}.cls-60{fill:url(#linear-gradient-10);}.cls-61{fill:#8d7cb5;}.cls-62{fill:#2c1c33;}.cls-63{fill:#b8b5ba;}.cls-64{clip-path:url(#clip-path-2);}.cls-65{fill:url(#radial-gradient-3);}.cls-66{fill:url(#radial-gradient-4);}.cls-67{fill:#b55050;}.cls-68{fill:#d6a1a1;}.cls-69{fill:#ee872d;}.cls-70{fill:#eeb98a;}.cls-71{fill:#94867b;}.cls-72{fill:#d6d3cb;}.cls-73{fill:#423c37;}.cls-74{fill:#e3cfa8;}.cls-75{fill:#e0ddd5;}.cls-76{fill:#347184;}.cls-77{fill:#18343d;}.cls-78{fill:#d38579;}.cls-79{fill:#80533b;}.cls-80{fill:#ad5744;}.cls-81{fill:#734022;}.cls-82{fill:url(#linear-gradient-11);}.cls-83{fill:url(#linear-gradient-12);}.cls-84{fill:#3b3427;}.cls-85{fill:#ab97cc;}.cls-86{fill:#979b0a;}.cls-87{fill:url(#linear-gradient-13);}.cls-88{fill:#c8c987;}.cls-89{fill:url(#linear-gradient-14);}.cls-90{fill:#d19e7c;}.cls-91{fill:#a03f3f;}.cls-92{fill:#b54d10;}.cls-93{fill:#ffbf87;}</style><linearGradient id="linear-gradient" x1="98.02" y1="97.29" x2="95.58" y2="117.94" gradientUnits="userSpaceOnUse"><stop offset="0" stop-color="#a86d65"/><stop offset="1" stop-color="gray"/></linearGradient><linearGradient id="linear-gradient-2" x1="89.91" y1="39.7" x2="90.18" y2="28.02" gradientUnits="userSpaceOnUse"><stop offset="0" stop-color="#ffd4c2"/><stop offset="1" stop-color="gray"/></linearGradient><linearGradient id="linear-gradient-3" x1="90.52" y1="46.29" x2="91.13" y2="35.29" xlink:href="#linear-gradient-2"/><linearGradient id="linear-gradient-4" x1="87.27" y1="98.23" x2="84.01" y2="133" xlink:href="#linear-gradient"/><linearGradient id="linear-gradient-5" x1="75.92" y1="46.31" x2="62.74" y2="45.63" xlink:href="#linear-gradient"/><clipPath id="clip-path"><path class="cls-1" d="M96.61,29h0a17.18,17.18,0,0,1-.75,1.71A12,12,0,0,1,93,34.41a9.69,9.69,0,0,1-3.9,2.06c-1.71.45-2.43.79-3,.28-1.85-1.77-3.2-5.8-2-12,0,0,6.72-4.2,10.85-2.56A12.64,12.64,0,0,0,96.61,29Z"/></clipPath><radialGradient id="radial-gradient" cx="62.75" cy="-440.82" r="2.02" gradientTransform="matrix(1.2, -0.38, 0.3, 0.95, 152.84, 474.62)" gradientUnits="userSpaceOnUse"><stop offset="0" stop-color="#d6625a"/><stop offset="1" stop-color="gray"/></radialGradient><radialGradient id="radial-gradient-2" cx="-243.57" cy="-796.95" r="2.02" gradientTransform="matrix(1.07, 0.65, -0.52, 0.85, -69.1, 869.02)" xlink:href="#radial-gradient"/><linearGradient id="linear-gradient-6" x1="84.86" y1="28.05" x2="85.64" y2="25.29" gradientUnits="userSpaceOnUse"><stop offset="0" stop-color="#fff"/><stop offset="1"/></linearGradient><linearGradient id="linear-gradient-7" x1="91.52" y1="29.65" x2="91.18" y2="26.5" xlink:href="#linear-gradient-6"/><linearGradient id="linear-gradient-8" x1="95.87" y1="44.66" x2="83.85" y2="51.72" xlink:href="#linear-gradient"/><linearGradient id="linear-gradient-9" x1="21" y1="36" x2="20.39" y2="17.77" xlink:href="#linear-gradient-2"/><linearGradient id="linear-gradient-10" x1="18.81" y1="35.57" x2="19.76" y2="27.15" xlink:href="#linear-gradient-2"/><clipPath id="clip-path-2"><path class="cls-1" d="M26.45,12.73c.82,7,1.22,14.3-.13,14.92A6.5,6.5,0,0,1,23.9,28a10.65,10.65,0,0,1-8.28-3.86h0a12.25,12.25,0,0,1-1.52-2.32A11.45,11.45,0,0,1,13.79,19a14.88,14.88,0,0,1,.31-3,9.82,9.82,0,0,1,.24-1s4-2.32,4-5.35C20,11.47,24,13.22,26.45,12.73Z"/></clipPath><radialGradient id="radial-gradient-3" cx="-208.92" cy="-854.16" r="2.02" gradientTransform="matrix(1.17, 0.46, -0.37, 0.93, -53.73, 909.32)" xlink:href="#radial-gradient"/><radialGradient id="radial-gradient-4" cx="36.87" cy="-325.41" r="2.02" gradientTransform="matrix(1.07, -0.67, 0.53, 0.85, 160.99, 317.89)" xlink:href="#radial-gradient"/><linearGradient id="linear-gradient-11" x1="18.86" y1="18.59" x2="19.1" y2="15.46" gradientUnits="userSpaceOnUse"><stop offset="0" stop-color="#a8a77d"/><stop offset="1" stop-color="gray"/></linearGradient><linearGradient id="linear-gradient-12" x1="24.98" y1="17.75" x2="25.22" y2="15.24" xlink:href="#linear-gradient-11"/><linearGradient id="linear-gradient-13" x1="56.93" y1="37.96" x2="55.87" y2="36.4" gradientUnits="userSpaceOnUse"><stop offset="0.15" stop-color="#e89e09"/><stop offset="1" stop-color="gray"/></linearGradient><linearGradient id="linear-gradient-14" x1="50.05" y1="38.24" x2="50.31" y2="36.84" xlink:href="#linear-gradient-13"/></defs><g class="cls-2"><g id="Layer_2" data-name="Layer 2"><g id="Layer_1-2" data-name="Layer 1"><path class="cls-3" d="M93.89,39.82c4.29,2.25-.13,5.91-3.62,1.13A5.48,5.48,0,0,0,93,40.38s0-.28-.1-.75l1,.19Z"/><path class="cls-3" d="M88.9,39.31h0c-.12.59-.23,1-.23,1a2.79,2.79,0,0,0,1.6.67c-5,3.06-6.41-1.07-2.65-1.59h0C88.07,39.33,88.48,39.32,88.9,39.31Z"/><path class="cls-4" d="M81.85,40.38l.12.25a8.89,8.89,0,0,0-1.5.84,47.94,47.94,0,0,0,.21,7.45,6.26,6.26,0,0,1-6-1.54c-.27-1-.73-2.87-.73-2.87C73.46,39.85,78.89,37.27,81.85,40.38Z"/><path class="cls-5" d="M77.52,42.4c.06-.38-1.37.2-1.5.26a5.79,5.79,0,0,0-1.27.86,5.39,5.39,0,0,0-.77.82v0l1-.26C75.87,43.91,77.35,43.51,77.52,42.4Z"/><path class="cls-5" d="M78.5,47c1-.33-.74-1.84-1.16-1.94a2.64,2.64,0,0,0-.49-.08,20.41,20.41,0,0,1-2.56.77c0,.13.07.27.1.41a7.62,7.62,0,0,0,2,.8A4,4,0,0,0,78.5,47Z"/><path class="cls-6" d="M75.13,42.42a6.84,6.84,0,0,1,5.34-.81v-.14a8.89,8.89,0,0,1,1.5-.84l-.12-.25c-2.76-2.9-7.66-.86-7.88,3.21A5.85,5.85,0,0,1,75.13,42.42Z"/><path class="cls-5" d="M80.44,42.09A15.69,15.69,0,0,0,78,49a7.19,7.19,0,0,0,2.71-.08A50.82,50.82,0,0,1,80.44,42.09Z"/><path class="cls-7" d="M90.27,41c-1.75,4.84-1.53,19.2-.41,26.89a17,17,0,0,1-5.43-1.21,95.17,95.17,0,0,1-3.75-17.71,47.94,47.94,0,0,1-.21-7.45,8.89,8.89,0,0,1,1.5-.84,16.61,16.61,0,0,1,5.65-1.27C83.86,39.88,85.26,44,90.27,41Z"/><path class="cls-6" d="M87.62,39.36A16.61,16.61,0,0,0,82,40.63a8.89,8.89,0,0,0-1.5.84,47.94,47.94,0,0,0,.21,7.45,95.17,95.17,0,0,0,3.75,17.71q.5.2,1,.36a84.5,84.5,0,0,1-2.51-25.14c.88-.25,1.74-.51,2.59-.73C85.38,40.43,86,39.58,87.62,39.36Z"/><path class="cls-5" d="M87.1,60.37a15.55,15.55,0,0,0,2-.54c0-1-.08-2-.11-3-.5.32-1,.62-1.54.89a11.92,11.92,0,0,1-3.2,1.21,16.91,16.91,0,0,1-1.88.22c.12.52.24,1,.36,1.51A22.45,22.45,0,0,0,87.1,60.37Z"/><path class="cls-8" d="M89.86,67.84a20,20,0,0,0,7.4-1s6.57,12.3,10.36,34.31c-3.15.86-3.34,0-8.18.71l-1.25.18c-2.44.4-4,1.25-6.23,1.1a8,8,0,0,1-1.68-.29L89,102.54a12.62,12.62,0,0,0-6.62-.63l-.6.07c-2.52.22-7.31-.52-8.41-3a217.4,217.4,0,0,1,11.1-32.39A17,17,0,0,0,89.86,67.84Z"/><path class="cls-9" d="M89.13,70.87c-.11-1-.31-2.09-.46-3.14a16.4,16.4,0,0,1-4.24-1.1A217.4,217.4,0,0,0,73.33,99a4.64,4.64,0,0,0,2.76,2.17,215.79,215.79,0,0,0,7.62-21.3,132.88,132.88,0,0,1-5.23,21.92,13.46,13.46,0,0,0,3.26.17l.6-.07a11.34,11.34,0,0,1,2.13-.21c1-3.57,1.9-7.18,2.77-10.78a64.39,64.39,0,0,0,2.08-13.37A51.41,51.41,0,0,0,89.13,70.87Z"/><path class="cls-9" d="M92.24,73c-.3-1.71-.65-3.42-1-5.13H91c.21,1.49.51,3,.59,4.49a51,51,0,0,1,0,6.66,75.49,75.49,0,0,1-2.29,13.27c-.81,3.24-1.63,6.47-2.52,9.67.69.15,1.39.35,2.16.58l1.32.36c.19.06.38.1.57.14.24-1.71.46-3.42.65-5.14a154.83,154.83,0,0,0,1.26-16.53A46,46,0,0,0,92.24,73Z"/><path class="cls-10" d="M93,70.71a59.63,59.63,0,0,1,1,10.66c-.09,5.54-.64,11-1.26,16.53-.2,1.78-.43,3.54-.68,5.29a9,9,0,0,0,2.84-.32c.19-2.83.29-5.68.28-8.53A117.94,117.94,0,0,0,93,70.71Z"/><path class="cls-10" d="M97.26,66.89a18.87,18.87,0,0,1-3.66.82,111.52,111.52,0,0,1,2.86,27.42q0,3.7-.26,7.4c.61-.16,1.26-.32,2-.44l1.25-.18c4.84-.66,5,.15,8.18-.71C103.83,79.19,97.26,66.89,97.26,66.89Z"/><path class="cls-11" d="M99.44,101.91h0c-1.27,4.81-2.74,10-2.86,14.27,4,14.53.69,29.52.69,29.52.67,1.75-.27,2-.27,2a31.45,31.45,0,0,1-5.84,0s-1.1-.88,4.87-2.1c0-7.94-2.77-18.61-3.67-29.12a116.62,116.62,0,0,1-.4-13.29c2.24.15,3.79-.7,6.23-1.1Z"/><path class="cls-12" d="M99.44,101.91h0c-1.27,4.81-2.74,10-2.86,14.27,4,14.53.69,29.52.69,29.52.67,1.75-.27,2-.27,2a31.45,31.45,0,0,1-5.84,0s-1.1-.88,4.87-2.1c0-7.94-2.77-18.61-3.67-29.12a116.62,116.62,0,0,1-.4-13.29c2.24.15,3.79-.7,6.23-1.1Z"/><path class="cls-13" d="M98.4,105.88c.34-1.33.7-2.67,1-4h0l-1.25.18c-2.44.4-4,1.25-6.23,1.1,0,.59,0,1.19,0,1.79A11,11,0,0,1,98.4,105.88Z"/><path class="cls-14" d="M93.25,146.28c-2.79.85-2.09,1.42-2.09,1.42a31.45,31.45,0,0,0,5.84,0s.78-.22.41-1.59A5.16,5.16,0,0,1,93.25,146.28Z"/><path class="cls-11" d="M97.47,27.86c1.9-.57,1,3.13-1.6,2.84A17.18,17.18,0,0,0,96.62,29h0A7.5,7.5,0,0,0,97.47,27.86Z"/><path class="cls-15" d="M96.58,30.34h.07a3.57,3.57,0,0,1,1.48-1.59l0-.07a1.16,1.16,0,0,0-.71-.09,1.07,1.07,0,0,0-.61.38,1.43,1.43,0,0,0-.26.67A1.83,1.83,0,0,0,96.58,30.34Z"/><path class="cls-13" d="M96.1,30.72c.74-.92,1.47-1.84,2.26-2.65-.15-.24-.44-.34-.89-.21A7.5,7.5,0,0,1,96.61,29h0a17.18,17.18,0,0,1-.75,1.71Z"/><path class="cls-16" d="M93.89,39.82a14,14,0,0,1,7.14,3.6s-4.16,13-3.77,23.47a20,20,0,0,1-7.4,1c-1.12-7.69-1.34-22.05.41-26.89C93.76,45.73,98.18,42.07,93.89,39.82Z"/><path class="cls-17" d="M93.89,39.82a4.65,4.65,0,0,1,1.06.73c0-.14.09-.28.14-.43C94.69,40,94.3,39.9,93.89,39.82Z"/><path class="cls-18" d="M98.22,41.36a17.07,17.07,0,0,0-4,8c-1.64,2-3.34,4.15-5.23,6,0,1,.1,3.4.14,4.44a34.42,34.42,0,0,0,9.15-4.93A97.35,97.35,0,0,1,101,43.42,11,11,0,0,0,98.22,41.36Z"/><path class="cls-19" d="M96.61,29h0a17.18,17.18,0,0,1-.75,1.71A12,12,0,0,1,93,34.41a9.69,9.69,0,0,1-3.9,2.06c-1.71.45-2.43.79-3,.28-1.85-1.77-3.2-5.8-2-12,0,0,6.72-4.2,10.85-2.56A12.64,12.64,0,0,0,96.61,29Z"/><path class="cls-20" d="M96.61,29h0a17.18,17.18,0,0,1-.75,1.71A12,12,0,0,1,93,34.41a9.69,9.69,0,0,1-3.9,2.06c-1.71.45-2.43.79-3,.28-1.85-1.77-3.2-5.8-2-12,0,0,6.72-4.2,10.85-2.56A12.64,12.64,0,0,0,96.61,29Z"/><path class="cls-21" d="M96.61,29A12.64,12.64,0,0,1,95,22.19a6,6,0,0,0-2.51-.37c1.84,5.06,1.2,10.64-1.7,14.06A9.87,9.87,0,0,0,93,34.41a12,12,0,0,0,2.84-3.71A17.18,17.18,0,0,0,96.62,29Z"/><path class="cls-22" d="M86.66,34.38A19.58,19.58,0,0,1,88,22.84a25.6,25.6,0,0,0-3.91,1.91c-1.17,6.2.18,10.23,2,12,.46.44,1.06.25,2.28-.09A2,2,0,0,0,86.66,34.38Z"/><path class="cls-13" d="M96.61,29A12.64,12.64,0,0,1,95,22.19c-4.13-1.64-10.85,2.56-10.85,2.56A23.76,23.76,0,0,0,83.7,29c2.25-3.63,6.53-5.44,10.47-5.9a15.49,15.49,0,0,0,2.32,6.18l.13-.33Z"/><path class="cls-11" d="M92.93,39.63c0,.47.1.75.1.75a5.48,5.48,0,0,1-2.76.57,2.79,2.79,0,0,1-1.6-.67s.11-.38.23-1a10.86,10.86,0,0,0,.23-2.84A9.69,9.69,0,0,0,93,34.41,16.56,16.56,0,0,0,92.93,39.63Z"/><path class="cls-23" d="M92.93,39.63c0,.47.1.75.1.75a5.48,5.48,0,0,1-2.76.57,2.79,2.79,0,0,1-1.6-.67s.11-.38.23-1a10.86,10.86,0,0,0,.23-2.84A9.69,9.69,0,0,0,93,34.41,16.56,16.56,0,0,0,92.93,39.63Z"/><path class="cls-13" d="M89.11,37.88a5.82,5.82,0,0,0,3.17-.81l.5-.31A13.6,13.6,0,0,1,93,34.41a9.69,9.69,0,0,1-3.9,2.06A8.29,8.29,0,0,1,89.11,37.88Z"/><path class="cls-11" d="M89,102.54c-.31,3.91-.83,9.19-.94,13.09,4,14.54-1.49,30.07-1.49,30.07.67,1.75-.27,2-.27,2a31.45,31.45,0,0,1-5.84,0s-1.11-.88,4.86-2.1c0-7.94-.58-19.15-1.48-29.66-.43-5.06-1.62-9.66-2.06-14l.6-.07A12.62,12.62,0,0,1,89,102.54Z"/><path class="cls-24" d="M89,102.54c-.31,3.91-.83,9.19-.94,13.09,4,14.54-1.49,30.07-1.49,30.07.67,1.75-.27,2-.27,2a31.45,31.45,0,0,1-5.84,0s-1.11-.88,4.86-2.1c0-7.94-.58-19.15-1.48-29.66-.43-5.06-1.62-9.66-2.06-14l.6-.07A12.62,12.62,0,0,1,89,102.54Z"/><path class="cls-13" d="M89,102.54a12.62,12.62,0,0,0-6.62-.63l-.6.07c.08.8.19,1.61.32,2.44a14.08,14.08,0,0,1,6.59,1.93C88.76,105,88.87,103.71,89,102.54Z"/><path class="cls-14" d="M82.64,146.24c-3,.88-2.22,1.46-2.22,1.46a31.45,31.45,0,0,0,5.84,0s.87-.24.33-1.81A4.26,4.26,0,0,1,82.64,146.24Z"/><path class="cls-11" d="M74,44.51s.46,1.87.73,2.87C70,48.77,62.36,49.5,55.58,44.49l.79-1.75c2.26.88,6.44,1.39,8.61,2.59C68.71,45.84,71.63,45.71,74,44.51Z"/><path class="cls-25" d="M74,44.51s.46,1.87.73,2.87C70,48.77,62.36,49.5,55.58,44.49l.79-1.75c2.26.88,6.44,1.39,8.61,2.59C68.71,45.84,71.63,45.71,74,44.51Z"/><path class="cls-8" d="M98.27,18.76a1,1,0,0,1,.21.64c-.15.46-.9.67-1,.68h0a2.11,2.11,0,0,0-1.74-.67,4.5,4.5,0,0,0-.49-.89c.64-1.32.89-2,1.32-1.72l.27.25h0A9.55,9.55,0,0,1,98.27,18.76Z"/><path class="cls-26" d="M107.45,17.05c.89,2.23-1.75,6-5.28,5.71,0,0,.41-4.82-3.9-4a9.55,9.55,0,0,0-1.38-1.71h0C97.53,13,105.21,11.45,107.45,17.05Z"/><path class="cls-27" d="M99.42,15a5.92,5.92,0,0,1,6,2.07,5.53,5.53,0,0,1,1.18,3.58,3.91,3.91,0,0,0,.84-3.63c-2-5-8.28-4.28-10.1-1.24A6.88,6.88,0,0,1,99.42,15Z"/><path class="cls-27" d="M104.47,18.3a4.48,4.48,0,0,0-4.65-1.82c-.27.07-.58.16-.9.27,2.68-.17,5.52,1.78,5.65,4.66a7.24,7.24,0,0,1,0,.94l0,0A3.51,3.51,0,0,0,104.47,18.3Z"/><path class="cls-28" d="M101,19.28c-.21-1.61-1.94-3.86-3.75-3.34a3.49,3.49,0,0,0-.39,1.11h0a9.55,9.55,0,0,1,1.38,1.71A3.11,3.11,0,0,1,101,19.28Z"/><path class="cls-26" d="M95.79,19.41A5,5,0,0,1,95,22.19c-.71.7-5.83-.23-10.3,3A12.77,12.77,0,0,0,83,26.65c-8.26-17.2,9.11-12.74,12.32-8.13A4.5,4.5,0,0,1,95.79,19.41Z"/><path class="cls-27" d="M85.24,16.1c2.64-1.71,5.55-1,8.06.62l.45.29c-4.86-3.56-16.34-5.37-12,6.68A8.39,8.39,0,0,1,85.24,16.1Z"/><path class="cls-27" d="M94.42,19.07a11.06,11.06,0,0,0-3.76-2.27A5.19,5.19,0,0,0,84,19.36a8.08,8.08,0,0,0-.9,2.51A4.37,4.37,0,0,1,84,20.49,8.43,8.43,0,0,1,94.42,19.07Z"/><path class="cls-29" d="M97.47,27.86A7.5,7.5,0,0,1,96.61,29,12.64,12.64,0,0,1,95,22.19a5,5,0,0,0,.81-2.78,2.11,2.11,0,0,1,1.74.67h0C101,21.26,99.37,24.9,97.47,27.86Z"/><path class="cls-28" d="M96.65,22a5.27,5.27,0,0,1,.46-2.22,2,2,0,0,0-1.32-.33A5,5,0,0,1,95,22.19,12.64,12.64,0,0,0,96.61,29c.11-.11.2-.23.3-.35A21.06,21.06,0,0,1,96.65,22Z"/><g class="cls-30"><path class="cls-31" d="M96.12,29.94a2.61,2.61,0,0,1-4.85,1.55,2.61,2.61,0,0,1,4.85-1.55Z"/><path class="cls-32" d="M86.07,30.32A2.61,2.61,0,1,1,85,27.27,2.33,2.33,0,0,1,86.07,30.32Z"/></g><path class="cls-33" d="M91.22,25.83a1.3,1.3,0,0,1,.87-.79,1.85,1.85,0,0,1,1.16.13,3.15,3.15,0,0,1,1,.53,2.19,2.19,0,0,1,.65.86l-.08,0a2.06,2.06,0,0,0-.79-.55,3.27,3.27,0,0,0-.9-.25c-.31,0-.59.06-.87.05a9.06,9.06,0,0,0-1,0Z"/><path class="cls-33" d="M88.06,25.57a2.78,2.78,0,0,1-.83-.29,4.63,4.63,0,0,1-.58-.5,2.93,2.93,0,0,0-.67-.37,1.43,1.43,0,0,0-.77-.05l0-.07A1.46,1.46,0,0,1,86,24a2.51,2.51,0,0,1,.91.19,1.76,1.76,0,0,1,.8.45,1.42,1.42,0,0,1,.38.87Z"/><path class="cls-34" d="M87.5,29.72a1.68,1.68,0,0,0,.49-.63,4,4,0,0,0,.24-.76,7.13,7.13,0,0,0,.17-1.6h0a2.13,2.13,0,0,1,.24.83,2.78,2.78,0,0,1-.06.86,2.32,2.32,0,0,1-.35.81,1.1,1.1,0,0,1-.74.52Z"/><path class="cls-35" d="M87.28,30.4c-.2-1,.42-1.59,1,.26Z"/><path class="cls-36" d="M87.64,32.78a4.81,4.81,0,0,0,1.52.16l-.13.15a1.84,1.84,0,0,1-2.44.25A3.36,3.36,0,0,0,87.64,32.78Z"/><path class="cls-37" d="M86.59,33.34A1.84,1.84,0,0,0,89,33.09C88.44,35.2,86.63,35.06,86.59,33.34Z"/><path class="cls-38" d="M88.57,33.72a.2.2,0,0,1-.06.27.22.22,0,0,1-.28,0,.21.21,0,0,1,.06-.27C88.39,33.67,88.51,33.66,88.57,33.72Z"/><path class="cls-38" d="M86.72,32.27a4.67,4.67,0,0,0,2,.65.65.65,0,0,1-.16.37h0a4.19,4.19,0,0,1-1.31-.14c-.5-.17-.6-.4-.6-.4l.1-.43Z"/><path class="cls-39" d="M88.67,32.09a.94.94,0,0,1,.46.86h0l-.46,0a4.67,4.67,0,0,1-2-.65l-.12-.08h0l-.12-.1s.48-.47.77-.4a.66.66,0,0,1,.47.4A.84.84,0,0,1,88.67,32.09Z"/><path class="cls-40" d="M86.29,26.28a1,1,0,0,1-1.58,1,2.6,2.6,0,0,1-.4-1A2.9,2.9,0,0,1,86.29,26.28Z"/><path class="cls-41" d="M86.29,26.28a1,1,0,0,1-1.58,1,2.6,2.6,0,0,1-.4-1A2.9,2.9,0,0,1,86.29,26.28Z"/><path d="M85.5,26.38a.49.49,0,1,1-.48-.49A.49.49,0,0,1,85.5,26.38Z"/><path class="cls-38" d="M86.14,27a.32.32,0,0,1-.32.32.32.32,0,0,1,0-.64A.32.32,0,0,1,86.14,27Z"/><path class="cls-38" d="M87.84,27.91c-.82.89-2.37.49-3.13-.66a1,1,0,0,0,1.58-1A2.7,2.7,0,0,1,87.84,27.91Z"/><path class="cls-42" d="M87.38,28.25a1.48,1.48,0,0,0,.46-.34,2.7,2.7,0,0,0-1.55-1.63,2.76,2.76,0,0,0-1.53-.11A3.79,3.79,0,0,1,87.38,28.25Z"/><path class="cls-40" d="M92.11,27.28a1.11,1.11,0,0,1-1,1.71h0a1.47,1.47,0,0,1-.7-.77A2.75,2.75,0,0,1,92.11,27.28Z"/><path class="cls-43" d="M92.11,27.28a1.11,1.11,0,0,1-1,1.71h0a1.47,1.47,0,0,1-.7-.77A2.75,2.75,0,0,1,92.11,27.28Z"/><path class="cls-38" d="M92.41,28.24a.32.32,0,0,1-.64,0,.32.32,0,0,1,.64,0Z"/><path d="M91.72,28a.48.48,0,1,1-.48-.48A.47.47,0,0,1,91.72,28Z"/><path class="cls-38" d="M92.11,27.28a2.81,2.81,0,0,1,2.17.67,2.51,2.51,0,0,1-3.18,1A1.11,1.11,0,0,0,92.11,27.28Z"/><path class="cls-42" d="M93.78,28.43l.06.05a3.26,3.26,0,0,0,.44-.53,2.81,2.81,0,0,0-2.17-.67,2.75,2.75,0,0,0-1.72.94l0,.05A3.16,3.16,0,0,1,93.78,28.43Z"/><path class="cls-11" d="M95.66,49.5h0c-.14.25-3.78,5.83-14.34,7.91-4-.51-8,1-13.28.57l-.14-.13c-.6-1.65-1.41-1.87-1.61-2.65s-.58-.37-.39.3a2.58,2.58,0,0,1,.17.89c-2.25-1.6-3.93-2.14-4.08-2s1.43,1,2.37,1.57c.07,0,0,.18-.08.13a6.71,6.71,0,0,0-3.06-.81c-.13.48,2.08,1,2.86,1.4.16.07,0,.3-.13.22a6.57,6.57,0,0,0-2.48-.65c-.14.2,1.51.68,2.58,1.51.16.13,0,.22-.14.14-.89-.38-1.38-.77-1.57-.64-.45.31,2.49,2,5.7,2.05a31.08,31.08,0,0,0,13.51.78C88.66,59,93,57.5,98.06,52.32Z"/><path class="cls-44" d="M95.66,49.5h0c-.14.25-3.78,5.83-14.34,7.91-4-.51-8,1-13.28.57l-.14-.13c-.6-1.65-1.41-1.87-1.61-2.65s-.58-.37-.39.3a2.58,2.58,0,0,1,.17.89c-2.25-1.6-3.93-2.14-4.08-2s1.43,1,2.37,1.57c.07,0,0,.18-.08.13a6.71,6.71,0,0,0-3.06-.81c-.13.48,2.08,1,2.86,1.4.16.07,0,.3-.13.22a6.57,6.57,0,0,0-2.48-.65c-.14.2,1.51.68,2.58,1.51.16.13,0,.22-.14.14-.89-.38-1.38-.77-1.57-.64-.45.31,2.49,2,5.7,2.05a31.08,31.08,0,0,0,13.51.78C88.66,59,93,57.5,98.06,52.32Z"/><path class="cls-45" d="M95.67,49.49h0a14.75,14.75,0,0,1,2.83-7c1.39-1.79,5.34-1.65,6.81,1.54,2.32,5-1.62,8.52-7.24,8.27l-2.4-2.82Z"/><path class="cls-5" d="M98.2,47.19a6.73,6.73,0,0,0-1.52,3.31,7.65,7.65,0,0,0,3.15-3.23C100.53,45.76,98.79,46.5,98.2,47.19Z"/><path class="cls-5" d="M101.87,49.9a1.58,1.58,0,0,0-1-.44,3.19,3.19,0,0,0-1.61.46,9.22,9.22,0,0,0-1.93,1.53l.28.33a6.28,6.28,0,0,0,3.85-.52C102,51,102.47,50.41,101.87,49.9Z"/><path class="cls-17" d="M97.07,51.16a7.4,7.4,0,0,1,6-5.62,3.64,3.64,0,0,1,.57,0,2.92,2.92,0,0,1,1.08.14l.07,0,.16.06a3.07,3.07,0,0,1,1,.66,7.17,7.17,0,0,0-.66-2.33c-1.47-3.19-5.42-3.33-6.81-1.54a14.75,14.75,0,0,0-2.83,7h0Z"/><path class="cls-46" d="M94.45,28.06a2.65,2.65,0,0,1-.46.49,2.53,2.53,0,0,1-.55.37,2.6,2.6,0,0,1-1.24.29,2.56,2.56,0,0,0,1.14-.47,2.43,2.43,0,0,0,.44-.41,2.47,2.47,0,0,0,.33-.49Z"/><path class="cls-47" d="M90.37,28.2a2,2,0,0,1,.7-1,2.24,2.24,0,0,1,1.17-.48,2.54,2.54,0,0,1,1.28.17,2,2,0,0,1,.56.3,3,3,0,0,1,.47.4l0,0a2.66,2.66,0,0,0,.5.36,1.64,1.64,0,0,0,.3.14l.35.11,0,.06A1.92,1.92,0,0,1,94.25,28h0a2.88,2.88,0,0,0-2-.68,2.74,2.74,0,0,0-1.86.93Z"/><path class="cls-46" d="M88,28.06l-.1.08-.14.1a1.71,1.71,0,0,1-.27.14,1.92,1.92,0,0,1-.58.11,2.1,2.1,0,0,1-1.07-.29,2,2,0,0,0,1.05.09,1.5,1.5,0,0,0,.47-.19.9.9,0,0,0,.19-.15l.08-.08.15-.2Z"/><path class="cls-47" d="M87.88,28.14a3.34,3.34,0,0,0-1.47-1.75,2.85,2.85,0,0,0-1-.23,3.11,3.11,0,0,0-1,.16h0a1.46,1.46,0,0,1-1,0l0,0a1.8,1.8,0,0,0,.81-.32h0l0,0a3.93,3.93,0,0,1,.56-.24,3.31,3.31,0,0,1,.63-.1,2.89,2.89,0,0,1,.65.05,2.64,2.64,0,0,1,.61.23A2.5,2.5,0,0,1,88,28.06Z"/><path class="cls-48" d="M86.09,31.68a5.89,5.89,0,0,0,.9.41,9.24,9.24,0,0,0,.89.29l.93.25a9.12,9.12,0,0,1,1,.31v0a6.88,6.88,0,0,1-2-.21,4.36,4.36,0,0,1-.94-.4,2.44,2.44,0,0,1-.77-.66Z"/><path class="cls-3" d="M84.27,67l-1.19-3.83s4.16,2.65,14.27,0a11.09,11.09,0,0,1-.09,3.73S90.56,70.38,84.27,67Z"/><path class="cls-49" d="M87.13,64.24a10.12,10.12,0,0,1-4-1.08L84.27,67a12.1,12.1,0,0,0,3.38,1.22C87.44,66.89,87.25,65.56,87.13,64.24Z"/><path class="cls-50" d="M21.16,0a38,38,0,0,1,1,4.39c-1.6-.5-3.88.94-4.45,2.68A5.81,5.81,0,0,0,14.41,10c-1.34-1.57-2.15-5.53-2.15-5.53C16.26-.73,21.16,0,21.16,0Z"/><path class="cls-51" d="M21.75,2.26a5,5,0,0,0-4.84,4.25,7.38,7.38,0,0,0-3,2.77,4.3,4.3,0,0,0,.47.68,5.81,5.81,0,0,1,3.33-2.85c.57-1.74,2.85-3.18,4.45-2.68C22.19,4.43,22,3.37,21.75,2.26Z"/><path class="cls-52" d="M18.63.2a10.92,10.92,0,0,0-6.37,4.23s.81,4,2.15,5.53a5.13,5.13,0,0,1,1.8-2.05C14.28,3,15.46,1.49,18.63.2Z"/><path class="cls-53" d="M33.41,3a8.89,8.89,0,0,1-7,9.72C24,13.22,20,11.47,18.37,9.66h0a3.47,3.47,0,0,1-.57-.84,2.32,2.32,0,0,1-.06-1.7c.57-1.74,2.85-3.18,4.45-2.68,1.39.43,5.57,2.38,7.48,1.67A8,8,0,0,0,33.41,3Z"/><path class="cls-54" d="M29.69,7.22a5.19,5.19,0,0,0,3.56-1.29A9.87,9.87,0,0,0,33.41,3,8,8,0,0,1,29.67,6.1c-1.25.47-3.49-.22-5.27-.86A7.36,7.36,0,0,0,29.69,7.22Z"/><path class="cls-54" d="M26.87,11.76a5.94,5.94,0,0,1-3.59-1.64,6.91,6.91,0,0,1-1.63-5.41,6.85,6.85,0,0,0,.91,5.78,5.24,5.24,0,0,0,5.29,1.81l.29-.13Z"/><path class="cls-54" d="M21.45,9.74a7.67,7.67,0,0,1-.3-5.39,4.46,4.46,0,0,0-3.41,2.76,2.32,2.32,0,0,0,.06,1.7,3.47,3.47,0,0,0,.57.84h0a11.49,11.49,0,0,0,6.76,3.14A5.37,5.37,0,0,1,21.45,9.74Z"/><path class="cls-55" d="M18.37,9.65h0c-.05,3-4,5.35-4,5.35a6.85,6.85,0,0,1,.07-5,5.81,5.81,0,0,1,3.33-2.85,2.32,2.32,0,0,0,.06,1.7A3.47,3.47,0,0,0,18.37,9.65Z"/><path class="cls-54" d="M17.7,8.52a2.42,2.42,0,0,1,0-1.41A5.81,5.81,0,0,0,14.41,10,6.17,6.17,0,0,0,14,13.72,7.08,7.08,0,0,1,17.7,8.52Z"/><path class="cls-56" d="M18.37,9.66h0a3.47,3.47,0,0,1-.57-.84,2.32,2.32,0,0,1-.06-1.7l-.54.24a3.75,3.75,0,0,0,.53,4.41A4.34,4.34,0,0,0,18.37,9.66Z"/><polygon class="cls-57" points="34.83 41.9 34.83 44.13 28.9 45.33 28.25 42.86 34.83 41.9"/><path class="cls-57" d="M19.67,67.9s.49,7.6,0,9.54-8.83,2.71-9.35.39a76.17,76.17,0,0,1-.65-9.13S15.39,68.19,19.67,67.9Z"/><path class="cls-58" d="M43.6,147.81c.52.58-5.28.45-5.8.39s-.13-1.36-.13-1.36a16.71,16.71,0,0,1,3.23-.13S43.09,147.21,43.6,147.81Z"/><path class="cls-58" d="M24,148.58c.12.52-5.17.39-5.68.26s-.26-1.35-.26-1.35a18,18,0,0,0,2.84,0S23.87,148.07,24,148.58Z"/><path class="cls-11" d="M14.1,16a14.88,14.88,0,0,0-.31,3C10,16.42,12.77,13.59,14.1,16Z"/><path class="cls-15" d="M13.2,18,13.14,18a3.49,3.49,0,0,0-.36-2.13l0-.08a1.15,1.15,0,0,1,.64.32,1.06,1.06,0,0,1,.3.65,1.56,1.56,0,0,1-.15.71A2.56,2.56,0,0,1,13.2,18Z"/><path class="cls-13" d="M13.79,19a14.88,14.88,0,0,1,.31-3,2.24,2.24,0,0,0-.46-.59,3.31,3.31,0,0,0-.84,2.74A6.2,6.2,0,0,0,13.79,19Z"/><path class="cls-19" d="M26.45,12.73c.82,7,1.22,14.3-.13,14.92A6.5,6.5,0,0,1,23.9,28a10.65,10.65,0,0,1-8.28-3.86h0a12.25,12.25,0,0,1-1.52-2.32A11.45,11.45,0,0,1,13.79,19a14.88,14.88,0,0,1,.31-3,9.82,9.82,0,0,1,.24-1s4-2.32,4-5.35C20,11.47,24,13.22,26.45,12.73Z"/><path class="cls-59" d="M26.45,12.73c.82,7,1.22,14.3-.13,14.92A6.5,6.5,0,0,1,23.9,28a10.65,10.65,0,0,1-8.28-3.86h0a12.25,12.25,0,0,1-1.52-2.32A11.45,11.45,0,0,1,13.79,19a14.88,14.88,0,0,1,.31-3,9.82,9.82,0,0,1,.24-1s4-2.32,4-5.35C20,11.47,24,13.22,26.45,12.73Z"/><path class="cls-21" d="M26.45,12.73a8.74,8.74,0,0,1-4.83-.88,65.51,65.51,0,0,0,1.81,8.42c1.7.62,2,5.5,1.54,7.69a5,5,0,0,0,1.35-.31C27.67,27,27.27,19.77,26.45,12.73Z"/><path class="cls-22" d="M18.21,24.22C15.85,21.08,16,17.1,16.76,13a11.78,11.78,0,0,1-2.42,2,9.82,9.82,0,0,0-.24,1,14.88,14.88,0,0,0-.31,3,11.45,11.45,0,0,0,.31,2.83,12.25,12.25,0,0,0,1.52,2.32h0A10.49,10.49,0,0,0,22.3,27.9,11.85,11.85,0,0,1,18.21,24.22Z"/><path class="cls-13" d="M26.45,12.73C24,13.22,20,11.47,18.37,9.66c-.05,3-4,5.35-4,5.35l-.06.23A17.26,17.26,0,0,0,19.44,12c2.4,3.12,6.68,4.63,7.4,4.57C26.73,15.29,26.59,14,26.45,12.73Z"/><path class="cls-11" d="M24.05,28.81c0,3-8.43-.52-8.43-.52a6.75,6.75,0,0,0,0-4.13A10.65,10.65,0,0,0,23.9,28,2.53,2.53,0,0,1,24.05,28.81Z"/><path class="cls-60" d="M24.05,28.81c0,3-8.43-.52-8.43-.52a6.75,6.75,0,0,0,0-4.13A10.65,10.65,0,0,0,23.9,28,2.53,2.53,0,0,1,24.05,28.81Z"/><path class="cls-13" d="M24.05,28.81A2.53,2.53,0,0,0,23.9,28a10.65,10.65,0,0,1-8.28-3.86,10.15,10.15,0,0,1,.26,1.18,11.88,11.88,0,0,0,7.4,4.54A1.05,1.05,0,0,0,24.05,28.81Z"/><path class="cls-61" d="M49.19,44.13l5.21,3.62c-6.72,3.7-12.83,3.64-18.16,1.17C36.13,42.14,36,36.23,36,33.58,39.12,40.57,44.41,44.13,49.19,44.13Z"/><path class="cls-51" d="M36,36c0,3.1.13,7.76.21,12.94,5.33,2.47,11.44,2.53,18.16-1.17l-.65-.45C45.55,50.06,37.36,46.85,36,36Z"/><path class="cls-14" d="M40.9,146.71a16.71,16.71,0,0,0-3.23.13c-4.52-13.15-11.48-43.86-12.38-50s-1.94-9.93-2.58-5.68c-1.54,10.16-1.81,56.38-1.81,56.38a18,18,0,0,1-2.84,0C14.45,133.29,10.19,95.76,9.67,83c3.77.28,15.67.88,26.08-2C36.14,104.09,40.9,146.71,40.9,146.71Z"/><path class="cls-62" d="M15.07,83.21c-2.37,0-4.26-.16-5.4-.24.52,12.79,4.78,50.32,8.39,64.52,0,0,.27,0,.74,0A341,341,0,0,1,15.07,83.21Z"/><path class="cls-62" d="M23.91,88.6a1.91,1.91,0,0,1-.28.88c.52.74,1.11,3.58,1.66,7.31.9,6.19,7.86,36.9,12.38,50.05,0,0,.38-.06.95-.1C32.62,129.26,27.31,88,23.91,88.6Z"/><path class="cls-63" d="M9.67,83c0,.57.06,1.21.09,1.88A40.39,40.39,0,0,1,36,88.61c-.12-2.71-.2-5.28-.24-7.64C25.34,83.85,13.44,83.25,9.67,83Z"/><path class="cls-50" d="M35.75,81c-10.41,2.88-22.31,2.28-26.08,2-.78-.06-1.22-.11-1.22-.11-.42-6.93-2.56-22.18-3.66-33L2.59,37.31a25.37,25.37,0,0,1,13-9s8.44,3.55,8.43.52c0,0,7,.64,11.94,4.77,0,2.65.14,8.56.25,15.34.23,14,.53,31.75.53,31.75Zm-.92-36.84V41.9l-6.58,1,.65,2.47ZM19.67,77.44c.49-1.94,0-9.54,0-9.54-4.28.29-10,.8-10,.8a76.17,76.17,0,0,0,.65,9.13C10.84,80.15,19.18,79.38,19.67,77.44Z"/><path class="cls-50" d="M36.24,48.92C36.13,42.14,36,36.23,36,33.58c-3.9-3.29-9.17-4.37-11.15-4.67-.43,4.15-.86,8.32-1.5,12.5a77,77,0,0,1-8.27-13A25.91,25.91,0,0,0,2.59,37.31l2.2,12.51c1.1,10.86,3.24,26.11,3.66,33,0,0,.44,0,1.22.11,3.77.28,15.67.88,26.08-2l1-.3S36.47,63,36.24,48.92ZM19.67,77.44c-.49,1.94-8.83,2.71-9.35.39a76.17,76.17,0,0,1-.65-9.13s5.72-.51,10-.8C19.67,67.9,20.16,75.5,19.67,77.44ZM34.83,44.13l-5.93,1.2-.65-2.47,6.58-1Z"/><path class="cls-51" d="M35.75,81l1-.3s-.26-15.77-.49-29.34c-2.81.35-5.6.66-8.29,1a28.43,28.43,0,0,1-18.57-4c.63,6.76,1.33,13.49,2.19,20.18,2.05-.17,5.34-.45,8.06-.63,0,0,.49,7.6,0,9.54-.32,1.25-3.9,2-6.54,1.78.21,1.32.42,2.64.64,4C19.19,83.34,27.89,83.14,35.75,81Z"/><path class="cls-51" d="M36,34.05a33.94,33.94,0,0,0-6-1.28,30.61,30.61,0,0,0-5.58-.08c-.31,2.9-.65,5.81-1.1,8.72-1.84-2.46-3.65-5-5.29-7.59A34.41,34.41,0,0,0,3.46,42.26l1.33,7.56v0C13.32,57.52,25,61.8,36.48,63.11c-.08-4.62-.16-9.6-.24-14.19C36.14,42.52,36.05,36.88,36,34.05ZM34.83,44.13l-5.93,1.2-.65-2.47,6.58-1Z"/><path class="cls-14" d="M24.84,28.91c-.5-.08-.79-.1-.79-.1,0,3-8.43-.52-8.43-.52l-.55.15a77,77,0,0,0,8.27,13C24,37.23,24.41,33.06,24.84,28.91Z"/><g class="cls-64"><path class="cls-65" d="M18.51,19.29a2.33,2.33,0,0,1-3.11.95,2.33,2.33,0,0,1-1.62-2.82,2.32,2.32,0,0,1,3.11-.94A2.32,2.32,0,0,1,18.51,19.29Z"/><path class="cls-66" d="M29.35,16.3a2.32,2.32,0,0,1-1.08,3.06A2.32,2.32,0,0,1,25,19a2.33,2.33,0,0,1,1.08-3.06A2.32,2.32,0,0,1,29.35,16.3Z"/></g><path class="cls-67" d="M48.28,35a1.11,1.11,0,0,1-.34,1.65,3.94,3.94,0,0,1-3.53-3.31A4.61,4.61,0,0,1,48.28,35Z"/><path class="cls-68" d="M48.28,35a4,4,0,0,0-2.6-1.54,3.51,3.51,0,0,1,1.9,2.74c0,.13,0,.25,0,.36l.38.09A1.11,1.11,0,0,0,48.28,35Z"/><path class="cls-69" d="M58.1,47.75a27,27,0,0,1-.29,4.2,32.12,32.12,0,0,0-.36-4A3.76,3.76,0,0,0,58.1,47.75Z"/><path class="cls-69" d="M60.52,31.69s0,.11,0,.3h0c-.86-.18-2.29.43-3.68,1.64a3.93,3.93,0,0,0-.68-.47h0C57.32,31.26,60.52,31.69,60.52,31.69Z"/><path class="cls-67" d="M60.48,32h0a4.7,4.7,0,0,1-2.38,3.57,2.19,2.19,0,0,1-1.3-1.93C58.19,32.42,59.62,31.81,60.48,32Z"/><path class="cls-68" d="M59.63,32a7,7,0,0,0-2.83,1.61,2.27,2.27,0,0,0,.81,1.62C57.44,34.13,58.48,32.88,59.63,32Z"/><path class="cls-69" d="M56.8,58s3.68-.48,3.45,1.26-4.39.89-5.58-.58a11.17,11.17,0,0,0,3-5.9C59.32,52.48,58.26,56.8,56.8,58Z"/><path class="cls-70" d="M55.67,59.45a20.64,20.64,0,0,0,1.21-2,8.16,8.16,0,0,0,1-2.58c.08-.52.32-1.63-.11-2.09h-.12a11.17,11.17,0,0,1-3,5.9A3.25,3.25,0,0,0,55.67,59.45Z"/><path class="cls-71" d="M57.49,57.94c-.24.61-.12,1,.37,1.25a3,3,0,0,0,1.06.24,4,4,0,0,0,1.33-.16v0C60.42,58,58.54,57.9,57.49,57.94Z"/><path class="cls-72" d="M59,58.43s0,0,0,0a2.79,2.79,0,0,1,1.21.39.78.78,0,0,0-.23-.38A1.17,1.17,0,0,0,59,58.43Z"/><path class="cls-72" d="M59.08,59a1.17,1.17,0,0,0,.05.2,2.63,2.63,0,0,1,1.07.13l0,0v0a.22.22,0,0,0,0-.08,3,3,0,0,0-1.19-.31A.36.36,0,0,0,59.08,59Z"/><path class="cls-69" d="M56.78,44.72l-.24-1.17h0a8.4,8.4,0,0,0,.91-.34c4.18-1,3.07,3.34.65,4.55a3.76,3.76,0,0,1-.65.24C55.83,48.35,55.43,46.37,56.78,44.72Z"/><path class="cls-69" d="M58.1,35.56S60.52,40.78,57,41.9a10.79,10.79,0,0,1-7.68,0c-1.3-.3-2.09-.82-1.41-5.26A15.28,15.28,0,0,0,48.28,35a4.61,4.61,0,0,0-3.87-1.66,5.7,5.7,0,0,1,4.94.78,6.25,6.25,0,0,1,6.77-1,3.93,3.93,0,0,1,.68.47A4.13,4.13,0,0,1,58.1,35.56Z"/><path class="cls-70" d="M56.17,35.39a6.19,6.19,0,0,1,1.56-.66,5.07,5.07,0,0,0-.37-.52A5.35,5.35,0,0,0,55.16,36a4.39,4.39,0,0,0-.41.81A3.64,3.64,0,0,1,56.17,35.39Z"/><path class="cls-70" d="M58.1,35.56a2.8,2.8,0,0,0-.26-.63,5,5,0,0,0-1.54.68,4.11,4.11,0,0,0-1.85,3.09,2.85,2.85,0,0,1,3,2.63,1.8,1.8,0,0,1,0,.4C60.31,40.35,58.1,35.56,58.1,35.56Z"/><path class="cls-73" d="M49.35,34.11h0a7.82,7.82,0,0,0-1.53,3.5c-.42,3.55.34,4,1.54,4.3l.66.23A6.49,6.49,0,0,1,49.49,41a7.25,7.25,0,0,1-.4-2.67,5.72,5.72,0,0,0,.47,3.41c.07.15-.15.27-.22.13-1.3-2.68-.28-6.7,2.44-8.14a9,9,0,0,1,3.1-1A6.39,6.39,0,0,0,49.35,34.11Z"/><path class="cls-73" d="M56.12,33.16,55.71,33a7.25,7.25,0,0,0-3.55.81A5.43,5.43,0,0,0,50.68,35a6.68,6.68,0,0,1,4.58-1.49,7.94,7.94,0,0,1,1.58.2l0,0A3.93,3.93,0,0,0,56.12,33.16Z"/><path class="cls-73" d="M56.56,42.07a1.76,1.76,0,0,0,.06-.4,2.06,2.06,0,0,0-.56-1.79c-.58-.46-2.71-1-3.29-.25a.3.3,0,0,1-.38.08,2.7,2.7,0,0,0-.88,2.58c0,.07.05.14.07.2A11,11,0,0,0,56.56,42.07Z"/><path class="cls-71" d="M52.39,34.76a4.42,4.42,0,0,0,0,.63c0,.45.08.89.15,1.33.12.82.21,1.74.4,2.56A1.6,1.6,0,0,0,54.68,39a2.36,2.36,0,0,0,.18-1.79,8.47,8.47,0,0,0-1-2.66C53.46,33.75,52.43,33.76,52.39,34.76Z"/><path class="cls-71" d="M54.2,35.06c.17.43.33.87.47,1.3A10.09,10.09,0,0,0,54.2,35.06Z"/><path class="cls-71" d="M54.49,38A16.42,16.42,0,0,0,53,34a.73.73,0,0,0-.58.78,4.28,4.28,0,0,0,0,.62A12.45,12.45,0,0,1,53.54,38a.19.19,0,0,1-.37.1,11.19,11.19,0,0,0-.68-1.72,3.11,3.11,0,0,0,0,.32c.12.82.21,1.74.4,2.56A1.6,1.6,0,0,0,54.68,39a.93.93,0,0,0,0-.1C54.66,38.56,54.58,38.25,54.49,38Z"/><path class="cls-74" d="M57.66,52.77a11.17,11.17,0,0,1-3,5.9,4.12,4.12,0,0,1-3.2.44h0c5.57-3.84,1.78-8.32-.45-6a15.69,15.69,0,0,0,.84-4.84c.67.34,1.42.05,1.79-1.15a4.23,4.23,0,0,0-.29-3,12.28,12.28,0,0,0,3.19-.5l.24,1.17c-1.35,1.65-1,3.63.67,3.27a32.12,32.12,0,0,1,.36,4h0Q57.75,52.38,57.66,52.77Z"/><path class="cls-71" d="M56.3,54.48a13.78,13.78,0,0,1-3.43,3.83,9.09,9.09,0,0,1-1.21.85,4,4,0,0,0,3-.49,11.17,11.17,0,0,0,3-5.9q.09-.39.15-.81h0c0-.58-.05-1.17-.09-1.71A11.32,11.32,0,0,1,56.3,54.48Z"/><path class="cls-71" d="M55.25,54.51a9.58,9.58,0,0,1-1,1.78,10.64,10.64,0,0,0,1.87-2.69,11.42,11.42,0,0,0,1-3.16C56.55,51.85,55.86,53.22,55.25,54.51Z"/><path class="cls-75" d="M51.23,52.22c-.06.27-.14.55-.22.84,2.23-2.27,6,2.21.45,6h0a4.83,4.83,0,0,0,1.75.11C56.12,57.63,56.12,50.67,51.23,52.22Z"/><path class="cls-75" d="M56.63,44l-.09-.45a12.28,12.28,0,0,1-3.19.5,4.23,4.23,0,0,1,.29,3c-.37,1.2-1.12,1.49-1.79,1.15,0,0,0,.16,0,.39a1.82,1.82,0,0,0,1.81.06c1.13-.38,1.56-2.48,1-4.09A4.28,4.28,0,0,0,56.63,44Z"/><path class="cls-76" d="M57,41.9l.42,1.3a8.4,8.4,0,0,1-.91.34h0a12.28,12.28,0,0,1-3.19.5c-.64-1.24-1.85-1.8-3.07-.22l-.05,0a6.56,6.56,0,0,1-.79-.17,4.72,4.72,0,0,1-.48-.13,4.69,4.69,0,0,1,.39-1.59A10.79,10.79,0,0,0,57,41.9Z"/><path class="cls-77" d="M50.43,42.24a9,9,0,0,1-1.08-.34A4.69,4.69,0,0,0,49,43.49a4.72,4.72,0,0,0,.48.13l.58.13A11.64,11.64,0,0,1,50.43,42.24Z"/><path class="cls-69" d="M51,53.06c2.23-2.27,6,2.21.45,6h0c.18.12,3.64,2.31,2.46,3.82-.76,1-2.48-.12-3.46-1.48a2.55,2.55,0,0,1-.65-2.34,2.78,2.78,0,0,1-.87-.64c-1.31-1.38-2.63-4.81,0-11.37a1.16,1.16,0,0,0,2.06.28,2.18,2.18,0,0,0,.84.84h0A15.69,15.69,0,0,1,51,53.06Z"/><path class="cls-73" d="M53.23,55.66a2.83,2.83,0,0,0-1.4-3.12,1.45,1.45,0,0,0-.26.11c1.85.59,1.59,3.22.77,5.21A5.28,5.28,0,0,0,53.23,55.66Z"/><path class="cls-73" d="M52.35,52.45a3,3,0,0,1,1.3,2.48,5.74,5.74,0,0,1-1.28,3.47C55.73,55.48,54.18,52.45,52.35,52.45Z"/><path class="cls-71" d="M53.93,62.93c.59-.75,0-1.68-.72-2.43a1.82,1.82,0,0,0-.58-.25c-1.25-.26-.82,2-.49,2.73C52.84,63.37,53.52,63.45,53.93,62.93Z"/><path class="cls-72" d="M52.66,62.73c.22.2.44.38.66.55a1,1,0,0,0,.25-.07,9.67,9.67,0,0,0-.73-.8A1.26,1.26,0,0,0,52.66,62.73Z"/><path class="cls-72" d="M53.75,61.88l-.24,0a7.48,7.48,0,0,0,.51.86,1.53,1.53,0,0,0,.11-.27C54,62.32,53.88,62.11,53.75,61.88Z"/><path class="cls-70" d="M49.56,52.59a12.47,12.47,0,0,0,1.88-1.24,11.38,11.38,0,0,0,.41-3.13h0a2.18,2.18,0,0,1-.84-.84A1.16,1.16,0,0,1,49,47.1a19.51,19.51,0,0,0-1.5,6.11A5.52,5.52,0,0,0,49.56,52.59Z"/><path class="cls-69" d="M53.35,44.05a4.23,4.23,0,0,1,.29,3c-.37,1.2-1.12,1.49-1.79,1.15h0a2.18,2.18,0,0,1-.84-.84A1.16,1.16,0,0,1,49,47.1a4,4,0,0,1,.49-3.48,6.56,6.56,0,0,0,.79.17l.05,0C51.5,42.25,52.71,42.81,53.35,44.05Z"/><path class="cls-69" d="M51.85,69.41c1.6,4.55.24,5.81-.84,5.42-4.25-1.53-4.53-13-2.06-16.36a2.78,2.78,0,0,0,.87.64,2.55,2.55,0,0,0,.65,2.34h0C50.59,64.62,50.25,64.86,51.85,69.41Z"/><path class="cls-74" d="M48.49,70.39c-.23-.28-.48-.59-.73-.92q.1.54.24,1a4.88,4.88,0,0,0,2.5,1.7A8.28,8.28,0,0,1,48.49,70.39Z"/><path class="cls-74" d="M51,74.83l.12,0a1.23,1.23,0,0,0,.65-.61,1.82,1.82,0,0,0,.11-1.67,3.64,3.64,0,0,1-.66,0,5.07,5.07,0,0,1-3.07-1.5C48.75,72.92,49.69,74.35,51,74.83Z"/><path class="cls-70" d="M49.94,62.51a14.48,14.48,0,0,0,.6,1.74c0-.78,0-1.56-.08-2.8h0a2.55,2.55,0,0,1-.65-2.34,2.17,2.17,0,0,1-.56-.36c0,.13,0,.25,0,.38A13.86,13.86,0,0,0,49.94,62.51Z"/><path class="cls-70" d="M49.35,62.92a14.07,14.07,0,0,1-.76-3.84,7,7,0,0,0-.48,1.13,8.25,8.25,0,0,0,1.36,3.08Z"/><path class="cls-78" d="M22.19,13.71c-.55,1.09-.39,6.36,0,6.66S24.9,20,24.51,19,22.61,12.89,22.19,13.71Z"/><path class="cls-79" d="M24.31,18.82c-.3-.79-1.45-4.66-1.79-4.12a35.45,35.45,0,0,1,1.11,5.05C24.08,19.55,24.46,19.23,24.31,18.82Z"/><path class="cls-80" d="M22,23.18a5.41,5.41,0,0,1-1.54-.24l.13-.39a4.16,4.16,0,0,0,2.56,0l.16.37A3.24,3.24,0,0,1,22,23.18Z"/><path class="cls-81" d="M19,14.65c-.55,0-.82,2.38,0,2.4S20,14.55,19,14.65Z"/><path class="cls-82" d="M19,14.65c-.55,0-.82,2.38,0,2.4S20,14.55,19,14.65Z"/><path class="cls-38" d="M19.12,15.85a.41.41,0,1,1-.81,0,.41.41,0,1,1,.81,0Z"/><path class="cls-81" d="M25.07,14.65c-.54,0-.81,2.38,0,2.4S26.09,14.55,25.07,14.65Z"/><path class="cls-83" d="M25.07,14.65c-.54,0-.81,2.38,0,2.4S26.09,14.55,25.07,14.65Z"/><path class="cls-38" d="M25.13,15.86a.39.39,0,0,1-.39.4.4.4,0,0,1-.4-.4.39.39,0,0,1,.4-.39A.38.38,0,0,1,25.13,15.86Z"/><path class="cls-84" d="M16.12,15c1.43-1.81,4-3.06,4.37-2.2,0,0,.63,1.26,0,1.36A11,11,0,0,0,16.12,15Z"/><path class="cls-84" d="M26.9,13.77c-.42-.79-2.64-1.53-2.9-1s0,1.49.56,1.29A4.29,4.29,0,0,1,26.9,13.77Z"/><path class="cls-85" d="M50.36,50a2.79,2.79,0,0,0,.21.35C15.35,66.09,0,46.3,0,44.16c0-4.52,3.53-9.28,7.36-9.81C8.21,36,14.1,41.58,23.2,45.09c7.18,2.78,26.46,1.39,26.46,1.39a9.59,9.59,0,0,0,.08,1.27A6.74,6.74,0,0,0,50.36,50Z"/><path class="cls-52" d="M3.53,39.64c3.41-.89,6,.84,8.56,2.9,6.82,5.48,16.18,7.24,24.73,6.38a55.28,55.28,0,0,0,11.71-2.36c-4.24.24-19.2.9-25.33-1.47C14.1,41.58,8.21,36,7.36,34.35c-3.19.44-6.2,3.83-7.09,7.56A6.05,6.05,0,0,1,3.53,39.64Z"/><path class="cls-11" d="M55.9,48.77c-.32,0-.31-.19,0-.25,2.17-.53,3.92-1.65,3.61-1.78-.47-.21-2.22.74-3.56.94a.19.19,0,0,1-.1-.37c.8-.29,3.61-1.1,3.47-1.5s-2.77.77-3.9.51c-.23,0-.11-.16.12-.18.89-.09,3-.39,3.18-.66a33.67,33.67,0,0,0-4.27-.11c-1.19,0-2.92,1.61-4.66,2.38A6.74,6.74,0,0,0,50.36,50l.1,0c3.57.69,8.78-1.29,8.29-1.63S57.09,48.65,55.9,48.77Z"/><path d="M56.59,35.83a3.71,3.71,0,0,1,2-.18A3.21,3.21,0,0,1,57.94,37C57.14,37.22,56.33,36.92,56.59,35.83Z"/><path class="cls-86" d="M56.59,35.83c-.26,1.09.55,1.39,1.35,1.18a2.85,2.85,0,0,1-2.85.68A2.54,2.54,0,0,1,56.59,35.83Z"/><path class="cls-87" d="M56.59,35.83c-.26,1.09.55,1.39,1.35,1.18a2.85,2.85,0,0,1-2.85.68A2.54,2.54,0,0,1,56.59,35.83Z"/><path class="cls-38" d="M57.14,36.73a.34.34,0,1,1-.67,0,.34.34,0,1,1,.67,0Z"/><path class="cls-88" d="M58.49,35.85h.08l.06-.2a3.71,3.71,0,0,0-2,.18,2.52,2.52,0,0,0-1.49,1.83A5.16,5.16,0,0,1,58.49,35.85Z"/><path class="cls-86" d="M51.85,38.39a2.81,2.81,0,0,1-3.35-1.63,3.19,3.19,0,0,1,2.21-.37C50.05,37.46,50.82,38.17,51.85,38.39Z"/><path class="cls-89" d="M51.85,38.39a2.81,2.81,0,0,1-3.35-1.63,3.19,3.19,0,0,1,2.21-.37C50.05,37.46,50.82,38.17,51.85,38.39Z"/><path d="M52.91,38a2.9,2.9,0,0,1-1.06.4c-1-.22-1.8-.93-1.14-2A3.49,3.49,0,0,1,52.91,38Z"/><path class="cls-38" d="M50.8,37.16a.34.34,0,1,1-.33-.34A.34.34,0,0,1,50.8,37.16Z"/><path class="cls-88" d="M52.83,38l.08,0a3.49,3.49,0,0,0-2.2-1.6,3.19,3.19,0,0,0-2.21.37,1.08,1.08,0,0,0,.08.19A6.5,6.5,0,0,1,52.83,38Z"/><path class="cls-90" d="M53.93,40a3,3,0,0,0,.74.42,1,1,0,0,1-1.51.07A2.37,2.37,0,0,0,53.93,40Z"/><path class="cls-72" d="M53.42,40.53a.54.54,0,0,1,.84-.16.76.76,0,0,1,.19.21,1.08,1.08,0,0,0,.22-.21,3,3,0,0,1-.74-.42,2.37,2.37,0,0,1-.77.49l.23.16Z"/><path class="cls-91" d="M54.4,38.44a1.86,1.86,0,0,1-.38.65c-.26-.35-.45-.53-.53-.64s0-.14.53-.22C54.34,38.18,54.42,38.29,54.4,38.44Z"/><path class="cls-74" d="M54.4,38.44c.51,0,1.61.25,1.61,1.08a.9.9,0,0,1-1.34.85,3,3,0,0,1-.74-.42,2.37,2.37,0,0,1-.77.49,1.55,1.55,0,0,1-1.45,0c-.7-.46.1-2.12,1.78-2,.08.11.27.29.53.64A1.86,1.86,0,0,0,54.4,38.44Z"/><path class="cls-71" d="M53.35,38.9a.83.83,0,0,0-.28-.45c-1.39.13-2,1.54-1.36,2a1.19,1.19,0,0,0,.35.15C52.71,40.39,53.54,39.58,53.35,38.9Z"/><path class="cls-71" d="M55.77,39.69a1.14,1.14,0,0,0-1.51-.92l-.09.12c-.24.62.35,1,.62,1.17S55.84,40.25,55.77,39.69Z"/><path class="cls-72" d="M54.12,39.79c0-.23-.06-.47-.1-.7h0c-.13-.17-.24-.3-.33-.4a1.89,1.89,0,0,1-.15,1.25A.94.94,0,0,1,54.12,39.79Z"/><path class="cls-92" d="M55.07,37.68a2.05,2.05,0,0,1,.24-1.2,2.16,2.16,0,0,1,.93-.89,2.54,2.54,0,0,1,1.22-.28,2.26,2.26,0,0,1,1.17.32v0a3.5,3.5,0,0,0-2.21.28,2.44,2.44,0,0,0-.85.72,2.94,2.94,0,0,0-.46,1Z"/><path class="cls-93" d="M58.66,35.66A2,2,0,0,1,58.54,37a2.11,2.11,0,0,1-.37.58,2.76,2.76,0,0,1-.56.45,2.31,2.31,0,0,1-1.35.27,2,2,0,0,1-1.18-.53l0-.06a3.9,3.9,0,0,0,1.13.1,2.51,2.51,0,0,0,1.08-.32,2.3,2.3,0,0,0,.82-.76,3.91,3.91,0,0,0,.47-1Z"/><path class="cls-93" d="M48.53,36.75a2.56,2.56,0,0,0,.73,1,2.69,2.69,0,0,0,1.15.53,3.61,3.61,0,0,0,1.27,0A3.08,3.08,0,0,0,52.9,38l0,0a2,2,0,0,1-1.18.83,3,3,0,0,1-1.47.08,3.67,3.67,0,0,1-.72-.27,2.27,2.27,0,0,1-.61-.49,1.79,1.79,0,0,1-.48-1.39Z"/><path class="cls-92" d="M52.9,38a3.66,3.66,0,0,0-2-1.51,3,3,0,0,0-1.24-.1,2.93,2.93,0,0,0-1.19.39l0,0a2.17,2.17,0,0,1,1.17-.68,2.66,2.66,0,0,1,1.4,0,2.75,2.75,0,0,1,1.19.72A2.71,2.71,0,0,1,52.93,38Z"/><path class="cls-69" d="M56.78,44.72l-.24-1.17h0a8.4,8.4,0,0,0,.91-.34c4.18-1,3.07,3.34.65,4.55a3.76,3.76,0,0,1-.65.24C55.83,48.35,55.43,46.37,56.78,44.72Z"/><path class="cls-74" d="M59.21,43.51a5.84,5.84,0,0,0-2.78,1.72c-.9,1.52-.44,3.08,1,2.76a3.76,3.76,0,0,0,.65-.24c1.72-.86,2.78-3.3,1.73-4.27A1.67,1.67,0,0,0,59.21,43.51Z"/><path class="cls-71" d="M57.25,46.5A4.58,4.58,0,0,1,60,43.7a.79.79,0,0,0-.19-.22,1.67,1.67,0,0,0-.62,0,5.84,5.84,0,0,0-2.78,1.72c-.9,1.52-.44,3.08,1,2.76A1.5,1.5,0,0,1,57.25,46.5Z"/><path class="cls-72" d="M57.73,47.22l-.12-.11a2.57,2.57,0,0,1-1.24.66.9.9,0,0,0,.42.22A3.31,3.31,0,0,0,57.73,47.22Z"/><path class="cls-72" d="M57,46a6.72,6.72,0,0,0-1,.83c0,.21,0,.22.06.4.33-.39.63-.83,1-1.19Z"/><path class="cls-74" d="M53.35,44.05c-.64-1.24-1.85-1.8-3.07-.22A6.23,6.23,0,0,0,51,47.38a2.18,2.18,0,0,0,.84.84h0c.67.34,1.42.05,1.79-1.15A4.23,4.23,0,0,0,53.35,44.05Z"/><path class="cls-71" d="M53.14,46.15c0-.81-.33-2.09-1.17-2.47a1.47,1.47,0,0,0-1.71.36A6.18,6.18,0,0,0,51,47.38a2.18,2.18,0,0,0,.84.84h0a1.19,1.19,0,0,0,.54.13A2.82,2.82,0,0,0,53.14,46.15Z"/><path class="cls-72" d="M52.11,48.32c-.13-.33-.23-.67-.36-1l-.19,0a3.76,3.76,0,0,0,.27.94h0A1.17,1.17,0,0,0,52.11,48.32Z"/><path class="cls-72" d="M52.84,47.37c0,.3,0,.6-.07.9l.13-.07a5.06,5.06,0,0,1,.25-.91Z"/></g></g></g></svg>