<svg xmlns="http://www.w3.org/2000/svg" xmlns:xlink="http://www.w3.org/1999/xlink" viewBox="0 0 132.86 152.3"><defs><style>.cls-1,.cls-32,.cls-34,.cls-44,.cls-46,.cls-50,.cls-51,.cls-55,.cls-62,.cls-66{mix-blend-mode:hard-light;}.cls-1{fill:url(#linear-gradient);}.cls-2{isolation:isolate;}.cls-3{fill:#895540;}.cls-4{fill:#bfa38e;}.cls-16,.cls-30,.cls-33,.cls-36,.cls-4,.cls-40,.cls-45,.cls-53,.cls-64,.cls-8,.cls-9{mix-blend-mode:multiply;}.cls-5{fill:#52372c;}.cls-10,.cls-13,.cls-15,.cls-17,.cls-19,.cls-22,.cls-29,.cls-39,.cls-42,.cls-5,.cls-52{mix-blend-mode:screen;}.cls-6{fill:#ed872d;}.cls-7{fill:#f58989;}.cls-8{fill:#e6bcbc;}.cls-9{fill:#e0bfa6;}.cls-10{fill:#4a3727;}.cls-11{fill:#fca15e;}.cls-12{fill:#d16c32;}.cls-13{fill:#6e4629;}.cls-14{fill:#b04f4f;}.cls-15{fill:#522727;}.cls-16{fill:#f5cbcb;}.cls-17{fill:#8a4242;}.cls-18{fill:#bf571b;}.cls-19{fill:#7d4515;}.cls-20{fill:#b05c1f;}.cls-21{fill:#de6d6d;}.cls-23{fill:#fff;}.cls-24{fill:#6c8d8e;}.cls-25{fill:#82aaab;}.cls-26{fill:#a7dadb;}.cls-27{fill:#eaa494;}.cls-28{fill:#7ec1a9;}.cls-29{fill:#394a44;}.cls-30{fill:#d5f0e6;}.cls-31{fill:#47374d;}.cls-32{fill:url(#linear-gradient-2);}.cls-33{fill:#e8d6cc;}.cls-34{fill:url(#linear-gradient-3);}.cls-35{fill:#92d4be;}.cls-36{fill:#94819c;}.cls-37{fill:#9be0c9;}.cls-38{fill:#aa4811;}.cls-39{fill:#451d07;}.cls-40{fill:#d9c5ba;}.cls-41{fill:#bbf2de;}.cls-42{fill:#76998c;}.cls-43{fill:#873308;}.cls-44{fill:url(#linear-gradient-4);}.cls-45{fill:#baa9a0;}.cls-46{fill:url(#linear-gradient-5);}.cls-47{fill:#354045;}.cls-48{fill:#fac4a6;}.cls-49{clip-path:url(#clip-path);}.cls-50{fill:url(#radial-gradient);}.cls-51{fill:url(#radial-gradient-2);}.cls-52{fill:#804728;}.cls-53{fill:#f5f0ed;}.cls-54{fill:#67a08a;}.cls-55{fill:url(#linear-gradient-7);}.cls-56{fill:#ed7070;}.cls-57{fill:#e24d4d;}.cls-58{fill:#874545;}.cls-59{fill:#ffe6db;}.cls-60{fill:#cf9b84;}.cls-61{fill:#208b8e;}.cls-62{fill:url(#linear-gradient-8);}.cls-63{fill:#d1a88a;}.cls-64{fill:#d3e3e3;}.cls-65{fill:#362014;}.cls-66{fill:url(#linear-gradient-9);}.cls-67{fill:#663f30;}.cls-68{fill:#995d50;}.cls-69{fill:#a64b17;}</style><linearGradient id="linear-gradient" x1="28.72" y1="26.78" x2="25.33" y2="15.37" gradientUnits="userSpaceOnUse"><stop offset="0" stop-color="#ffd4c2"/><stop offset="1" stop-color="gray"/></linearGradient><linearGradient id="linear-gradient-2" x1="31.58" y1="108.91" x2="33.42" y2="127.24" gradientUnits="userSpaceOnUse"><stop offset="0" stop-color="#a86d65"/><stop offset="1" stop-color="gray"/></linearGradient><linearGradient id="linear-gradient-3" x1="17.83" y1="106.95" x2="16.81" y2="121.62" xlink:href="#linear-gradient-2"/><linearGradient id="linear-gradient-4" x1="29.71" y1="25.29" x2="31.49" y2="17.6" gradientUnits="userSpaceOnUse"><stop offset="0" stop-color="#c98a40"/><stop offset="1" stop-color="gray"/></linearGradient><linearGradient id="linear-gradient-5" x1="28.59" y1="32.19" x2="27.11" y2="23.53" gradientUnits="userSpaceOnUse"><stop offset="0" stop-color="#ffdfc2"/><stop offset="1" stop-color="gray"/></linearGradient><clipPath id="clip-path"><path class="cls-1" d="M30.21,10.58c2.3,8,.56,10.88-.3,13.34q-.43,0-.87,0a11.32,11.32,0,0,1-4.07-1,9.93,9.93,0,0,1-4.1-3.48,12.85,12.85,0,0,1-1.57-3.12,6.45,6.45,0,0,1,1.78-6.18A10.07,10.07,0,0,0,30.21,10.58Z"/></clipPath><radialGradient id="radial-gradient" cx="-162.82" cy="-162.98" r="2.02" gradientTransform="matrix(1.23, 0.27, -0.22, 0.98, 186.86, 222.85)" gradientUnits="userSpaceOnUse"><stop offset="0" stop-color="#d6625a"/><stop offset="1" stop-color="gray"/></radialGradient><radialGradient id="radial-gradient-2" cx="-448.73" cy="688.75" r="2.02" gradientTransform="matrix(0.7, -1.04, 0.83, 0.56, -224.56, -837.66)" xlink:href="#radial-gradient"/><linearGradient id="linear-gradient-7" x1="21.02" y1="33.13" x2="14.04" y2="16.78" xlink:href="#linear-gradient-4"/><linearGradient id="linear-gradient-8" x1="31.05" y1="14.85" x2="29.01" y2="13.37" gradientUnits="userSpaceOnUse"><stop offset="0" stop-color="#fff"/><stop offset="1"/></linearGradient><linearGradient id="linear-gradient-9" x1="24.58" y1="18.06" x2="23" y2="15.2" xlink:href="#linear-gradient-8"/></defs><g class="cls-2"><g id="Layer_2" data-name="Layer 2"><g id="Layer_1-2" data-name="Layer 1"><path class="cls-3" d="M132.51,24.62c1.44.68-1.47,14.23-9.37,13.43,1.66-3.29,1.09-4.87,0-6.4C127.69,31.89,131.68,24.23,132.51,24.62Z"/><path class="cls-4" d="M123.09,31.65c1.14,1.53,1.71,3.11,0,6.4a6.18,6.18,0,0,0,2.25-.18,2.41,2.41,0,0,0,.13-.41A8.13,8.13,0,0,0,124,31.59,4.9,4.9,0,0,1,123.09,31.65Z"/><path class="cls-4" d="M132.51,24.62c-.25-.12-.79.5-1.55,1.41a5.55,5.55,0,0,1,1.85.71C132.93,25.59,132.83,24.77,132.51,24.62Z"/><path class="cls-4" d="M129.89,27.3a3.45,3.45,0,0,1,1,.47,10.42,10.42,0,0,1,1.44,1.2c.12-.45.22-.88.3-1.28a5.35,5.35,0,0,0-2.29-1Z"/><path class="cls-4" d="M130.33,28.8a3.12,3.12,0,0,0-1.39-.43l-.21.22a12.15,12.15,0,0,1,2.88,2.64q.19-.48.36-1A7.62,7.62,0,0,0,130.33,28.8Z"/><path class="cls-4" d="M128.27,29.05a12.68,12.68,0,0,1-1.44,1.23,12.77,12.77,0,0,1,2.35,5,14.53,14.53,0,0,0,2.13-3.42A11.43,11.43,0,0,0,128.27,29.05Z"/><path class="cls-4" d="M125.55,31.08a9.65,9.65,0,0,1,1.48,6.1c.25-.15.49-.32.73-.49.18-1.89-.93-3.91-2.19-5.62Z"/><path class="cls-5" d="M132.79,25.12c-.06-.26-.15-.44-.28-.5-.83-.39-4.82,7.27-9.42,7a5,5,0,0,1,1,2.18C128.36,33.21,131.57,29.23,132.79,25.12Z"/><path class="cls-3" d="M106.9,9.17c.64.66-5.38,7-3.59,11.24-1.06.4-3.75,1.65-4.56,4.2C91.35,16.71,105.67,7.91,106.9,9.17Z"/><path class="cls-5" d="M101,21.18c-2.48-4.67,1.25-9.94,5.65-12.12-2.33-.27-14.89,8-7.86,15.55a6.08,6.08,0,0,1,2.42-3.07A3.35,3.35,0,0,1,101,21.18Z"/><path class="cls-4" d="M106.9,9.17c-.4-.41-2.2.25-4.19,1.61a8.3,8.3,0,0,1,3.11.7C106.57,10.26,107.11,9.39,106.9,9.17Z"/><path class="cls-4" d="M100.35,12.69l-.49.48.28-.05a7,7,0,0,1,4.1.45l.35,0c.1-.19.2-.38.31-.56A8.11,8.11,0,0,0,100.35,12.69Z"/><path class="cls-4" d="M99.33,14.38c-.23,0-.45.12-.67.18s-.23.32-.34.49a12.36,12.36,0,0,1,1.49-.77Z"/><path class="cls-4" d="M96.8,18.37a7.73,7.73,0,0,0-.15,1.06,8.16,8.16,0,0,1,6.82-3.34,8.53,8.53,0,0,1,.32-.84h-.13A10.56,10.56,0,0,0,96.8,18.37Z"/><path class="cls-4" d="M103.07,17.58c0-.13.05-.26.08-.39A7.68,7.68,0,0,0,96.77,21q.08.33.18.66A8,8,0,0,1,103.07,17.58Z"/><path class="cls-4" d="M101,18.92a6.1,6.1,0,0,0-3.55,3.95,8.79,8.79,0,0,0,1.28,1.74c.81-2.55,3.5-3.8,4.56-4.2a4.78,4.78,0,0,1-.33-2A7.42,7.42,0,0,0,101,18.92Z"/><path class="cls-6" d="M99.17,25.92c-.08.25-.17.51-.27.77C90,30.6,90,22.8,86.86,22.81c-1.5.58-1.29,3.17-1.29,3.17-.53-1.83-.34-5.12,1.94-6.11C89.09,19.19,89.36,26.26,99.17,25.92Z"/><path class="cls-7" d="M98.9,26.69a28.65,28.65,0,0,1-1.15,2.67h0A9.3,9.3,0,0,1,96,30.66a8.79,8.79,0,0,1-3.36,1c-3.59.4-6-2.16-7-5.7,0,0-.21-2.59,1.29-3.17C90,22.8,90,30.6,98.9,26.69Z"/><path class="cls-8" d="M93.3,29.9a8.31,8.31,0,0,0,4.23-.34,2.09,2.09,0,0,0,.22-.2h0a28.65,28.65,0,0,0,1.15-2.67C90,30.6,90,22.8,86.86,22.81a2.16,2.16,0,0,0-1.18,1.69l.13.05c1.77,1.24,3.32,3,4.93,4.4A8.79,8.79,0,0,0,93.3,29.9Z"/><path class="cls-8" d="M92.86,30.34l-.38-.12a5.45,5.45,0,0,0,2.7.81c.26-.11.52-.23.78-.37l.44-.26A7.84,7.84,0,0,1,92.86,30.34Z"/><path class="cls-8" d="M90.52,29.19a1.88,1.88,0,0,0,1,1.83,4.76,4.76,0,0,0,3.18.18A7.7,7.7,0,0,0,96,30.66a9.3,9.3,0,0,0,1.79-1.3h0a28.65,28.65,0,0,0,1.15-2.67c-3.43,1.51-5.53,1.27-7,.41A2.42,2.42,0,0,0,90.52,29.19Z"/><path class="cls-6" d="M128.23,44.23c1.7,1.35,5.39,2.66,3.82,5.51-1.21,2.18-5.73,1.66-7.87.8a12.79,12.79,0,0,1-3.32-1.95,9.58,9.58,0,0,1-2.21-2.51,6.64,6.64,0,0,1-.89-2.44c-.36-2.38.39-6.08,3.1-6.18h0a8,8,0,0,0,2.28.59s0,0,0,0C126.17,39,125.8,42.3,128.23,44.23Z"/><path class="cls-9" d="M120,37.64a7.1,7.1,0,0,0,.37,5.6c1.34,2.36,4.87,3.31,7,1.41A4.21,4.21,0,0,0,128,44c-2.15-2-1.92-5-4.86-5.91,0,0,0,0,0,0a8,8,0,0,1-2.28-.59h0A2.76,2.76,0,0,0,120,37.64Z"/><path class="cls-10" d="M119.9,38.57a9.09,9.09,0,0,0,.15,9.23l.17.22c.21.2.42.39.64.57a12.79,12.79,0,0,0,3.32,1.95c2,.8,6,1.29,7.54-.36a10.49,10.49,0,0,1-4.28-.5C125.8,49.07,118.16,45.05,119.9,38.57Z"/><path class="cls-11" d="M99.17,25.92q.12-.34.21-.69c-.23-.2-.44-.42-.63-.62.81-2.55,3.5-3.8,4.56-4.2a4.45,4.45,0,0,1,.43-.16,3.48,3.48,0,0,0,3.2,1.79C115.5,21,118,25.87,119,28s3.82,3.31,3.82,3.31l.23.3c1.14,1.53,1.71,3.11,0,6.4a8,8,0,0,1-2.28-.59h0c-2.71.1-3.46,3.8-3.1,6.18a6.64,6.64,0,0,0,.89,2.44c-4.18,4.88-12.16,7.69-14.92,8.55.84-5.34-6.15-6.24-7.86-7.38s-2.23-6-5.86-6a72.65,72.65,0,0,0,7.74-11.85h0a28.65,28.65,0,0,0,1.15-2.67C99,26.43,99.09,26.17,99.17,25.92Z"/><path class="cls-12" d="M117.36,25.3a2.38,2.38,0,0,1-1.26.57c-1,.17-1.87-.64-2.65-.48-2.35.47-1.1,3.34-2.83,4.28-2.45,1.34-4.52-1.25-4.09-3.8.17-1,.6-2.48.77-3.87C112.79,21.42,115.72,23.33,117.36,25.3Z"/><path class="cls-12" d="M118.66,38.67l0,0a7.37,7.37,0,0,0-.93,5,6.64,6.64,0,0,0,.89,2.44c-3.36,3.93-9.2,6.52-12.78,7.82a13.36,13.36,0,0,0-.31-2c-.35-1.08-1.55-2.07-2.1-3.09a5.69,5.69,0,0,1,.45-6.54A20.45,20.45,0,0,0,106.79,39c.72-1.24,1.26-2.61,2-3.85,1.32-2.26,6.19-5.57,8.28-2.35.8,1.22.27,2.56.33,3.82A3.1,3.1,0,0,0,118.66,38.67Z"/><path class="cls-13" d="M105.27,21.73a4.1,4.1,0,0,1-1.53-1.48,4.45,4.45,0,0,0-.43.16,8.06,8.06,0,0,0-4.26,3.48C101.07,24.63,103.84,23.27,105.27,21.73Z"/><path class="cls-13" d="M95.85,43.54a16,16,0,0,1-1.83,1c.29.54.55,1.07.83,1.53a13.57,13.57,0,0,0,1.23-1.16,33.81,33.81,0,0,0,3.47-4.17A24.58,24.58,0,0,1,95.85,43.54Z"/><path class="cls-13" d="M123.09,31.65l-.23-.3S120.06,30.21,119,28s-3.29-6.54-10.8-6.11a8.17,8.17,0,0,1-4.46,3.9,8.5,8.5,0,0,1-4.61.1c-.08.25-.17.5-.27.76a28.65,28.65,0,0,1-1.15,2.67h0A72.65,72.65,0,0,1,90,41.21a3.86,3.86,0,0,1,3.31,2.06,14.5,14.5,0,0,0,2.9-1.69,44.15,44.15,0,0,0,5.83-5.19l.11-.12a27.8,27.8,0,0,1,1.54-2.49c1.17-1.66,2.66-3.45,4.75-3.91,4.13-.89,7.88,2.06,11.91,2.36a7.72,7.72,0,0,0,2.91-.34Z"/><path class="cls-9" d="M123.09,31.65l-.23-.3S120.06,30.21,119,28a10.91,10.91,0,0,0-2.91-4A24.8,24.8,0,0,1,119,38.33a2.63,2.63,0,0,1,1.87-.87h0a8,8,0,0,0,2.28.59C124.8,34.76,124.23,33.18,123.09,31.65Z"/><path class="cls-9" d="M117.69,42.12a19.28,19.28,0,0,1-3.46,4.49,8.88,8.88,0,0,1-8.5,2.08c-2.23-.76-5.64-1.3-7.73-3-2.82-2.33-4.33-5.79-7.59-5l-.4.51c3.63,0,4.08,4.86,5.86,6s8.7,2,7.86,7.38c2.76-.86,10.74-3.67,14.92-8.55a6.64,6.64,0,0,1-.89-2.44A7.53,7.53,0,0,1,117.69,42.12Z"/><path class="cls-14" d="M87.87,54.39c3.27,3.55,6.45,4.72,9.09,4.66C93.48,61.74,87.41,59.43,87.87,54.39Z"/><path class="cls-15" d="M87.87,54.39a5.08,5.08,0,0,0,3.07,5.23,5.93,5.93,0,0,1-1.55-3.75A20.88,20.88,0,0,1,87.87,54.39Z"/><path class="cls-7" d="M87.87,54.39a.1.1,0,0,0,0,0,10,10,0,0,1-2.27-4c-1.34-4.58,1.09-9.14,4.45-9.14,3.63,0,4.08,4.86,5.86,6s8.7,2,7.86,7.38c-.27,1.7-3,4.33-6.77,4.42C94.32,59.11,91.14,57.94,87.87,54.39Z"/><path class="cls-16" d="M98.49,48.34c.22.4.43.8.61,1.21,1.42,3.11,1.16,6.68-2.76,7.53a9.67,9.67,0,0,1-8-2.17c3.09,3.14,6.08,4.19,8.59,4.14,3.8-.09,6.5-2.72,6.77-4.42C104.32,50.89,101.07,49.33,98.49,48.34Z"/><path class="cls-17" d="M87.28,45.24c.64-1.25,1.89-2.43,3.39-2a2.69,2.69,0,0,1,.92.44,6,6,0,0,1,1.5,1.42,17.66,17.66,0,0,0,1.63,2.42c1,.95,2.53,1.24,3.79,1.69a9.72,9.72,0,0,1,2.87,1.5,9.1,9.1,0,0,1,2.42,2.92c-.08-4.5-6.33-5.35-7.93-6.42-1.78-1.18-2.23-6-5.86-6-3.36,0-5.79,4.56-4.45,9.14a10,10,0,0,0,2.27,4,.1.1,0,0,1,0,0,19.78,19.78,0,0,0,2.5,2.29C87.4,53.88,85.26,49.15,87.28,45.24Z"/><path class="cls-6" d="M120.86,48.59c1.63,15.25-5.47,37.27-5.27,47.42.14,7.36-2.43,14.93-4.4,19.33a26.7,26.7,0,0,1-1.8,3.45c-1.23,1.78-4.24,5.19-9.37,3.45A13.22,13.22,0,0,1,97,120.71a17.87,17.87,0,0,0-5.57-2.58c5.75-8.68-2.92-10.29-11.22-8.14-1.8,1-3.37,3.53-4,7.32-3.3,0-7.26-.07-12.11-.24-5.94-.2-11.36-.47-16.26-.66C35.65,116,26.68,116,21,118.88a13.5,13.5,0,0,0-2.05,1.25c-7.47,5.55-11.49,18-7.66,27.57,0,0-3.26,1.34-4.21,0S0,132,4.36,117.64c0,0-5.26-32.54-1.58-47.29C7.47,51.58-.75,56.59,7.23,50.13c3.63-2.94,12.63,1.79,25.46,0s42.43-2.29,52.87.22a10,10,0,0,0,2.27,4,.1.1,0,0,1,0,0c-.46,5,5.61,7.35,9.09,4.66,3.8-.09,6.5-2.72,6.77-4.42,2.76-.86,10.74-3.67,14.92-8.55A9.58,9.58,0,0,0,120.86,48.59Z"/><path class="cls-18" d="M9.17,118.41c.73,2.18,2.43,3.26,1.88,6s-3.55,3.32-5.2,5.48c-2.3,3-2.4,6.53-1.64,10-1.44-5.78-2.38-14,.15-22.26,0,0-.37-2.26-.84-5.87a3.29,3.29,0,0,1,4.44.55C9.71,114.27,8.45,116.27,9.17,118.41Z"/><path class="cls-18" d="M52.79,93.06c1,3.7-2.53,7-2.69,10.53-.08,1.91.31,4-1.28,5.38-2.14,1.87-6.26.81-8.48-.35-4.16-2.18-6-5.83-11.05-6.56-3.91-.58-9.56-.44-8.09-5.75.93-3.4,11.32-3.21,16.47-5C42,89.85,50.85,86,52.79,93.06Z"/><path class="cls-18" d="M78.26,58c3.91,2.66,6.21,6.33,2.87,10.9-3.63,5-9.77,3.23-14.17,6.28s-4.58,8.8-11.73,7.66c-5.86-.94-9-6.35-13.54-9.58C35.77,69,31.53,71.65,26.18,74.77c-3.59,2.09-8.2.62-11.49,2.85-3.84,2.6-4,8.23-7.07,11.12-1.47,1.41-3.79,1.42-6.06.74-.25-7.12,0-14.14,1.22-19.13C7.47,51.58-.75,56.59,7.23,50.13c3.63-2.94,12.63,1.79,25.46,0,9.38-1.31,27.71-1.93,41-1.19a8.65,8.65,0,0,1,1.38,2.65C76.08,54.82,75.22,55.89,78.26,58Z"/><path class="cls-18" d="M92,90.71c1.39-1.66,5.53,0,3.6,1.82C94.15,93.87,90.08,93,92,90.71Z"/><path class="cls-18" d="M103.08,102.46c2.39,1.34,4.93,5.75.89,7.18-3.07,1.08-5.42-2.57-7.14-4.24-2.42-2.35-4.41-1-7.3-1-1.94-.06-4.54-1.54-3-4C89.74,95.18,99.56,100.46,103.08,102.46Z"/><path class="cls-18" d="M116.07,62.15c1.07-3.53,2.3-4.54,4.94-5.28C120.28,71,115.42,87.59,115.59,96a35.52,35.52,0,0,1-.36,5.55h0a6.37,6.37,0,0,1-4.47-1.78c-1.55-1.4-2-3.26-2.86-5-.82-1.6-1.76-1.81-3.18-2.81a7.61,7.61,0,0,1-3.17-6.07c-.33-6.54,3.35-10.6,7.91-14.68C112.74,68.28,114.78,66.44,116.07,62.15Z"/><path class="cls-9" d="M110.9,63.24c.06-3.74-.45-7.45-.67-11.17l-.3.14c1.26,15-3.29,23.49-6.19,35.1-.1.35-.19.72-.28,1.09,1.66-3.85,3.32-7.7,4.67-11.68A44.85,44.85,0,0,0,110.9,63.24Z"/><path class="cls-9" d="M94.1,114.46c2.6.51,5.34.24,7.09-1.92a16.68,16.68,0,0,0,3.39-8.93,19.8,19.8,0,0,0-1.18-8.13c-.28.72-.57,1.45-.84,2.18C102.2,105,101.6,112.38,94.1,114.46Z"/><path class="cls-9" d="M120.86,48.59a9.58,9.58,0,0,1-2.21-2.51,22.39,22.39,0,0,1-5.79,4.6c.17,4.43,1,8.87.71,13.31A50.86,50.86,0,0,1,111,76.78c-1.79,5.3-4.12,10.39-6.27,15.55A20.27,20.27,0,0,1,106.61,106c-.71,3.27-2.25,8.22-5.52,9.89a11.85,11.85,0,0,1-8.74.63,16.5,16.5,0,0,1-1,1.65A17.87,17.87,0,0,1,97,120.71a13.22,13.22,0,0,0,3.06,1.53c5.13,1.74,8.14-1.67,9.37-3.45a26.7,26.7,0,0,0,1.8-3.45c2-4.4,4.54-12,4.4-19.33C115.39,85.86,122.49,63.84,120.86,48.59Z"/><path class="cls-19" d="M87.87,54.39a.1.1,0,0,0,0,0,10,10,0,0,1-2.27-4c-10.44-2.51-40-2-52.87-.22s-21.83-2.94-25.46,0C2.54,53.92,3.44,53.76,4,56.78c.42,2.12.69,5.82-1.25,13.57C-.9,85.1,4.36,117.64,4.36,117.64,0,132,6.08,146.36,7,147.7c.55.79,1.89.66,2.91.41a62.78,62.78,0,0,1-3.6-11.9c-1.22-7.34,3.26-20.38,3.26-20.38a92.5,92.5,0,0,1-3.08-29.1A56,56,0,0,1,6.47,71.1C7,67.53,8.78,64.38,10,61c3-8.29,39.79,1,57.84-3.4,6.12-1.63,11.82,1.22,17.52,2A9,9,0,0,0,90,59.09,5,5,0,0,1,87.87,54.39Z"/><path class="cls-9" d="M93.2,112.7c.21,1.36-.3,3.15-1.81,5.43a17.75,17.75,0,0,1,5.39,2.46C96.18,117.47,95.31,114.59,93.2,112.7Z"/><path class="cls-9" d="M55.37,48.68a27.92,27.92,0,0,1-5.1,1.88A13.22,13.22,0,0,1,42,49.23c-3.58.24-6.79.55-9.33.9a44,44,0,0,1-6.71.41C23.29,69.91,20.84,89,16.54,109.31A39.31,39.31,0,0,0,16,122.79a19.46,19.46,0,0,1,2.88-2.66A13.5,13.5,0,0,1,21,118.88a17.62,17.62,0,0,1,2.94-1.14,25.78,25.78,0,0,1,.38-3.71c2.06-.31,4.21-.72,6.31-1.07.13,1.18.28,2.35.47,3.52,2.77-.24,5.86-.3,9.28-.26-.24-1.7-.43-3.38-.61-5.08,1.87-.39,3.74-1,5.61-1.28-1.48-16.63-2.4-33.25-7.64-49.19,6.81,2.68,14.54,2.71,20-3.11a12.9,12.9,0,0,0,3.16-8.94C59,48.63,57.2,48.64,55.37,48.68Z"/><path class="cls-9" d="M120.86,48.59a9.58,9.58,0,0,1-2.21-2.51c-4.18,4.88-12.16,7.69-14.92,8.55-.27,1.7-3,4.33-6.77,4.42-3.48,2.69-9.55.38-9.09-4.66a.1.1,0,0,0,0,0,10,10,0,0,1-2.27-4c-.45-.11-.93-.21-1.45-.31.73,1.41,1.43,2.73,2,4.14-1.07,3.21-.23,7.09,2.55,8.68,9.5,4.36,18.63-2.84,25.87-8.11A64.5,64.5,0,0,0,121,57.33,53.72,53.72,0,0,0,120.86,48.59Z"/><path class="cls-20" d="M113.87,145.21h-2.68c-8.8-6.89-11.17-23-11.17-23,5.13,1.74,8.14-1.67,9.37-3.45a26.7,26.7,0,0,0,1.8-3.45C108.32,130.46,113.87,145.21,113.87,145.21Z"/><path class="cls-9" d="M107.48,130.81a46.52,46.52,0,0,0,4.6,11.05c.45.78.93,1.57,1.44,2.35-1.16-3.56-4.75-16.08-2.33-28.87a26.7,26.7,0,0,1-1.8,3.45,10.45,10.45,0,0,1-2.68,2.72C106.81,124.63,106.66,127.78,107.48,130.81Z"/><path class="cls-9" d="M110.39,122.93a47.75,47.75,0,0,1,.8-7.59,26.7,26.7,0,0,1-1.8,3.45c-1.23,1.78-4.24,5.19-9.37,3.45A54.21,54.21,0,0,0,102,130.1C105.57,129,108.44,126.11,110.39,122.93Z"/><path class="cls-6" d="M80.17,110c8.3-2.15,17-.54,11.22,8.14-8.51,12-1.38,28.43-1.38,28.43l-3.87.43c-9-12.45-11-23-9.94-29.68C76.8,113.52,78.37,111,80.17,110Z"/><path class="cls-12" d="M80,125.22s0,0,0-.07a17.23,17.23,0,0,1,.17-1.89.41.41,0,0,1,0-.11l0-.22a25.63,25.63,0,0,1,1.45-5.6c.12-.31.26-.65.41-1l.66-1.78a10.16,10.16,0,0,0,.78-4.55,2.63,2.63,0,0,0-.15-.63,29,29,0,0,0-3.19.64c-1.8,1-3.37,3.53-4,7.32-.63,4-.19,9.34,2.18,15.65a5.46,5.46,0,0,0,1.36-1.9C80.46,129.2,79.9,127.24,80,125.22Z"/><path class="cls-12" d="M85.19,111.7a4.82,4.82,0,0,0,2.53,3c1.13.59,2.8,1,4,.27a4.65,4.65,0,0,0,1.54-1.67c0-3.17-3.44-4.36-7.78-4.15A3.82,3.82,0,0,0,85.19,111.7Z"/><path class="cls-9" d="M91.39,118.13a8.88,8.88,0,0,0,1.85-5c-4.08.21-6.79,4.28-8.13,7.83A27.56,27.56,0,0,0,84,137a21.51,21.51,0,0,0,5.06,9.64l.94-.1S82.88,130.1,91.39,118.13Z"/><path class="cls-21" d="M46.16,121.33c4.87,3.55,1.43,4.12-1.33,2.11A14.28,14.28,0,0,0,46.16,121.33Z"/><path class="cls-21" d="M46.16,121.33a14.28,14.28,0,0,1-1.33,2.11,12.68,12.68,0,0,1-3.95,3.44A12.92,12.92,0,0,1,38.07,128q-.3.09-.6.15a14.9,14.9,0,0,1-5.76.17,15.72,15.72,0,0,1-2-.47h0a8.52,8.52,0,0,1-1-.33A14,14,0,0,1,24.47,125a11,11,0,0,1-2-2.31,9.65,9.65,0,0,1-1.5-3.84c5.72-2.86,14.69-2.92,26.87-2.47h0A18.39,18.39,0,0,1,46.16,121.33Z"/><path class="cls-16" d="M37.59,120.74A20.2,20.2,0,0,1,45,123.15a13.61,13.61,0,0,0,1.12-1.82,18.39,18.39,0,0,0,1.67-4.91h0C35.65,116,26.68,116,21,118.88A9.55,9.55,0,0,0,22,122,37.46,37.46,0,0,1,37.59,120.74Z"/><path class="cls-20" d="M45.26,147a4.6,4.6,0,0,1-3.59,0,54,54,0,0,1-11.06-16.47,15.52,15.52,0,0,0,1.1-2.16,14.9,14.9,0,0,0,5.76-.17q.39.65.72,1.14A39.59,39.59,0,0,0,45.26,147Z"/><path class="cls-9" d="M45.26,147a4.6,4.6,0,0,1-3.59,0,54,54,0,0,1-11.06-16.47,15.52,15.52,0,0,0,1.1-2.16,14.9,14.9,0,0,0,5.76-.17q.39.65.72,1.14A39.59,39.59,0,0,0,45.26,147Z"/><path class="cls-21" d="M40.88,126.88c.71,3.15.21,6.68-2.69,2.45-.1-.83-.12-1.29-.12-1.29A12.92,12.92,0,0,0,40.88,126.88Z"/><path class="cls-21" d="M29.68,127.89h0a8.52,8.52,0,0,1-1-.33c-.24,2.91.3,5.41,1.9,3a15.52,15.52,0,0,0,1.1-2.16A15.72,15.72,0,0,1,29.68,127.89Z"/><path class="cls-21" d="M22.46,122.72a11,11,0,0,0,2,2.31c-5,5.48-5.37,1.8-2-2.3Z"/><g class="cls-22"><path class="cls-23" d="M87.16,52a.4.4,0,0,1-.37-.23,7.2,7.2,0,0,1-.61-5.67.4.4,0,1,1,.76.28,6.63,6.63,0,0,0,.58,5,.41.41,0,0,1-.18.55A.39.39,0,0,1,87.16,52Z"/></g><g class="cls-22"><path class="cls-23" d="M88,43.93a.39.39,0,0,1-.31-.15.4.4,0,0,1,0-.57,3.88,3.88,0,0,1,1.16-.69.41.41,0,0,1,.3.76,3.09,3.09,0,0,0-.93.55A.42.42,0,0,1,88,43.93Z"/></g><path d="M55.57,56.47l-.53-.3c.24-.45.48-.94.71-1.45l.56.25C56.08,55.5,55.83,56,55.57,56.47Z"/><path class="cls-24" d="M57.92,53.19c-.31,1.31-1.16,2.24-1.89,2.06s-1.07-1.38-.75-2.69,1.16-2.24,1.89-2.06S58.23,51.88,57.92,53.19Z"/><path class="cls-25" d="M57.24,53c-.29,1.2-1.07,2-1.73,1.89s-1-1.27-.69-2.47,1.06-2.05,1.73-1.88S57.53,51.76,57.24,53Z"/><path class="cls-26" d="M55.82,52.67c-.16.66-.58,1.12-.94,1s-.54-.69-.38-1.34.58-1.12.94-1S56,52,55.82,52.67Z"/><path class="cls-27" d="M67.2,47.89c-.17,0-.16-.12.11-.2a4.3,4.3,0,0,1,2,.06c.77.63,1.7.76,1.74.62s-.74-.68-1.29-1.21a13.38,13.38,0,0,0-2.66-.58c-.75-.13-2.37.62-5.09,1.11a4.56,4.56,0,0,1-.35.77c2.94,0,6.14-.06,9,0A14.92,14.92,0,0,1,67.2,47.89Z"/><path class="cls-28" d="M62.19,46.74a3,3,0,0,1-.16.83,4.31,4.31,0,0,1-.38.85c-4.12,0-8.23.15-12.2.32v.1c-11.28-1.66-15.76-6.29-15.76-6.29a20.05,20.05,0,0,0,.9-4.51c.07-3-4.3-8-6.08-10,0,0,3.39-.07,5.45,1.9S44.71,44.41,62.19,46.74Z"/><path class="cls-29" d="M37.45,33.81A20.93,20.93,0,0,1,37.24,37a16.69,16.69,0,0,0,7.07,4.63c-1.68,1.61,1,3,1,3,4,1.78,10.15,1.61,14.8,1.78A41.9,41.9,0,0,1,37.45,33.81Z"/><path class="cls-30" d="M28.5,28.08c1.79,1.94,6.15,7,6.08,10a20.05,20.05,0,0,1-.9,4.51,14.48,14.48,0,0,0,2.87,2.08C37.72,38.43,34.73,31.9,28.5,28.08Z"/><path class="cls-31" d="M38.17,150a22.49,22.49,0,0,0,3.49,1.41,27.12,27.12,0,0,1-6.3,0,3.33,3.33,0,0,1-.16-1.7C35.32,149.77,37.6,150.89,38.17,150Z"/><path class="cls-31" d="M18.71,150.59A15.45,15.45,0,0,0,22,152.15a36.68,36.68,0,0,1-6.43,0,4.22,4.22,0,0,1,.23-2.16C16.47,150.92,18.82,151.21,18.71,150.59Z"/><path class="cls-27" d="M38.17,150c-.57.9-2.85-.22-3-.29a8.7,8.7,0,0,1,.16-1c-3.41-6.65-6.57-25-7-37.76a60.07,60.07,0,0,0,7-.14,243.5,243.5,0,0,0,.87,37.9A9.29,9.29,0,0,0,38.17,150Z"/><path class="cls-32" d="M38.17,150c-.57.9-2.85-.22-3-.29a8.7,8.7,0,0,1,.16-1c-3.41-6.65-6.57-25-7-37.76a60.07,60.07,0,0,0,7-.14,243.5,243.5,0,0,0,.87,37.9A9.29,9.29,0,0,0,38.17,150Z"/><path class="cls-33" d="M28.4,111c0,1,.08,2,.14,3a33.57,33.57,0,0,0,6.85-2.34c0-.27,0-.54,0-.81A60.07,60.07,0,0,1,28.4,111Z"/><path class="cls-27" d="M21.62,110.37c-1.36,7.6-4.13,24.79-4.31,38.92a5,5,0,0,0,1.4,1.3c.11.62-2.24.33-3-.6a4.25,4.25,0,0,1,.31-.7S10.4,127,14.23,108.89A63.5,63.5,0,0,0,21.62,110.37Z"/><path class="cls-34" d="M21.62,110.37c-1.36,7.6-4.13,24.79-4.31,38.92a5,5,0,0,0,1.4,1.3c.11.62-2.24.33-3-.6a4.25,4.25,0,0,1,.31-.7S10.4,127,14.23,108.89A63.5,63.5,0,0,0,21.62,110.37Z"/><path class="cls-33" d="M21.62,110.37a63.5,63.5,0,0,1-7.39-1.48c-.31,1.46-.56,3-.75,4.46a27.61,27.61,0,0,1,7.91-1.69C21.47,111.21,21.54,110.78,21.62,110.37Z"/><path class="cls-35" d="M37,57.49c6,16.29,3.87,48.61,3.87,48.61-1.15.2-2.29.37-3.43.5a61.46,61.46,0,0,1-8.17.36c2-19.6,2.25-40.65,2.65-50.68A19.17,19.17,0,0,0,37,57.49Z"/><path class="cls-29" d="M37,57.49a18.5,18.5,0,0,1-1.86-.28A168.65,168.65,0,0,1,37,106.64l.44,0c1.14-.13,2.28-.3,3.43-.5C40.91,106.1,43,73.78,37,57.49Z"/><path class="cls-30" d="M37.47,58.73c-.14-.42-.28-.83-.43-1.24a19.22,19.22,0,0,1-4.59-1h0L32,56.28l0,.8c0,.13,0,.26,0,.39s0,.24,0,.36c0,.33,0,.68,0,1v.06h0c-.36,10.78-.73,30-2.56,48h.87c.5-3.13.92-6.27,1.22-9.43.7-7.38.75-14.75,1-22.14.22-5.47.5-11,.19-16.44A33.9,33.9,0,0,0,37.47,58.73Z"/><path class="cls-31" d="M28.4,111a64.89,64.89,0,0,1-6.78-.61,63.5,63.5,0,0,1-7.39-1.48c-1.52-.4-2.37-.7-2.37-.7s.53-2.48.79-3.61A73,73,0,0,0,29.31,107a61.46,61.46,0,0,0,8.17-.36c-.11,2.08-.4,4.09-.4,4.09l-1.64.15A60.07,60.07,0,0,1,28.4,111Z"/><path class="cls-36" d="M29.31,107a73,73,0,0,1-16.66-2.38c-.26,1.13-.79,3.61-.79,3.61s.85.3,2.37.7l.18,0a71.36,71.36,0,0,0,23-1.16c0-.38.06-.78.08-1.18A61.46,61.46,0,0,1,29.31,107Z"/><path class="cls-35" d="M32,26.83c1.35,1.46,4.66,5.28,4.61,7.55a15.28,15.28,0,0,1-.68,3.42,35.54,35.54,0,0,0-1.73,11h0c-.52-.37-1-.76-1.56-1.18h0s-.17-3.56-.17-7.47a29.26,29.26,0,0,0-.75-3.33,74.06,74.06,0,0,0-.3-10.59h0Z"/><path class="cls-30" d="M33.29,48.18c-.16-1.91-.16-3.86-.18-5.78,0-2.86-.08-5.78-.37-8.62a25.94,25.94,0,0,0-.67-5c-.18-.61-.4-1.21-.61-1.8a75.07,75.07,0,0,1,.23,9.84,29.26,29.26,0,0,1,.75,3.33c0,3.91.17,7.47.17,7.47h0Z"/><path class="cls-37" d="M32.61,47.63h0a25.91,25.91,0,0,1-9.73-18.28s-5-.52-7.7,3.68a9.68,9.68,0,0,1,2.23-2.89h0A22.69,22.69,0,0,1,21.81,27c1.55.77,7.37,4.18,10.63,13.14C32.44,44.07,32.61,47.63,32.61,47.63Z"/><path class="cls-30" d="M23.14,31.38A25.79,25.79,0,0,0,32.6,47.64h0s-.09-1.8-.13-4.25A35.11,35.11,0,0,1,23.14,31.38Z"/><path class="cls-30" d="M32,39.06c-3.32-8.13-8.72-11.3-10.21-12,0,0-.27.14-.69.39A38.08,38.08,0,0,1,32,39.06Z"/><path class="cls-38" d="M30.21,10.58a10.07,10.07,0,0,1-9.13-.44,11.61,11.61,0,0,1-2-1.41A5.18,5.18,0,0,1,25,4.13a4.76,4.76,0,0,1,2.36,1,5.31,5.31,0,0,0,5.57.68,3.85,3.85,0,0,1-2.07,1.63c.51.54,3,0,3,0A6.72,6.72,0,0,1,31.35,10,10.18,10.18,0,0,1,30.21,10.58Z"/><path class="cls-39" d="M29.43,7.15a5.41,5.41,0,0,0,2.14-.06,3.49,3.49,0,0,0,1.33-1.3,5.31,5.31,0,0,1-5.57-.68,4.76,4.76,0,0,0-2.36-1,5.47,5.47,0,0,0-2.65.32,7.27,7.27,0,0,1,3.55,1.06A11.3,11.3,0,0,0,29.43,7.15Z"/><path class="cls-40" d="M30.27,9.2l.95-.55a8.51,8.51,0,0,1-4.77,0c-2.18-.75-5.22-2.48-7.25-.68h0C21.79,10.65,27.22,10.85,30.27,9.2Z"/><path class="cls-39" d="M27.26,7.93a9,9,0,0,0,2.49.13,11.12,11.12,0,0,1-3.81-1.49c-2.11-1.2-4.25-1.47-6-.34a2.82,2.82,0,0,0-.18.29C22.15,5.61,24.83,7.42,27.26,7.93Z"/><path class="cls-41" d="M31.05,25.66l.3.18s0,.13,0,.4a74.06,74.06,0,0,1,.3,10.59,30.12,30.12,0,0,0-1-2.88c.16-1.38-.85-6.41-1.36-8.79A7.39,7.39,0,0,1,31.05,25.66Z"/><path class="cls-30" d="M31.56,36.42c-.25-3.67-.57-7.33-1.15-11a9.19,9.19,0,0,0-1.1-.26c.51,2.38,1.52,7.41,1.36,8.79C31,34.72,31.29,35.54,31.56,36.42Z"/><path class="cls-41" d="M31.69,36.83a29.26,29.26,0,0,1,.75,3.33c-3.26-9-9.08-12.37-10.63-13.14l-.39-.18L24,25a13.25,13.25,0,0,1,1.77,1.5A23.21,23.21,0,0,1,30.67,34,30.12,30.12,0,0,1,31.69,36.83Z"/><path class="cls-42" d="M31.31,35.65c-.2-.59-.41-1.16-.64-1.7a23.21,23.21,0,0,0-4.9-7.44A13.25,13.25,0,0,0,24,25l-2.58,1.83.39.18a8.89,8.89,0,0,1,.83.46C27,28,29.44,31.47,31.31,35.65Z"/><path class="cls-43" d="M31.35,10c3.73,3.16,3.87,10.75-.3,15.69a7.39,7.39,0,0,0-1.74-.5c-.16-.77-.27-1.27-.27-1.27q.43,0,.87,0c.86-2.46,2.6-5.32.3-13.34A10.18,10.18,0,0,0,31.35,10Z"/><path class="cls-44" d="M31.35,10c3.73,3.16,3.87,10.75-.3,15.69a7.39,7.39,0,0,0-1.74-.5c-.16-.77-.27-1.27-.27-1.27q.43,0,.87,0c.86-2.46,2.6-5.32.3-13.34A10.18,10.18,0,0,0,31.35,10Z"/><path class="cls-45" d="M32.69,11.53A6.74,6.74,0,0,0,31.35,10a10.18,10.18,0,0,1-1.14.61c.18.6.33,1.18.46,1.73,1.58,6.72,0,9.33-.76,11.61q-.43,0-.87,0s.11.5.27,1.27a8.08,8.08,0,0,1,1,.23c2.17-3.7,2.44-9,1.13-13.33A10.5,10.5,0,0,0,32.69,11.53Z"/><path class="cls-37" d="M32,56.28c-.4,10-.66,31.08-2.65,50.68a73,73,0,0,1-16.66-2.38,64.9,64.9,0,0,1-10-3.42c2.14-9,12.93-40,21.9-49.73A22.44,22.44,0,0,0,32,56.28Z"/><path class="cls-29" d="M32,56.28a20.64,20.64,0,0,1-4-2.11c3,17.6,1.7,35.41-2.59,52.58,1.3.1,2.62.18,4,.21C31.3,87.36,31.56,66.31,32,56.28Z"/><path class="cls-30" d="M32,56.28a21,21,0,0,1-5.24-3h0c-.37-.27-.72-.56-1.07-.85l-.12-.11c-.35-.3-.69-.6-1-.92-.15.15-.29.31-.43.47L24,52c-.13.14-.25.29-.38.44l0,.06-.38.48v0c-8.68,11.12-18.56,39.6-20.6,48.19a64.9,64.9,0,0,0,10,3.42c.4.11.82.21,1.25.31A181.28,181.28,0,0,1,25,57.75a28.31,28.31,0,0,0,6.88,1.18C31.9,58,31.93,57.09,32,56.28Z"/><path class="cls-27" d="M29.31,25.16c.51,2.38,1.52,7.41,1.36,8.79a23.21,23.21,0,0,0-4.9-7.44h0c-.06-.56-.11-1.07-.19-1.58a7.32,7.32,0,0,0-.61-2,11.32,11.32,0,0,0,4.07,1S29.15,24.39,29.31,25.16Z"/><path class="cls-46" d="M29.31,25.16c.51,2.38,1.52,7.41,1.36,8.79a23.21,23.21,0,0,0-4.9-7.44h0c-.06-.56-.11-1.07-.19-1.58a7.32,7.32,0,0,0-.61-2,11.32,11.32,0,0,0,4.07,1S29.15,24.39,29.31,25.16Z"/><path class="cls-33" d="M29.28,25c-.15-.67-.24-1.09-.24-1.09a11.32,11.32,0,0,1-4.07-1,7.32,7.32,0,0,1,.61,2c.05.33.09.66.13,1A4.78,4.78,0,0,0,29.28,25Z"/><path class="cls-27" d="M20.87,19.44c-3.28.34-4.47-3.8-1.57-3.12A12.85,12.85,0,0,0,20.87,19.44Z"/><path class="cls-47" d="M19.72,17.11a2.94,2.94,0,0,0-1.55.8.42.42,0,0,0,0,.58.39.39,0,0,0,.3.13.43.43,0,0,0,.28-.11,2.09,2.09,0,0,1,1.11-.59.44.44,0,0,0,.16-.06Z"/><path class="cls-48" d="M30.21,10.58c2.3,8,.56,10.88-.3,13.34q-.43,0-.87,0a11.32,11.32,0,0,1-4.07-1,9.93,9.93,0,0,1-4.1-3.48,12.85,12.85,0,0,1-1.57-3.12,6.45,6.45,0,0,1,1.78-6.18A10.07,10.07,0,0,0,30.21,10.58Z"/><path class="cls-1" d="M30.21,10.58c2.3,8,.56,10.88-.3,13.34q-.43,0-.87,0a11.32,11.32,0,0,1-4.07-1,9.93,9.93,0,0,1-4.1-3.48,12.85,12.85,0,0,1-1.57-3.12,6.45,6.45,0,0,1,1.78-6.18A10.07,10.07,0,0,0,30.21,10.58Z"/><g class="cls-49"><path class="cls-50" d="M24.72,19.84a2.33,2.33,0,0,1-2.92,1.42,2.33,2.33,0,0,1-2.05-2.53,2.32,2.32,0,0,1,2.92-1.42A2.32,2.32,0,0,1,24.72,19.84Z"/><path class="cls-51" d="M32,13.56a2.33,2.33,0,0,1,.25,3.24,2.32,2.32,0,0,1-3.1,1,2.33,2.33,0,0,1-.25-3.24A2.34,2.34,0,0,1,32,13.56Z"/></g><path class="cls-52" d="M28.09,22.88a9.6,9.6,0,0,0,2,.58c.89-2.37,2.29-5.35.13-12.88a10.7,10.7,0,0,1-2.68.78A25.3,25.3,0,0,1,30.07,21.5C28.72,21.58,28.22,22.26,28.09,22.88Z"/><path class="cls-53" d="M21,10.24a6.52,6.52,0,0,0-1.67,6.08,12.85,12.85,0,0,0,1.57,3.12A9.93,9.93,0,0,0,25,22.92a11.32,11.32,0,0,0,4.07,1q.43,0,.87,0l0,0a11.26,11.26,0,0,1-2-.55C23,21.43,20.91,15.64,21,10.24Z"/><path class="cls-33" d="M30.21,10.58a10.07,10.07,0,0,1-9.13-.44,6.31,6.31,0,0,0-1.94,4.71,8,8,0,0,1,2.48-4c2.45,2.58,6,2.08,9,1.12C30.48,11.55,30.36,11.07,30.21,10.58Z"/><path class="cls-54" d="M25.77,26.5h0A13.25,13.25,0,0,0,24,25s.65-.07,1.58-.09C25.66,25.43,25.71,25.94,25.77,26.5Z"/><path class="cls-43" d="M19.3,16.32c-2.9-.68-1.71,3.46,1.57,3.12A9.93,9.93,0,0,0,25,22.92a7.32,7.32,0,0,1,.61,2c-.93,0-1.58.09-1.58.09l-2.58,1.83.39.18a22.69,22.69,0,0,0-4.41,3.13h0c-10.3-.57-7.32-7-7.32-7C3.7,21,4.92,16.32,4.92,16.32c8.27,1,9.22-4.78,11.79-6.88h0a3,3,0,0,1,2.34-.71,11.61,11.61,0,0,0,2,1.41A6.45,6.45,0,0,0,19.3,16.32Z"/><path class="cls-55" d="M19.3,16.32c-2.9-.68-1.71,3.46,1.57,3.12A9.93,9.93,0,0,0,25,22.92a7.32,7.32,0,0,1,.61,2c-.93,0-1.58.09-1.58.09l-2.58,1.83.39.18a22.69,22.69,0,0,0-4.41,3.13h0c-10.3-.57-7.32-7-7.32-7C3.7,21,4.92,16.32,4.92,16.32c8.27,1,9.22-4.78,11.79-6.88h0a3,3,0,0,1,2.34-.71,11.61,11.61,0,0,0,2,1.41A6.45,6.45,0,0,0,19.3,16.32Z"/><path class="cls-39" d="M14.07,15.25c1.72-1.82,3.32-4.43,5.92-5.08a6.21,6.21,0,0,1,.86-.16,13,13,0,0,1-1.8-1.28,3,3,0,0,0-2.34.71h0c-2.44,2-3.42,7.33-10.58,7C8.49,18.19,11.92,17.5,14.07,15.25Z"/><path class="cls-39" d="M13.34,18.51a10.82,10.82,0,0,0,5.63-4l.2-.32A6.48,6.48,0,0,1,19.76,12l-.25.14c-2.15,1.32-3.3,3.66-5.28,5.16-2.94,2.23-6.76,2.41-9.4.17,0,0,0,.07,0,.11a5,5,0,0,0,2.33,1.33A10.74,10.74,0,0,0,13.34,18.51Z"/><path class="cls-39" d="M10.44,20.34a10.16,10.16,0,0,1-2.07,0,8.33,8.33,0,0,0,7.15-.81,15.93,15.93,0,0,0,2.27-1.69c0-.07-.05-.14-.07-.2-.21.17-.43.33-.65.48A14,14,0,0,1,10.44,20.34Z"/><path class="cls-39" d="M16.46,21.16c-.45.24-.88.45-1.31.63a15.38,15.38,0,0,0,4.43-2.46l-.28-.1A18.69,18.69,0,0,1,16.46,21.16Z"/><path class="cls-45" d="M18.93,16.26l.37.06a6.45,6.45,0,0,1,1.78-6.18,11.61,11.61,0,0,1-2-1.41,3.07,3.07,0,0,0-1.27.11,6.84,6.84,0,0,0,.89,1.28A8.48,8.48,0,0,0,18.93,16.26Z"/><path class="cls-45" d="M25.58,24.92a7.32,7.32,0,0,0-.61-2,9.93,9.93,0,0,1-4.1-3.48,3.26,3.26,0,0,1-1.46-.16c.19,1.82,1.57,2.93,2.92,3.92A21.83,21.83,0,0,0,17,30.11l.44,0h0A22.69,22.69,0,0,1,21.81,27l-.39-.18L24,25S24.65,24.94,25.58,24.92Z"/><path class="cls-37" d="M25,4.13a5.18,5.18,0,0,0-5.92,4.6,3,3,0,0,0-2.34.71h0c-.18,0-3.37-3.11-3.37-3.11s2-6.72,9-6.31A23.19,23.19,0,0,1,25,4.13Z"/><path class="cls-30" d="M24.71,3.63a5.5,5.5,0,0,0-6.68,3,3.74,3.74,0,0,0-2.7,1.58,10.91,10.91,0,0,0,1.38,1.2h0a3,3,0,0,1,2.34-.71A5.18,5.18,0,0,1,25,4.13Z"/><path class="cls-42" d="M21.85,0A8.27,8.27,0,0,0,15,3.34a8.59,8.59,0,0,1,4.44-2c1.12,0,2.05,1.54,2.79,3.17a5.52,5.52,0,0,1,2.37-.41C23.72,2.67,22.79,1.31,21.85,0Z"/><path class="cls-56" d="M28.82,19.94c.63.68-.47,2.15-2,.64A4,4,0,0,0,28.82,19.94Z"/><path class="cls-23" d="M28.86,20.39a.22.22,0,0,1,0,.3c-.09.1-.21.13-.28.07a.21.21,0,0,1,0-.29C28.67,20.37,28.79,20.33,28.86,20.39Z"/><path class="cls-57" d="M27.88,19.94c.27-1.31.67-1.21.94,0a4,4,0,0,1-2,.64C27.06,19.37,27.13,19.21,27.88,19.94Z"/><path class="cls-58" d="M26.48,20.79a6.26,6.26,0,0,1-1.2-.12l.08-.4c.09,0,.18.2.26.21a3.9,3.9,0,0,0,3.68-1.06s-.05-.2,0-.24l.34.21A3.59,3.59,0,0,1,26.48,20.79Z"/><path class="cls-59" d="M26.64,13.53a3.6,3.6,0,0,0,0,2.18,4.32,4.32,0,0,0,1.13,1.88l0,0a2.37,2.37,0,0,1-.93-.73,3.37,3.37,0,0,1-.56-1.06,2.86,2.86,0,0,1-.11-1.2,2.11,2.11,0,0,1,.43-1.11Z"/><path class="cls-60" d="M26.66,18.32c.31-1.86,1.12-1.39,1.43-.5A2.2,2.2,0,0,0,26.66,18.32Z"/><path class="cls-43" d="M24.12,14.41a9.83,9.83,0,0,1-1-.07c-.31,0-.6-.17-.92-.22a4.39,4.39,0,0,0-1,0,2.32,2.32,0,0,0-.94.31l-.05-.06a2.18,2.18,0,0,1,.88-.64,3.44,3.44,0,0,1,1.09-.24,2.36,2.36,0,0,1,1.12.09,1.47,1.47,0,0,1,.85.79Z"/><path class="cls-43" d="M26.92,12.59a1.17,1.17,0,0,1,.44-.92,1.73,1.73,0,0,1,.92-.32,2.44,2.44,0,0,1,1,0,1.75,1.75,0,0,1,.84.41l0,.07a1.78,1.78,0,0,0-.82-.07,2.76,2.76,0,0,0-.76.21c-.25.11-.43.31-.67.39s-.48.16-.82.28Z"/><path class="cls-47" d="M31.79,13.53a3,3,0,0,0-.83.19l.14.81.1,0a2.35,2.35,0,0,1,.66-.16.4.4,0,0,0,.37-.44A.41.41,0,0,0,31.79,13.53Z"/><path class="cls-23" d="M30.12,13a1.55,1.55,0,0,0-.59,2.59,4.14,4.14,0,0,1-2.13.49C27.54,14.05,28.75,13,30.12,13Z"/><path class="cls-61" d="M30.12,13a3.06,3.06,0,0,1,1.1.18,3.07,3.07,0,0,1-1.69,2.41A1.55,1.55,0,0,1,30.12,13Z"/><path class="cls-62" d="M30.12,13a3.06,3.06,0,0,1,1.1.18,3.07,3.07,0,0,1-1.69,2.41A1.55,1.55,0,0,1,30.12,13Z"/><path class="cls-23" d="M29.47,14.78a.31.31,0,0,1-.3.3.3.3,0,0,1-.3-.3.29.29,0,0,1,.3-.3A.3.3,0,0,1,29.47,14.78Z"/><path d="M30.72,14.07a.58.58,0,0,1-.58.58.59.59,0,0,1-.59-.58.6.6,0,0,1,.59-.59A.59.59,0,0,1,30.72,14.07Z"/><path class="cls-63" d="M31.24,13.16a2.18,2.18,0,0,1-.19,1.39,2.91,2.91,0,0,1-.94,1.09,3.3,3.3,0,0,1-1.32.54,2.62,2.62,0,0,1-1.39-.1v0a4.08,4.08,0,0,0,2.47-.73,3.22,3.22,0,0,0,.91-.93,3,3,0,0,0,.42-1.22Z"/><path class="cls-64" d="M31.09,13.74a2.59,2.59,0,0,0,.13-.58,3.06,3.06,0,0,0-1.1-.18c-1.35,0-2.54,1-2.71,3A4.6,4.6,0,0,1,31.09,13.74Z"/><path class="cls-65" d="M27.37,16.06a4.39,4.39,0,0,1,.31-1.39,3,3,0,0,1,.83-1.16,2.54,2.54,0,0,1,1.31-.57,3.12,3.12,0,0,1,1.42.18h0A1.09,1.09,0,0,0,32,13a1.23,1.23,0,0,0,.52-.54l.06,0a1.19,1.19,0,0,1-.43.78,1.42,1.42,0,0,1-.93.32h0l-.11,0a3.4,3.4,0,0,0-1.19,0,2.5,2.5,0,0,0-1,.43,3.09,3.09,0,0,0-.81.87,7.85,7.85,0,0,0-.64,1.23Z"/><path class="cls-23" d="M24.11,15.79c-1.22-.16-1.66,1.4-1.22,2.11h0a5,5,0,0,1-2.62-1S22.21,15.1,24.11,15.79Z"/><path class="cls-61" d="M25.51,16.85a3.22,3.22,0,0,1-2.62,1h0c-.44-.71,0-2.27,1.22-2.11h0A3.24,3.24,0,0,1,25.51,16.85Z"/><path class="cls-66" d="M25.51,16.85a3.22,3.22,0,0,1-2.62,1h0c-.44-.71,0-2.27,1.22-2.11h0A3.24,3.24,0,0,1,25.51,16.85Z"/><path class="cls-23" d="M23.19,16.94a.29.29,0,0,1-.3.3.3.3,0,1,1,0-.6A.29.29,0,0,1,23.19,16.94Z"/><path d="M24.92,16.79a.58.58,0,0,1-.58.58.58.58,0,1,1,0-1.16A.58.58,0,0,1,24.92,16.79Z"/><path class="cls-63" d="M25.53,16.86a2.4,2.4,0,0,1-1.08,1.08,3.08,3.08,0,0,1-1.55.33,3.63,3.63,0,0,1-1.49-.44,3.69,3.69,0,0,1-1.15-1l0,0a5.05,5.05,0,0,0,2.64,1,3.21,3.21,0,0,0,2.58-1Z"/><path class="cls-64" d="M25.45,16.92l.06-.07a3.24,3.24,0,0,0-1.39-1.06h0c-1.9-.69-3.84,1.06-3.84,1.06a6.64,6.64,0,0,0,.84.52A5.77,5.77,0,0,1,25.45,16.92Z"/><path class="cls-65" d="M25.49,16.87a4.69,4.69,0,0,0-1.28-.62A2.85,2.85,0,0,0,23,16.17a3.42,3.42,0,0,0-.62.13,5.79,5.79,0,0,0-.62.22,6.64,6.64,0,0,0-.62.28c-.2.1-.42.22-.6.33l-.12.06h0a1.65,1.65,0,0,1-.83,0,.76.76,0,0,1-.58-.56l0,0a.68.68,0,0,0,.55.32,1.43,1.43,0,0,0,.64-.15h0A6.17,6.17,0,0,1,21.49,16a3.84,3.84,0,0,1,1.44-.41,2.85,2.85,0,0,1,1.47.28,3.55,3.55,0,0,1,1.14,1Z"/><path d="M34.05,16c-.23-1.74-1.16-2.16-1.87-2.22v.41c.82.07,1.31.7,1.47,1.87.14,1-.62,2.87-1.5,5a31.93,31.93,0,0,0-2.41,7.57c-1.56-2.89-4.75-3.88-7.59-4.77a20.56,20.56,0,0,1-3-1.09,2.51,2.51,0,0,1-1.52-1.86,2.88,2.88,0,0,1,.74-2.27l-.29-.29a3.39,3.39,0,0,0-.86,2.62A2.89,2.89,0,0,0,19,23.1,21,21,0,0,0,22,24.22c3,.92,6.31,2,7.65,5.2l.32.78.07-.85c.2-2.69,1.4-5.6,2.45-8.17C33.43,19,34.21,17.08,34.05,16Z"/><path d="M49.3,60.9a6.27,6.27,0,0,1-.74,0C41.73,60,34.49,47.93,29.67,29.39l.39-.1c5.72,22,13.33,30.49,18.55,31.16,2.54.32,4.8-1.14,6.51-4.23l.36.2C53.84,59.36,51.72,60.9,49.3,60.9Z"/><path class="cls-3" d="M98,34.51a5.36,5.36,0,0,0-.21,1.42,1.19,1.19,0,0,0,.63,1.12,2,2,0,0,0,1.36,0,6,6,0,0,0,1.32-.6l.07.1a2.49,2.49,0,0,1-2.06,1.76,2.2,2.2,0,0,1-1.22-.19,2,2,0,0,1-.59-.43A1.94,1.94,0,0,1,96.78,36a2.27,2.27,0,0,1,1.08-1.49Z"/><path class="cls-67" d="M108.5,40.7c-.11.46-.21.93-.28,1.4a3,3,0,0,0,.07,1.38.84.84,0,0,0,.39.49,1.14,1.14,0,0,0,.64.1,4.77,4.77,0,0,0,1.36-.38l0,.11a2.15,2.15,0,0,1-1.32,1.25,1.79,1.79,0,0,1-1.26-.06,1.9,1.9,0,0,1-.65-.47,2.21,2.21,0,0,1-.36-.62,2.49,2.49,0,0,1-.12-1.08,2.66,2.66,0,0,1,.23-.86,2.89,2.89,0,0,1,1.14-1.3Z"/><path class="cls-68" d="M88.09,45.08c2.29.38,4,2.36,3,2.87S90,46.32,88.09,45.08Z"/><path class="cls-68" d="M100,54.62c-1.53-2.77-3.76-2.77-4-1.75S98.36,53.45,100,54.62Z"/><path class="cls-3" d="M22.37,75.47c5.29-3,8.6,2.45,10.61,7-2-3.08-11.6-1-11-5.83h0Z"/><path class="cls-9" d="M29.74,78.29A18.47,18.47,0,0,1,32.57,82a2.31,2.31,0,0,1,.41.47c-2-4.5-5.32-10-10.61-7l-.21.54C24.78,75.18,27.75,76.41,29.74,78.29Z"/><path class="cls-9" d="M23.84,76.74a11.17,11.17,0,0,1,5.85,4c.37.08.72.17,1.06.27C29.22,78.89,26.54,76.69,23.84,76.74Z"/><path class="cls-11" d="M22.37,75.47l-.44,1.11c-4.67-.46-9.59-.13-14.59-1.63C-1.27,72.36-2.29,63.17,4.2,57.82a21.09,21.09,0,0,1,.06,4.09l.06.09C.15,64.89,3,73.13,13.54,74.28,17.38,74.69,20.23,75.09,22.37,75.47Z"/><path class="cls-9" d="M2.58,63.46l.25.37A4.17,4.17,0,0,1,4.32,62l-.06-.09a21.09,21.09,0,0,0-.06-4.09,12.07,12.07,0,0,0-2.81,3.27A15.38,15.38,0,0,0,2.58,63.46Z"/><path class="cls-6" d="M112.72,145.27a6.86,6.86,0,0,0-.87-1.73l.33-.23a6.79,6.79,0,0,1,.93,1.85Z"/><rect class="cls-69" x="88.64" y="145.15" width="0.41" height="1.57" transform="translate(-50.98 47.76) rotate(-23.59)"/><rect class="cls-6" x="43.88" y="145.72" width="0.41" height="1.7" transform="translate(-85.96 65.85) rotate(-41.43)"/><rect class="cls-69" x="9.33" y="145.81" width="0.41" height="2.39" transform="translate(-62.8 18.67) rotate(-25.7)"/><path class="cls-27" d="M52.5,54.19c-.22,0-.25-.18,0-.25.37-.12.83-.34,1.3-.51a4.55,4.55,0,0,0,1.82-.68c.13-.45-.76,0-1.9.12a11.37,11.37,0,0,1-1.22.36c-.3.05-.27-.1,0-.19.56-.17,1.05-.29,1.67-.44,1.13,0,1.94-.4,2-.58s-.94.11-2,.06a11.12,11.12,0,0,1-1.66.19.13.13,0,1,1,0-.26c1.17,0,2.9,0,3-.24s-.95-.23-2-.34-1.41-.33-1.8-.16a6.57,6.57,0,0,0-2.27,2.15c-1,1.43-1.51,1.55-1.74,1.69l-.9,1.26a7.81,7.81,0,0,0,5.4-1.31,7.11,7.11,0,0,0,1.68-.83c.94-.2,1.53-.8,1.53-1a14.79,14.79,0,0,1-1.66.51C53.27,53.85,52.75,54.14,52.5,54.19Z"/><path class="cls-41" d="M37,57.49A19.17,19.17,0,0,1,32,56.28a22.44,22.44,0,0,1-7.45-4.85c-7.2-6.91-10-17.11-10-17.11A8.56,8.56,0,0,1,15.17,33c2.66-4.2,7.7-3.68,7.7-3.68A25.91,25.91,0,0,0,32.6,47.64c.52.42,1,.81,1.56,1.18a37.1,37.1,0,0,0,13.68,5.94l-.25.35-.9,1.26A23.77,23.77,0,0,1,37,57.49Z"/><path class="cls-42" d="M34.16,48.82c-.52-.37-1-.76-1.56-1.18a25.91,25.91,0,0,1-9.73-18.28,9.3,9.3,0,0,0-5.09,1.16A32.11,32.11,0,0,0,29.66,48c.65,3.91,5.05,6.41,8.07,7.16a31.1,31.1,0,0,0,7.89,1.57c.36-.1.71-.19,1.07-.31l.9-1.26.25-.35A37.1,37.1,0,0,1,34.16,48.82Z"/></g></g></g></svg>