<svg xmlns="http://www.w3.org/2000/svg" xmlns:xlink="http://www.w3.org/1999/xlink" viewBox="0 0 149.79 97.93"><defs><style>.cls-1,.cls-20,.cls-24,.cls-25,.cls-29,.cls-33,.cls-39,.cls-42,.cls-44,.cls-52{mix-blend-mode:hard-light;}.cls-1{fill:url(#linear-gradient);}.cls-2{isolation:isolate;}.cls-3{fill:#60bccc;}.cls-4{fill:#b3e1e6;}.cls-26,.cls-28,.cls-35,.cls-37,.cls-4,.cls-40,.cls-49,.cls-55,.cls-61,.cls-67{mix-blend-mode:multiply;}.cls-5,.cls-51{fill:#82d4e8;}.cls-6{fill:#354045;}.cls-7{fill:#788387;}.cls-8{fill:#a7dadb;}.cls-9{fill:#82aaab;}.cls-10{fill:#6c8d8e;}.cls-11{fill:#4c2b1d;}.cls-12{fill:#27455b;}.cls-13{fill:#101d26;}.cls-13,.cls-16,.cls-18,.cls-21,.cls-27,.cls-31,.cls-38,.cls-48,.cls-51,.cls-54,.cls-57,.cls-59,.cls-66{mix-blend-mode:screen;}.cls-14{fill:#305972;}.cls-15{fill:#a7e1ea;}.cls-16{fill:#274e52;}.cls-17{fill:#54a9b2;}.cls-18{fill:#172e30;}.cls-19{fill:#66402d;}.cls-20{fill:url(#linear-gradient-2);}.cls-21{fill:#2b1b13;}.cls-22{fill:#fac4a6;}.cls-23{clip-path:url(#clip-path);}.cls-24{fill:url(#radial-gradient);}.cls-25{fill:url(#radial-gradient-2);}.cls-26{fill:#fae7dc;}.cls-27{fill:#804728;}.cls-28{fill:#e8d6cc;}.cls-29{fill:url(#linear-gradient-4);}.cls-30{fill:#d38579;}.cls-31{fill:#80533b;}.cls-32{fill:#503728;}.cls-33{fill:url(#linear-gradient-5);}.cls-34{fill:#b584ad;}.cls-35{fill:#ded9dd;}.cls-36{fill:#eaa494;}.cls-37{fill:#ccb2a5;}.cls-38{fill:#526e73;}.cls-39{fill:url(#linear-gradient-6);}.cls-40{fill:#ddeef0;}.cls-41{fill:#613311;}.cls-42{fill:url(#linear-gradient-7);}.cls-43{fill:#fff;}.cls-44{fill:url(#linear-gradient-8);}.cls-45{fill:#a37258;}.cls-46{fill:#4a2f20;}.cls-47{fill:#d49486;}.cls-48{fill:#543d50;}.cls-49{fill:#d1c5cf;}.cls-50{fill:#fff4a6;}.cls-52{fill:url(#linear-gradient-9);}.cls-53{fill:#774b2e;}.cls-54{fill:#2b1d16;}.cls-55{fill:#ded1ca;}.cls-56{fill:#895a3f;}.cls-57{fill:#1f1510;}.cls-58{fill:#a06c52;}.cls-59{fill:#664534;}.cls-60{fill:#5b3c2c;}.cls-61{fill:#b8ada7;}.cls-62{fill:#5b311a;}.cls-63{fill:#2d190e;}.cls-64{fill:#efab24;}.cls-65{fill:#c9c9c1;}.cls-66{fill:#47473c;}.cls-67{fill:#e3e3e3;}</style><linearGradient id="linear-gradient" x1="65.52" y1="23.12" x2="67.54" y2="15.9" gradientUnits="userSpaceOnUse"><stop offset="0" stop-color="#ffd4c2"/><stop offset="1" stop-color="gray"/></linearGradient><linearGradient id="linear-gradient-2" x1="72.35" y1="17.67" x2="76.59" y2="5.36" gradientUnits="userSpaceOnUse"><stop offset="0" stop-color="#a8947d"/><stop offset="1" stop-color="gray"/></linearGradient><clipPath id="clip-path"><path class="cls-1" d="M75.17,14.87c-1.12,3.1-2.42,6.24-3.62,8.87a4.21,4.21,0,0,0-1-1.74c.24-1.72.44-5.1-.09-4.45a20.79,20.79,0,0,0-2,3.1c-2.76-1-6.71-.65-9.78.67.2-.41.4-.84.62-1.27l.5-1c.16-.31.32-.63.49-.94.72-1.35,1.5-2.73,2.3-4a6.61,6.61,0,0,0,5.67-4.85C70.22,12.42,72.71,14.46,75.17,14.87Z"/></clipPath><radialGradient id="radial-gradient" cx="-132.78" cy="-208.21" r="1.91" gradientTransform="matrix(1.23, 0.27, -0.22, 0.98, 182.14, 257.64)" gradientUnits="userSpaceOnUse"><stop offset="0" stop-color="#d6625a"/><stop offset="1" stop-color="gray"/></radialGradient><radialGradient id="radial-gradient-2" cx="-130.32" cy="-321.82" r="1.75" gradientTransform="matrix(1.14, 0.54, -0.43, 0.9, 82.48, 381.83)" xlink:href="#radial-gradient"/><linearGradient id="linear-gradient-4" x1="59.95" y1="33.34" x2="64.19" y2="24.49" xlink:href="#linear-gradient-2"/><linearGradient id="linear-gradient-5" x1="65.59" y1="16.31" x2="65.59" y2="9" xlink:href="#linear-gradient-2"/><linearGradient id="linear-gradient-6" x1="56.74" y1="31.86" x2="58.76" y2="28.69" xlink:href="#linear-gradient"/><linearGradient id="linear-gradient-7" x1="66.33" y1="18.45" x2="67.82" y2="16.09" gradientUnits="userSpaceOnUse"><stop offset="0" stop-color="#a8a77d"/><stop offset="1" stop-color="gray"/></linearGradient><linearGradient id="linear-gradient-8" x1="71.72" y1="19.9" x2="72.92" y2="17.21" xlink:href="#linear-gradient-7"/><linearGradient id="linear-gradient-9" x1="14.11" y1="68.18" x2="13.92" y2="88.57" gradientUnits="userSpaceOnUse"><stop offset="0" stop-color="#5e53a3"/><stop offset="1" stop-color="gray"/></linearGradient></defs><g class="cls-2"><g id="Layer_2" data-name="Layer 2"><g id="Layer_1-2" data-name="Layer 1"><path class="cls-3" d="M65,30l.21,0c-.35,3-.68,7.22-1,10.94-.11,1.48-.22,2.91-.32,4.22h0a14,14,0,0,0-.06,1.41h-.32c-.67,0-1.2,1.07-1.17,2.37a3.74,3.74,0,0,0,.17,1.14c-1.22,2.94-3.8,7.6-4.77,10.65A54.72,54.72,0,0,0,48,65.28l-1,.34s1.29-6.47,3.35-14c.37-1.76,1.16-4.21,1.56-5.5A65,65,0,0,1,55,37s-.48,3.86-.48,4.24S61,36,65,30Z"/><path class="cls-4" d="M65,30C61,36,54.54,41.66,54.54,41.27S55,37,55,37a65,65,0,0,0-3.16,9.13c-.4,1.29-1.19,3.74-1.56,5.5-2.06,7.49-3.35,14-3.35,14l.92-.3c2.58-7.25,4.19-14.67,6.82-21.94A69.42,69.42,0,0,0,65.16,30.07Z"/><polygon class="cls-5" points="58.68 39.76 64.83 42.01 63.97 43.9 57.43 41.83 58.68 39.76"/><path class="cls-6" d="M64.51,45.28l.18,0c0,.36,0,1.16,0,1.69a.82.82,0,0,0-.63-.35h-.28a14,14,0,0,1,.06-1.41h0Z"/><path class="cls-7" d="M64.55,44.9c0,.13,0,.26,0,.38l-.64-.05c.1-1.31.21-2.74.32-4.22.29-3.72.62-7.91,1-10.94l.65.09c-.35,3-.67,7.19-1,10.9C64.75,42.4,64.65,43.7,64.55,44.9Z"/><path class="cls-7" d="M51.86,46.16a21.39,21.39,0,0,1-.28,4.18,1.2,1.2,0,0,1-.31.64.43.43,0,0,0-.09-.3.46.46,0,0,0-.37-.18.58.58,0,0,0,.13-.26c.08-.55.14-1.06.19-1.56h0c.57-6.06-1.55-8.27-3.14-9.92a8,8,0,0,1-1.22-1.48l-.34.45c-1.73,2.29-5.34,7-.78,13.88a.51.51,0,0,0,.4.21.44.44,0,0,0-.15.36.45.45,0,0,0,.14.3,1.15,1.15,0,0,1-.93-.51c-4.82-7.22-.88-12.42.8-14.63.25-.34.47-.63.6-.84C48,25,50.73,20.81,53.45,19.44a5.64,5.64,0,0,1,2-.59,3.69,3.69,0,0,0-1.92,1.28c-2.48,1.39-5,5.45-6.4,16.43a5,5,0,0,0,1.3,1.73A10.57,10.57,0,0,1,51.86,46.16Z"/><path class="cls-6" d="M50.6,50.57a.58.58,0,0,1,.21-.07.46.46,0,0,1,.37.18.44.44,0,0,1-.09.62,1.72,1.72,0,0,1-.79.36,1.63,1.63,0,0,1-.31,0,1.4,1.4,0,0,1-.41-.06.45.45,0,0,1-.28-.57.44.44,0,0,1,.56-.28.85.85,0,0,0,.7-.18Z"/><path class="cls-6" d="M47.92,51.53a.45.45,0,0,1-.12.62,3.35,3.35,0,0,1-1.43.44h0a.42.42,0,0,1-.3-.12h0a.45.45,0,0,1-.14-.3.44.44,0,0,1,.15-.36.41.41,0,0,1,.27-.1,2.75,2.75,0,0,0,1-.3A.45.45,0,0,1,47.92,51.53Z"/><path class="cls-8" d="M65.55,49c0,.78-.22,1.41-.53,1.45h0c-.33,0-.61-.64-.62-1.44s.24-1.44.56-1.45l.11,0C65.32,47.75,65.54,48.33,65.55,49Z"/><path class="cls-9" d="M64.69,47a2,2,0,0,1,.35.64l-.11,0c-.32,0-.58.66-.56,1.45s.29,1.44.62,1.44h0v0c-.21.5-.52.82-.87.83h0c-.64,0-1.18-1-1.2-2.33a2.59,2.59,0,0,1,.85-2.29h0a.57.57,0,0,1,.28-.08A.82.82,0,0,1,64.69,47Z"/><path class="cls-10" d="M62.46,50.14A3.74,3.74,0,0,1,62.29,49c0-1.3.5-2.36,1.17-2.37h.32v.08h0A2.59,2.59,0,0,0,62.93,49c0,1.29.56,2.32,1.2,2.33l-.59,0C63.09,51.33,62.68,50.85,62.46,50.14Z"/><path class="cls-11" d="M81,92.57H72a2.25,2.25,0,0,1,.7-1.64h1.44S80.38,90.93,81,92.57Z"/><path class="cls-12" d="M79.7,58.63c2.61,4.82-5.59,32.3-5.59,32.3H72.67S74,69,72.3,67.69,51.55,74.45,44.24,78.43C45.68,73.88,47,69,48,65.28a54.72,54.72,0,0,1,9.69-4.49C66.84,57.44,77.87,55.23,79.7,58.63Z"/><path class="cls-13" d="M79.7,58.63c-1.83-3.4-12.86-1.19-22,2.16-.77.28-1.52.57-2.26.86,8-1.49,27.91-11,20.09,18.29-1,3.65-1.63,7.36-2.73,11h1.32S82.31,63.45,79.7,58.63Z"/><path class="cls-14" d="M47,77c-3.35,6-7.07,13.73-8.61,13.9C35.74,91.22,5,90.25,5,90.25a1.86,1.86,0,0,1,.87-1.73s14-3,22.47-4.34c4-.62,4.61-11.55,4.69-13.78,3.51-1.21,10.93-3.77,13.94-4.78.46-.15,6.08-3,6.3-3.05A112.82,112.82,0,0,1,47,77Z"/><path class="cls-4" d="M28.32,84.18c-8.46,1.3-22.47,4.34-22.47,4.34A1.86,1.86,0,0,0,5,90.25s15.93.5,25.83.68a37.52,37.52,0,0,0-1.24-7.35A2.6,2.6,0,0,1,28.32,84.18Z"/><path class="cls-13" d="M47,65.62l-3.39,1.15C41.82,75.14,39.69,84.06,35.07,91c1.67,0,2.85,0,3.27,0C39.88,90.76,43.6,83,47,77a112.82,112.82,0,0,0,6.3-14.46C53,62.64,47.41,65.47,47,65.62Z"/><path class="cls-15" d="M47.21,21.32c1.83,3.38-4.05,8.86-9.93,12.14-12.69,5.21-19.83,11.77-23.2,30.95a4.38,4.38,0,0,0-2.39-.08,2.35,2.35,0,0,0-.31.08c-.39-1.64-.92-20.88,6.41-30.14,6.15-7.76,20.82-15.07,27.09-14.06C46.09,20.41,46.91,20.77,47.21,21.32Z"/><path class="cls-16" d="M47.21,21.32a2.79,2.79,0,0,0-2-1,4.49,4.49,0,0,1-.13,1.16c-.78,2.7-4.62,6.83-6.93,8.37-20.53,6.07-26.74,23.38-26.3,34.48a4.2,4.2,0,0,1,2.19.12c3.37-19.18,10.51-25.74,23.2-30.95C43.16,30.18,49,24.7,47.21,21.32Z"/><path class="cls-17" d="M90.22,49.06l1.35,1.55S77.68,60,65.55,49c0-.71-.23-1.29-.51-1.41a2,2,0,0,0-.35-.64c0-.53,0-1.33,0-1.69l-.18,0c0-.12,0-.25,0-.38,2.46-5.36,4.51-9.22,4.51-9.22C72,44.84,80.28,50.85,90.22,49.06Z"/><path class="cls-18" d="M90.22,49.06C80.28,50.85,72,44.84,69.06,35.68c0,0-.51,1-1.32,2.57,1.51,4.39,4.21,8.65,8.47,10.08-.33,6,9.45,3.88,13.16,3.13.4-.07.79-.15,1.18-.25.65-.36,1-.6,1-.6Z"/><path class="cls-4" d="M69.19,36.05c0-.13-.09-.25-.13-.37s-2,3.86-4.51,9.22c0,.13,0,.26,0,.38l.18,0c0,.36,0,1.16,0,1.69a2,2,0,0,1,.35.64c.28.12.5.7.51,1.41a21,21,0,0,0,1.69,1.39C66.17,45.46,66.57,40.27,69.19,36.05Z"/><path class="cls-19" d="M75.17,14.87c-2.46-.41-5-2.45-6.91-5.61a4.74,4.74,0,0,1,.8-2.41,9.45,9.45,0,0,1,7.55-3.13c4.14.27,7.31,3.45,5,7.37C79.84,14.16,77.52,15.26,75.17,14.87Z"/><path class="cls-20" d="M75.17,14.87c-2.46-.41-5-2.45-6.91-5.61a4.74,4.74,0,0,1,.8-2.41,9.45,9.45,0,0,1,7.55-3.13c4.14.27,7.31,3.45,5,7.37C79.84,14.16,77.52,15.26,75.17,14.87Z"/><path class="cls-21" d="M77.53,5.61a5.42,5.42,0,0,1-2.29,6.47l-.24.13c1.63-.72,3.29-2.08,3.29-3.92A5.34,5.34,0,0,0,77.53,5.61Z"/><path class="cls-21" d="M79.6,4.5a8.1,8.1,0,0,1,1,2.4c.62,2.91-1.3,5.81-3.82,7.12a10,10,0,0,1-2,.76,3.58,3.58,0,0,0,.45.09c2.35.39,4.67-.71,6.46-3.78C83.32,8.21,82,5.72,79.6,4.5Z"/><path class="cls-5" d="M77.49.58a22.3,22.3,0,0,1-.88,3.14,9.45,9.45,0,0,0-7.55,3.13A3.35,3.35,0,0,0,66,6.08C66.41,4.34,67.84.39,67.84.39,70.35-.28,77.49,0,77.49.58Z"/><path class="cls-4" d="M69.56,4.81a7.61,7.61,0,0,0-3-.83c-.26.8-.5,1.56-.64,2.1a3.35,3.35,0,0,1,3.1.77,9.45,9.45,0,0,1,7.55-3.13L76.86,3A9.19,9.19,0,0,0,69.56,4.81Z"/><path class="cls-16" d="M73.78,0A3.47,3.47,0,0,1,74,3l-.5,1.11a9.21,9.21,0,0,1,3.13-.36A22.3,22.3,0,0,0,77.49.58C77.49.3,75.8.09,73.78,0Z"/><path class="cls-22" d="M75.17,14.87c-1.12,3.1-2.42,6.24-3.62,8.87a4.21,4.21,0,0,0-1-1.74c.24-1.72.44-5.1-.09-4.45a20.79,20.79,0,0,0-2,3.1c-2.76-1-6.71-.65-9.78.67.2-.41.4-.84.62-1.27l.5-1c.16-.31.32-.63.49-.94.72-1.35,1.5-2.73,2.3-4a6.61,6.61,0,0,0,5.67-4.85C70.22,12.42,72.71,14.46,75.17,14.87Z"/><path class="cls-1" d="M75.17,14.87c-1.12,3.1-2.42,6.24-3.62,8.87a4.21,4.21,0,0,0-1-1.74c.24-1.72.44-5.1-.09-4.45a20.79,20.79,0,0,0-2,3.1c-2.76-1-6.71-.65-9.78.67.2-.41.4-.84.62-1.27l.5-1c.16-.31.32-.63.49-.94.72-1.35,1.5-2.73,2.3-4a6.61,6.61,0,0,0,5.67-4.85C70.22,12.42,72.71,14.46,75.17,14.87Z"/><g class="cls-23"><path class="cls-24" d="M66.58,18.65a2.47,2.47,0,0,1-4.69-1,2.47,2.47,0,0,1,4.69,1Z"/><path class="cls-25" d="M74.26,21.71a2.26,2.26,0,0,1-4-1.89,2.26,2.26,0,0,1,4,1.89Z"/></g><path class="cls-26" d="M64,17.21a15.63,15.63,0,0,1,1.5-4.12,6.45,6.45,0,0,1-2.88,1c-.8,1.3-1.58,2.68-2.3,4-.17.31-.33.63-.49.94l-.5,1c-.22.43-.42.86-.62,1.27a16,16,0,0,1,5.16-1.23A10.34,10.34,0,0,1,64,17.21Z"/><path class="cls-27" d="M73.38,14.29a33.13,33.13,0,0,1-2.79,7.31c0,.14,0,.27,0,.4a4.21,4.21,0,0,1,1,1.74c1.2-2.63,2.5-5.77,3.62-8.87A6.8,6.8,0,0,1,73.38,14.29Z"/><path class="cls-28" d="M68.26,9.26a6.61,6.61,0,0,1-5.67,4.85c-.12.2,2.57.47,5.67-1.9,2.25,2,4.31,3.49,6.66,3.35l.25-.69C72.71,14.46,70.22,12.42,68.26,9.26Z"/><path class="cls-19" d="M71.55,23.74a31.85,31.85,0,0,1-3.29,6.06h0a1.47,1.47,0,0,1-.32.28,4.48,4.48,0,0,1-2.13.07l-.65-.09L65,30c-.44-.07-.91-.16-1.38-.26l-1-.23c-2.79-.7-5.63-1.8-5.83-2.74a7.69,7.69,0,0,1,.85-3.07c.29-.73.66-1.55,1.07-2.42,3.07-1.32,7-1.72,9.78-.67-.86,1.6-1.42,3.07-1,3.07.77,0,2.81-.4,3-1.15,0-.15.06-.35.09-.57A4.21,4.21,0,0,1,71.55,23.74Z"/><path class="cls-29" d="M71.55,23.74a31.85,31.85,0,0,1-3.29,6.06h0a1.47,1.47,0,0,1-.32.28,4.48,4.48,0,0,1-2.13.07l-.65-.09L65,30c-.44-.07-.91-.16-1.38-.26l-1-.23c-2.79-.7-5.63-1.8-5.83-2.74a7.69,7.69,0,0,1,.85-3.07c.29-.73.66-1.55,1.07-2.42,3.07-1.32,7-1.72,9.78-.67-.86,1.6-1.42,3.07-1,3.07.77,0,2.81-.4,3-1.15,0-.15.06-.35.09-.57A4.21,4.21,0,0,1,71.55,23.74Z"/><path class="cls-21" d="M67.82,23.7a19.12,19.12,0,0,1-4.09,6.11c.15,0,.31.07.47.09l.06,0a18.77,18.77,0,0,0,4.44-6.29A6.87,6.87,0,0,1,67.82,23.7Z"/><path class="cls-21" d="M70.9,22.42a20.81,20.81,0,0,1-4.65,7.79,3.57,3.57,0,0,0,1.69-.12,1.47,1.47,0,0,0,.32-.28h0a31.85,31.85,0,0,0,3.29-6.06A4.52,4.52,0,0,0,70.9,22.42Z"/><path class="cls-30" d="M70.54,22c0,.22-.06.42-.09.57-.15.75-2.19,1.15-3,1.15-.45,0,.11-1.47,1-3.07a20.79,20.79,0,0,1,2-3.1C71,16.9,70.78,20.28,70.54,22Z"/><path class="cls-31" d="M69.36,23l-.13.23c.57-.16,1.09-.41,1.15-.75a3.47,3.47,0,0,0,.08-.47,12.54,12.54,0,0,0,.1-3.71A15.42,15.42,0,0,1,69.36,23Z"/><path class="cls-3" d="M68.26,29.81a12.6,12.6,0,0,1,.8,5.87s-2,3.86-4.51,9.22c.1-1.2.2-2.5.3-3.84.29-3.71.61-7.88,1-10.9a4.48,4.48,0,0,0,2.13-.07A1.47,1.47,0,0,0,68.26,29.81Z"/><path class="cls-18" d="M57.69,60.79c1-3,3.55-7.71,4.77-10.65A3.74,3.74,0,0,1,62.29,49c0-1.3.5-2.36,1.17-2.37h.32a14,14,0,0,1,.06-1.41h0c.1-1.31.21-2.74.32-4.22.08-1,.16-2,.24-3A181,181,0,0,0,51.8,63.24C53.57,62.4,55.58,61.56,57.69,60.79Z"/><path class="cls-18" d="M68.26,29.81a1.47,1.47,0,0,1-.32.28,1.11,1.11,0,0,1-.35.11,8.9,8.9,0,0,1-.92,3.95c-.5.83-1,1.67-1.47,2.51-.12,1.48-.24,3-.35,4.4s-.2,2.64-.3,3.84c2.46-5.36,4.51-9.22,4.51-9.22A12.6,12.6,0,0,0,68.26,29.81Z"/><path class="cls-32" d="M66,6.08a3.35,3.35,0,0,1,3.1.77,4.74,4.74,0,0,0-.8,2.41,6.61,6.61,0,0,1-5.67,4.85C61.11,10.28,63.34,6.74,66,6.08Z"/><path class="cls-33" d="M66,6.08a3.35,3.35,0,0,1,3.1.77,4.74,4.74,0,0,0-.8,2.41,6.61,6.61,0,0,1-5.67,4.85C61.11,10.28,63.34,6.74,66,6.08Z"/><path class="cls-21" d="M68.46,6.43A3.35,3.35,0,0,0,66,6.08c-2.62.66-4.85,4.2-3.37,8a5.71,5.71,0,0,0,1.61-.38C64,10.65,65.68,7.52,68.46,6.43Z"/><path class="cls-15" d="M63.57,29.78c.47.1.94.19,1.38.26C61,36,54.54,41.66,54.54,41.27S55,37,55,37A35.88,35.88,0,0,0,63.57,29.78Z"/><path class="cls-34" d="M62.59,29.55l1,.23A35.88,35.88,0,0,1,55,37c-.58-16.2,2-17.45,4.28-17-.22.43-.42.86-.62,1.27-.41.87-.78,1.69-1.07,2.42-2.34,2.9-1.91,5.38-.27,6.5C58.22,30.85,60.91,30.86,62.59,29.55Z"/><path class="cls-35" d="M62.59,29.55a5,5,0,0,1-1.3.7A15.51,15.51,0,0,1,55,35.34c0,.54,0,1.11.05,1.69a35.88,35.88,0,0,0,8.55-7.25Z"/><path class="cls-36" d="M60.29,18.14c-2.18-1.74.28-6.63,2.3-4C61.79,15.41,61,16.79,60.29,18.14Z"/><path class="cls-37" d="M61.56,14.08l-.08,0a3.64,3.64,0,0,1-1.24,1.82l0,.07a1.11,1.11,0,0,0,.72,0,1,1,0,0,0,.56-.48,1.48,1.48,0,0,0,.16-.71A2.44,2.44,0,0,0,61.56,14.08Z"/><path class="cls-28" d="M62.35,13.85a8,8,0,0,1-2.78,3.23,2.13,2.13,0,0,0,.72,1.06c.72-1.35,1.5-2.73,2.3-4A3.08,3.08,0,0,0,62.35,13.85Z"/><path class="cls-15" d="M59.8,19.08l-.5,1c-2.26-.47-4.86.78-4.28,17a14,14,0,0,1-3.08,3c-.32-10.52-.59-17.14,1.62-19.89a3.69,3.69,0,0,1,1.92-1.28A8.31,8.31,0,0,1,59.8,19.08Z"/><path class="cls-38" d="M54.35,22.6a32.17,32.17,0,0,0-2.24,17.29A13.74,13.74,0,0,0,55,37c-.58-16.2,2-17.45,4.28-17,.16-.32.33-.64.49-1A6,6,0,0,0,54.35,22.6Z"/><path class="cls-36" d="M62.59,29.55c-1.68,1.31-4.37,1.3-5.25.69-1.64-1.12-2.07-3.6.27-6.5a7.69,7.69,0,0,0-.85,3.07C57,27.75,59.8,28.85,62.59,29.55Z"/><path class="cls-39" d="M62.59,29.55c-1.68,1.31-4.37,1.3-5.25.69-1.64-1.12-2.07-3.6.27-6.5a7.69,7.69,0,0,0-.85,3.07C57,27.75,59.8,28.85,62.59,29.55Z"/><path class="cls-28" d="M56.76,26.81a7.69,7.69,0,0,1,.85-3.07,6.2,6.2,0,0,0-1.63,4,10.22,10.22,0,0,0,5.65,2.41,4.82,4.82,0,0,0,1-.56C59.8,28.85,57,27.75,56.76,26.81Z"/><path class="cls-5" d="M55,37a65,65,0,0,0-3.16,9.13,10.57,10.57,0,0,0-3.4-7.87,5,5,0,0,1-1.3-1.73c1.45-11,3.92-15,6.4-16.43C51.35,22.88,51.62,29.5,51.94,40A14,14,0,0,0,55,37Z"/><path class="cls-5" d="M33,70.4l-1.9.66c.56-18.6,6.17-37.6,6.17-37.6C43.16,30.18,49,24.7,47.21,21.32c-.3-.55-1.12-.91-2.33-1.11a42.63,42.63,0,0,1,8.57-.77C50.73,20.81,48,25,46.51,36.49c-.13.21-.35.5-.6.84-1.68,2.21-5.62,7.41-.8,14.63a1.15,1.15,0,0,0,.93.51h0a.42.42,0,0,0,.3.12h0a3.35,3.35,0,0,0,1.43-.44.45.45,0,0,0-.5-.74,2.75,2.75,0,0,1-1,.3.41.41,0,0,0-.27.1.51.51,0,0,1-.4-.21c-4.56-6.84-.95-11.59.78-13.88l.34-.45A8,8,0,0,0,48,38.75c1.59,1.65,3.71,3.86,3.14,9.92h0c-.18.63-.35,1.26-.53,1.89l0,0a.85.85,0,0,1-.7.18.44.44,0,0,0-.56.28.45.45,0,0,0,.28.57,1.4,1.4,0,0,0,.41.06,1.63,1.63,0,0,0,.31,0c-2.06,7.49-3.35,14-3.35,14C43.94,66.63,36.52,69.19,33,70.4Z"/><path class="cls-16" d="M55,37a14,14,0,0,1-3.08,3c-.1-3.34-.2-6.28-.21-8.84-.91,2.6-1.74,5.24-2.53,7.9a10.41,10.41,0,0,1,2.66,7.08A65,65,0,0,1,55,37Z"/><path class="cls-16" d="M46.05,51.81a.41.41,0,0,1,.27-.1,2.75,2.75,0,0,0,1-.3.45.45,0,0,1,.5.74,3.35,3.35,0,0,1-1.43.44h0a.42.42,0,0,1-.3-.12h0a1.42,1.42,0,0,1-.58-.17c-1.46,5.21-3,10.41-4.83,15.48L47,65.62s1.29-6.47,3.35-14a1.63,1.63,0,0,1-.31,0,1.4,1.4,0,0,1-.41-.06.45.45,0,0,1-.28-.57.44.44,0,0,1,.56-.28.85.85,0,0,0,.7-.18l0,0c.18-.63.35-1.26.53-1.89h0c.46-4.85-.81-7.24-2.15-8.84-1.15,3.9-2.23,7.84-3.33,11.77A.53.53,0,0,0,46.05,51.81Z"/><path class="cls-18" d="M45.11,52c-4.82-7.22-.88-12.42.8-14.63.25-.34.47-.63.6-.84C48,25,50.73,20.81,53.45,19.44a42.63,42.63,0,0,0-8.57.77c1.21.2,2,.56,2.33,1.11,1.83,3.38-4.05,8.86-9.93,12.14,0,0-5.61,19-6.17,37.6L33,70.4l7.62-2.62C42.47,62.71,44,57.51,45.46,52.3A1,1,0,0,1,45.11,52Z"/><path class="cls-40" d="M47.11,24.56c-1.36,3-5.59,6.54-9.83,8.9,0,0-1,3.44-2.22,8.83C35.88,41.71,44.24,32.22,47.11,24.56Z"/><polygon class="cls-3" points="35.23 60.96 45.38 59.16 44.73 62.57 35.23 64.41 35.23 60.96"/><path class="cls-41" d="M66.74,18.13c1,.19,2.05-2.22,1.22-2.6S65.77,17.94,66.74,18.13Z"/><path class="cls-42" d="M66.74,18.13c1,.19,2.05-2.22,1.22-2.6S65.77,17.94,66.74,18.13Z"/><path class="cls-43" d="M66.6,17.19c.41.08.68-.65.33-.81S66.19,17.11,66.6,17.19Z"/><path class="cls-41" d="M71.82,19.61c.78.16,1.67-1.8,1-2.11S71,19.45,71.82,19.61Z"/><path class="cls-44" d="M71.82,19.61c.78.16,1.67-1.8,1-2.11S71,19.45,71.82,19.61Z"/><path class="cls-43" d="M71.77,18.85c.36.07.7-.56.38-.71S71.4,18.78,71.77,18.85Z"/><path class="cls-45" d="M64.46,23.47l.53-.24c.05.11-.17.35-.12.44A2.43,2.43,0,0,0,68,24.75c.09,0,.12-.41.21-.44l.17.55A2.57,2.57,0,0,1,64.46,23.47Z"/><path class="cls-46" d="M65.05,14.11c-.77.68,3,.21,4.82.84.58.19,1.43-1,.52-1.59S66.11,13.18,65.05,14.11Z"/><path class="cls-46" d="M74.77,17.48A17.49,17.49,0,0,1,73,15.54c-.23-.42.45-1.07.87-.95S75.27,18,74.77,17.48Z"/><path class="cls-47" d="M13.33,64.69l1.33,2.1c1.45.16,2.5,1.32,2.31,1A7.1,7.1,0,0,0,13.33,64.69Z"/><path class="cls-34" d="M19.69,72.45H18.14A4.32,4.32,0,0,0,14,68.37c-1.91-.07-3.9,1.19-4.38,4.08H8c.54-4,3.41-5.71,6-5.63A5.92,5.92,0,0,1,19.69,72.45Z"/><path class="cls-48" d="M13.49,67.23a5.88,5.88,0,0,1,5.62,5.22h.58A5.92,5.92,0,0,0,14,66.82a5.63,5.63,0,0,0-3.82,1.36A5.57,5.57,0,0,1,13.49,67.23Z"/><path class="cls-48" d="M9.15,72.45H9.6a5.13,5.13,0,0,1,1.54-3A4.72,4.72,0,0,0,9.15,72.45Z"/><path class="cls-49" d="M17,67.79a5.93,5.93,0,0,0-3-1,5.65,5.65,0,0,0-4.1,1.61c.31.42.62.84.95,1.23A4,4,0,0,1,14,68.37,4.19,4.19,0,0,1,17,69.82,9.84,9.84,0,0,0,17,67.79Z"/><polygon class="cls-3" points="19.34 81.48 19.34 85.33 16 85.33 16.16 89 12.31 89.16 12.14 85.33 8.74 85.33 8.74 81.48 11.98 81.48 11.83 77.81 15.68 77.65 15.84 81.48 19.34 81.48"/><polygon class="cls-16" points="15.3 85.33 15.43 89.03 16.16 89 16.03 85.33 15.3 85.33"/><polygon class="cls-16" points="11.88 82.09 11.85 81.48 8.74 81.48 8.74 82.09 11.88 82.09"/><polygon class="cls-16" points="15.84 81.48 15.68 77.65 11.83 77.81 11.85 78.39 14.98 78.26 15.14 82.09 18.64 82.09 18.64 85.33 19.34 85.33 19.34 81.48 15.84 81.48"/><path class="cls-50" d="M14,75.2a8.37,8.37,0,1,1-8.37,8.37A8.37,8.37,0,0,1,14,75.2Zm5.3,10.13V81.48h-3.5l-.16-3.83-3.85.16L12,81.48H8.74v3.85h3.4l.17,3.83L16.16,89,16,85.33Z"/><path class="cls-5" d="M24.36,72.45a3.69,3.69,0,0,1,3.72,3.85l-.5,13.76a4,4,0,0,1-4,3.86H4.81A4.11,4.11,0,0,1,.75,90.07L0,76.3a3.61,3.61,0,0,1,3.64-3.85H24.36Zm2.94,3.82a2.91,2.91,0,0,0-2.94-3H3.65a2.84,2.84,0,0,0-2.87,3L1.52,90a3.34,3.34,0,0,0,3.29,3.13H23.58A3.26,3.26,0,0,0,26.81,90Z"/><path class="cls-51" d="M.6,76.65l.74,13.76a3.34,3.34,0,0,0,3.3,3.12H23.41a3.25,3.25,0,0,0,3-2.12,3.26,3.26,0,0,1-2.85,1.74H4.81A3.34,3.34,0,0,1,1.52,90L.78,76.26A2.79,2.79,0,0,1,.94,75.1,2.9,2.9,0,0,0,.6,76.65Z"/><path class="cls-51" d="M24.36,72.45H3.65A3.62,3.62,0,0,0,.24,74.77a3.62,3.62,0,0,1,3.24-1.93h20.7a3.69,3.69,0,0,1,3.72,3.85l-.5,13.76a3.9,3.9,0,0,1-.27,1.28,4.06,4.06,0,0,0,.45-1.67l.5-13.76A3.69,3.69,0,0,0,24.36,72.45Z"/><path class="cls-34" d="M26.49,74.11a3,3,0,0,1,.81,2.16L26.81,90a3.26,3.26,0,0,1-3.23,3.11H4.81A3.34,3.34,0,0,1,1.52,90L.78,76.26a2.84,2.84,0,0,1,2.87-3H24.36A2.93,2.93,0,0,1,26.49,74.11Zm-4.08,9.46A8.37,8.37,0,1,0,14,91.94,8.37,8.37,0,0,0,22.41,83.57Z"/><path class="cls-52" d="M27.43,91l0,0c0-.12.05-.23.07-.35s0,0,0-.08,0-.28,0-.43l.5-13.76a3.69,3.69,0,0,0-3.72-3.85H19.69A6.1,6.1,0,0,0,17,67.79h0a3.79,3.79,0,0,0-.34-.2l0,0a5.58,5.58,0,0,0-1-.46l-.06,0L15.32,67l-.2,0-.21,0-.27,0-.17,0-.45,0h-.51l-.15,0a3.16,3.16,0,0,0-.32,0h0l-.17,0-.28.06h-.07l-.17,0-.36.11-.14.06-.37.16-.13.06-.38.22-.1.06-.4.28-.06,0-.16.13h0l-.27.25h0a6.81,6.81,0,0,0-1.88,4H3.65l-.35,0H3.2l-.26,0-.1,0-.32.08h0l-.28.11-.1,0-.2.1-.1.06-.27.16-.06.05a1.25,1.25,0,0,0-.19.15l-.1.08a1.85,1.85,0,0,1-.14.14L1,73.61c-.06.07-.13.14-.18.21l-.08.11-.12.16-.07.13-.09.16s0,.08-.07.13a2,2,0,0,0-.11.26A3.7,3.7,0,0,0,0,76.3L.75,90.07a4.11,4.11,0,0,0,4.06,3.85H23.58a4,4,0,0,0,3.72-2.57v0A1.9,1.9,0,0,0,27.43,91ZM9.7,71.94l.06-.21c0-.09.05-.18.07-.26s.07-.18.1-.26S10,71.09,10,71s.09-.2.13-.29a.93.93,0,0,0,0-.1q.09-.16.18-.3l0-.06q.11-.17.21-.3s0,0,0,0l.24-.28h0l0,0a4,4,0,0,1,1.42-1l.06,0,.31-.11.1,0,.29-.07.12,0,.28,0h.11a2.67,2.67,0,0,1,.4,0l.38,0h.11l.29,0,.11,0a2.46,2.46,0,0,1,.29.09l.09,0a2.37,2.37,0,0,1,.34.13h0A4.26,4.26,0,0,1,17,69.82a4.8,4.8,0,0,1,1.1,2.63H9.6A3.84,3.84,0,0,1,9.7,71.94Z"/><path class="cls-36" d="M16.55,67.71c-.47-1.32-1.73-2.1-2.47-3.27a4.73,4.73,0,0,0-2.64-.1c.47,2.06-.1,3.71,1.21,4.75.74.94,1.12,1.26,1.39,1.13s-.11-.29-.54-1.39c-.06-.15.06-.29.17,0,.52,1.14.92,1.6,1.22,1.44.09,0,.08-.53-.22-1.66,0-.15.14-.17.18,0,.2.86.37,1.68.6,1.68s.49-.61.38-1.58c0-.22.17-.12.14.09-.09.78-.06,1.32.16,1.35S16.79,68.39,16.55,67.71Z"/><path class="cls-48" d="M26.49,74.11a2.93,2.93,0,0,0-2.13-.89H16.65c9,2.88,9.35,16.54,2.76,19.93h4.17A3.26,3.26,0,0,0,26.81,90l.49-13.77A3,3,0,0,0,26.49,74.11Z"/><path class="cls-53" d="M149.79,91.32s-.09,5.59-5.65,5.35a6.15,6.15,0,0,1-7.46,0c-2.28,1.29-5.52-.62-5.63-3.8a9.81,9.81,0,0,0,.79-2.06C134.14,93.05,143.6,95.87,149.79,91.32Z"/><path class="cls-54" d="M137.78,96.74a14.11,14.11,0,0,0,2.44,1.19,6,6,0,0,0,2.32-.41,13.24,13.24,0,0,1-6.85-2.8A8,8,0,0,0,137.78,96.74Z"/><path class="cls-54" d="M142.1,93.74a19.53,19.53,0,0,0,7,.26,7,7,0,0,0,.7-2.68A13.39,13.39,0,0,1,142.1,93.74Z"/><path class="cls-54" d="M139,93.7a.44.44,0,0,1-.19-.16,19.75,19.75,0,0,1-3.84-1,11.86,11.86,0,0,0,10.17,3.85,14,14,0,0,0,2.14-.45,4.29,4.29,0,0,0,1.11-1A18.08,18.08,0,0,1,139,93.7Z"/><path class="cls-55" d="M133.2,91.76a6.13,6.13,0,0,1-1.36-1,9.81,9.81,0,0,1-.79,2.06c.1,3,3,4.89,5.27,4A8.08,8.08,0,0,1,133.2,91.76Z"/><path class="cls-56" d="M131.84,90.81a9.81,9.81,0,0,1-.79,2.06,5,5,0,0,1-3.15,2.89A22,22,0,0,0,127.63,84c-3-8.88-12.14-9.72-14-4.77S115,91.35,120.35,94c0,0-1.2-.14-2.73-.16h0A23.72,23.72,0,0,1,107.41,90a31.49,31.49,0,0,1-6.85-5.82,17.85,17.85,0,0,1-1.46-1.89,6,6,0,0,0,3.52.18s2-4.47-.59-6.27l-1.44-1c5.6-2.73,13.34-2.55,15.88-8.83C131.16,76,133.28,85.32,131.84,90.81Z"/><path class="cls-55" d="M113.29,88.85A22.68,22.68,0,0,0,115,93.41a16.6,16.6,0,0,0,2.58.45h0c1.53,0,2.73.16,2.73.16a13.86,13.86,0,0,1-7.18-11.1A14.8,14.8,0,0,0,113.29,88.85Z"/><path class="cls-57" d="M103.17,80.75a10,10,0,0,1-.55,1.74,6,6,0,0,1-3.52-.18,17.85,17.85,0,0,0,1.46,1.89A31.49,31.49,0,0,0,107.41,90a23.72,23.72,0,0,0,10.2,3.84h.58C112.91,90.43,107.8,87.66,103.17,80.75Z"/><path class="cls-54" d="M119.18,93.92c.71,0,1.17.1,1.17.1a11,11,0,0,1-1.76-1.1C118.79,93.25,119,93.58,119.18,93.92Z"/><path class="cls-55" d="M125.13,79.56a13.22,13.22,0,0,1,2.5,4.44,22,22,0,0,1,.27,11.76,3.6,3.6,0,0,0,1.94-1.18c0-.13,0-.26.07-.39C130.25,91.92,131.05,82.65,125.13,79.56Z"/><path class="cls-55" d="M102.62,82.49a7.13,7.13,0,0,1-1.17.16c2.18.39,4.34-.35,4.09-3.4-.21-2.7-.2-4.73,2.67-5.78,3.28-1.2,6.86-3.74,8.49-6.93l-.23-.16c-2.54,6.28-10.28,6.1-15.88,8.83l1.44,1C104.62,78,102.62,82.49,102.62,82.49Z"/><path class="cls-58" d="M127.63,84a22,22,0,0,1,.27,11.76,5.6,5.6,0,0,1-.35.84c-5,1.61-16.91,1.57-16.31-.76.45-1.73,3.86-2,6.37-2h0c1.53,0,2.73.16,2.73.16-5.35-2.67-8.5-9.84-6.68-14.79S124.61,75.12,127.63,84Z"/><path class="cls-55" d="M123.21,83.59c-2.28.3-.72,5,.57,5.35S128.22,82.94,123.21,83.59Z"/><path class="cls-55" d="M125,81.58c.41.54,1.31,1.18,1.89.63a12.1,12.1,0,0,0-2.19-3.13,2,2,0,0,0-.21,1.38A3.26,3.26,0,0,0,125,81.58Z"/><path class="cls-55" d="M125.31,85.91c.85-.86-.18-2-.91-1.64C123.49,84.72,124.28,87,125.31,85.91Z"/><path class="cls-55" d="M121.72,88.55c-.46.72.42,1.37.88,1S122.29,87.68,121.72,88.55Z"/><path class="cls-59" d="M117.42,97.7l.3-.2c1.69-1.3-.23-2.38-1-2.74a10,10,0,0,0-2-.75c-1.67.22-3.12.74-3.41,1.83S113.83,97.61,117.42,97.7Z"/><path class="cls-54" d="M118.62,80.71a6.46,6.46,0,0,1,5.24-2.4c-3.87-3.19-8.89-2.62-10.19.92-1.53,4.15.45,9.86,4.28,13.18C116.27,88.5,116.22,84.15,118.62,80.71Z"/><path class="cls-59" d="M114.05,86.14a10.67,10.67,0,0,1,5.45-9.84c-2.62-.39-5,.66-5.83,2.93a11,11,0,0,0,.52,7.92C114.13,86.82,114.08,86.48,114.05,86.14Z"/><path class="cls-58" d="M116.73,65.64a5.88,5.88,0,0,1-.26.74c-2.54,6.28-10.28,6.1-15.88,8.83A41.88,41.88,0,0,0,95,71.67,41.38,41.38,0,0,1,97.61,55.9c-7.66-.42-10.78-5.4-10.22-7.75.62-.9,2.66.28,2.21-1a3,3,0,0,0-.51-.92l.06,0c2.29-1,6,.15,6,.15a8,8,0,0,1,2.64-2.71,7.53,7.53,0,0,1,1.78-.84,10.6,10.6,0,0,1,6.09-.49c7,2.09,3,8.69,3,8.69A85.94,85.94,0,0,1,116.73,65.64Z"/><path class="cls-55" d="M111.42,55.31c-.44-.72-.85-1.38-1.21-2A26.4,26.4,0,0,1,97,57.56c-.17.5-.32,1-.46,1.48A17.75,17.75,0,0,0,111.42,55.31Z"/><path class="cls-54" d="M104.09,51.2a13.24,13.24,0,0,0,3.12-8.28,8.05,8.05,0,0,0-1.55-.63,10.6,10.6,0,0,0-6.09.49,7.53,7.53,0,0,0-1.78.84,8,8,0,0,0-2.64,2.71s-3.71-1.12-6-.15l-.06,0a3,3,0,0,1,.51.92c.45,1.28-1.59.1-2.21,1C87,50,88.72,53.34,93.05,55,97,55.45,101.45,54.38,104.09,51.2Z"/><path class="cls-54" d="M105.26,71.23l-.23.12a12.78,12.78,0,0,1,1.49,1.78l.21-.06A7.31,7.31,0,0,0,105.26,71.23Z"/><path class="cls-54" d="M106.45,70.61l-.2.11a8.51,8.51,0,0,1,1.51,2l.56-.17A6.8,6.8,0,0,0,106.45,70.61Z"/><path class="cls-54" d="M107.8,69.79a12,12,0,0,1,1.27,1.5c-.38-.53-.78-1-1.19-1.55Z"/><path class="cls-54" d="M112.91,70.58a12.26,12.26,0,0,0-1.4-4.16c-.25.29-.51.59-.77.86a10.56,10.56,0,0,1,2.11,3.34Z"/><path class="cls-54" d="M108.32,69.42h0a25,25,0,0,1,1.84,2.52l.36-.15A19.06,19.06,0,0,0,108.32,69.42Z"/><path class="cls-55" d="M104.36,73.06a20.59,20.59,0,0,0-5.94-2.4,20.28,20.28,0,0,0-3.48-.31c0,.45,0,.9,0,1.32a41.88,41.88,0,0,1,5.63,3.54,30.24,30.24,0,0,1,4.57-1.68Z"/><path class="cls-54" d="M97.58,56A41.3,41.3,0,0,0,95,69.56C108.84,72.42,101.76,54.37,97.58,56Z"/><path class="cls-59" d="M96.69,63.79c.21-2.25.78-4.59.55-6.85A41.46,41.46,0,0,0,95,69.56c.51.1,1,.17,1.45.22C96.42,67.78,96.5,65.78,96.69,63.79Z"/><path class="cls-59" d="M98.07,56.64a30.12,30.12,0,0,1-.45,6.4c-.15,1.65-.25,3.29-.3,4.93.09-1.14.21-2.28.37-3.42.18-1.33.39-2.65.62-4C98.51,59.45,99.16,57.1,98.07,56.64Z"/><path class="cls-55" d="M108.63,51s3.21-5.24-1.06-7.86l0,0a5.22,5.22,0,0,0-.47-.26l-.1-.05-.48-.21-.14-.06c-.21-.08-.44-.16-.68-.23a6.23,6.23,0,0,0-.62-.15H105c-.2,0-.4-.06-.6-.08h-.08l-.58,0h-.09a5.43,5.43,0,0,0-.57,0h-.24a15.82,15.82,0,0,0-6.15,4.79A7.51,7.51,0,0,0,95,46.29c-.74-.21-3.84-1-5.84-.11l-.06,0a3,3,0,0,1,.51.92c.45,1.28-1.59.1-2.21,1-.39,1.65,1,4.57,4.51,6.33,2.68.9,5.32,1.43,6.32-.32.14-14.4,9-6.12,9-2.63-.07,4.28,3.22,7.08,6.55,18.46a8.67,8.67,0,0,0,2.73-3.61,5.88,5.88,0,0,0,.26-.74A85.94,85.94,0,0,0,108.63,51Z"/><path class="cls-59" d="M92.44,52.28A12.4,12.4,0,0,0,91,50.15a13.45,13.45,0,0,1,1.54,4.53l.56.18A5.68,5.68,0,0,0,92.44,52.28Z"/><path class="cls-59" d="M89.53,49.92c.17.44-.53.63-.7.2A7.45,7.45,0,0,0,87.77,48l-.19,0a.81.81,0,0,0-.19.18c-.38,1.59.93,4.36,4.16,6.13A14.47,14.47,0,0,0,89.16,49C89.29,49.3,89.41,49.61,89.53,49.92Z"/><path class="cls-55" d="M107.46,50.31a4.27,4.27,0,0,0,2.23,2.25c-.65-1-1.06-1.58-1.06-1.58a9.21,9.21,0,0,0,1.09-3.07c-.77.37-1.53.75-2.32,1.1A5,5,0,0,0,107.46,50.31Z"/><path class="cls-55" d="M97.54,48.8a3.48,3.48,0,0,0-2.22-2.43L95,46.29c-.74-.21-3.84-1-5.84-.11l-.06,0a8.9,8.9,0,0,1,.57,1.58C90.7,48.21,97.31,50.09,97.54,48.8Z"/><path class="cls-60" d="M107.41,90h0a17.82,17.82,0,0,1-1.87,5.2c-1.28,2-5.65,1.64-6.47.53a1.6,1.6,0,0,1,1.73-2.53c1.91.28,1.55-6-.24-9A31.49,31.49,0,0,0,107.41,90Z"/><path class="cls-54" d="M101.92,95.42c1.82-.6,1.22-2.4,0-3.24-.2.7-.55,1.12-1.07,1-1.5-.22-2.21.78-2,1.76A5.17,5.17,0,0,0,101.92,95.42Z"/><path class="cls-61" d="M100.56,84.2a10,10,0,0,1,1,2.51,24.33,24.33,0,0,1,4.36,7.85A19.67,19.67,0,0,0,107.41,90h0A31.49,31.49,0,0,1,100.56,84.2Z"/><path class="cls-58" d="M95,71.67a41.88,41.88,0,0,1,5.63,3.54l1.44,1c2.59,1.8.59,6.27.59,6.27a6,6,0,0,1-3.52-.18c-3.61-1.34-4.91-6.08-4.91-6.08-.79,3.89-5,5.28-6.26,4.07a2.12,2.12,0,0,1,.5-3.64c2.37-1.26,2.17-4,3.75-5.22C92.8,71,93.75,71.13,95,71.67Z"/><path class="cls-54" d="M98.54,77.59c-.24-.23-.51-.48-.8-.72a17.52,17.52,0,0,0,3.45,5.06c.22.24.45.46.69.68l.53-.08A15.16,15.16,0,0,1,98.54,77.59Z"/><path class="cls-54" d="M99.77,78.7a19.39,19.39,0,0,0,3,3.39,10,10,0,0,0,.34-1.1C102,80.25,100.82,79.54,99.77,78.7Z"/><path class="cls-54" d="M96.54,76c-.73-.4-1.35-.41-1.48.56a6.73,6.73,0,0,0,0,1.74,8,8,0,0,0,4,4,5,5,0,0,0,1.59.34c-.18-.18-.35-.37-.52-.56A17.59,17.59,0,0,1,96.54,76Z"/><path class="cls-59" d="M90.76,73.65a5.43,5.43,0,0,1-2.33,3,2.12,2.12,0,0,0-.5,3.64,2.72,2.72,0,0,0,2.79.11,5.07,5.07,0,0,0,.86-.81C91.94,77.83,92,75,90.76,73.65Z"/><path class="cls-59" d="M91.55,73.35a7,7,0,0,1,1.06,4.34,5.7,5.7,0,0,0,.19-.84A3.42,3.42,0,0,0,91.55,73.35Z"/><path class="cls-56" d="M99.57,42.78a7.53,7.53,0,0,0-1.78.84s-.3-.31-.73-.69a8.77,8.77,0,0,0-1.45-1.07s-.61,1.9.21,2.27c-1.39.59-2.12-1.86-1.26-3.76C95.65,38,98.2,40.14,99.57,42.78Z"/><path class="cls-55" d="M97.06,42.93h0c.43.38.73.69.73.69a7.53,7.53,0,0,1,1.78-.84,11.15,11.15,0,0,0-.7-1.16A4.73,4.73,0,0,0,97.06,42.93Z"/><path class="cls-62" d="M97.06,42.93a3.23,3.23,0,0,1-1.24,1.2c-.82-.37-.21-2.27-.21-2.27A8.77,8.77,0,0,1,97.06,42.93Z"/><path class="cls-63" d="M89.6,47.15c.45,1.28-1.59.1-2.21,1a2.53,2.53,0,0,1-.06-1.68c.45-1.14,1.21-.93,1.76-.24A3,3,0,0,1,89.6,47.15Z"/><path class="cls-43" d="M89.1,46.77a.28.28,0,0,1-.09.38.33.33,0,1,1,.09-.38Z"/><path class="cls-63" d="M101,47.39a4.45,4.45,0,0,0-.43,1.15,1.47,1.47,0,0,0,0,.59.42.42,0,0,0,.36.34A1.78,1.78,0,0,0,102,49a8,8,0,0,0,.91-.84l.06.06a2.58,2.58,0,0,1-.59,1.26,2.11,2.11,0,0,1-.57.49,1.5,1.5,0,0,1-1,.24,1.12,1.12,0,0,1-.68-.33,1.3,1.3,0,0,1-.3-.6,1.64,1.64,0,0,1,.12-.89,2.07,2.07,0,0,1,1-1Z"/><path class="cls-63" d="M97.3,45a3.32,3.32,0,0,0-.46.87c0,.15,0,.33.08.37a.58.58,0,0,0,.44,0,2.85,2.85,0,0,0,.82-.52,6,6,0,0,0,.69-.73l.07.05a1.9,1.9,0,0,1-.35,1.13,2,2,0,0,1-1,.79,2.05,2.05,0,0,1-.41.1,1.22,1.22,0,0,1-.62-.12.9.9,0,0,1-.34-.33.82.82,0,0,1-.11-.37.88.88,0,0,1,.1-.48,1.46,1.46,0,0,1,1-.77Z"/><path class="cls-60" d="M108.08,48c4.51-3,8.79-1.9,9.43.2s-1.68,6.37-3.05,5.46S112.59,49,112.59,49a10,10,0,0,0-5.14.94S107.17,48.52,108.08,48Z"/><path class="cls-59" d="M116.36,46.79c-1.7-1-4.92-1.09-8.28,1.17-.91.56-.63,2-.63,2a10,10,0,0,1,5.14-.94A15.18,15.18,0,0,0,113,51C113.09,48.69,114.07,46.58,116.36,46.79Z"/><path class="cls-64" d="M110.3,52c-6,5.52-14.07,5-14.07,5l-.11,2.23c9.93.22,15.1-5.42,15.1-5.42Z"/><path class="cls-65" d="M92.18,70.92h0c-1.76,1.32-1.53,4.41-4.17,5.81a2.37,2.37,0,0,0-.56,4.07c1.17,1.16,4.86.16,6.41-2.93A8.62,8.62,0,0,0,92.18,70.92Z"/><path class="cls-66" d="M87.08,77.47a2.75,2.75,0,0,0,0,.41c.21,1.73,1.83,2.18,3.23,1.25a7.57,7.57,0,0,0,2.93-4.6,7.78,7.78,0,0,0,.2-1.33,7.53,7.53,0,0,0-1.28-2.28h0c-1.76,1.32-1.53,4.41-4.17,5.81A3.16,3.16,0,0,0,87.08,77.47Z"/><path class="cls-67" d="M91.44,79.34c0-1-.1-2.06-.23-3.09l.6.24-.61-.33c0-.36-.1-.72-.16-1.08L91,75c-.1.22-.19.45-.3.68,0,.07,0,.14,0,.22l-1.11-.66a1.24,1.24,0,0,0-.14.18c.42.23.84.43,1.27.62C91,77.16,91.21,78.25,91.44,79.34Z"/><path class="cls-67" d="M88.76,76.23l0,0a12.67,12.67,0,0,0,.47,2.44c-.67-.43-1.33-.88-2-1.36a2.35,2.35,0,0,0-.26.29,14.14,14.14,0,0,0,2.4,1.56c.21.63.45,1.26.72,1.88l.35-.12-.54-1.5a19.26,19.26,0,0,0,1.95.77h0c-.72-.36-1.42-.76-2.11-1.18C89.4,78.1,89.07,77.17,88.76,76.23Z"/><path class="cls-67" d="M86.59,78.42a2.6,2.6,0,0,0,.85,2.39,1.56,1.56,0,0,0,.87.39l-.08-.13A22.22,22.22,0,0,1,86.59,78.42Z"/><path class="cls-67" d="M94,75.58v0l-1-.71a10.09,10.09,0,0,0-1.1-3.62l-.07.07a14.5,14.5,0,0,1,.86,3.32c-.65-.48-1.3-1-1.92-1.5q-.08.15-.15.33c.69.48,1.39.93,2.1,1.36a14.72,14.72,0,0,1,.11,2.39c.09-.56.14-1.08.17-1.46A6.31,6.31,0,0,0,93,75Z"/></g></g></g></svg>