<svg xmlns="http://www.w3.org/2000/svg" xmlns:xlink="http://www.w3.org/1999/xlink" viewBox="0 0 122.49 107.36"><defs><style>.cls-1,.cls-16,.cls-18,.cls-38,.cls-54,.cls-55,.cls-58,.cls-62,.cls-68,.cls-74,.cls-76{mix-blend-mode:hard-light;}.cls-1{fill:url(#linear-gradient);}.cls-2{isolation:isolate;}.cls-3{fill:#8e6461;}.cls-4{fill:#f0e9e9;}.cls-21,.cls-29,.cls-32,.cls-4,.cls-40,.cls-44,.cls-46,.cls-5,.cls-51,.cls-56,.cls-61,.cls-65,.cls-8,.cls-81,.cls-86{mix-blend-mode:multiply;}.cls-5{fill:#f2eae9;}.cls-6{fill:#a1716e;}.cls-7{fill:#3d2724;}.cls-11,.cls-12,.cls-17,.cls-24,.cls-26,.cls-28,.cls-31,.cls-34,.cls-39,.cls-43,.cls-45,.cls-48,.cls-49,.cls-59,.cls-64,.cls-7,.cls-84{mix-blend-mode:screen;}.cls-8,.cls-87{fill:#e6d5d3;}.cls-9{fill:#d39b97;}.cls-10{fill:#966563;}.cls-11,.cls-85{fill:#241715;}.cls-12{fill:#6b3832;}.cls-13{fill:#b78883;}.cls-14{fill:#0e0f0f;}.cls-15{fill:#918e26;}.cls-16{fill:url(#linear-gradient-2);}.cls-17{fill:#f5f5f5;}.cls-18{fill:url(#linear-gradient-3);}.cls-19{fill:#7c5352;}.cls-20{fill:#607d8c;}.cls-21{fill:#b4cfe0;}.cls-22{fill:#6f99b3;}.cls-23{fill:#89b7ce;}.cls-24{fill:#506a78;}.cls-25{fill:#211216;}.cls-26{fill:#4a3b3f;}.cls-27{fill:#f9be2b;}.cls-28{fill:#664e12;}.cls-29{fill:#f9e0a2;}.cls-30{fill:#c7d4d3;}.cls-31{fill:#595957;}.cls-32{fill:#e6e6e6;}.cls-33{fill:#d5e3e2;}.cls-34{fill:#757573;}.cls-35{fill:#bbc7c6;}.cls-36{fill:#eaa494;}.cls-37{fill:#d69687;}.cls-38{fill:url(#linear-gradient-4);}.cls-39{fill:#804728;}.cls-40{fill:#e8d6cc;}.cls-41{fill:#42242b;}.cls-42{fill:#8d7cb5;}.cls-43{fill:#2a2536;}.cls-44{fill:#cbc7d4;}.cls-45{fill:#1f1114;}.cls-46{fill:#806c71;}.cls-47{fill:#c4b3e0;}.cls-48{fill:#544c5e;}.cls-49{fill:#554b6e;}.cls-50{fill:#a18dc6;}.cls-51{fill:#dedae8;}.cls-52{fill:#fac4a6;}.cls-53{clip-path:url(#clip-path);}.cls-54{fill:url(#radial-gradient);}.cls-55{fill:url(#radial-gradient-2);}.cls-56{fill:#f5f0ed;}.cls-57{fill:#755036;}.cls-58{fill:url(#linear-gradient-6);}.cls-59{fill:#452f20;}.cls-60{fill:#61422d;}.cls-61{fill:#c7b2a3;}.cls-62{fill:url(#linear-gradient-7);}.cls-63{fill:#523826;}.cls-64{fill:#332318;}.cls-65{fill:#ccb2a5;}.cls-66{fill:#9d6da5;}.cls-67{fill:#633a6b;}.cls-68{fill:url(#linear-gradient-8);}.cls-69{fill:#c97526;}.cls-70{fill:#fff;}.cls-71{fill:#cf9b84;}.cls-72{fill:#ffe6db;}.cls-73{fill:#6b3e11;}.cls-74{fill:url(#linear-gradient-9);}.cls-75{fill:#b3896b;}.cls-76{fill:url(#linear-gradient-10);}.cls-77{fill:#5c4626;}.cls-78{fill:#f47a7a;}.cls-79{fill:#d85656;}.cls-80{fill:#994848;}.cls-81{fill:#d3e3e3;}.cls-82{fill:#594231;}.cls-83{fill:#b08482;}</style><linearGradient id="linear-gradient" x1="37.91" y1="33.24" x2="47.15" y2="15.11" gradientUnits="userSpaceOnUse"><stop offset="0" stop-color="#ffd4c2"/><stop offset="1" stop-color="gray"/></linearGradient><linearGradient id="linear-gradient-2" x1="77.23" y1="20.06" x2="77.81" y2="17.48" gradientUnits="userSpaceOnUse"><stop offset="0.36" stop-color="#a7a664"/><stop offset="0.53" stop-color="#9a9a6d"/><stop offset="0.83" stop-color="#8b8b78"/><stop offset="1" stop-color="gray"/></linearGradient><linearGradient id="linear-gradient-3" x1="87.86" y1="20.01" x2="86.8" y2="16.79" xlink:href="#linear-gradient-2"/><linearGradient id="linear-gradient-4" x1="51.22" y1="78.05" x2="54.75" y2="95.44" gradientUnits="userSpaceOnUse"><stop offset="0" stop-color="#a86d65"/><stop offset="1" stop-color="gray"/></linearGradient><clipPath id="clip-path"><path class="cls-1" d="M53.59,16.82c-2,7.42-9.07,10.11-10.4,9.44A5.58,5.58,0,0,1,40.48,23a15.63,15.63,0,0,1-.19-8,23,23,0,0,1,.84-3.15h0A7.19,7.19,0,0,1,45,8.59l.12,0C54.07,7,54.8,14,53.59,16.82Z"/></clipPath><radialGradient id="radial-gradient" cx="-561.59" cy="-518.94" r="2.02" gradientTransform="matrix(0.46, 1.17, -0.93, 0.36, -185.56, 863.42)" gradientUnits="userSpaceOnUse"><stop offset="0" stop-color="#d6625a"/><stop offset="1" stop-color="gray"/></radialGradient><radialGradient id="radial-gradient-2" cx="-224.35" cy="-114.74" r="1.56" gradientTransform="matrix(1.77, 0.26, -0.14, 0.99, 431.63, 192.79)" xlink:href="#radial-gradient"/><linearGradient id="linear-gradient-6" x1="50.17" y1="15.96" x2="53.02" y2="3.6" gradientUnits="userSpaceOnUse"><stop offset="0" stop-color="#5c4f3f"/><stop offset="1" stop-color="gray"/></linearGradient><linearGradient id="linear-gradient-7" x1="43.7" y1="77.93" x2="40.71" y2="89.07" xlink:href="#linear-gradient-4"/><linearGradient id="linear-gradient-8" x1="32.81" y1="28.07" x2="38.04" y2="21.41" gradientUnits="userSpaceOnUse"><stop offset="0" stop-color="#ffdfc2"/><stop offset="1" stop-color="gray"/></linearGradient><linearGradient id="linear-gradient-9" x1="45.21" y1="17.39" x2="47.52" y2="15.28" gradientUnits="userSpaceOnUse"><stop offset="0" stop-color="#fff"/><stop offset="1"/></linearGradient><linearGradient id="linear-gradient-10" x1="52.37" y1="21.13" x2="52.95" y2="17.22" xlink:href="#linear-gradient-9"/></defs><g class="cls-2"><g id="Layer_2" data-name="Layer 2"><g id="Layer_1-2" data-name="Layer 1"><path class="cls-3" d="M73.89,40.25c-4.37,2.15,2.41,12,4.74,17.57.4.18,1.39-.07,1.8,0,7.66.63,5.45-3.58,7.3-10s-1.92-8.88-7.1-7.49S75.8,39.32,73.89,40.25Z"/><path class="cls-4" d="M80.8,46.49c0-.56-.26-1.21-.87-1.32a1.56,1.56,0,0,1-1,.37,1.2,1.2,0,0,0-.16.27,1.54,1.54,0,0,0,.73,2,.7.7,0,0,1,.08-.23,2.21,2.21,0,0,1,1.16-.86A1.93,1.93,0,0,0,80.8,46.49Z"/><path class="cls-4" d="M79.69,44.31c.19-.28.51-.84,0-1-.27,0-.42.23-.52.43a3.76,3.76,0,0,0-.29,1C79.12,44.85,79.41,44.72,79.69,44.31Z"/><path class="cls-4" d="M80.63,40.31c-5.19,1.39-4.83-1-6.74-.06-4.37,2.15,2.41,12,4.74,17.57a2,2,0,0,0,.86,0,2.33,2.33,0,0,1-.06-.35.43.43,0,0,1,.86,0,.45.45,0,0,1,.68.32c7,.39,5-3.77,6.76-10C89.57,41.4,85.81,38.92,80.63,40.31ZM82,56.6a1.06,1.06,0,0,1-.81-.17,1.17,1.17,0,0,1-.41-.18.86.86,0,0,1-.37-1,1.22,1.22,0,0,1,.3-.47.54.54,0,0,1,.37-.3.51.51,0,0,1,.24,0,1,1,0,0,1,.68.09,1.32,1.32,0,0,1,.59,1.06A.87.87,0,0,1,82,56.6Zm2.54-8.7c-.55,1.24-1.21,1.35-1.69,1a2.19,2.19,0,0,1-.79.11,2.74,2.74,0,0,1,.68.92A1.84,1.84,0,0,1,82.33,52a1.3,1.3,0,0,1,.31.26h0a1.13,1.13,0,0,1-.57,1.87.43.43,0,0,1-.3-.06,1.59,1.59,0,0,1-1.13-.27.86.86,0,0,1-.12.7.23.23,0,0,1-.19.32.74.74,0,0,1-.21,0,1.2,1.2,0,0,1-.82.13.89.89,0,0,1-.46-1.27l.06-.1a.8.8,0,0,1,.62-.55.91.91,0,0,1,.65.11,1.24,1.24,0,0,1,0-.54,1.72,1.72,0,0,1,.07-.21,2,2,0,0,1-1.32-1.73c0-.06,0-.12,0-.19a1.74,1.74,0,0,1,0-1.51,1.45,1.45,0,0,1,.59-.59,2,2,0,0,1-1.24-2.49l0-.08a.4.4,0,0,1-.31-.36.92.92,0,0,0,0-.16,1.79,1.79,0,0,1-.55-.68c-.42-.87-.29-2.19.78-2.46.5-.12.71.64.22.76s-.53.75-.32,1.25a2.17,2.17,0,0,1,1-1.47,1.23,1.23,0,0,1,1.49.48,1.45,1.45,0,0,1,.87-.47,2.09,2.09,0,0,1,1.72-.32c1.67.46,1.92,2.67,1.06,4C85,46.52,84.75,47.43,84.54,47.9Z"/><path class="cls-4" d="M80.77,49.48c.21.34.07.88-.43.84a.33.33,0,0,0-.19,0,1.21,1.21,0,0,0,1.07.64.45.45,0,0,1,.42.15A.86.86,0,0,0,81.48,50,3.49,3.49,0,0,0,80.77,49.48Z"/><path class="cls-4" d="M81.26,47.09a3,3,0,0,1-.39,1.21,3,3,0,0,1,.55.24c-.13-.46.33-.92.7-1.22,0,0,0-.06,0-.08A2,2,0,0,1,81.7,47Z"/><path class="cls-4" d="M83.91,46.83a2,2,0,0,1-.32.26l-.08,0a1,1,0,0,1,0,1.41l-.08.07a.91.91,0,0,0,.5-.46C84.13,47.76,84.68,46.67,83.91,46.83Z"/><path class="cls-4" d="M83.29,43.56a1.14,1.14,0,0,0-.92-.11.48.48,0,0,1-.42.27.87.87,0,0,0-.14.27,1.32,1.32,0,0,0,.48,1.45.46.46,0,0,1,.07.67.57.57,0,0,0,.49.12C83.66,46,84.06,44,83.29,43.56Z"/><path class="cls-5" d="M80.63,40.31a10.29,10.29,0,0,1-3.3.43C80.56,45.7,83,52,82.7,57.81c4.93-.4,3.4-4.35,5-10C89.57,41.4,85.81,38.92,80.63,40.31Z"/><path class="cls-6" d="M79,57.59l-8.85-.09V57c0-3.85-1.23-3.78-1.23-3.78-.14-.3,6.23,2.59,6.68,1.56.16-.36,1.75-1.11-1.48-4.07-10.08-9.25-6.11-15.78,1-11.23C74.37,42,78.76,55.21,79,57.59Z"/><path class="cls-4" d="M74.3,41.93c.18.64.59.77,1,.62a14.38,14.38,0,0,1-.23-1.91C74.53,40.92,74.14,41.39,74.3,41.93Z"/><path class="cls-4" d="M73.89,41a2.62,2.62,0,0,1,1.19-1.11,1.76,1.76,0,0,1,.07-.43l-.58-.35a3.39,3.39,0,0,1-.67,1.64A2,2,0,0,0,73.89,41Z"/><path class="cls-4" d="M72.14,40l.2.09a.32.32,0,0,1,.17.46.52.52,0,0,0,.78,0s0-.05,0-.08a.28.28,0,0,1,.21-.22,2.09,2.09,0,0,0,.41-1.42,8.36,8.36,0,0,0-1-.42,2.74,2.74,0,0,0-.94.26,1.65,1.65,0,0,0,0,1.11A2.72,2.72,0,0,1,72.14,40Z"/><path class="cls-4" d="M69.25,39.21a1,1,0,0,1,.43,1,.08.08,0,0,0,0,0c.17-.48.5-1.11,1.06-1.2h.07a1.52,1.52,0,0,1,.48-.63l.14-.09.14-.21a3.26,3.26,0,0,0-2.47.53A.52.52,0,0,1,69.25,39.21Z"/><path class="cls-4" d="M69.59,41.21a1.93,1.93,0,0,1,0-.72.76.76,0,0,1-.92.38.36.36,0,0,1-.07.1.47.47,0,0,1-.53.11,5.17,5.17,0,0,0,.08.76,1.34,1.34,0,0,1,.31-.36A1.31,1.31,0,0,1,69.59,41.21Z"/><path class="cls-4" d="M71.08,42.77a1.11,1.11,0,0,1,.6,0,.69.69,0,0,1-.16-.75.61.61,0,0,1,0-.12,1.4,1.4,0,0,1-.65.17l-.18,0-.14,0a1.43,1.43,0,0,1,0,1.08,2.63,2.63,0,0,1-.21.41.61.61,0,0,1,.13,0l.06,0A.69.69,0,0,1,71.08,42.77Z"/><path class="cls-4" d="M79,57.59c-.19-1.62-2.28-8.23-3.35-13.09a3.13,3.13,0,0,1-2.06-2,.71.71,0,0,1-.4.34,1.06,1.06,0,0,1,.39.18,1.1,1.1,0,0,1,.5,1.05,1.19,1.19,0,0,1-.89.81c-.37.38-1,.65-1.38.17a1.1,1.1,0,0,1-.28-.81,1.13,1.13,0,0,1-.26,0h0l0,0a1.71,1.71,0,0,1,.07.18,1.39,1.39,0,0,1-.06,1.21,1,1,0,0,1-1,.41L70,46a20.06,20.06,0,0,0,1.51,2,1.17,1.17,0,0,1,.41-.42.5.5,0,0,1,.6.08A1.55,1.55,0,0,1,73,48.75.52.52,0,0,1,73,49a.57.57,0,0,1-.2.35c.37.38.76.76,1.18,1.15a1.3,1.3,0,0,1,.38-.43.74.74,0,0,1-.32-.44.25.25,0,0,1,.17-.3c.35-.14.81-.13.86.33v.07a.29.29,0,0,1,.1,0,1.33,1.33,0,0,1,1.53.58,1.38,1.38,0,0,1,.06,1,1.35,1.35,0,0,1-.57,1.2,1.53,1.53,0,0,1-.31.16,1.55,1.55,0,0,1-.19,2.15c-.45,1-6.82-1.86-6.68-1.56,0,0,1.18-.07,1.23,3.78v.49Zm-7.53-11a.31.31,0,0,1,0-.62A.31.31,0,0,1,71.51,46.55Zm2.23.92a.25.25,0,0,1-.08.16l-.1.16c-.14.28-.56.05-.44-.23l-.07-.06a.53.53,0,0,1,0-.58.26.26,0,0,1,.34-.09.57.57,0,0,1,.37.49A.4.4,0,0,1,73.74,47.47Zm.68-.1a.49.49,0,0,1-.12-.79c.21-.26.55.05.44.33A.28.28,0,0,1,74.42,47.37Z"/><path class="cls-7" d="M75.48,43.53a10.85,10.85,0,0,1-.33-4C72.8,38,70.8,37.7,69.53,38.32,72.26,39,74,41.15,75.48,43.53Z"/><path class="cls-8" d="M75.08,39.91A23,23,0,0,0,74,43.7a23.16,23.16,0,0,0,.68,7.46c2.08,2.09,1.57,3,1.21,3.38a15.94,15.94,0,0,0,1.88,3H79C78.77,55.32,74.77,43.22,75.08,39.91Z"/><path class="cls-8" d="M77.13,57.57a16.53,16.53,0,0,1-1.62-2.64c-1,.57-6.68-2-6.55-1.7,0,0,1.18-.07,1.23,3.78v.49Z"/><path class="cls-9" d="M97.51,11.39c-3.53-.15-8.63.78-9.51,2.75a5.47,5.47,0,0,0-1.57-.5C89.84,10.84,94.28,11,97.51,11.39Z"/><path class="cls-10" d="M88,14.14c.88-2,6-2.9,9.51-2.75,0,0-2.21,6.87-8.08,6.77a4.14,4.14,0,0,0,0-2.15A2.84,2.84,0,0,0,88,14.14Z"/><path class="cls-8" d="M89.47,16a3.61,3.61,0,0,1,.1,1.28,15,15,0,0,1,4.12-5.69c-2.63.37-5.1,1.22-5.69,2.54A2.84,2.84,0,0,1,89.47,16Z"/><path class="cls-6" d="M92.39,57.81l-8.88-.18c-1.12-7.94,3.76-13.74,3.2-16.47.07-.48.14-.95.2-1.41.89-1.55,3.75-2.15,4.85-1.79,7.78,2.51-4.1,9-4.71,18C86.91,56.31,92.13,54.26,92.39,57.81Z"/><path class="cls-11" d="M91.33,41.53a1,1,0,0,1-.06.85c.3,0,.55-.18.34-.81-.16-.44-.43-1-1-1a.08.08,0,0,0,0,0A1.8,1.8,0,0,1,91.33,41.53Z"/><path class="cls-11" d="M89.19,45a2.44,2.44,0,0,1-1.12.91,1.59,1.59,0,0,1,.12.44,1.07,1.07,0,0,0,.86,0c1.22-.63,1.63-2.55.37-3.14A2.1,2.1,0,0,1,89.19,45Z"/><path class="cls-11" d="M86.8,42.77l.07-.09a1.94,1.94,0,0,1,.31-1.59,1.77,1.77,0,0,0-.46.15,4,4,0,0,1-.14,1.56A1.66,1.66,0,0,1,86.8,42.77Z"/><path class="cls-11" d="M84.67,48.84l-.07,0a3.73,3.73,0,0,0,.07.56.48.48,0,0,1,.23.36,2,2,0,0,1,.36.29h0a1,1,0,0,0,.17-.18,1.82,1.82,0,0,1,0-.33A2,2,0,0,1,84.67,48.84Z"/><path class="cls-11" d="M88.06,48.91l-.18,0a.45.45,0,0,1-.44-.32h0s0,0,0,.06a1.76,1.76,0,0,1,.39,1.53A1.58,1.58,0,0,0,88.06,48.91Z"/><path class="cls-11" d="M88.34,55.8a1.54,1.54,0,0,1,.22.49.06.06,0,0,0,0,0l.12.14.12.06s0,0,0,0a.43.43,0,0,1,.06-.22.32.32,0,0,1,.34-.14.47.47,0,0,1,.29.28.29.29,0,0,1-.23.44.84.84,0,0,1,.2.29.82.82,0,0,1,.11-.44.4.4,0,0,1,.69,0h0a.42.42,0,0,1,.5.28.41.41,0,0,1-.28.49,1.25,1.25,0,0,1-.81,0,.32.32,0,0,1-.15-.13.9.9,0,0,1,0,.4l2.86.06C92.22,55.45,89.87,55.56,88.34,55.8Z"/><path class="cls-11" d="M91.7,37.92h0a1.79,1.79,0,0,0,0,.23,1,1,0,0,1,.16.19,1.1,1.1,0,0,1,1,.08,1,1,0,0,1,.37,1l0,.08A1.08,1.08,0,0,1,93,40.59a1.17,1.17,0,0,1-1.1.21c.51.81.47,2.2-.74,2.1a1.55,1.55,0,0,1-.31-.07A2.51,2.51,0,0,1,91.21,45a3,3,0,0,1-2.48,2.46h-.06a1.25,1.25,0,0,1,.11.72,1.17,1.17,0,0,1-.06.2,2.63,2.63,0,0,1-.29,2.33,1.67,1.67,0,0,1-.94.66v0a.41.41,0,0,1-.49.29.75.75,0,0,1-.67.12.85.85,0,0,1-.52-.57h0a2.78,2.78,0,0,1,.07.57,2,2,0,0,1,.56.53,1.78,1.78,0,0,1-.19,1.74v0l.09,0,.41.2a.33.33,0,0,1,.2.36l.2.09a17.33,17.33,0,0,1,2.47-6h0a.5.5,0,0,1-.61-.35.46.46,0,0,1,.15-.5.44.44,0,0,1,.11-.2.51.51,0,0,1,.71,0,.76.76,0,0,1,.15.26c.93-1.44,1.9-2.75,2.68-3.94a.55.55,0,0,1-.28,0,.74.74,0,0,1-.13.12.57.57,0,0,1-.58,0,.63.63,0,0,1,0-1,.86.86,0,0,1,.79-.27,2.64,2.64,0,0,1,.44.23.48.48,0,0,1,.23.29C94.75,40.89,95.11,39,91.7,37.92Z"/><path class="cls-11" d="M86,55.11a2.06,2.06,0,0,1-.44.56,1.78,1.78,0,0,1,.6.3,1.45,1.45,0,0,1,.92-.24c0-.13,0-.25,0-.38l-.16-.09A1.81,1.81,0,0,0,86,55.11Z"/><path class="cls-11" d="M86.88,47.61A1.49,1.49,0,0,1,87.1,47a2.36,2.36,0,0,1-.94-1.47c-.3.08-.35.73-.23,1.36A1.11,1.11,0,0,1,86.88,47.61Z"/><path class="cls-11" d="M87.78,40.54a2.71,2.71,0,0,1,.3-.13,2,2,0,0,1-.37-.91,3.84,3.84,0,0,1,0-.59,2.82,2.82,0,0,0-.78.84c0,.3-.08.61-.13.92A2.34,2.34,0,0,1,87.78,40.54Z"/><path class="cls-11" d="M89,39.37h0a1,1,0,0,1,.45-.14,1.59,1.59,0,0,1,.22-.76l0,0a.2.2,0,0,1-.13-.22l-.12-.15a6.42,6.42,0,0,0-1.13.43A2,2,0,0,0,89,39.37Z"/><path class="cls-12" d="M91.17,38.61A3.75,3.75,0,0,1,93,43.32c-.14.43-.31.84-.48,1.25,2.09-3.08,3.15-5.35-.76-6.61a5.52,5.52,0,0,0-4,.89A4.18,4.18,0,0,1,91.17,38.61Z"/><path class="cls-12" d="M87.05,56c0-.05,0-.11,0-.16-.11.21-.22.43-.32.65a4.09,4.09,0,0,1,3.06,0,3.74,3.74,0,0,1,1.73,1.39l.85,0C92.13,54.26,86.91,56.31,87.05,56Z"/><path class="cls-12" d="M86.91,52.54c1.5-1.92,2.42-4.43,3.61-6.46.85-1.44,2.62-4.09,1.41-5.78a2.51,2.51,0,0,0-2.38-1.12l.08,0c1.37.81,1.61,2.67,1.3,4.12C90.24,46.55,88.1,49.46,86.91,52.54Z"/><path class="cls-13" d="M75.21,18.45a4.53,4.53,0,0,1-.11-2.56,3,3,0,0,1,.54-1.07,3.08,3.08,0,0,1,1.38-1,16.19,16.19,0,0,1,5.29-.5,23.59,23.59,0,0,1,4.11.27h0a5.47,5.47,0,0,1,1.57.5A2.84,2.84,0,0,1,89.47,16a4.14,4.14,0,0,1,0,2.15,8.64,8.64,0,0,1-4.16,5.16A2.16,2.16,0,0,0,83,21.42c0-.19-.18-.33-.71-.33s-.72.13-.72.32a2.41,2.41,0,0,0-2.39,1.86c-.21-.12-.41-.25-.61-.38A8.87,8.87,0,0,1,75.21,18.45Z"/><path class="cls-4" d="M84.85,21.71a2,2,0,0,0-.76-.08,2.2,2.2,0,0,1,1.07,1.27C85.44,22.45,85.51,21.92,84.85,21.71Z"/><path class="cls-4" d="M83.65,18.73a.92.92,0,0,1,.08-.85l-.1,0a2.27,2.27,0,0,1-.5.77c-.09.54.33.78.88.62l.24-.11A.84.84,0,0,1,83.65,18.73Z"/><path class="cls-4" d="M79.23,15.92l.21-.2a1.56,1.56,0,0,0,.49-1.09,1.18,1.18,0,0,0,0-.2,2,2,0,0,0-1.75,1C78.43,16.3,78.79,16.45,79.23,15.92Z"/><path class="cls-4" d="M80.94,17.56a1.44,1.44,0,0,1-.54-.3,1.35,1.35,0,0,1-.72-1.09c-.54.68-1.28,1.08-1.82.56s-.27-1.55.32-2.12a2.26,2.26,0,0,1,1.49-.7,1.3,1.3,0,0,0-.59-.45,8.07,8.07,0,0,0-2.06.41l-.17.07a6.11,6.11,0,0,0-.72.64c.76,0,1.58.33,1.33,1.2A1.65,1.65,0,0,1,76.37,17a.21.21,0,0,1-.12,0A1.08,1.08,0,0,1,75,16.47a5.15,5.15,0,0,0,.23,2,8.87,8.87,0,0,0,3.36,4.44c.2.13.4.26.61.38a2.33,2.33,0,0,1,1.34-1.62s0,0,0,0a1,1,0,0,1-.41-.52.51.51,0,0,1-.15.07.45.45,0,0,1-.53.56,2.53,2.53,0,0,1-1.62-1.29.44.44,0,0,1,.15-.6,2,2,0,0,1,2.07.3,2.23,2.23,0,0,1,.64-1.36,1.42,1.42,0,0,1,.38-.24A1.35,1.35,0,0,1,80.94,17.56Z"/><path class="cls-4" d="M80.25,16.05a.89.89,0,0,0,1.68,0C80.71,15.69,80.15,15.71,80.25,16.05Z"/><path class="cls-4" d="M89.47,16A2.84,2.84,0,0,0,88,14.14a5.47,5.47,0,0,0-1.57-.5h0a23.59,23.59,0,0,0-4.11-.27c-.9,0-1.71,0-2.44,0a3.33,3.33,0,0,1,.38.49s0,0,0,.06a2.88,2.88,0,0,1,.4.09,6.6,6.6,0,0,1,.73.27.93.93,0,0,1,.85.53l.1.1,0,0a.89.89,0,0,1,.59-.67,1.08,1.08,0,0,1,1.31.57.82.82,0,0,1-.21,1,.7.7,0,0,1,.5.89.76.76,0,0,1,0,.37.52.52,0,0,1-.06.16.73.73,0,0,1,1.06.38A2,2,0,0,1,84.19,20l.24.06a.54.54,0,0,1,.38.46,1.94,1.94,0,0,1,1.71,1.93,8.49,8.49,0,0,0,2.91-4.32A4.14,4.14,0,0,0,89.47,16ZM86,17.58A1.06,1.06,0,0,1,85.45,16a1,1,0,0,1,.16-.27.89.89,0,0,1-.41-.84.35.35,0,0,1,.33-.51.5.5,0,0,1,.61,0,.83.83,0,0,1,.18.74.38.38,0,0,1-.14.27h0a.65.65,0,0,1,.79.16c.47.58.13,1.69-.7,1.58l-.14,0,.1.05C86.51,17.3,86.27,17.7,86,17.58Zm1.77,3.35a.83.83,0,0,1-.75.18c-.32-.09-.72-.31-.79-.66a.79.79,0,0,1,.08-.53.39.39,0,0,1,.11-.21l.11-.08h0a.92.92,0,0,1,.64-.26h0a.83.83,0,0,1,.66.37A1,1,0,0,1,87.76,20.93Zm1-3.21c-.07-.2-.19-.33-.41-.29s-.49-.46-.15-.52a.92.92,0,0,1,1.08.66C89.41,17.9,88.89,18,88.77,17.72Z"/><path class="cls-8" d="M79.31,16.72c-1.17-.73-2.68-1.52-4.06-1.25,0,.14-.11.27-.15.42a4.53,4.53,0,0,0,.11,2.56,8.87,8.87,0,0,0,3.36,4.44c.2.13.4.26.61.38a2.41,2.41,0,0,1,2.39-1.86c0-.14.1-.25.36-.29C82.11,19.13,81,17.77,79.31,16.72Z"/><path class="cls-12" d="M89.47,16A2.84,2.84,0,0,0,88,14.14a5.47,5.47,0,0,0-1.57-.5h0a23.59,23.59,0,0,0-4.11-.27c-.69,0-1.32,0-1.91,0,3.21.7,5.9,2.23,4.51,6.23a17.73,17.73,0,0,1-.81,2,2.32,2.32,0,0,1,1.17,1.69,8.64,8.64,0,0,0,4.16-5.16A4.14,4.14,0,0,0,89.47,16Z"/><path class="cls-13" d="M84.9,54.7a38.2,38.2,0,0,1-1.72-11.25c-1.68.76-3.37-.07-3.82,0,0,3-.36,7.82.38,10.83A9.81,9.81,0,0,0,80.32,56s1.83-.62,2.06,1.21c0,0-3.35.94-2.91-.67-.49-1.07-1-2.1-1.35-3.08h0c-2.85-6.79-3.74-11.37-3-13.91a17,17,0,0,1,3.42-16.6c.2.13.4.26.61.38A1.38,1.38,0,0,0,80,25a1.79,1.79,0,0,0,2.27-1.07s.71,1.74,2.17,1.22a1.19,1.19,0,0,0,.65-.53c1.22,2.69,2.88,6.92,1.83,15.18-.06.46-.13.93-.2,1.41.56,2.73-1.25,7.54-.13,15.48,0,0,2-.53,1.91.8,0,0-3,1-2.69-.56A17.39,17.39,0,0,1,84.9,54.7Z"/><path class="cls-4" d="M84.25,28c.16-.19.27-.42.54-.46s.84.35.59.75a2.5,2.5,0,0,0,1-.28c0-.11-.06-.2-.09-.28a23.48,23.48,0,0,0-1.2-3.15,1.44,1.44,0,0,1-2.31.08c-.14,1-.09,2.41.74,3.05C83.68,27.84,84.08,28.18,84.25,28Z"/><path class="cls-4" d="M79.76,25.23a3.71,3.71,0,0,1,.37,1.47,2.74,2.74,0,0,1,.7,0A5.32,5.32,0,0,1,81,25a1.49,1.49,0,0,1-1.74-.9c0,.25,0,.3.13.49A2.45,2.45,0,0,1,79.76,25.23Z"/><path class="cls-4" d="M76.8,27.11c.19-.08,0-.55.06-.77a.24.24,0,0,1,.3-.21,4.41,4.41,0,0,1-.35-.8c-.15.26-.3.52-.44.79a2.13,2.13,0,0,0-.07.91C76.28,27.35,76.58,27.2,76.8,27.11Zm0-.74Z"/><path class="cls-4" d="M78.35,25.05c-.11.32.07-.19,0,0Z"/><path class="cls-4" d="M78.35,25.05c.05-.14.09-.28.13-.42s0-.2-.2-.28a1.24,1.24,0,0,0-.76-.1c-.34.49.09,1.36.36,1.81A4.64,4.64,0,0,0,78.35,25.05Z"/><path class="cls-4" d="M76.55,36.17a2.37,2.37,0,0,0,0-2A3.31,3.31,0,0,0,76.55,36.17Z"/><path class="cls-4" d="M77.64,34.64c.29.23.41.34.45.36Z"/><path class="cls-4" d="M80.89,33.55c0,.09.21-.19.23-.26a1,1,0,0,0,0-.42A1.86,1.86,0,0,0,81,32a1.58,1.58,0,0,0-.51-.58,1.17,1.17,0,0,0-.36-.16c-.24-.08-.26-.07-.4.11A1.63,1.63,0,0,1,80.89,33.55Zm.06-.18c0-.13.09-.3.11-.34Z"/><path class="cls-4" d="M79.31,37.26a1.13,1.13,0,0,1,.2-.59c.15-.24.28-.26.21-.56a2.3,2.3,0,0,0-.14-.42c-.08-.2-.15-.14-.34-.2a2.09,2.09,0,0,1-.52,1.81A.8.8,0,0,0,79.31,37.26Z"/><path class="cls-4" d="M75.51,32.76c.2,0,.42.16.54,0a3.25,3.25,0,0,1,.31-.42,2.92,2.92,0,0,0-1.24-.4.38.38,0,0,0-.16,0,1.25,1.25,0,0,1-.41.28c-.21.07-.16.35-.18.56A3.63,3.63,0,0,1,75.51,32.76Z"/><path class="cls-4" d="M82.68,36.28c.13.06.21-.21.3-.31a.49.49,0,0,1,.67,0,1.53,1.53,0,0,0-.47-1.51,1.55,1.55,0,0,0-.7-.41c-.27-.07-.39.07-.49.32a1.66,1.66,0,0,0,.09,1.29,1.78,1.78,0,0,0,.39.51A.74.74,0,0,0,82.68,36.28Z"/><path class="cls-4" d="M82.41,40.32c0-.35-.25-1-.7-.78a.81.81,0,0,1,0,1c-.1.05-.11.11,0,.2s.14.13.3,0a.85.85,0,0,0,.46-.49S82.36,40.53,82.41,40.32Z"/><path class="cls-4" d="M76,40.92a2,2,0,0,1,1,.34.81.81,0,0,1,.2-.71c-.7-.3-1.43-.56-2.12-.94a7.45,7.45,0,0,0-.23,1.88l.15-.08A1.43,1.43,0,0,1,76,40.92Z"/><path class="cls-4" d="M78.4,42.4c-.1-.13-.18-.1-.34-.13A3.77,3.77,0,0,1,78.45,44l.06-.06a2.22,2.22,0,0,0,.63-1,1.1,1.1,0,0,1-.53-.26A1.27,1.27,0,0,1,78.4,42.4Z"/><path class="cls-4" d="M77.5,43.75a3.2,3.2,0,0,0-.13-.86,1.77,1.77,0,0,0-.15-.31c-.1-.17-.15-.28-.3-.15a.33.33,0,0,1,.31.44h0a1.57,1.57,0,0,0-.07.83.91.91,0,0,0,.11.22C77.37,44.05,77.5,43.86,77.5,43.75Z"/><path class="cls-4" d="M77.23,42.87h0C77.2,43,77.11,43.26,77.23,42.87Z"/><path class="cls-4" d="M84.36,52.58c-.17.19.22,1.08.29,1.33a1.35,1.35,0,0,0,.81-.91,1.44,1.44,0,0,0,.07-.22C85.26,52.63,84.64,52.28,84.36,52.58Z"/><path class="cls-4" d="M84.72,49.94h0c0-.06,0,0,0,0a4.86,4.86,0,0,0,.26-.76,1,1,0,0,0-.79,0,1,1,0,0,0-.34.29.51.51,0,0,0-.09.52c0,.28,0,.74.38.59A1.24,1.24,0,0,0,84.72,49.94Z"/><path class="cls-4" d="M85,45.77c-.08.15.28.4.38.54a3.57,3.57,0,0,1,.4.68c.06.15,0,.29.21.21a1.69,1.69,0,0,0,.41-.24,1.5,1.5,0,0,1-.86-1.74A1.43,1.43,0,0,0,85,45.77Z"/><path class="cls-4" d="M83.91,38.15a2,2,0,0,0-1,0h0a2.78,2.78,0,0,0-.56.24,1.5,1.5,0,0,1-.51.43,1.1,1.1,0,0,1,.82.4A1.71,1.71,0,0,1,83.91,38.15Z"/><path class="cls-4" d="M83,38.18Z"/><path class="cls-4" d="M82.92,38.19Z"/><path class="cls-4" d="M85.36,32.73a2.62,2.62,0,0,1,.09.38c0,.22.19.24.39.33a4.69,4.69,0,0,0,.89.31.26.26,0,0,1,.16.39c-.12.23-.38.12-.57.06.14.52-.29.63-.69.68-.2,0-.39.12-.59,0a.57.57,0,0,1-.23-.57,1.43,1.43,0,0,1-.5.14,2.21,2.21,0,0,1,.1,2.1,1.14,1.14,0,0,1-.34.35.5.5,0,0,1-.17.43c-.35.28-.8,0-1.14-.1a2.08,2.08,0,0,1-.07.55,2.26,2.26,0,0,1,2.2.36,2.15,2.15,0,0,1,.21,2.53,1.7,1.7,0,0,1,1.66.15,36.61,36.61,0,0,0,.37-8.56c0,.37.07.51-.07-.72A4,4,0,0,1,85.36,32.73Zm.28,3.44c-.55,0-.62-.89,0-.83S86.18,36.18,85.64,36.17Z"/><path class="cls-4" d="M84.35,38.82c.34,0,.55.55.58.81a1.22,1.22,0,0,0-.73-1.39.24.24,0,0,1-.19.35h0a.81.81,0,0,0-.4.15c-.07.09,0,.23-.14.29a.22.22,0,0,1-.16,0,2,2,0,0,0-.19.31.66.66,0,0,0-.08.59,1.31,1.31,0,0,1,0,.48c0,.14-.22.38-.17.5a1.22,1.22,0,0,0,.3.48,2.48,2.48,0,0,0,.49-.3c.44-.35,1-1.06.7-1.66C84.3,39.28,83.85,38.84,84.35,38.82ZM84,38.59Z"/><path class="cls-4" d="M84,38.59Z"/><path class="cls-4" d="M84.15,45.46c.19,0,.19-.13.29-.28a2.25,2.25,0,0,1,.31-.37,2.12,2.12,0,0,1,2-.52c.06-.61.1-1.22.1-1.83a1.45,1.45,0,0,1-1.41.44h0c-.15,0-.09,0,0,0a1.07,1.07,0,0,1-.61-.59.83.83,0,0,1-.06-.21.34.34,0,0,1-.17-.08.53.53,0,0,1-.08-.46,1.24,1.24,0,0,1-1.21.4.88.88,0,0,1-1.72.36,1.06,1.06,0,0,1-.05-.53c.05-.25-.28-.24-.47-.33a1.24,1.24,0,0,1-.44-.35c-.13-.16-.52-.07-.74-.09.25.37.12.9.3,1.28a1.46,1.46,0,0,1,0,1.26,4.94,4.94,0,0,0,2.56.06.41.41,0,0,1,.21-.47c.18-.11.14-.15.24-.34a1.17,1.17,0,0,1,.82-.65c.87-.12,1.09,1,1,1.67a1,1,0,0,1-1.77.52c0,.38,0,.76,0,1.13A1.87,1.87,0,0,1,84.15,45.46Z"/><path class="cls-4" d="M85.32,42.07c.12.36.49.34.77.19a1,1,0,0,0,.53-.57c.07-.36-.42-.54-.69-.57a.27.27,0,0,1-.14.28c-.16.07-.06,0,0,0C85.54,41.52,85.21,41.75,85.32,42.07Z"/><path class="cls-4" d="M84.49,47.89c-.42-.1-1-.1-1,.35A9.45,9.45,0,0,1,84.78,48C84.57,47.88,84.5,47.87,84.49,47.89Z"/><path class="cls-4" d="M87.59,56.72c-.2-.2-.31-.19-.59-.15a3.07,3.07,0,0,0-.42.07c0-.21,0-.43-.08-.65a1.51,1.51,0,0,1-.76.12,2.14,2.14,0,0,0,2.1,1.33C88.29,57.3,87.78,56.91,87.59,56.72Z"/><path class="cls-4" d="M75.88,43.14c0-.18-.08-.15-.23-.22a2,2,0,0,1-.5-.35c-.21-.21-.21.11-.19.27s.06.53.1.8c.08.54.18,1.07.3,1.6a2.35,2.35,0,0,0,1.3-.54,2.29,2.29,0,0,1-.75-1.33A.85.85,0,0,1,75.88,43.14Z"/><path class="cls-4" d="M78.18,46c.22.25,0,.63.23.83a7.38,7.38,0,0,1,.86.73c0-1,0-2.08.07-3.12a8.13,8.13,0,0,1-.83.43C78.28,45,78.26,45.74,78.18,46Z"/><path class="cls-4" d="M78.31,51.43a4.59,4.59,0,0,1,.61.35,1.6,1.6,0,0,1,.49.41c0-.49-.09-1-.11-1.48A2.11,2.11,0,0,1,78.31,51.43Z"/><path class="cls-4" d="M78.73,49.26a3.55,3.55,0,0,0-.46-1.14c-.17-.28-.27-.26-.58-.28s-.36,0-.43.31a2.1,2.1,0,0,0-.05.75c.22.08.43.16.66.23A2.12,2.12,0,0,0,78.73,49.26Z"/><path class="cls-4" d="M75,37.41a4.34,4.34,0,0,0,.49.35,2.19,2.19,0,0,0,.76-.11L76,37.42A1.86,1.86,0,0,1,75,37.41Z"/><path class="cls-4" d="M75.56,33.73a2.69,2.69,0,0,0-1.26.1c0,.46,0,.92,0,1.37,0,.29,0,.95.14,1.17a1.6,1.6,0,0,0,1.15.46A4.06,4.06,0,0,1,75.56,33.73Z"/><path class="cls-4" d="M78.2,29.82c0,.07,0,.12,0,.15A.68.68,0,0,0,78.2,29.82Z"/><path class="cls-4" d="M78.23,30v0Z"/><path class="cls-4" d="M78.23,30Z"/><path class="cls-4" d="M75.29,29.33a7,7,0,0,1,.2-.79c.05-.28.1-.56.13-.84l-.16.41c-.15.4-.3.8-.42,1.21-.07.24-.14.48-.2.72s-.07.28-.1.42.11.23.15.34A4.29,4.29,0,0,0,75.29,29.33Z"/><path class="cls-8" d="M79.75,57.28l-.28-.79A.61.61,0,0,0,79.75,57.28Z"/><path class="cls-5" d="M76.89,33.74a24,24,0,0,1,2.39-9.43,1.73,1.73,0,0,1-.1-1L78.76,23A19.37,19.37,0,0,0,76.89,33.74Z"/><path class="cls-5" d="M77.14,38.81c-1-5-1.37-10.28.62-14.89a17,17,0,0,0-2.61,15.57c-.78,2.54.11,7.12,3,13.91h0c.4,1,.86,2,1.35,3.07C77.53,50.85,74.37,41.77,77.14,38.81Z"/><path class="cls-12" d="M78.29,43.23c-.82,1.48-.34,4.8-.11,6,.43,2.27,1.13,4.47,1.68,6.71.12.47.23,1,.35,1.45a6.7,6.7,0,0,0,2.17-.25C82.15,55.33,80.32,56,80.32,56a9.81,9.81,0,0,1-.58-1.71c-.66-2.69-.47-6.83-.4-9.82C79,44,78.62,43.64,78.29,43.23Z"/><path class="cls-12" d="M86.58,56.64c-1.12-7.94.69-12.75.13-15.48.07-.48.14-.95.2-1.41,1-8.26-.61-12.49-1.83-15.18a1.19,1.19,0,0,1-.65.53l-.24.07c.3,1.28.69,2.56.87,3.82a30.3,30.3,0,0,1,.35,5.46,20.87,20.87,0,0,1-1,5.61c1.83,2.41,1.23,11.57,1.26,16.62l.09.2c-.32,1.58,2.69.56,2.69.56C88.56,56.11,86.58,56.64,86.58,56.64Z"/><path class="cls-12" d="M84.38,35.05c0-.81.05-1.62,0-2.42a32.54,32.54,0,0,0-.86-6.06c-.12-.52-.25-1.06-.38-1.6a2.71,2.71,0,0,1-.89-1.09,1.6,1.6,0,0,1-.14.27C83.3,28.08,84.42,31.45,84.38,35.05Z"/><path class="cls-8" d="M79.18,23.27c-.21-.12-.41-.25-.61-.38a18.89,18.89,0,0,0-2.38,3.56,3.73,3.73,0,0,0,2.27,1.66,26,26,0,0,1,1.07-3.46A1.46,1.46,0,0,1,79.18,23.27Z"/><path class="cls-8" d="M85.08,24.57a1.19,1.19,0,0,1-.65.53c-1.46.52-2.17-1.22-2.17-1.22a2.14,2.14,0,0,1-1,1.08,13.46,13.46,0,0,0-.37,2.95A9.64,9.64,0,0,0,85.29,25Q85.19,24.78,85.08,24.57Z"/><path class="cls-8" d="M79.31,28.23h.15c.31,0,.61-.11.91-.18a14.43,14.43,0,0,1,.33-3,1.38,1.38,0,0,1-.4,0A26.81,26.81,0,0,0,79.31,28.23Z"/><path class="cls-9" d="M85.27,23.32a1.82,1.82,0,0,1-.19,1.25,1.19,1.19,0,0,1-.65.53c-1.46.52-2.17-1.22-2.17-1.22l0-1.54s.72-.56.72-.92A2.16,2.16,0,0,1,85.27,23.32Z"/><path class="cls-12" d="M85.27,23.32A2.16,2.16,0,0,0,83,21.42a.43.43,0,0,0,0,0,2.81,2.81,0,0,1,1.12,2.28,1.68,1.68,0,0,1-.78,1.32,1.42,1.42,0,0,0,1.1,0,1.19,1.19,0,0,0,.65-.53A1.82,1.82,0,0,0,85.27,23.32Z"/><path class="cls-14" d="M83,21.42c0,.36-.72.92-.72.92s-.72-.57-.71-.93c0-.19.18-.32.72-.32S83,21.23,83,21.42Z"/><path class="cls-9" d="M82.28,22.34l0,1.54A1.79,1.79,0,0,1,80,25a1.38,1.38,0,0,1-.81-1.68,2.41,2.41,0,0,1,2.39-1.86C81.56,21.77,82.28,22.34,82.28,22.34Z"/><path class="cls-12" d="M81.57,21.43c.11,1.4,0,2.58-1.48,3.23a1.93,1.93,0,0,1-.41.12,1.69,1.69,0,0,0,2.58-.9l0-1.54S81.6,21.8,81.57,21.43Z"/><path class="cls-9" d="M77,13.87a3.08,3.08,0,0,0-1.38,1C75,11.34,70.75,9.11,66.19,9.2,66.19,9.2,73.52,7.7,77,13.87Z"/><path class="cls-10" d="M75.64,14.82a3,3,0,0,0-.54,1.07,4.53,4.53,0,0,0,.11,2.56c-8.63-2.35-9-9.25-9-9.25C70.75,9.11,75,11.34,75.64,14.82Z"/><path class="cls-8" d="M75.1,15.89a3,3,0,0,1,.54-1.07C75.09,12,72.23,10,68.75,9.4a12.63,12.63,0,0,1,4.34,5.7A14,14,0,0,1,73.85,18c.43.16.88.3,1.36.44A4.53,4.53,0,0,1,75.1,15.89Z"/><path class="cls-14" d="M77.28,17.29c-.11,2.05-1.78,3.9-2-.08A9.49,9.49,0,0,1,77.28,17.29Z"/><path class="cls-15" d="M75.33,17.21c.17,4,1.84,2.13,2,.08a6.24,6.24,0,0,1,4.17,2.29c-5.76,2.78-7.74-2.17-7.74-2.17A9.21,9.21,0,0,1,75.33,17.21Z"/><path class="cls-16" d="M75.33,17.21c.17,4,1.84,2.13,2,.08a6.24,6.24,0,0,1,4.17,2.29c-5.76,2.78-7.74-2.17-7.74-2.17A9.21,9.21,0,0,1,75.33,17.21Z"/><path class="cls-17" d="M77.66,18.16a.51.51,0,0,1-.5.5.5.5,0,0,1-.5-.5.5.5,0,0,1,.5-.5A.5.5,0,0,1,77.66,18.16Z"/><path class="cls-14" d="M86.83,17.52c.35,1.91-.93,3.91-1.91.83A5.94,5.94,0,0,1,86.83,17.52Z"/><path class="cls-15" d="M84.92,18.35c1,3.08,2.26,1.08,1.91-.83h0a9.48,9.48,0,0,1,4.13,0s-1.91,4.55-7.21,1.89A5.39,5.39,0,0,1,84.92,18.35Z"/><path class="cls-18" d="M84.92,18.35c1,3.08,2.26,1.08,1.91-.83h0a9.48,9.48,0,0,1,4.13,0s-1.91,4.55-7.21,1.89A5.39,5.39,0,0,1,84.92,18.35Z"/><path class="cls-17" d="M87.39,18.44a.5.5,0,0,1-.5.5.51.51,0,0,1-.5-.5.5.5,0,0,1,.5-.5A.5.5,0,0,1,87.39,18.44Z"/><path class="cls-19" d="M81.42,19.61a5.54,5.54,0,0,0-1.57-1.37,6.62,6.62,0,0,0-1.95-.75,9.12,9.12,0,0,0-2.09-.24,11.3,11.3,0,0,0-2.09.2l0-.08a5.07,5.07,0,0,1,2.11-.76A6.13,6.13,0,0,1,77,16.55a6,6,0,0,1,2.23.52,5.27,5.27,0,0,1,1,.61,3.7,3.7,0,0,1,1.31,1.87Z"/><path class="cls-19" d="M73.77,17.39a17,17,0,0,0,1.87,1.19,6.44,6.44,0,0,0,1.66.64,9.22,9.22,0,0,0,1.84.24c.68,0,1.42,0,2.28.06l.06.11a7.89,7.89,0,0,1-2.16.79,5.45,5.45,0,0,1-2.31,0,4.8,4.8,0,0,1-2-1.1,5.23,5.23,0,0,1-1.32-1.87Z"/><path class="cls-19" d="M91,17.58a9.46,9.46,0,0,0-2-.22,8.77,8.77,0,0,0-1,.06,7,7,0,0,0-1,.18l.06-.08h0v.07h-.06a6.15,6.15,0,0,0-1.69.67,5.17,5.17,0,0,0-1.37,1.18l-.07-.05a3,3,0,0,1,.43-.91,3,3,0,0,1,.32-.4,2,2,0,0,1,.37-.35,4,4,0,0,1,.86-.56,4.48,4.48,0,0,1,1-.36l-.55.7h0l0-.53.57-.17a6.22,6.22,0,0,1,1.12-.18,6,6,0,0,1,1.12.06l.55.1L90,17a4.13,4.13,0,0,1,1,.53Z"/><path class="cls-19" d="M83.78,19.37c.82-.07,1.5-.05,2.13-.09a8.41,8.41,0,0,0,1.68-.2,6.86,6.86,0,0,0,1.53-.54,16.37,16.37,0,0,0,1.78-1l.11,0a4.74,4.74,0,0,1-1.25,1.72,4.33,4.33,0,0,1-1.91,1,4.83,4.83,0,0,1-2.14,0,7.32,7.32,0,0,1-2-.76Z"/><polygon class="cls-20" points="116.37 68.05 115.88 81.46 67.73 81.46 67.24 68.05 116.37 68.05"/><path class="cls-21" d="M67.24,68.05l.49,13.41h3.54c-.48-4.46-1-8.91-1.48-13.41Z"/><path class="cls-21" d="M116.37,68.05h-3.7c.47,4.5.79,9,1,13.41h2.19Z"/><path class="cls-22" d="M116.37,68.05l.22-6.13h4c0,6.66-4.1,44.35-4.1,44.35H115l.9-24.81Z"/><path class="cls-21" d="M116.59,61.92l-.08,2.32a22.79,22.79,0,0,1,4,.64c.08-1.26.12-2.28.12-3Z"/><path class="cls-22" d="M67.24,68.05l.49,13.41.91,24.81H67.12S63,68.58,63,61.92h4Z"/><path class="cls-21" d="M67,61.92H63c0,.52,0,1.22.07,2.07,1.34.15,2.69.35,4,.6Z"/><path class="cls-23" d="M122.49,59v1.46A1.45,1.45,0,0,1,121,61.92H62.16a1.45,1.45,0,0,1-1.45-1.45V59a1.46,1.46,0,0,1,1.45-1.46H121A1.46,1.46,0,0,1,122.49,59Z"/><path class="cls-24" d="M121,57.55H79.88c-1.75.43-3.5.83-5.26,1.23h47.85A1.46,1.46,0,0,0,121,57.55Z"/><path class="cls-25" d="M41.72,107.36H40.26s-4.49-15.48-8.34-24.43v-.12c1.89-.13,3.58-.27,5-.42v.09S40,97.67,41.72,107.36Z"/><path class="cls-25" d="M8.73,82.48c1.64.2,3.32.35,5,.45C9.89,91.88,5.4,107.36,5.4,107.36H3.94c1.7-9.69,4.79-24.88,4.79-24.88Z"/><path class="cls-26" d="M12.13,82.81C8.44,92,5.4,107.36,5.4,107.36s4.49-15.48,8.35-24.43C13.21,82.9,12.67,82.85,12.13,82.81Z"/><path class="cls-27" d="M37.39,76c1.67.28,1.69,6.16,0,6.33l-.46,0c-1.44.15-3.13.29-5,.42a146.81,146.81,0,0,1-18.16.12c-1.7-.1-3.38-.25-5-.45l-1.07-.14c-1.59-.21-1.65-5.41-.23-6.23a.67.67,0,0,1,.23-.1c.7-.15,1.45-.28,2.23-.4C18.51,74.33,31.84,75.08,37.39,76Z"/><path class="cls-28" d="M38.64,78.91c0-1.42-.47-2.77-1.25-2.9-5.55-.93-18.88-1.68-27.5-.4-.78.12-1.53.25-2.23.4a.67.67,0,0,0-.23.1,3,3,0,0,0-1,2.25A145.43,145.43,0,0,1,38.64,78.91Z"/><path class="cls-27" d="M25,32.52c.85.36-.24,17.45-2.06,17.41-2.68,0-10.32.32-15.39.33-1.09,0-2.05,0-2.83-.06a5.79,5.79,0,0,1-1.88-.27C1.52,49.18-.66,34.7.19,33.49S18.6,31.55,25,32.52Z"/><path class="cls-29" d="M37.39,76a118.41,118.41,0,0,0-22.78-.88c5,3.5,11.88,3.91,18.08,3.34a29.64,29.64,0,0,0-1,4.35h.18c1.89-.13,3.58-.27,5-.42l.46,0C39.08,82.17,39.06,76.29,37.39,76Z"/><path class="cls-28" d="M25.31,35.65c0-1.78-.07-3-.29-3.13-6.42-1-24-.24-24.83,1C-.13,34,0,36.36.33,39.2,5.8,33.78,17.13,34.72,25.31,35.65Z"/><path class="cls-29" d="M25,32.52a69.61,69.61,0,0,0-9.54-.45A45.71,45.71,0,0,0,7.64,50.26c5.08,0,12.65-.37,15.32-.33C24.78,50,25.87,32.88,25,32.52Z"/><path class="cls-25" d="M7.66,76a.67.67,0,0,0-.23.1l0,0C6.3,69.7,5.18,55.92,4.74,50.2c.78,0,1.74.06,2.83.06A191.91,191.91,0,0,0,9.89,75.61C9.11,75.73,8.36,75.86,7.66,76Z"/><path class="cls-26" d="M8.9,75.77l1-.16A191.91,191.91,0,0,1,7.57,50.26h-1A203.13,203.13,0,0,0,8.9,75.77Z"/><path class="cls-30" d="M77.05,57.05c0,.16,0,.32,0,.49,0,0-2.15.28-5.09.63h0A21.22,21.22,0,0,1,73.36,52l2-.44S77,53.19,77.05,57.05Z"/><path class="cls-31" d="M77.06,57.54h0c0-.17,0-.33,0-.49s0-.55,0-.8C77,56.68,77.05,57.11,77.06,57.54Z"/><path class="cls-31" d="M74.52,54.94c0,1-.06,2-.06,2.93l.4,0A19.85,19.85,0,0,1,74.52,54.94Z"/><path class="cls-31" d="M73.23,54.1a38.77,38.77,0,0,0-.85,4l.7-.08C73.09,56.72,73.14,55.41,73.23,54.1Z"/><path class="cls-32" d="M73.75,51.91l-.39.09A21.22,21.22,0,0,0,72,58.16h0l.43-.05A30.6,30.6,0,0,1,73.75,51.91Z"/><path class="cls-31" d="M73.36,52c-.26.66-.49,1.36-.69,2.07,1.19-.39,2.38-.72,3.58-1a5.22,5.22,0,0,0-.93-1.52Z"/><path class="cls-33" d="M73.36,52A21.22,21.22,0,0,0,72,58.16h0l-1.15.13A13.82,13.82,0,0,1,69.33,53l0-.1Z"/><path class="cls-34" d="M71.57,58.21l.27,0a34.33,34.33,0,0,1,.55-6l-.68.16A32.57,32.57,0,0,0,71.57,58.21Z"/><path class="cls-34" d="M73,52.07c-.1.55-.19,1.09-.26,1.63.17-.58.36-1.15.58-1.7Z"/><path class="cls-31" d="M69.93,52.79l-.63.15,0,.1a13.82,13.82,0,0,0,1.49,5.26h.11A15.51,15.51,0,0,1,69.93,52.79Z"/><path class="cls-34" d="M69.63,55c1-.3,2-.59,3-.85A19.19,19.19,0,0,1,73.36,52l-4.06.94,0,.1A10.51,10.51,0,0,0,69.63,55Z"/><path class="cls-30" d="M69.33,53a13.82,13.82,0,0,0,1.49,5.26c-1.37.15-2.85.32-4.35.46a28.22,28.22,0,0,1-.24-5.07l1.15-.29,1.92-.46Z"/><path class="cls-34" d="M67.77,53.89c.13,1.57.31,3.13.58,4.68L69,58.5C68.56,57,68.1,55.44,67.77,53.89Z"/><path class="cls-31" d="M69.44,54.07a7.1,7.1,0,0,1-.11-1l0-.1-1.92.46-1.15.29c0,.37,0,.74,0,1.12Z"/><path class="cls-32" d="M66.37,53.66l-.14,0a28.22,28.22,0,0,0,.24,5.07l.43,0A28.67,28.67,0,0,1,66.37,53.66Z"/><path class="cls-33" d="M64.36,44.4c-.58-1.89-1.59-3.94-3.16-3.46a4,4,0,0,1,1.63-.87c4.28-1.25,5.27,2.69,6.06,5.78A9.18,9.18,0,0,0,65,47.29,22.09,22.09,0,0,0,64.36,44.4Z"/><path class="cls-34" d="M62.11,41A6.21,6.21,0,0,1,63,40l-.14,0a4,4,0,0,0-1.63.87A1.41,1.41,0,0,1,62.11,41Z"/><path class="cls-34" d="M62.81,41.39c.13.14.26.29.39.46a7.11,7.11,0,0,1,1.49-2h0A6.08,6.08,0,0,0,62.81,41.39Z"/><path class="cls-34" d="M65.38,40a6.59,6.59,0,0,0-1.83,2.42,10.91,10.91,0,0,1,.81,2A22.09,22.09,0,0,1,65,47.29a3.07,3.07,0,0,1,.42-.28C64.66,44.9,63.66,41.31,65.38,40Z"/><path class="cls-35" d="M67.38,53.4l-1.15.29c-1.18.3-2.27.59-3.22.86-.13-.24-5.64-10.2-1.81-13.61,1.57-.48,2.58,1.57,3.16,3.46C64,47.25,65.58,51,67.38,53.4Z"/><path class="cls-32" d="M63.66,42.62c-.59-1.17-1.4-2-2.46-1.68a3.34,3.34,0,0,0-.74.94,7.83,7.83,0,0,1,3,.63Z"/><path class="cls-32" d="M62.83,44.15a5,5,0,0,0-2.94-.33c0,.08,0,.16,0,.24A12.21,12.21,0,0,1,62.83,44.15Z"/><path class="cls-32" d="M64.31,45.24c0-.11,0-.23,0-.34a12.85,12.85,0,0,0-4.46-.41v.33a21.55,21.55,0,0,1,2.91.22C63.29,45.09,63.8,45.16,64.31,45.24Z"/><path class="cls-32" d="M60.9,49.74,61,50a10.24,10.24,0,0,1,2.15-.89A9.92,9.92,0,0,0,60.9,49.74Z"/><path class="cls-32" d="M65.75,50.67a11.68,11.68,0,0,0-4.08,1.07l.21.48a17.86,17.86,0,0,1,3.88-1.52S65.75,50.68,65.75,50.67Z"/><path class="cls-32" d="M64.56,52.09a18.41,18.41,0,0,0-2.28,1s0,.1.07.14C63.11,52.84,63.82,52.43,64.56,52.09Z"/><path class="cls-32" d="M64.06,45.72c-.43-.07-.85-.12-1.29-.16a24.86,24.86,0,0,0-2.88-.21l0,.35A35.76,35.76,0,0,1,64.06,45.72Z"/><path class="cls-32" d="M64.36,44.4c-.11-.34-.23-.69-.36-1a7.11,7.11,0,0,0-3.13,2.9,9.8,9.8,0,0,0,3.86,1.78A9.22,9.22,0,0,1,64.36,44.4Z"/><path class="cls-32" d="M64.3,44.21c-.59-1.84-1.58-3.74-3.1-3.27a4.15,4.15,0,0,0-1.28,2.62A6,6,0,0,1,64.3,44.21Z"/><path class="cls-32" d="M63.88,52.9c-.32.15-.91.35-1.4.63.3.6.51,1,.53,1,1-.27,2-.56,3.22-.86l1.15-.29a16.68,16.68,0,0,1-1-1.52A20.8,20.8,0,0,0,63.88,52.9Z"/><path class="cls-33" d="M63,54.55c1-.27,2-.56,3.22-.86a28.22,28.22,0,0,0,.24,5.07c-.84.09-1.69.16-2.51.23a20.84,20.84,0,0,0-3-3.79C61.51,55,62.21,54.78,63,54.55Z"/><path class="cls-34" d="M61.63,55l-.13,0c.5.74,1,1.5,1.42,2.24.37.57.73,1.15,1.09,1.74l.16,0-.44-.81A16.13,16.13,0,0,0,61.63,55Z"/><path class="cls-34" d="M64.28,54.2l-.85.23,1.12,2.13C64.48,55.77,64.39,55,64.28,54.2Z"/><path class="cls-34" d="M66.47,58.76a28.22,28.22,0,0,1-.24-5.07l-.3.08c.11,1.65.3,3.3.3,5v.05Z"/><path class="cls-31" d="M63.47,57.9a12.59,12.59,0,0,0-2-2.88L61,55.2A20.84,20.84,0,0,1,64,59H64A9.27,9.27,0,0,0,63.47,57.9Z"/><path class="cls-34" d="M61.83,56.11c1.48-.28,2.93-.67,4.38-1.09,0-.44,0-.89,0-1.33-1.18.3-2.27.59-3.22.86-.8.23-1.5.45-2,.65C61.27,55.5,61.56,55.8,61.83,56.11Z"/><path class="cls-30" d="M64,59l-2.34.18a15.9,15.9,0,0,1-1.78,0c-.19-1.07-.38-2.53-.47-3.3.33-.18.7-.35,1.1-.52L61,55.2A20.84,20.84,0,0,1,64,59Z"/><path class="cls-34" d="M62.07,59.14l.45,0a25.63,25.63,0,0,0-2.24-3.31C60.83,56.93,61.45,58,62.07,59.14Z"/><path class="cls-31" d="M61.75,56c-.25-.28-.51-.55-.79-.82l-.49.19c-.4.17-.77.34-1.1.52,0,.25.07.58.12.94A23.85,23.85,0,0,0,61.75,56Z"/><path class="cls-32" d="M59.41,55.89l0,0c.09.77.28,2.23.47,3.3h.51A33.43,33.43,0,0,1,59.41,55.89Z"/><path class="cls-33" d="M59.37,55.91c.09.77.28,2.23.47,3.3C56,59.08,56.67,57.34,59.37,55.91Z"/><path class="cls-34" d="M57.79,57l-.19.18A8.41,8.41,0,0,0,58.25,59l.12,0C58.16,58.36,58,57.68,57.79,57Z"/><path class="cls-34" d="M59.55,57.28c-.08-.53-.14-1-.18-1.37-1.58.83-2.46,1.78-2.15,2.44A4.53,4.53,0,0,1,59.55,57.28Z"/><path class="cls-36" d="M64,43.36a18.52,18.52,0,0,1,.87,3,14,14,0,0,1-3.9,0A4.6,4.6,0,0,1,64,43.36Z"/><path class="cls-36" d="M67.38,58.76c-1.74.28-4.25,2.67-4.25,2.67s-2.26,1.29-7-.32a2,2,0,0,0,.16-1.37C61,58.05,67.38,58.76,67.38,58.76Z"/><path class="cls-37" d="M56.8,104.27c2.74.32,7.59,1.44,5.62,1.83a47.59,47.59,0,0,1-7.48,0c-1.61-3.32-6.14-15-8.78-23.39h0c.5-1,1-2,1.48-3A32.23,32.23,0,0,0,55,77.5C55.32,92.13,56.8,104.27,56.8,104.27Z"/><path class="cls-38" d="M56.8,104.27c2.74.32,7.59,1.44,5.62,1.83a47.59,47.59,0,0,1-7.48,0c-1.61-3.32-6.14-15-8.78-23.39h0c.5-1,1-2,1.48-3A32.23,32.23,0,0,0,55,77.5C55.32,92.13,56.8,104.27,56.8,104.27Z"/><path class="cls-39" d="M62.42,106.1c2-.39-2.85-1.51-5.6-1.83.26.66.53,1.31.8,2A28.39,28.39,0,0,0,62.42,106.1Z"/><path class="cls-40" d="M55,78.58l0-1.08a32.23,32.23,0,0,1-7.34,2.18c-.48,1-1,2-1.48,3h0c.28.92.6,1.87.92,2.85A40.25,40.25,0,0,1,55,78.58Z"/><path class="cls-41" d="M54.41,105c.2.46.38.85.53,1.16a47.59,47.59,0,0,0,7.48,0c1.41-.28-.68-.94-3-1.4A13.54,13.54,0,0,1,54.41,105Z"/><path class="cls-42" d="M59.86,44.19a12.17,12.17,0,0,0,.38,3.33c-7.79,2.41-14.81,1.37-21.81-5.06h0l-.63-1.05,0,0a7.09,7.09,0,0,0,1.1-2c.35.46.56.7.56.7l1.45-4a28.38,28.38,0,0,0-.25-7.44C40.9,29.64,44.72,46.34,59.86,44.19Z"/><path class="cls-43" d="M59.86,44.19c-15.14,2.15-19-14.55-19.18-15.56A30.09,30.09,0,0,1,41,35a22.58,22.58,0,0,0,8.34,8.93c1.77,3.28,8.32,2.16,10.51,1.3A7,7,0,0,1,59.86,44.19Z"/><path class="cls-44" d="M41.7,31.94a26.17,26.17,0,0,1-1-3.31,28.38,28.38,0,0,1,.25,7.44l-1.45,4s-.21-.24-.56-.7a7.09,7.09,0,0,1-1.1,2l0,0,.63,1.05h0c.8.73,1.59,1.39,2.39,2A26,26,0,0,0,41.7,31.94Z"/><path class="cls-44" d="M59.51,47.73l.73-.21a12.17,12.17,0,0,1-.38-3.33l-.33,0A11.73,11.73,0,0,0,59.51,47.73Z"/><path class="cls-41" d="M55,77.5a32.23,32.23,0,0,1-7.34,2.18,45.91,45.91,0,0,1-10.41.62l-1.1,0,1.09-3.72A29.29,29.29,0,0,0,52.09,66h0a12.28,12.28,0,0,0-5.23-5.81,41.77,41.77,0,0,0,6.46.78c2.54,4,6.92,13.25,6.92,13.25A17.45,17.45,0,0,1,55,77.5Z"/><path class="cls-45" d="M60.24,74.19S55.86,65,53.32,60.94a41.77,41.77,0,0,1-6.46-.78A12.28,12.28,0,0,1,52.09,66h0c-.54.75-1.11,1.44-1.69,2.1,1.38,3.19,2.56,6.48,3.67,9.81l.9-.38A17.45,17.45,0,0,0,60.24,74.19Z"/><path class="cls-46" d="M54.62,63.16c-.46-.83-.91-1.59-1.3-2.22a41.77,41.77,0,0,1-6.46-.78A12.28,12.28,0,0,1,52.09,66h0A29.29,29.29,0,0,1,37.21,76.53l-.79,2.69c6.59-2.91,12.46-7,16.58-13a18.81,18.81,0,0,0-1.76-3.36C52.37,63,53.5,63.13,54.62,63.16Z"/><path class="cls-47" d="M57.27,2.78c.8.86-1,4.81-2.73,6.21L54,8.59c-3.18-2.22-3.83-3.22-6.39-4.22v0a6.42,6.42,0,0,0-3.46-.42,5.07,5.07,0,0,1,0-.78h0c.08-2,.86-2.51.86-2.51C50.48-1,56.47,1.91,57.27,2.78Z"/><path class="cls-44" d="M48.06,3.35a5.71,5.71,0,0,0-3.83-1.22,5.37,5.37,0,0,0-.12,1h0a5.07,5.07,0,0,0,0,.78,6.42,6.42,0,0,1,3.46.42v0c2.56,1,3.21,2,6.39,4.22l.58.4a8.85,8.85,0,0,0,2-2.68A12.37,12.37,0,0,0,48.06,3.35Z"/><path class="cls-48" d="M57.27,2.78A9.93,9.93,0,0,0,54,1.11a2.8,2.8,0,0,1,.6,3.49,25.08,25.08,0,0,1-2.09,2.94c.42.32.89.67,1.45,1l.58.4C56.25,7.59,58.07,3.64,57.27,2.78Z"/><path class="cls-47" d="M29.32,46.29l-.61-.71h0a42.05,42.05,0,0,1-5.87-8.7c-3.56-7.35,1.67-11.61,5.81-13.07.86-.3,1.86,5,9.1,17.51a.2.2,0,0,0,0,.08l.63,1.05h0A50,50,0,0,0,55.7,59a1.4,1.4,0,0,1,.56.75,2,2,0,0,1-.16,1.37c-.38,0-.75-.09-1.13-.15a38.85,38.85,0,0,1-15.64-6h0A49.39,49.39,0,0,1,29.32,46.29Z"/><path class="cls-49" d="M55.7,59A50,50,0,0,1,38.43,42.46h0l-.63-1.05a.2.2,0,0,1,0-.08c-7.24-12.52-8.24-17.81-9.1-17.51a12.18,12.18,0,0,0-4.85,3.11c2.9.24,4.88,3.27,5.94,5.39,6.11,11,12.63,20.78,24,26.08a15.33,15.33,0,0,0,2.26.92A1.75,1.75,0,0,0,55.7,59Z"/><path class="cls-42" d="M55,61h0c-.55,0-1.11,0-1.65,0a41.77,41.77,0,0,1-6.46-.78h0a134,134,0,0,0-26-4.26s.8-6,7.85-10.32h0l.61.71a14.76,14.76,0,0,0-7,8.26,74.34,74.34,0,0,1,17.05.4h0A38.85,38.85,0,0,0,55,61Z"/><path class="cls-44" d="M46.86,60.16a41.77,41.77,0,0,0,6.46.78c.54,0,1.1,0,1.65,0h0a38.85,38.85,0,0,1-15.64-6h0c-1.43-.2-2.82-.35-4.16-.46A21.2,21.2,0,0,0,42.23,59c1.53.35,3.08.74,4.61,1.18Z"/><path class="cls-44" d="M29.32,46.29l-.61-.71h0a19,19,0,0,0-2,1.4c.16.23.33.45.5.67A17.51,17.51,0,0,1,29.32,46.29Z"/><path class="cls-50" d="M52.09,66h0A29.29,29.29,0,0,1,37.21,76.53c-27,3.15-26-6.74-26-17.31.07-32.64,19-38.7,19.43-38.82a44.41,44.41,0,0,0,8.28,19,7.09,7.09,0,0,1-1.1,2l0,0a.2.2,0,0,1,0-.08c-7.24-12.52-8.24-17.81-9.1-17.51-4.14,1.46-9.37,5.72-5.81,13.07a42.05,42.05,0,0,0,5.87,8.7c-7,4.34-7.85,10.32-7.85,10.32a134,134,0,0,1,26,4.26h0A12.28,12.28,0,0,1,52.09,66Z"/><path class="cls-51" d="M22,34.78c-1.71-6.07,2.89-9.65,6.62-11,.33-.11.68.59,1.38,2.18.52-.44,1-.86,1.59-1.27a44.21,44.21,0,0,1-1-4.32c-.39.12-19.36,6.18-19.43,38.82,0,8.38-.66,16.33,12.55,17.7A17.81,17.81,0,0,1,22,75.51C10.51,65.16,13,47.73,22,34.78Z"/><path class="cls-43" d="M52.09,66a12.28,12.28,0,0,0-5.23-5.81h0a134,134,0,0,0-26-4.26s0-.27.16-.74c-2.55,3-3.63,7.68-.7,9.87a67.84,67.84,0,0,0,4.83-6.64h2.68q-2.64,3.84-5.3,7.67c7.63,2.51,17.08-.5,23,6.32A28.65,28.65,0,0,0,52.09,66Z"/><path class="cls-43" d="M45.58,72.38A28.65,28.65,0,0,0,52.09,66h0a12.28,12.28,0,0,0-5.23-5.81h0l-2-.55a5.66,5.66,0,0,0-2.45,3.67A13.63,13.63,0,0,0,44,70.87,13,13,0,0,1,45.58,72.38Z"/><path class="cls-44" d="M28.71,45.58a42.05,42.05,0,0,1-5.87-8.7,12.77,12.77,0,0,1-.6-1.42A23.46,23.46,0,0,0,26.71,47,19,19,0,0,1,28.71,45.58Z"/><path class="cls-44" d="M30.71,20.77a24.3,24.3,0,0,0,.07,6.92A130.59,130.59,0,0,0,37,40a9.15,9.15,0,0,0,.89-2A44.73,44.73,0,0,1,30.71,20.77Z"/><path class="cls-52" d="M53.59,16.82c-2,7.42-9.07,10.11-10.4,9.44A5.58,5.58,0,0,1,40.48,23a15.63,15.63,0,0,1-.19-8,23,23,0,0,1,.84-3.15h0A7.19,7.19,0,0,1,45,8.59l.12,0C54.07,7,54.8,14,53.59,16.82Z"/><path class="cls-1" d="M53.59,16.82c-2,7.42-9.07,10.11-10.4,9.44A5.58,5.58,0,0,1,40.48,23a15.63,15.63,0,0,1-.19-8,23,23,0,0,1,.84-3.15h0A7.19,7.19,0,0,1,45,8.59l.12,0C54.07,7,54.8,14,53.59,16.82Z"/><g class="cls-53"><path class="cls-54" d="M43.09,19.08a2.33,2.33,0,0,1-2.8-1.64,2.32,2.32,0,0,1,1-3.1A2.33,2.33,0,0,1,44.06,16,2.34,2.34,0,0,1,43.09,19.08Z"/><path class="cls-55" d="M54.2,21.94c-.12.86-1.46,1.37-3,1.14S48.57,22,48.69,21.14s1.46-1.36,3-1.14S54.33,21.09,54.2,21.94Z"/></g><path class="cls-56" d="M47,8.36a14.86,14.86,0,0,0-1.87.21l-.12,0a7.19,7.19,0,0,0-3.84,3.32h0a23,23,0,0,0-.84,3.15,15.63,15.63,0,0,0,.19,8A6.09,6.09,0,0,0,42,25.42C39.53,20,42.31,12.77,47,8.36Z"/><path class="cls-39" d="M51.74,9.51c.18,6.12-1.55,12.6-7,15.49-1.05-.73-1.75,0-2.53.65a4.75,4.75,0,0,0,.94.61c1.33.67,8.37-2,10.4-9.44C54.38,15,54.34,11.38,51.74,9.51Z"/><path class="cls-40" d="M45.09,8.57l-.12,0a7.2,7.2,0,0,0-3.79,3.25A15.28,15.28,0,0,1,44.85,10c.3,3.79,3.78,6.46,6.9,8a11.18,11.18,0,0,0,1.21.58,13.75,13.75,0,0,0,.63-1.81C54.8,14,54.07,7,45.09,8.57Z"/><path class="cls-57" d="M53.59,16.82a34.2,34.2,0,0,1-8.29-7.4,8.07,8.07,0,0,1-.21-.85c-.52-2.61.72-4,2.48-4.2,2.09-.24,15.79,1.25,8.94,12C56.11,17,55.63,17.75,53.59,16.82Z"/><path class="cls-58" d="M53.59,16.82a34.2,34.2,0,0,1-8.29-7.4,8.07,8.07,0,0,1-.21-.85c-.52-2.61.72-4,2.48-4.2,2.09-.24,15.79,1.25,8.94,12C56.11,17,55.63,17.75,53.59,16.82Z"/><path class="cls-59" d="M53.68,7.06a10.35,10.35,0,0,1,.42,4.71,12.35,12.35,0,0,1-1.45,4.48c.34.23.62.41.81.51A10,10,0,0,0,54.75,14C55.38,11.7,55.31,8.86,53.68,7.06Z"/><path class="cls-59" d="M54.34,5.71a8,8,0,0,1,2.18,7,12,12,0,0,1-1.67,4.51,1.47,1.47,0,0,0,1.66-.84C60.34,10.37,57.74,7.24,54.34,5.71Z"/><path class="cls-60" d="M41.29,11.46c-1.72-1.73-3.57,1.28-1.35,3.31a2.51,2.51,0,0,1-1,.5c-1.9.34-2.29-3.47-.47-6.68a12.43,12.43,0,0,1,.8-1.26,7.61,7.61,0,0,1,4.86-3.41,6.42,6.42,0,0,1,3.46.42v0c-1.76.2-3,1.59-2.48,4.2l-.12,0a7.19,7.19,0,0,0-3.84,3.32h0C41.18,11.76,41.23,11.61,41.29,11.46Z"/><path class="cls-61" d="M45,8.59l.12,0c-.52-2.61.72-4,2.48-4.2v0l-.49-.17c-3,.26-5.42,4.08-5.65,7.29A7,7,0,0,1,45,8.59Z"/><path class="cls-61" d="M39.7,11.09a1.09,1.09,0,0,0,0-.18,10.39,10.39,0,0,1,3.58-6.79,8,8,0,0,0-4,3.21,12.43,12.43,0,0,0-.8,1.26c-1.82,3.21-1.43,7,.47,6.68a2.51,2.51,0,0,0,1-.5C38.45,13.41,38.8,11.6,39.7,11.09Z"/><path class="cls-36" d="M47.63,79.68c-.48,1-1,2-1.48,3-3.14,6.53-6.54,14-9.94,21.82,3.41.9,5.89,1.83,5.52,2.51s-7.77,0-7.77,0c-.39-6.13.68-17.86,3.26-26.75A45.91,45.91,0,0,0,47.63,79.68Z"/><path class="cls-62" d="M47.63,79.68c-.48,1-1,2-1.48,3-3.14,6.53-6.54,14-9.94,21.82,3.41.9,5.89,1.83,5.52,2.51s-7.77,0-7.77,0c-.39-6.13.68-17.86,3.26-26.75A45.91,45.91,0,0,0,47.63,79.68Z"/><path class="cls-40" d="M47.63,79.68a45.91,45.91,0,0,1-10.41.62c-.25.85-.48,1.72-.7,2.61a72.18,72.18,0,0,0,10.72-2.42Z"/><path class="cls-41" d="M40.19,105.8a11.23,11.23,0,0,1-6.29-.19q0,.77.06,1.44s7.41.69,7.77,0C41.93,106.69,41.31,106.26,40.19,105.8Z"/><path class="cls-63" d="M44.11,3.13h0a5.07,5.07,0,0,0,0,.78,7.61,7.61,0,0,0-4.86,3.41C36,7.15,34.93,3.35,38,1.12S43.76.19,44.11,3.13Z"/><path class="cls-64" d="M36.24,4.87a9.7,9.7,0,0,1,2.95-2.06,7,7,0,0,0-3,1.11A3.35,3.35,0,0,0,36.24,4.87Z"/><path class="cls-64" d="M38,1.12l-.36.3A6.88,6.88,0,0,1,43.83,2C43-.09,40.68-.8,38,1.12Z"/><path class="cls-61" d="M39.5,4.26a10.53,10.53,0,0,0-2.58,2,3.29,3.29,0,0,0,2.33,1.07A7.6,7.6,0,0,1,44,4,5.92,5.92,0,0,0,39.5,4.26Z"/><path class="cls-36" d="M39.94,14.77c-2.22-2-.37-5,1.35-3.31-.06.15-.11.3-.16.45a23,23,0,0,0-.84,3.15Z"/><path class="cls-40" d="M40.47,12.69a13.26,13.26,0,0,0-.88,1.72c.11.12.22.24.35.36l.35.29a23,23,0,0,1,.84-3.15c0-.15.1-.3.16-.45h0C40.92,12,40.54,12.59,40.47,12.69Z"/><path class="cls-65" d="M40.25,11.58l-.06,0a3.31,3.31,0,0,1-.55,2v.07a1.06,1.06,0,0,0,.63-.23,1,1,0,0,0,.35-.59,1.38,1.38,0,0,0-.07-.67A2.22,2.22,0,0,0,40.25,11.58Z"/><path class="cls-66" d="M40.68,28.63a28.38,28.38,0,0,1,.25,7.44l-.62-.82a44.52,44.52,0,0,0-1.67-10.34l-.1-.09a13,13,0,0,1,1-1.06l0,0a37.31,37.31,0,0,1,1.06,4.78Z"/><path class="cls-47" d="M40.31,35.25l.62.82-1.45,4s-.21-.24-.56-.7a44.41,44.41,0,0,1-8.28-19c0-.28-.09-.57-.13-.86L33.09,19l.27,1.19c.14.58.33,1.32.58,2.18a41.58,41.58,0,0,0,2.39,6.27A40.42,40.42,0,0,0,40.31,35.25Z"/><path class="cls-49" d="M40.31,35.25a40.42,40.42,0,0,1-4-6.64,41.58,41.58,0,0,1-2.39-6.27c-.25-.86-.44-1.6-.58-2.18L33.09,19,33,19a31.86,31.86,0,0,0,7,19.62l.91-2.54Z"/><path class="cls-67" d="M38.64,24.91a44.52,44.52,0,0,1,1.67,10.34,40.42,40.42,0,0,1-4-6.64,9.92,9.92,0,0,1,2.21-3.79Z"/><path class="cls-36" d="M39.94,14.77l.35.29a15.63,15.63,0,0,0,.19,8c-.31.23-.61.48-.9.74a13,13,0,0,0-1,1.06,9.92,9.92,0,0,0-2.21,3.79,41.58,41.58,0,0,1-2.39-6.27,6.37,6.37,0,0,0,2.65-1.95,6.73,6.73,0,0,0,.68-.91,10.36,10.36,0,0,0,1.65-4.21A2.51,2.51,0,0,0,39.94,14.77Z"/><path class="cls-68" d="M39.94,14.77l.35.29a15.63,15.63,0,0,0,.19,8c-.31.23-.61.48-.9.74a13,13,0,0,0-1,1.06,9.92,9.92,0,0,0-2.21,3.79,41.58,41.58,0,0,1-2.39-6.27,6.37,6.37,0,0,0,2.65-1.95,6.73,6.73,0,0,0,.68-.91,10.36,10.36,0,0,0,1.65-4.21A2.51,2.51,0,0,0,39.94,14.77Z"/><path class="cls-40" d="M40.48,23a15.63,15.63,0,0,1-.19-8l-.35-.29a2.51,2.51,0,0,1-1,.5,10.28,10.28,0,0,1-1.43,3.87,10.19,10.19,0,0,0,2,4.74l.12-.12C39.87,23.5,40.17,23.25,40.48,23Z"/><path class="cls-66" d="M37.27,19.48a6.73,6.73,0,0,1-.68.91,4.38,4.38,0,0,0-3.23-.23L33.09,19A8.54,8.54,0,0,1,37.27,19.48Z"/><path class="cls-67" d="M33.36,20.16a4.38,4.38,0,0,1,3.23.23,6.37,6.37,0,0,1-2.65,1.95C33.69,21.48,33.5,20.74,33.36,20.16Z"/><path class="cls-69" d="M39.06,33.46a22.18,22.18,0,0,0-1.72-7,8.79,8.79,0,0,0-1,2.19A41.94,41.94,0,0,0,39.06,33.46Z"/><path class="cls-67" d="M33.36,20.16a4.38,4.38,0,0,1,3.23.23,6.37,6.37,0,0,1-2.65,1.95C33.69,21.48,33.5,20.74,33.36,20.16Z"/><path class="cls-70" d="M40.63,14.33A.68.68,0,0,1,40,15a.69.69,0,0,1-.68-.68.68.68,0,0,1,.68-.67A.67.67,0,0,1,40.63,14.33Z"/><path class="cls-71" d="M46.9,21.1a1.25,1.25,0,0,0,1-.22s-.22-.69-2.06-.32A2.71,2.71,0,0,1,46.9,21.1Z"/><path class="cls-72" d="M49.3,17.62a4.25,4.25,0,0,0-1.15,1.45,2.4,2.4,0,0,0-.2,1.8h0a1.41,1.41,0,0,1-.35-1,2.14,2.14,0,0,1,.22-1,2.47,2.47,0,0,1,.62-.81,2.07,2.07,0,0,1,.88-.49Z"/><path class="cls-70" d="M46.57,14.77h0c-1.43.57-1.35,1.62-.28,2.64a4.08,4.08,0,0,1-2.51-4.23C44.35,13,45.8,13.63,46.57,14.77Z"/><path class="cls-73" d="M46.57,14.77a2.63,2.63,0,0,1,.16,2.84l-.45-.2c-1.07-1-1.15-2.07.28-2.64Z"/><path class="cls-74" d="M46.57,14.77a2.63,2.63,0,0,1,.16,2.84l-.45-.2c-1.07-1-1.15-2.07.28-2.64Z"/><path d="M47.06,16.19a.52.52,0,0,1-.52.52.53.53,0,0,1-.52-.52.52.52,0,0,1,.52-.52A.52.52,0,0,1,47.06,16.19Z"/><path class="cls-70" d="M46.15,15.52a.42.42,0,0,1-.41.41.41.41,0,0,1-.41-.41.41.41,0,0,1,.41-.41A.41.41,0,0,1,46.15,15.52Z"/><path class="cls-75" d="M43.8,13.18a4.33,4.33,0,0,0,.69,2.72,4.72,4.72,0,0,0,2.25,1.68l0,.05a3.22,3.22,0,0,1-1.48-.38,3.3,3.3,0,0,1-1.73-2.55,3,3,0,0,1,.23-1.52Z"/><path class="cls-70" d="M53.23,18.91c-.93-.46-1.64-.33-1.63,1.16a2.47,2.47,0,0,1-2-1.55A2.9,2.9,0,0,1,53.23,18.91Z"/><path class="cls-73" d="M53.23,18.91a1.92,1.92,0,0,1,.36.56,2.57,2.57,0,0,1-2,.6C51.59,18.58,52.43,18.08,53.23,18.91Z"/><path class="cls-76" d="M53.23,18.91a1.92,1.92,0,0,1,.36.56,2.57,2.57,0,0,1-2,.6C51.59,18.58,52.43,18.08,53.23,18.91Z"/><path class="cls-70" d="M52.21,19.14a.32.32,0,1,1-.31-.31A.31.31,0,0,1,52.21,19.14Z"/><path d="M53.25,19.24a.41.41,0,1,1-.82,0,.41.41,0,0,1,.82,0Z"/><path class="cls-75" d="M53.6,19.49a1.89,1.89,0,0,1-1,.86,2.17,2.17,0,0,1-1.38.1,2.38,2.38,0,0,1-1.17-.7,1.58,1.58,0,0,1-.48-1.22h0a2,2,0,0,0,.68.94,2.55,2.55,0,0,0,1,.52,2.28,2.28,0,0,0,1.16,0,2.89,2.89,0,0,0,1-.53Z"/><path class="cls-77" d="M48.05,14.89c-.28-.38-.46-.7-.65-1a9.83,9.83,0,0,0-.56-.92,5.82,5.82,0,0,0-.84-.8c-.31-.25-.65-.48-1-.72l0-.08c.39.13.77.28,1.15.45a4.9,4.9,0,0,1,1.08.68,2.4,2.4,0,0,1,.85,1,2,2,0,0,1,0,1.33Z"/><path class="cls-77" d="M50.78,16.83a1.42,1.42,0,0,1,.86-.39,2.08,2.08,0,0,1,.92.13,2.77,2.77,0,0,1,1.51,1l0,0a2.55,2.55,0,0,0-.76-.37,3.16,3.16,0,0,0-.8-.16c-.28,0-.55,0-.82,0a4.48,4.48,0,0,1-.86-.17Z"/><path class="cls-78" d="M46.56,23.72c-1.08.68-2.66.6-2.3-1.24A5.13,5.13,0,0,0,46.56,23.72Z"/><path class="cls-70" d="M44.61,23.27c0,.14,0,.26-.12.27s-.16-.1-.17-.24,0-.26.12-.27S44.6,23.13,44.61,23.27Z"/><path class="cls-79" d="M46,22.82c1.19-.15,1.12.16.54.9a5.13,5.13,0,0,1-2.3-1.24C46,22.09,46.35,22.22,46,22.82Z"/><path class="cls-80" d="M46.81,23.92a5.24,5.24,0,0,1-2.91-1.87l.33-.25c0,.06,0,.3.05.36a4.26,4.26,0,0,0,2.3,1.47c.07,0,.28-.12.35-.11Z"/><path class="cls-81" d="M45.19,14.39a5,5,0,0,1,1.64,3,2.66,2.66,0,0,0-.26-2.63c-.77-1.14-2.22-1.79-2.8-1.59a2.81,2.81,0,0,0,0,.29A4.08,4.08,0,0,1,45.19,14.39Z"/><path class="cls-82" d="M46.7,17.59a2.48,2.48,0,0,0,.19-2.07A3.43,3.43,0,0,0,45.44,14a9.12,9.12,0,0,0-2-.88,2,2,0,0,1-1.32-1.66h.08a1.76,1.76,0,0,0,.58.82,2.08,2.08,0,0,0,.85.4l.24.06.28,0,.58.12a4.75,4.75,0,0,1,1.11.44,3.67,3.67,0,0,1,1,.77,2.9,2.9,0,0,1,.69,1.18,2.32,2.32,0,0,1,0,1.36,2.15,2.15,0,0,1-.72,1Z"/><path class="cls-81" d="M53.48,19.26a1.72,1.72,0,0,0-.25-.35,2.9,2.9,0,0,0-3.62-.39s0,0,0,.05A5.72,5.72,0,0,1,53.48,19.26Z"/><path class="cls-82" d="M49.6,18.5a2.46,2.46,0,0,1,1-.7,2.67,2.67,0,0,1,1.29-.13,2.41,2.41,0,0,1,1.24.55,2.08,2.08,0,0,1,.68,1.14l0-.05a2.39,2.39,0,0,0,.16.32.45.45,0,0,0,.11.13.26.26,0,0,0,.15.07l0,0a.38.38,0,0,1-.41-.08,1.38,1.38,0,0,1-.29-.3h0a2.37,2.37,0,0,0-.7-.87,2.71,2.71,0,0,0-1-.44,3.57,3.57,0,0,0-2.21.38Z"/><path class="cls-83" d="M99.26,63.18a8.69,8.69,0,0,0-1.53-4.13,10.56,10.56,0,0,0-3.35-2.9c-2.33-1.35-7-2.24-7-2.24s-.25,1-.47,2.21a18.3,18.3,0,0,1,2.82-.44,2.32,2.32,0,0,1,2.61,1.89,10.82,10.82,0,0,1,3.78,2.74,6.83,6.83,0,0,1,1.53,3.12,13.05,13.05,0,0,1,.16,3.76c-.06.64-.14,1.28-.25,1.93s-.23,1.31-.32,2a33.75,33.75,0,0,0-.35,4,14.72,14.72,0,0,0,.33,4,15.37,15.37,0,0,1,.07-3.95A34.32,34.32,0,0,1,98,71.25c.16-.65.33-1.26.52-1.91s.33-1.31.46-2A14.43,14.43,0,0,0,99.26,63.18Z"/><g class="cls-84"><path class="cls-85" d="M96.78,58a10.1,10.1,0,0,0-1.23-1,1.08,1.08,0,0,0,.07.93,1.3,1.3,0,0,1,.48.16,1.46,1.46,0,0,1,.32.25A.53.53,0,0,0,96.78,58Z"/><path class="cls-85" d="M98.17,60.66a.65.65,0,0,0,.15.1l.06.05a.58.58,0,0,0,.24-.14,8.08,8.08,0,0,0-.85-1.55,1,1,0,0,0-.13.18l-.06.13a1.44,1.44,0,0,0,.3,1A.35.35,0,0,1,98.17,60.66Z"/><path class="cls-85" d="M97.88,62.06H98a.49.49,0,0,1,.44.24,1.39,1.39,0,0,1,.31.1,2,2,0,0,1,.44.3,9.27,9.27,0,0,0-.38-1.51,1.09,1.09,0,0,1-1,0,.38.38,0,0,1-.44-.31A1.22,1.22,0,0,1,97,60h0a1,1,0,0,1-.34.46.88.88,0,0,1-.24.11.31.31,0,0,1,0,.08A6.38,6.38,0,0,1,97.19,62,1.16,1.16,0,0,1,97.88,62.06Z"/><path class="cls-85" d="M97.77,72.28a.42.42,0,0,1-.7.16c-.09.88-.16,1.77-.18,2.65a14.72,14.72,0,0,0,.33,4,15.37,15.37,0,0,1,.07-3.95A33.52,33.52,0,0,1,98,71.55a.52.52,0,0,1-.27.17A.44.44,0,0,1,97.77,72.28Z"/><path class="cls-85" d="M98.91,65.28a.39.39,0,0,1,0,.77h-.07a.34.34,0,0,1-.25-.1.35.35,0,0,1-.2,0,.49.49,0,0,1-.35-.32l-.15,0c0,.53,0,1.06,0,1.6s-.1,1-.17,1.42a.38.38,0,0,1,.22-.07h.07a.44.44,0,0,1,.1.87l-.06,0a.83.83,0,0,1-.35,0l-.11,0-.09.54a.49.49,0,0,1,.06.25v.09a.44.44,0,0,1-.15.34.55.55,0,0,1,.74.5c.15-.6.31-1.19.49-1.8s.33-1.31.46-2A16,16,0,0,0,99.3,65,1.53,1.53,0,0,1,98.91,65.28ZM98.68,67l-.17,0a.24.24,0,0,1,0,.34.45.45,0,0,1-.31.14c-.31,0-.31-.48,0-.49h0a.24.24,0,0,1,.25,0,.43.43,0,0,1-.15-.32.37.37,0,1,1,.42.42Z"/></g><g class="cls-86"><path class="cls-87" d="M91.71,55a39.74,39.74,0,0,0-4.33-1.12s-.25,1-.47,2.21a18.3,18.3,0,0,1,2.82-.44,2.32,2.32,0,0,1,2.61,1.89,11,11,0,0,1,2.53,1.54A6.66,6.66,0,0,0,91.71,55Z"/></g><g class="cls-86"><path class="cls-87" d="M91.18,54.94a7,7,0,0,1,2.57,2.23,9.22,9.22,0,0,1,.9,1.77l.22.17A6.66,6.66,0,0,0,91.71,55c-1.09-.36-2.21-.65-3-.84C89.27,54.61,90.53,54.6,91.18,54.94Z"/><path class="cls-87" d="M88.15,54.86a.28.28,0,0,1-.27-.27c0-.2,0-.39,0-.59l-.46-.09s-.25,1-.47,2.21a18.3,18.3,0,0,1,2.82-.44,2.32,2.32,0,0,1,2.61,1.89,10.48,10.48,0,0,1,1.43.75A6.21,6.21,0,0,0,88.15,54.86Z"/></g></g></g></g></svg>