<svg xmlns="http://www.w3.org/2000/svg" viewBox="0 0 365.35 402.4"><defs><style>.cls-1{fill:#e0e0e0;}.cls-2{fill:#e6e6e6;}.cls-3{fill:#f0f0f0;}.cls-4{fill:#27debf;}.cls-5{opacity:0.1;}.cls-6{opacity:0.05;}.cls-22,.cls-7{fill:#fff;}.cls-10,.cls-16,.cls-7{opacity:0.4;}.cls-8{fill:#fafafa;}.cls-9{fill:#37474f;}.cls-11,.cls-13{fill:none;stroke-linecap:round;}.cls-11{stroke:#e0e0e0;stroke-linejoin:round;stroke-width:2px;}.cls-12{fill:#455a64;}.cls-13{stroke:#27debf;stroke-miterlimit:10;stroke-width:4px;}.cls-14{fill:#f28f8f;}.cls-15{opacity:0.3;}.cls-17{fill:#263238;}.cls-18{fill:#ffa8a7;}.cls-19{fill:#ebebeb;}.cls-20{opacity:0.15;}.cls-21{opacity:0.2;}</style></defs><g id="Layer_2" data-name="Layer 2"><g id="Shadows"><path id="Shadow" class="cls-1" d="M245.64,278.92,212.9,260.05a1.27,1.27,0,0,1,0-2.4l41.79-24.14a4.56,4.56,0,0,1,4.16,0l32.73,18.86a1.27,1.27,0,0,1,0,2.4L249.8,278.92A4.62,4.62,0,0,1,245.64,278.92Z"/><ellipse id="Shadow-2" data-name="Shadow" class="cls-1" cx="314.88" cy="308.65" rx="50.47" ry="34.31"/><path id="Shadow-3" data-name="Shadow" class="cls-1" d="M1,358.83l18.43,10.64a5.49,5.49,0,0,0,5,0L253.63,237.15c1.38-.79,1.38-2.08,0-2.88l-18.57-10.72a5.49,5.49,0,0,0-5,0L1,356C-.34,356.75-.34,358,1,358.83Z"/></g><g id="Schedule"><g id="Schedule-2" data-name="Schedule"><polygon class="cls-2" points="247.91 6.75 13.56 142.06 13.56 326.56 13.59 359.72 11.52 358.52 8.27 356.65 8.27 139.01 242.61 3.69 246.65 6.02 247.91 6.75"/><polygon class="cls-3" points="247.91 6.75 247.91 191.26 21.48 321.98 16.2 325.03 14.89 325.79 13.59 326.53 13.56 326.56 13.56 142.06 247.91 6.75"/><polygon class="cls-3" points="242.62 3.7 247.91 6.75 13.56 142.05 8.27 139 242.62 3.7"/><polygon class="cls-4" points="249.8 5.68 247.91 6.79 13.56 142.08 12.82 142.51 12.82 359.27 11.52 358.52 11.52 141.76 12.29 141.33 246.65 6.02 248.52 4.94 249.8 5.68"/><polygon class="cls-5" points="249.8 5.68 247.91 6.79 13.56 142.08 12.82 142.51 12.82 359.27 11.52 358.52 11.52 141.76 12.29 141.33 246.65 6.02 248.52 4.94 249.8 5.68"/><path class="cls-4" d="M247.91,6.79,13.56,142.08v0l-.74.42V359.27l.77.45,236.21-136V5.68Z"/><path class="cls-6" d="M247.91,6.79,13.56,142.08v0l-.74.42V359.27l.77.45,236.21-136V5.68Z"/><polygon class="cls-4" points="248.51 4.94 249.81 5.69 12.81 142.52 11.52 141.77 248.51 4.94"/><polygon class="cls-7" points="248.51 4.94 249.81 5.69 12.81 142.52 11.52 141.77 248.51 4.94"/><polygon class="cls-4" points="251.87 6.88 249.8 8.07 247.91 9.17 183.35 46.44 14.89 143.7 14.89 360.47 13.59 359.72 13.59 142.96 247.91 7.69 249.8 6.59 250.59 6.13 251.87 6.88"/><polygon class="cls-5" points="251.87 6.88 249.8 8.07 247.91 9.17 183.35 46.44 14.89 143.7 14.89 360.47 13.59 359.72 13.59 142.96 247.91 7.69 249.8 6.59 250.59 6.13 251.87 6.88"/><path class="cls-4" d="M249.8,8.07l-1.89,1.1L183.36,46.44,14.89,143.72V360.47l1.31.76,5.15-3.12L251.87,225V6.88Z"/><polygon class="cls-4" points="250.58 6.14 251.88 6.88 14.89 143.71 13.59 142.97 250.58 6.14"/><polygon class="cls-7" points="250.58 6.14 251.88 6.88 14.89 143.71 13.59 142.97 250.58 6.14"/><polygon class="cls-2" points="255.84 11.34 251.87 13.63 249.8 14.82 247.91 15.91 21.48 146.63 21.48 364.28 16.2 361.23 16.2 143.58 247.91 9.81 249.8 8.71 250.55 8.28 251.87 9.05 255.84 11.34"/><polygon class="cls-3" points="250.54 8.28 255.83 11.33 21.48 146.63 16.19 143.58 250.54 8.28"/><polygon class="cls-8" points="21.48 146.63 21.48 364.28 255.84 228.98 255.83 11.33 21.48 146.63"/><g id="Notebook"><path class="cls-9" d="M45.52,139.77c1.53-.88,2.77-.17,2.77,1.59a6.1,6.1,0,0,1-2.77,4.79c-1.52.88-2.76.17-2.76-1.59A6.11,6.11,0,0,1,45.52,139.77Z"/><path class="cls-4" d="M37.75,117.73c-3-1.74-5.89-2-8.12-.7s-3.45,3.9-3.45,7.38a17,17,0,0,0,.49,3.92l1.84-1.07a14.87,14.87,0,0,1-.28-2.85c0-2.72.86-4.72,2.42-5.62s3.72-.65,6.08.71c5.25,3,9.52,10.42,9.52,16.49a8.41,8.41,0,0,1-.78,3.81,4.25,4.25,0,0,1-1.65,1.8,1.29,1.29,0,0,1-.16.09,6,6,0,0,0-.87,2.4,5.9,5.9,0,0,0,2.05-.72,6.54,6.54,0,0,0,2.87-3.62,11.46,11.46,0,0,0,.58-3.76C48.29,129.28,43.56,121.08,37.75,117.73Z"/><path class="cls-9" d="M58.94,132c1.53-.88,2.76-.17,2.76,1.6a6.08,6.08,0,0,1-2.76,4.78c-1.52.88-2.76.17-2.76-1.59A6.13,6.13,0,0,1,58.94,132Z"/><path class="cls-4" d="M51.17,110c-3-1.73-5.89-2-8.12-.7s-3.45,3.9-3.45,7.38a16.89,16.89,0,0,0,.49,3.92l1.84-1.07a14.82,14.82,0,0,1-.29-2.85c0-2.72.87-4.71,2.43-5.62s3.72-.65,6.08.71c5.25,3,9.52,10.43,9.52,16.49a8.38,8.38,0,0,1-.78,3.81,4.47,4.47,0,0,1-1.65,1.81l-.16.08a6,6,0,0,0-.87,2.4,5.7,5.7,0,0,0,2-.72A6.49,6.49,0,0,0,61.12,132a11.2,11.2,0,0,0,.59-3.76C61.71,121.53,57,113.33,51.17,110Z"/><path class="cls-9" d="M32.11,147.51c1.52-.88,2.76-.17,2.76,1.59a6.11,6.11,0,0,1-2.76,4.79c-1.53.88-2.76.17-2.76-1.6A6.08,6.08,0,0,1,32.11,147.51Z"/><path class="cls-4" d="M24.33,125.47c-3-1.74-5.89-2-8.11-.7s-3.45,3.9-3.45,7.38a17.34,17.34,0,0,0,.48,3.91L15.1,135a14.14,14.14,0,0,1-.29-2.85c0-2.72.86-4.72,2.43-5.62s3.72-.65,6.07.71c5.25,3,9.52,10.42,9.52,16.49a8.55,8.55,0,0,1-.77,3.81,4.38,4.38,0,0,1-1.65,1.8l-.17.09a6,6,0,0,0-.87,2.4,6,6,0,0,0,2.06-.72,6.55,6.55,0,0,0,2.86-3.62,11.21,11.21,0,0,0,.58-3.76C34.87,137,30.15,128.82,24.33,125.47Z"/><path class="cls-9" d="M72.36,124.27c1.53-.88,2.76-.16,2.76,1.6a6.08,6.08,0,0,1-2.76,4.78c-1.52.89-2.76.17-2.76-1.59A6.15,6.15,0,0,1,72.36,124.27Z"/><path class="cls-4" d="M64.59,102.23c-3-1.73-5.89-2-8.12-.7S53,105.44,53,108.91a16.83,16.83,0,0,0,.49,3.92l1.84-1.07a14.74,14.74,0,0,1-.29-2.85c0-2.72.87-4.71,2.43-5.62s3.72-.65,6.08.71c5.25,3,9.52,10.43,9.52,16.5a8.37,8.37,0,0,1-.78,3.8,4.34,4.34,0,0,1-1.65,1.81l-.16.09a5.63,5.63,0,0,0-.87,2.4,6.19,6.19,0,0,0,2.05-.72,6.54,6.54,0,0,0,2.86-3.63,11.14,11.14,0,0,0,.59-3.75C75.13,113.78,70.4,105.59,64.59,102.23Z"/><path class="cls-9" d="M85.78,116.53c1.53-.89,2.76-.17,2.76,1.59a6.1,6.1,0,0,1-2.76,4.79c-1.52.88-2.76.16-2.76-1.6A6.11,6.11,0,0,1,85.78,116.53Z"/><path class="cls-4" d="M78,94.48c-3-1.73-5.89-2-8.12-.7s-3.45,3.91-3.45,7.38a16.83,16.83,0,0,0,.49,3.92L68.77,104a14.74,14.74,0,0,1-.29-2.85c0-2.72.87-4.71,2.43-5.61s3.72-.66,6.08.7c5.25,3,9.52,10.43,9.52,16.5a8.44,8.44,0,0,1-.78,3.81,4.37,4.37,0,0,1-1.65,1.8l-.16.09a5.73,5.73,0,0,0-.87,2.4,6.19,6.19,0,0,0,2-.72A6.54,6.54,0,0,0,88,116.5a11.14,11.14,0,0,0,.59-3.75C88.55,106,83.82,97.84,78,94.48Z"/><path class="cls-9" d="M99.2,108.78c1.53-.88,2.76-.17,2.76,1.59a6.1,6.1,0,0,1-2.76,4.79c-1.52.88-2.76.17-2.76-1.6A6.11,6.11,0,0,1,99.2,108.78Z"/><path class="cls-4" d="M91.43,86.74c-3-1.74-5.9-2-8.12-.7s-3.45,3.9-3.45,7.38a16.81,16.81,0,0,0,.49,3.91l1.84-1.06a14.9,14.9,0,0,1-.29-2.85c0-2.72.87-4.72,2.43-5.62s3.72-.66,6.07.71c5.26,3,9.53,10.42,9.53,16.49a8.41,8.41,0,0,1-.78,3.81,4.37,4.37,0,0,1-1.65,1.8l-.16.09a5.73,5.73,0,0,0-.87,2.4,6.19,6.19,0,0,0,2-.72,6.51,6.51,0,0,0,2.86-3.63A11.14,11.14,0,0,0,102,105C102,98.29,97.24,90.09,91.43,86.74Z"/><path class="cls-9" d="M112.62,101c1.53-.88,2.76-.17,2.76,1.59a6.09,6.09,0,0,1-2.76,4.79c-1.52.88-2.76.17-2.76-1.59A6.11,6.11,0,0,1,112.62,101Z"/><path class="cls-4" d="M104.84,79c-3-1.74-5.89-2-8.11-.7s-3.45,3.9-3.45,7.38a17.49,17.49,0,0,0,.48,3.92l1.85-1.07a14.9,14.9,0,0,1-.29-2.85c0-2.72.87-4.72,2.43-5.62s3.72-.65,6.07.71c5.26,3,9.53,10.42,9.53,16.49a8.41,8.41,0,0,1-.78,3.81,4.37,4.37,0,0,1-1.65,1.8l-.16.09a5.89,5.89,0,0,0-.88,2.4,6,6,0,0,0,2.06-.72A6.52,6.52,0,0,0,114.8,101a11.2,11.2,0,0,0,.59-3.76C115.39,90.54,110.66,82.34,104.84,79Z"/><path class="cls-9" d="M126,93.28c1.53-.88,2.76-.17,2.76,1.6A6.08,6.08,0,0,1,126,99.66c-1.53.88-2.76.17-2.76-1.59A6.1,6.1,0,0,1,126,93.28Z"/><path class="cls-4" d="M118.26,71.24c-3-1.73-5.89-2-8.11-.7s-3.45,3.9-3.45,7.38a17.49,17.49,0,0,0,.48,3.92L109,80.77a14.9,14.9,0,0,1-.29-2.85c0-2.72.87-4.71,2.43-5.62s3.72-.65,6.07.71c5.25,3,9.53,10.43,9.53,16.49a8.38,8.38,0,0,1-.78,3.81,4.37,4.37,0,0,1-1.65,1.8.7.7,0,0,1-.17.09,6,6,0,0,0-.87,2.4,5.75,5.75,0,0,0,2.06-.72,6.52,6.52,0,0,0,2.86-3.62,11.2,11.2,0,0,0,.59-3.76C128.81,82.79,124.08,74.59,118.26,71.24Z"/><path class="cls-9" d="M139.46,85.53c1.52-.88,2.76-.17,2.76,1.6a6.11,6.11,0,0,1-2.76,4.78c-1.53.88-2.76.17-2.76-1.59A6.12,6.12,0,0,1,139.46,85.53Z"/><path class="cls-4" d="M131.68,63.49c-3-1.73-5.89-2-8.11-.7s-3.45,3.91-3.45,7.38a17.36,17.36,0,0,0,.48,3.92L122.45,73a14.74,14.74,0,0,1-.29-2.85c0-2.72.86-4.71,2.43-5.62s3.72-.65,6.07.71c5.25,3,9.53,10.43,9.53,16.5a8.53,8.53,0,0,1-.78,3.8,4.41,4.41,0,0,1-1.65,1.81l-.17.09a5.91,5.91,0,0,0-.87,2.4,6.16,6.16,0,0,0,2.06-.72,6.54,6.54,0,0,0,2.86-3.63,11.14,11.14,0,0,0,.59-3.75C142.23,75,137.5,66.85,131.68,63.49Z"/><path class="cls-9" d="M152.88,77.78c1.52-.88,2.76-.16,2.76,1.6a6.15,6.15,0,0,1-2.76,4.79c-1.53.88-2.76.16-2.76-1.6A6.12,6.12,0,0,1,152.88,77.78Z"/><path class="cls-4" d="M145.1,55.74c-3-1.73-5.89-2-8.11-.7s-3.45,3.91-3.45,7.38a17.36,17.36,0,0,0,.48,3.92l1.85-1.07a14.74,14.74,0,0,1-.29-2.85c0-2.72.86-4.71,2.43-5.61s3.72-.66,6.07.7c5.25,3,9.53,10.43,9.53,16.5a8.44,8.44,0,0,1-.78,3.81,4.37,4.37,0,0,1-1.65,1.8l-.17.09a6,6,0,0,0-.87,2.4,6.16,6.16,0,0,0,2.06-.72,6.54,6.54,0,0,0,2.86-3.63,11.39,11.39,0,0,0,.59-3.75C155.65,67.29,150.92,59.1,145.1,55.74Z"/><path class="cls-9" d="M166.3,70c1.52-.89,2.76-.17,2.76,1.59a6.13,6.13,0,0,1-2.76,4.79c-1.53.88-2.76.16-2.76-1.6A6.08,6.08,0,0,1,166.3,70Z"/><path class="cls-4" d="M158.52,48c-3-1.74-5.89-2-8.11-.7S147,51.2,147,54.68a17.34,17.34,0,0,0,.48,3.91l1.85-1.06a14.9,14.9,0,0,1-.29-2.85c0-2.73.86-4.72,2.43-5.62s3.72-.66,6.07.7c5.25,3,9.52,10.43,9.52,16.5a8.42,8.42,0,0,1-.77,3.81,4.37,4.37,0,0,1-1.65,1.8l-.17.09a6,6,0,0,0-.87,2.4,6.16,6.16,0,0,0,2.06-.72A6.51,6.51,0,0,0,168.48,70a11.39,11.39,0,0,0,.59-3.75C169.07,59.55,164.34,51.35,158.52,48Z"/><path class="cls-9" d="M179.72,62.29c1.52-.88,2.76-.17,2.76,1.59a6.11,6.11,0,0,1-2.76,4.79c-1.53.88-2.76.17-2.76-1.59A6.09,6.09,0,0,1,179.72,62.29Z"/><path class="cls-4" d="M171.94,40.25c-3-1.74-5.89-2-8.11-.7s-3.45,3.9-3.45,7.38a17.49,17.49,0,0,0,.48,3.92l1.85-1.07a14.14,14.14,0,0,1-.29-2.85c0-2.72.86-4.72,2.43-5.62s3.72-.65,6.07.71c5.25,3,9.52,10.42,9.52,16.49a8.55,8.55,0,0,1-.77,3.81,4.38,4.38,0,0,1-1.65,1.8l-.17.09a6,6,0,0,0-.87,2.4,6,6,0,0,0,2.06-.72,6.55,6.55,0,0,0,2.86-3.62,11.21,11.21,0,0,0,.58-3.76C182.48,51.8,177.76,43.6,171.94,40.25Z"/><path class="cls-9" d="M193.12,54.54c1.53-.88,2.76-.16,2.76,1.6a6.12,6.12,0,0,1-2.76,4.79c-1.52.88-2.76.16-2.76-1.6A6.15,6.15,0,0,1,193.12,54.54Z"/><path class="cls-4" d="M185.35,32.5c-3-1.73-5.89-2-8.12-.7s-3.45,3.91-3.45,7.38a16.83,16.83,0,0,0,.49,3.92L176.11,42a14.74,14.74,0,0,1-.29-2.85c0-2.72.87-4.71,2.43-5.62s3.72-.65,6.08.71c5.25,3,9.52,10.43,9.52,16.5a8.44,8.44,0,0,1-.78,3.81,4.37,4.37,0,0,1-1.65,1.8l-.16.09a5.77,5.77,0,0,0-.87,2.4,6.19,6.19,0,0,0,2.05-.72,6.54,6.54,0,0,0,2.86-3.63,11.14,11.14,0,0,0,.59-3.75C195.89,44.05,191.16,35.86,185.35,32.5Z"/><path class="cls-9" d="M206.54,46.8c1.53-.89,2.76-.17,2.76,1.59a6.1,6.1,0,0,1-2.76,4.79c-1.52.88-2.76.16-2.76-1.6A6.11,6.11,0,0,1,206.54,46.8Z"/><path class="cls-4" d="M198.77,24.76c-3-1.74-5.89-2-8.12-.71S187.2,28,187.2,31.43a16.83,16.83,0,0,0,.49,3.92l1.84-1.07a14.74,14.74,0,0,1-.29-2.85c0-2.72.87-4.71,2.43-5.61s3.72-.66,6.08.7c5.25,3,9.52,10.43,9.52,16.5a8.44,8.44,0,0,1-.78,3.81,4.31,4.31,0,0,1-1.65,1.8l-.16.09a5.73,5.73,0,0,0-.87,2.4,6.19,6.19,0,0,0,2.05-.72,6.5,6.5,0,0,0,2.86-3.63,11.14,11.14,0,0,0,.59-3.75C209.31,36.3,204.58,28.11,198.77,24.76Z"/><path class="cls-9" d="M220,39.05c1.53-.88,2.76-.17,2.76,1.59A6.09,6.09,0,0,1,220,45.43c-1.52.88-2.76.17-2.76-1.6A6.11,6.11,0,0,1,220,39.05Z"/><path class="cls-4" d="M212.19,17c-3-1.74-5.89-2-8.12-.7s-3.45,3.9-3.45,7.38a16.81,16.81,0,0,0,.49,3.91L203,26.54a14.9,14.9,0,0,1-.29-2.85c0-2.72.87-4.72,2.43-5.62s3.72-.65,6.08.71c5.25,3,9.52,10.42,9.52,16.49a8.41,8.41,0,0,1-.78,3.81,4.37,4.37,0,0,1-1.65,1.8l-.16.09a5.73,5.73,0,0,0-.87,2.4,6,6,0,0,0,2.05-.72A6.51,6.51,0,0,0,222.14,39a11.14,11.14,0,0,0,.59-3.75C222.73,28.56,218,20.36,212.19,17Z"/><path class="cls-9" d="M233.38,31.3c1.53-.88,2.76-.17,2.76,1.59a6.09,6.09,0,0,1-2.76,4.79c-1.52.88-2.76.17-2.76-1.59A6.11,6.11,0,0,1,233.38,31.3Z"/><path class="cls-4" d="M225.6,9.26c-3-1.74-5.89-2-8.11-.7S214,12.46,214,15.94a17.49,17.49,0,0,0,.48,3.92l1.85-1.07a14.9,14.9,0,0,1-.29-2.85c0-2.72.87-4.72,2.43-5.62s3.72-.65,6.07.71c5.26,3,9.53,10.42,9.53,16.49a8.41,8.41,0,0,1-.78,3.81,4.37,4.37,0,0,1-1.65,1.8l-.16.09a5.89,5.89,0,0,0-.88,2.4,6,6,0,0,0,2.06-.72,6.52,6.52,0,0,0,2.86-3.62,11.2,11.2,0,0,0,.59-3.76C236.15,20.81,231.42,12.61,225.6,9.26Z"/><path class="cls-9" d="M246.8,23.55c1.53-.88,2.76-.17,2.76,1.6a6.08,6.08,0,0,1-2.76,4.78c-1.53.88-2.76.17-2.76-1.59A6.1,6.1,0,0,1,246.8,23.55Z"/><path class="cls-4" d="M239,1.51c-3-1.73-5.89-2-8.11-.7s-3.45,3.9-3.45,7.38a17.36,17.36,0,0,0,.48,3.92L229.79,11a14.82,14.82,0,0,1-.29-2.85c0-2.72.87-4.71,2.43-5.62s3.72-.65,6.07.71c5.25,3,9.53,10.43,9.53,16.49a8.55,8.55,0,0,1-.78,3.81,4.4,4.4,0,0,1-1.65,1.81l-.16.08a5.89,5.89,0,0,0-.88,2.4,6,6,0,0,0,2.06-.72A6.49,6.49,0,0,0,249,23.53a11.2,11.2,0,0,0,.59-3.76C249.57,13.06,244.84,4.86,239,1.51Z"/><path class="cls-10" d="M239,1.51c-3-1.73-5.89-2-8.11-.7s-3.45,3.9-3.45,7.38a16.73,16.73,0,0,0,.23,2.51,15.88,15.88,0,0,0-2.09-1.44c-3-1.74-5.89-2-8.11-.7S214,12.46,214,15.94a16.73,16.73,0,0,0,.23,2.51A16.48,16.48,0,0,0,212.19,17c-3-1.74-5.89-2-8.12-.7s-3.45,3.9-3.45,7.38a16.85,16.85,0,0,0,.23,2.51,15.5,15.5,0,0,0-2.08-1.44c-3-1.74-5.89-2-8.12-.71S187.2,28,187.2,31.43a16.86,16.86,0,0,0,.23,2.52,16.57,16.57,0,0,0-2.08-1.45c-3-1.73-5.89-2-8.12-.7s-3.45,3.91-3.45,7.38a16.72,16.72,0,0,0,.23,2.5,16.29,16.29,0,0,0-2.07-1.43c-3-1.74-5.89-2-8.11-.7s-3.45,3.9-3.45,7.38a15.62,15.62,0,0,0,.23,2.51A15.58,15.58,0,0,0,158.52,48c-3-1.74-5.89-2-8.11-.7S147,51.2,147,54.68a15.62,15.62,0,0,0,.23,2.51,16.66,16.66,0,0,0-2.09-1.45c-3-1.73-5.89-2-8.11-.7s-3.45,3.91-3.45,7.38a15.74,15.74,0,0,0,.23,2.52,15.67,15.67,0,0,0-2.09-1.45c-3-1.73-5.89-2-8.11-.7s-3.45,3.91-3.45,7.38a15.52,15.52,0,0,0,.23,2.51,16.57,16.57,0,0,0-2.09-1.44c-3-1.73-5.89-2-8.11-.7s-3.45,3.9-3.45,7.38a16.73,16.73,0,0,0,.23,2.51A15.88,15.88,0,0,0,104.84,79c-3-1.74-5.89-2-8.11-.7s-3.45,3.9-3.45,7.38a16.73,16.73,0,0,0,.23,2.51,15.5,15.5,0,0,0-2.08-1.44c-3-1.74-5.9-2-8.12-.7s-3.45,3.9-3.45,7.38a16.85,16.85,0,0,0,.23,2.51A16.57,16.57,0,0,0,78,94.48c-3-1.73-5.89-2-8.12-.7s-3.45,3.91-3.45,7.38a16.86,16.86,0,0,0,.23,2.52,15.58,15.58,0,0,0-2.08-1.45c-3-1.73-5.89-2-8.12-.7S53,105.44,53,108.91a16.73,16.73,0,0,0,.23,2.51A16.48,16.48,0,0,0,51.17,110c-3-1.73-5.89-2-8.12-.7s-3.45,3.9-3.45,7.38a16.73,16.73,0,0,0,.23,2.51,16.48,16.48,0,0,0-2.08-1.44c-3-1.74-5.89-2-8.12-.7s-3.45,3.9-3.45,7.38a16.28,16.28,0,0,0,.21,2.48,15.43,15.43,0,0,0-2.06-1.42c-3-1.74-5.89-2-8.11-.7s-3.45,3.9-3.45,7.38a17.34,17.34,0,0,0,.48,3.91L15.1,135a14.14,14.14,0,0,1-.29-2.85c0-2.72.86-4.72,2.43-5.62s3.72-.65,6.07.71c5.25,3,9.52,10.42,9.52,16.49a8.55,8.55,0,0,1-.77,3.81,4.38,4.38,0,0,1-1.65,1.8l-.17.09a6,6,0,0,0-.87,2.4,6,6,0,0,0,2.06-.72,6.55,6.55,0,0,0,2.86-3.62,11.21,11.21,0,0,0,.58-3.76c0-5.44-3.1-11.86-7.38-15.88l1-.59a14.9,14.9,0,0,1-.29-2.85c0-2.72.87-4.72,2.43-5.62s3.72-.65,6.08.71c5.25,3,9.52,10.42,9.52,16.49a8.41,8.41,0,0,1-.78,3.81,4.25,4.25,0,0,1-1.65,1.8,1.29,1.29,0,0,1-.16.09,6,6,0,0,0-.87,2.4,5.9,5.9,0,0,0,2.05-.72,6.54,6.54,0,0,0,2.87-3.62,11.46,11.46,0,0,0,.58-3.76c0-5.44-3.11-11.86-7.39-15.88l1-.6a14.82,14.82,0,0,1-.29-2.85c0-2.72.87-4.71,2.43-5.62s3.72-.65,6.08.71c5.25,3,9.52,10.43,9.52,16.49a8.38,8.38,0,0,1-.78,3.81,4.47,4.47,0,0,1-1.65,1.81l-.16.08a6,6,0,0,0-.87,2.4,5.77,5.77,0,0,0,2-.72A6.49,6.49,0,0,0,61.12,132a11.2,11.2,0,0,0,.59-3.76c0-5.44-3.11-11.86-7.39-15.88l1-.6a14.74,14.74,0,0,1-.29-2.85c0-2.72.87-4.71,2.43-5.62s3.72-.65,6.08.71c5.25,3,9.52,10.43,9.52,16.5a8.37,8.37,0,0,1-.78,3.8,4.34,4.34,0,0,1-1.65,1.81l-.16.09a5.63,5.63,0,0,0-.87,2.4,6.19,6.19,0,0,0,2.05-.72,6.54,6.54,0,0,0,2.86-3.63,11.14,11.14,0,0,0,.59-3.75c0-5.45-3.11-11.87-7.39-15.89l1-.6a14.74,14.74,0,0,1-.29-2.85c0-2.72.87-4.71,2.43-5.61s3.72-.66,6.08.7c5.25,3,9.52,10.43,9.52,16.5a8.44,8.44,0,0,1-.78,3.81,4.37,4.37,0,0,1-1.65,1.8l-.16.09a5.73,5.73,0,0,0-.87,2.4,6.19,6.19,0,0,0,2-.72A6.54,6.54,0,0,0,88,116.5a11.14,11.14,0,0,0,.59-3.75c0-5.45-3.11-11.87-7.39-15.89l1-.59a14.9,14.9,0,0,1-.29-2.85c0-2.72.87-4.72,2.43-5.62s3.72-.66,6.07.71c5.26,3,9.53,10.42,9.53,16.49a8.41,8.41,0,0,1-.78,3.81,4.37,4.37,0,0,1-1.65,1.8l-.16.09a5.73,5.73,0,0,0-.87,2.4,6.19,6.19,0,0,0,2-.72,6.51,6.51,0,0,0,2.86-3.63A11.14,11.14,0,0,0,102,105c0-5.45-3.11-11.87-7.39-15.89l1-.59a14.9,14.9,0,0,1-.29-2.85c0-2.72.87-4.72,2.43-5.62s3.72-.65,6.07.71c5.26,3,9.53,10.42,9.53,16.49a8.41,8.41,0,0,1-.78,3.81,4.37,4.37,0,0,1-1.65,1.8l-.16.09a5.89,5.89,0,0,0-.88,2.4,6,6,0,0,0,2.06-.72A6.52,6.52,0,0,0,114.8,101a11.2,11.2,0,0,0,.59-3.76c0-5.44-3.11-11.86-7.39-15.88l1-.6a14.9,14.9,0,0,1-.29-2.85c0-2.72.87-4.71,2.43-5.62s3.72-.65,6.07.71c5.25,3,9.53,10.43,9.53,16.49a8.38,8.38,0,0,1-.78,3.81,4.37,4.37,0,0,1-1.65,1.8l-.16.09a5.89,5.89,0,0,0-.88,2.4,5.75,5.75,0,0,0,2.06-.72,6.52,6.52,0,0,0,2.86-3.62,11.2,11.2,0,0,0,.59-3.76c0-5.44-3.11-11.86-7.39-15.88l1-.6a14.74,14.74,0,0,1-.29-2.85c0-2.72.86-4.71,2.43-5.62s3.72-.65,6.07.71c5.25,3,9.53,10.43,9.53,16.5a8.53,8.53,0,0,1-.78,3.8,4.41,4.41,0,0,1-1.65,1.81l-.17.08a6,6,0,0,0-.87,2.41,6.16,6.16,0,0,0,2.06-.72,6.54,6.54,0,0,0,2.86-3.63,11.14,11.14,0,0,0,.59-3.75c0-5.45-3.11-11.87-7.39-15.89l1-.6a14.74,14.74,0,0,1-.29-2.85c0-2.72.86-4.71,2.43-5.61s3.72-.66,6.07.7c5.25,3,9.53,10.43,9.53,16.5a8.44,8.44,0,0,1-.78,3.81,4.37,4.37,0,0,1-1.65,1.8l-.17.09a6,6,0,0,0-.87,2.4,6.16,6.16,0,0,0,2.06-.72,6.54,6.54,0,0,0,2.86-3.63,11.14,11.14,0,0,0,.59-3.75c0-5.45-3.11-11.87-7.39-15.89l1-.59a14.9,14.9,0,0,1-.29-2.85c0-2.73.86-4.72,2.43-5.62s3.72-.66,6.07.7c5.25,3,9.52,10.43,9.52,16.5a8.42,8.42,0,0,1-.77,3.81,4.37,4.37,0,0,1-1.65,1.8l-.17.09a6,6,0,0,0-.87,2.4,6.16,6.16,0,0,0,2.06-.72A6.51,6.51,0,0,0,168.48,70a11.39,11.39,0,0,0,.59-3.75c0-5.45-3.12-11.87-7.39-15.89l1-.59a14.14,14.14,0,0,1-.29-2.85c0-2.72.86-4.72,2.43-5.62s3.72-.65,6.07.71c5.25,3,9.52,10.42,9.52,16.49a8.55,8.55,0,0,1-.77,3.81,4.38,4.38,0,0,1-1.65,1.8l-.17.09a6,6,0,0,0-.87,2.4,6,6,0,0,0,2.06-.72,6.55,6.55,0,0,0,2.86-3.62,11.21,11.21,0,0,0,.58-3.76c0-5.45-3.11-11.87-7.39-15.89l1-.59a14.74,14.74,0,0,1-.29-2.85c0-2.72.87-4.71,2.43-5.62s3.72-.65,6.08.71c5.25,3,9.52,10.43,9.52,16.5a8.44,8.44,0,0,1-.78,3.81,4.37,4.37,0,0,1-1.65,1.8l-.16.09a5.77,5.77,0,0,0-.87,2.4,6.19,6.19,0,0,0,2.05-.72,6.54,6.54,0,0,0,2.86-3.63,11.14,11.14,0,0,0,.59-3.75c0-5.45-3.11-11.87-7.39-15.89l1-.6a14.74,14.74,0,0,1-.29-2.85c0-2.72.87-4.71,2.43-5.61s3.72-.66,6.08.7c5.25,3,9.52,10.43,9.52,16.5a8.44,8.44,0,0,1-.78,3.81,4.31,4.31,0,0,1-1.65,1.8l-.16.09a5.73,5.73,0,0,0-.87,2.4,6.19,6.19,0,0,0,2.05-.72,6.5,6.5,0,0,0,2.86-3.63,11.14,11.14,0,0,0,.59-3.75c0-5.45-3.11-11.87-7.39-15.89l1-.59a14.9,14.9,0,0,1-.29-2.85c0-2.72.87-4.72,2.43-5.62s3.72-.65,6.08.71c5.25,3,9.52,10.42,9.52,16.49a8.41,8.41,0,0,1-.78,3.81,4.37,4.37,0,0,1-1.65,1.8l-.16.09a5.73,5.73,0,0,0-.87,2.4,6,6,0,0,0,2.05-.72A6.51,6.51,0,0,0,222.14,39a11.14,11.14,0,0,0,.59-3.75c0-5.45-3.11-11.87-7.39-15.89l1-.59a14.9,14.9,0,0,1-.29-2.85c0-2.72.87-4.72,2.43-5.62s3.72-.65,6.07.71c5.26,3,9.53,10.42,9.53,16.49a8.41,8.41,0,0,1-.78,3.81,4.37,4.37,0,0,1-1.65,1.8l-.16.09a5.73,5.73,0,0,0-.87,2.4,6,6,0,0,0,2-.72,6.52,6.52,0,0,0,2.86-3.62,11.2,11.2,0,0,0,.59-3.76c0-5.44-3.11-11.86-7.39-15.88l1-.6a14.82,14.82,0,0,1-.29-2.85c0-2.72.87-4.71,2.43-5.62s3.72-.65,6.07.71c5.25,3,9.53,10.43,9.53,16.49a8.55,8.55,0,0,1-.78,3.81,4.4,4.4,0,0,1-1.65,1.81l-.16.08a5.89,5.89,0,0,0-.88,2.4,6,6,0,0,0,2.06-.72A6.49,6.49,0,0,0,249,23.53a11.2,11.2,0,0,0,.59-3.76C249.57,13.06,244.84,4.86,239,1.51Z"/></g><path class="cls-4" d="M51.23,164.1,68,154.36c1.24-.71,2.25-.2,2.26,1.14A4.82,4.82,0,0,1,68,159.23L51.23,169c-1.24.72-2.25.21-2.25-1.13A4.79,4.79,0,0,1,51.23,164.1Z"/><path class="cls-4" d="M79.88,147.55l16.76-9.73c1.25-.72,2.26-.21,2.26,1.14a4.75,4.75,0,0,1-2.23,3.72l-16.78,9.73c-1.25.71-2.25.21-2.25-1.13A4.82,4.82,0,0,1,79.88,147.55Z"/><path class="cls-4" d="M108.54,131l16.76-9.74c1.24-.71,2.26-.2,2.26,1.14a4.79,4.79,0,0,1-2.23,3.73l-16.79,9.72c-1.24.72-2.24.21-2.24-1.13A4.79,4.79,0,0,1,108.54,131Z"/><path class="cls-4" d="M137.2,114.46,154,104.73c1.24-.72,2.25-.21,2.26,1.13a4.75,4.75,0,0,1-2.23,3.73l-16.79,9.73c-1.24.71-2.25.21-2.25-1.13A4.83,4.83,0,0,1,137.2,114.46Z"/><path class="cls-4" d="M165.86,97.92l16.76-9.74c1.24-.71,2.25-.2,2.26,1.14a4.77,4.77,0,0,1-2.24,3.73l-16.78,9.72c-1.24.72-2.25.21-2.25-1.13A4.8,4.8,0,0,1,165.86,97.92Z"/><path class="cls-4" d="M194.52,81.37l16.76-9.73c1.24-.72,2.25-.21,2.26,1.13a4.79,4.79,0,0,1-2.24,3.73l-16.78,9.73c-1.24.71-2.25.2-2.25-1.13A4.83,4.83,0,0,1,194.52,81.37Z"/><path class="cls-4" d="M223.17,64.83l16.77-9.74c1.24-.71,2.25-.21,2.26,1.14A4.82,4.82,0,0,1,240,60l-16.78,9.72c-1.25.72-2.25.21-2.25-1.13A4.79,4.79,0,0,1,223.17,64.83Z"/><path class="cls-1" d="M244.24,77.83,244,217.38,49.2,330V190.43l195-112.6m2-3.47L47.2,189.28V333.46L246,218.54l.24-144.18Z"/><line class="cls-11" x1="75.6" y1="316.08" x2="75.63" y2="173.82"/><line class="cls-11" x1="104.07" y1="157.41" x2="104" y2="299.66"/><line class="cls-11" x1="132.5" y1="140.99" x2="132.4" y2="283.24"/><line class="cls-11" x1="160.94" y1="124.57" x2="160.81" y2="266.83"/><line class="cls-11" x1="189.38" y1="108.15" x2="189.21" y2="250.41"/><line class="cls-11" x1="217.81" y1="91.74" x2="217.61" y2="233.99"/><line class="cls-11" x1="48.37" y1="224.62" x2="245.23" y2="110.96"/><line class="cls-11" x1="48.37" y1="260.67" x2="245.23" y2="147"/><line class="cls-11" x1="48.37" y1="296.71" x2="245.23" y2="183.05"/><g id="Note"><g id="Note-2" data-name="Note"><polygon class="cls-5" points="191.84 110.29 191.84 145.9 221.33 128.87 221.33 93.27 191.84 110.29"/><path class="cls-4" d="M228.7,126.89s-1.43,2.43-6.58,5.4l-26,15L193,116.35l29.49-17,1.65,17.91C224.43,120.15,224.86,124.4,228.7,126.89Z"/><polygon class="cls-4" points="222.52 99.32 193.03 116.35 193.02 110.88 222.52 93.85 222.52 99.32"/><polygon class="cls-5" points="222.52 99.32 193.03 116.35 193.02 110.88 222.52 93.85 222.52 99.32"/></g><path class="cls-12" d="M219.59,114.5a20.15,20.15,0,0,0-.68-2.45l-.1-.27a2.38,2.38,0,0,0-.43-2.65c-.11-.11-.42-.23-.5,0a3.63,3.63,0,0,0,.17,2.33,8.54,8.54,0,0,1-.86,1.54,10.89,10.89,0,0,1-1,1.32c-.46.49-1.16,1.2-1.88,1.22a.88.88,0,0,1-.89-.69c.22-.31.43-.64.63-1a7,7,0,0,0,1-2.36.9.9,0,0,0-1.13-1.07c-.82.19-1.09,1.26-1.25,2a4.6,4.6,0,0,0,0,2.15,5,5,0,0,1-.62.81,1.72,1.72,0,0,1-.31.24c0-.1,0-.23,0-.27,0-.24-.36-.61-.61-.41-.65.51-.77,1.33-1.17,2a1.78,1.78,0,0,1-.35.42c-.17.16-.2.17-.27,0a5.36,5.36,0,0,0-.4-1c-.13-.2-.53-.4-.7-.13a4.69,4.69,0,0,0-.53,1.27,1,1,0,0,0-1.48,0,8.37,8.37,0,0,0-1.32,1.86,3.81,3.81,0,0,1-.33.55l-.11.15a.32.32,0,0,1,0-.13,10.35,10.35,0,0,1,0-1.67h0v-.09c0-.4-.86-.63-.87-.17a1.48,1.48,0,0,1,0,.21,5,5,0,0,1-2.28,3.63c-.37.27-1.29.93-1.78.69s-.37-1-.34-1.36a8.54,8.54,0,0,1,1-3.49,3.43,3.43,0,0,1,1.16-1.32,1.33,1.33,0,0,1,1.06-.2c.47.16.42.7.3,1.1-.05.16.2.51.33.28.72-1.33-.48-2.51-1.86-2s-2,1.86-2.37,3.07-.86,2.69-.34,3.85c.64,1.4,2.27.82,3.25.17a7.11,7.11,0,0,0,2.12-2.21,1.63,1.63,0,0,0,.17.22c.65.65,1.24.05,1.59-.55a9.31,9.31,0,0,1,1.31-2c.07-.07.16-.12.22-.19s0,0,0,0a4.67,4.67,0,0,1,.08.52c0,.38,0,.75.05,1.13s.7.65.81.21c.22-.79.31-1.64.6-2.41.26.55.6,1.06,1.29.77s.91-1.36,1.33-2.08a.65.65,0,0,0,1,.25,2.45,2.45,0,0,0,.76-.71l.09-.12a1.74,1.74,0,0,0,1.81.8,4.63,4.63,0,0,0,2.43-1.82,11.07,11.07,0,0,0,1.24-1.8l0,.11a14.24,14.24,0,0,1,.54,2.75q0,.36,0,.75a2.55,2.55,0,0,0-2.88.94c-.61.76-.81,2.23.28,2.69.91.37,1.95-.4,2.54-1C220.06,117.71,219.89,115.91,219.59,114.5Zm-6.16-2.07a3.54,3.54,0,0,1,.33-.87,1,1,0,0,1,.2-.29c.08-.06.33-.16.32-.17s-.1.44-.14.56-.16.43-.25.64a11.1,11.1,0,0,1-.63,1.24A6.22,6.22,0,0,1,213.43,112.43Zm4,6.54c-.44.24-.9.43-.94-.21-.08-1.06,1.43-2.36,2.46-1.83a2.51,2.51,0,0,1-.39,1A3.58,3.58,0,0,1,217.46,119Z"/><path class="cls-12" d="M201.56,127.25a17,17,0,0,1-1.2,2.68c-.43.63-1.18,1.13-1.28,1.93,0,.11.12.39.26.26a9.73,9.73,0,0,0,1.86-2,.36.36,0,0,1,0-.09c-.15.9-.33,1.79-.42,2.69s-.22,1.85-.33,2.77-.12,1.84-.3,2.72c-.09.45.72.76.86.27a8.58,8.58,0,0,0,.14-1.34c.05-.5.11-1,.17-1.49.11-.92.23-1.85.33-2.77a49.21,49.21,0,0,0,.67-5.42C202.36,127.08,201.73,126.86,201.56,127.25Z"/><path class="cls-12" d="M208.17,127.27a2,2,0,0,0-.73-.75,1.2,1.2,0,0,0-1.11-.15.21.21,0,0,0-.11-.08c-1-.27-1.62.58-2.06,1.33a13.87,13.87,0,0,0-1,2.33c-.52,1.38-1,3.74.47,4.74,1.31.89,2.83.1,3.65-1a7.87,7.87,0,0,0,1.37-4.22A4,4,0,0,0,208.17,127.27Zm-1.47,5.45c-.46.79-1.36,1.83-2.4,1.48-.59-.2-.73-.94-.75-1.49a6.12,6.12,0,0,1,.34-2.12,17.8,17.8,0,0,1,.87-2.12c.28-.59.77-1.62,1.53-1.68a.16.16,0,0,0,.08.06,4.53,4.53,0,0,1,.68.31,1.24,1.24,0,0,1,.32.39,3.33,3.33,0,0,1,.3,1.53A7.51,7.51,0,0,1,206.7,132.72Z"/><path class="cls-12" d="M223.55,127.07c-.37-.8-.57-1.68-.86-2.52a4.44,4.44,0,0,0-1.17-2.08c-.17-.12-.51-.23-.64,0a8.25,8.25,0,0,0-1,2.88,3.44,3.44,0,0,0-.47-.54.48.48,0,0,0-.59,0,1.73,1.73,0,0,0-.38.53,2.9,2.9,0,0,0-.83-1.14.46.46,0,0,0-.59,0c-1,1-.75,2.84-1,4.1a1.51,1.51,0,0,1-.29.76c-.2.18-.27,0-.39-.22a4.09,4.09,0,0,1-.51-1.46c0-.16,0-.32,0-.48v0h0a.38.38,0,0,1,0-.1c0-.4-.91-.55-.89-.08a4.75,4.75,0,0,1-.67,3c-.27.42-1.36,2-1.83,1.05-.34-.68.18-1.61.54-2.17a4.17,4.17,0,0,1,1.7-1.63l0,0c.19-.11,0-.47-.19-.46-1.07,0-2,1.19-2.46,2s-.88,2.1,0,2.9c1,1,2.17,0,2.82-.84a6.42,6.42,0,0,0,.84-1.49.16.16,0,0,0,0,.07c.36.58,1.12,1.07,1.73.51s.58-1.57.65-2.27a6.5,6.5,0,0,1,.41-2.28,5.39,5.39,0,0,1,.68,2.17c.05.35.76.61.82.15a5.66,5.66,0,0,1,.3-1.69,9.75,9.75,0,0,1,.67,1.12c.16.29.86.49.8,0a6,6,0,0,1,.68-3.4,6.46,6.46,0,0,1,.67,1.62,19.29,19.29,0,0,0,.74,2.14C223,127.48,223.77,127.53,223.55,127.07Z"/><path class="cls-9" d="M188.66,112.43a7.73,7.73,0,0,1,3.51-6.05,2.41,2.41,0,0,1,2.54-.2h0l1.59,1-.65,1.13a.59.59,0,0,1,0,.13,7.73,7.73,0,0,1-3.51,6.05h0l-.73,1.29-1.73-1,0,0-.06,0h0A2.47,2.47,0,0,1,188.66,112.43Z"/><path class="cls-12" d="M197.39,109.4a7.75,7.75,0,0,1-3.5,6c-1.94,1.12-3.51.22-3.51-2a7.75,7.75,0,0,1,3.5-6C195.82,106.29,197.39,107.18,197.39,109.4Z"/></g><g id="Note-3" data-name="Note"><g id="Note-4" data-name="Note"><polygon class="cls-5" points="108.41 232.15 108.41 267.75 137.91 250.72 137.91 215.12 108.41 232.15"/><path class="cls-4" d="M145.28,248.74s-1.44,2.43-6.59,5.41l-26,15L109.6,238.2l29.49-17,1.65,17.91C141,242,141.43,246.25,145.28,248.74Z"/><polygon class="cls-4" points="139.09 221.17 109.6 238.2 109.6 232.73 139.09 215.71 139.09 221.17"/><polygon class="cls-5" points="139.09 221.17 109.6 238.2 109.6 232.73 139.09 215.71 139.09 221.17"/></g><path class="cls-12" d="M135.51,240.7a2.8,2.8,0,0,1,.28-.06c.42-.07.11-.67-.22-.64-.1,0-.2,0-.3,0-.08-.22-.16-.44-.25-.65a16,16,0,0,0-2.88-5c-.19-.2-.66-.27-.67.11a16.89,16.89,0,0,1-.72,4l0,0a5.27,5.27,0,0,0-.3-1.26c-.12-.3-.72-.56-.76-.07a2.38,2.38,0,0,0,.25,1.36c0,.61,0,1.24,0,1.81a15.59,15.59,0,0,1-.56,4c-.24.78-.68,1.91-1.7,1.53h0l.14-.7c.42-2.06,1.17-5.55-1.44-6.5a.26.26,0,0,0-.34.1,7.94,7.94,0,0,0-.53,3.71,5.1,5.1,0,0,0,1.3,3.63,1.67,1.67,0,0,1-.59.91c-.77.54-1.8-.75-2.18-1.27-.12-.17-.44-.37-.64-.18-.85.77-.9,2.05-.84,3.26a.47.47,0,0,0-.49-.1,1.75,1.75,0,0,0-1,1.65c-.45-.81-1.06-1.36-1.95-.78a2.37,2.37,0,0,0-1,1.28,4.56,4.56,0,0,0-1.11-2.56,1.59,1.59,0,0,0-2.2,0A4.17,4.17,0,0,0,114,251a4.45,4.45,0,0,0,.14,1.5c0,.15.11.41.31.44s.26-.15.21-.33c-.3-.91.17-4.61,1.74-4,.84.34.95,2.05,1.07,2.8.23,1.43.54,2.85.79,4.27.08.44.86.63.86.08,0-1.61-.76-3.67.23-5.12.12-.18.42-.59.67-.5s.39.51.48.7c.29.62.46,1.29.77,1.89.17.33.83.51.83,0,0-.82-.5-2.37.13-3.08a7.52,7.52,0,0,1,.43.79c.14.32.83.53.82,0,0-1.15-.39-2.91.28-4,.64.71,1.5,1.5,2.46,1.36.7-.09,1-.66,1.27-1.3a1.76,1.76,0,0,0,2.26-.74,9.33,9.33,0,0,0,1-4.16,22.76,22.76,0,0,0,.07-2.37,2.28,2.28,0,0,0,.39.06.29.29,0,0,0,.28-.2,17.8,17.8,0,0,0,.76-3.59,16.32,16.32,0,0,1,2,3.77c.12.3.25.6.36.91a3,3,0,0,0-2.16,2.55,3.2,3.2,0,0,0,1.93,2.82c1.3.47,1.83-.94,1.78-2A10.11,10.11,0,0,0,135.51,240.7Zm-9.33,2.21a7.24,7.24,0,0,1,.34-3.51c1.45.91.82,3.68.56,5,0,.25-.08.56-.14.88A5.09,5.09,0,0,1,126.18,242.91Zm8.6,2c-.52.14-1-.59-1.26-1-.75-1.27.16-2.46,1.32-3a9.24,9.24,0,0,1,.51,2.35C135.39,243.78,135.4,244.77,134.78,244.94Z"/><path class="cls-12" d="M136.72,233.46a19.53,19.53,0,0,0-1.3-2.92c-.26-.49-.52-1-.76-1.49s-.42-.94-.66-1.39c-.14-.24-.75-.42-.73,0a5.06,5.06,0,0,0,.39,1.54c.2.52.41,1,.64,1.53a27.14,27.14,0,0,1,1.18,2.85c.15.48.2,1.21.88,1.16S136.87,233.92,136.72,233.46Z"/><path class="cls-12" d="M137.93,236.91l0,0,.06,0Z"/><path class="cls-12" d="M138.59,237.82a1.57,1.57,0,0,0-.08-.29.47.47,0,0,0-.06-.09v0a.51.51,0,0,0-.27-.32,1.07,1.07,0,0,0-.22-.15l-.14-.08a.36.36,0,0,0-.32,0,.17.17,0,0,0-.1.07.25.25,0,0,0-.06.16v.17a1.19,1.19,0,0,0-.08.2,2,2,0,0,0,0,.24.74.74,0,0,0,0,.21.71.71,0,0,0,.31.41,1.6,1.6,0,0,0,.56.18.53.53,0,0,0,.35-.06l.08-.07a.32.32,0,0,0,.08-.2A1.22,1.22,0,0,0,138.59,237.82Z"/><path class="cls-9" d="M105.23,234.28a7.72,7.72,0,0,1,3.51-6,2.45,2.45,0,0,1,2.55-.21h0l1.59.94-.64,1.14s0,.08,0,.12a7.73,7.73,0,0,1-3.51,6.05h0l-.73,1.28-1.73-1h0l-.06,0h0A2.48,2.48,0,0,1,105.23,234.28Z"/><path class="cls-12" d="M114,231.25a7.73,7.73,0,0,1-3.51,6.05c-1.94,1.12-3.51.23-3.51-2a7.7,7.7,0,0,1,3.51-6C112.4,228.14,114,229,114,231.25Z"/></g><path class="cls-4" d="M174.64,199.32l53.45-30.86c3.56-2.05,6.45-.69,6.45,3s-2.89,8.43-6.45,10.48l-53.45,30.86c-3.57,2.06-6.45.7-6.45-3S171.07,201.38,174.64,199.32Z"/><line class="cls-13" x1="81.62" y1="285.66" x2="98.64" y2="295.49"/><line class="cls-13" x1="97.43" y1="276.76" x2="82.36" y2="304.02"/><path class="cls-14" d="M188.67,235.36a5.53,5.53,0,0,0-1.61-3.68,7.11,7.11,0,0,0-3.9-1.72,12.21,12.21,0,0,0-6.33,1,16.86,16.86,0,0,0-4.63,3.17c-.63.56-1.24,1.11-1.9,1.62-.36.27.16.83.5.62,1.49-.88,2.82-2,4.27-2.92a13.28,13.28,0,0,1,5.29-2c2.54-.37,5.92.34,6.63,3.2a10.72,10.72,0,0,1-.18,4.33,18.41,18.41,0,0,1-1.33,4.23,20.32,20.32,0,0,1-5.35,7,16.16,16.16,0,0,1-6.88,3.82,10.34,10.34,0,0,1-6.54-.6,5.47,5.47,0,0,1-2.24-1.94,6.8,6.8,0,0,1-.82-3.54,17.86,17.86,0,0,1,2.16-8.61,24.47,24.47,0,0,1,13.6-11.61c.8-.27,1.61-.5,2.42-.7a.53.53,0,0,0-.19-1,19.86,19.86,0,0,0-9.43,3.87,26.23,26.23,0,0,0-7.15,7.69,20.12,20.12,0,0,0-3,9.4c-.13,2.79.38,5.58,2.82,7.27a10.88,10.88,0,0,0,7.29,1.53,15.76,15.76,0,0,0,7.64-3.4,22.57,22.57,0,0,0,6.47-7.44A18.7,18.7,0,0,0,188.67,235.36Z"/><path class="cls-14" d="M62.37,189l2.06,4.37a.32.32,0,0,0,.44.17l4.6-1.76c.48-.19.67.49.32,1.14l-3.33,6.25a1.34,1.34,0,0,0-.16.78l.78,5.66c.08.59-.42,1.36-.85,1.31l-4.11-.51a.68.68,0,0,0-.55.32l-4.11,5.25c-.43.55-.93.36-.85-.33l.79-6.56a.63.63,0,0,0-.17-.59l-3.33-2.4c-.35-.26-.15-1.15.33-1.52L58.82,197a1.37,1.37,0,0,0,.44-.68l2.06-6.74C61.54,188.86,62.16,188.5,62.37,189Z"/><path class="cls-12" d="M108.44,162.9l15.62-9c.66-.38,1.2-.11,1.2.61a2.57,2.57,0,0,1-1.2,2l-15.62,9c-.66.38-1.2.11-1.2-.61A2.57,2.57,0,0,1,108.44,162.9Z"/><path class="cls-12" d="M108.44,169.31l10.77-6.22c.66-.38,1.2-.11,1.2.61a2.57,2.57,0,0,1-1.2,2l-10.77,6.22c-.66.39-1.2.11-1.2-.6A2.6,2.6,0,0,1,108.44,169.31Z"/><path class="cls-12" d="M164.28,162.2l15.62-9c.66-.39,1.2-.11,1.2.6a2.6,2.6,0,0,1-1.2,2l-15.62,9c-.66.39-1.2.11-1.2-.6A2.6,2.6,0,0,1,164.28,162.2Z"/><path class="cls-12" d="M164.28,168.62l10.77-6.22c.67-.38,1.2-.11,1.2.61a2.56,2.56,0,0,1-1.2,2l-10.77,6.22c-.66.38-1.2.11-1.2-.61A2.57,2.57,0,0,1,164.28,168.62Z"/><path class="cls-12" d="M53.74,262.07l15.62-9c.66-.38,1.2-.11,1.2.61a2.6,2.6,0,0,1-1.2,2l-15.62,9c-.66.38-1.2.11-1.2-.61A2.58,2.58,0,0,1,53.74,262.07Z"/><path class="cls-12" d="M53.74,268.49l10.77-6.22c.67-.39,1.2-.11,1.2.6a2.57,2.57,0,0,1-1.2,2l-10.77,6.22c-.66.38-1.2.11-1.2-.61A2.57,2.57,0,0,1,53.74,268.49Z"/><path class="cls-12" d="M193.55,217.45l15.62-9c.66-.38,1.2-.11,1.2.61a2.6,2.6,0,0,1-1.2,2l-15.62,9c-.66.38-1.2.11-1.2-.61A2.58,2.58,0,0,1,193.55,217.45Z"/><path class="cls-12" d="M193.55,223.87l10.77-6.22c.67-.39,1.2-.11,1.2.6a2.57,2.57,0,0,1-1.2,2l-10.77,6.22c-.66.38-1.2.11-1.2-.61A2.57,2.57,0,0,1,193.55,223.87Z"/><polygon class="cls-4" points="104.07 192.62 125.26 180.23 103.94 215.12 104.07 192.62"/><polygon class="cls-15" points="104.07 192.62 125.26 180.23 103.94 215.12 104.07 192.62"/><path class="cls-4" d="M28,205l13.13-7.61c.7-.41,1.27-.12,1.27.63a2.7,2.7,0,0,1-1.25,2.1L28,207.71c-.7.41-1.26.12-1.26-.63A2.69,2.69,0,0,1,28,205Z"/><path class="cls-4" d="M28,210.78l9.68-5.61c.7-.41,1.27-.12,1.27.63a2.65,2.65,0,0,1-1.25,2.1L28,213.5c-.7.4-1.26.12-1.26-.63A2.67,2.67,0,0,1,28,210.78Z"/><path class="cls-4" d="M28,241l13.13-7.61c.7-.4,1.27-.12,1.27.64a2.68,2.68,0,0,1-1.25,2.09L28,243.71c-.7.4-1.26.11-1.26-.64A2.69,2.69,0,0,1,28,241Z"/><path class="cls-4" d="M28,246.77l9.68-5.61c.7-.4,1.27-.12,1.27.64a2.65,2.65,0,0,1-1.25,2.09L28,249.5c-.7.4-1.26.11-1.26-.64A2.69,2.69,0,0,1,28,246.77Z"/><path class="cls-4" d="M28,277l13.13-7.62c.7-.4,1.27-.11,1.27.64a2.7,2.7,0,0,1-1.25,2.1L28,279.76c-.7.41-1.26.12-1.26-.63A2.69,2.69,0,0,1,28,277Z"/><path class="cls-4" d="M28,282.83l9.68-5.61c.7-.41,1.27-.12,1.27.63a2.67,2.67,0,0,1-1.25,2.1l-9.7,5.6c-.7.4-1.26.12-1.26-.63A2.67,2.67,0,0,1,28,282.83Z"/><path class="cls-4" d="M28,313l13.13-7.62c.7-.4,1.27-.11,1.27.64a2.66,2.66,0,0,1-1.25,2.09L28,315.73c-.7.4-1.26.12-1.26-.63A2.69,2.69,0,0,1,28,313Z"/><path class="cls-4" d="M28,318.8l9.68-5.62c.7-.4,1.27-.11,1.27.64a2.67,2.67,0,0,1-1.25,2.1l-9.7,5.6c-.7.4-1.26.12-1.26-.63A2.67,2.67,0,0,1,28,318.8Z"/><g class="cls-16"><path d="M28,210.78l9.68-5.61c.7-.41,1.27-.12,1.27.63a2.65,2.65,0,0,1-1.25,2.1L28,213.5c-.7.4-1.26.12-1.26-.63A2.67,2.67,0,0,1,28,210.78Z"/><path d="M28,246.77l9.68-5.61c.7-.4,1.27-.12,1.27.64a2.65,2.65,0,0,1-1.25,2.09L28,249.5c-.7.4-1.26.11-1.26-.64A2.69,2.69,0,0,1,28,246.77Z"/><path d="M28,282.83l9.68-5.61c.7-.41,1.27-.12,1.27.63a2.67,2.67,0,0,1-1.25,2.1l-9.7,5.6c-.7.4-1.26.12-1.26-.63A2.67,2.67,0,0,1,28,282.83Z"/><path d="M28,318.8l9.68-5.62c.7-.4,1.27-.11,1.27.64a2.67,2.67,0,0,1-1.25,2.1l-9.7,5.6c-.7.4-1.26.12-1.26-.63A2.67,2.67,0,0,1,28,318.8Z"/></g><path class="cls-5" d="M255.83,185a90.62,90.62,0,0,0-8.41,4.54c-17.44,11.23-30.77,37.13-29.76,57.85.06,1.19.17,2.34.32,3.44L255.83,229Z"/></g></g><g id="Clock"><g id="Clock-2" data-name="Clock"><path class="cls-9" d="M278.4,195.93h0l0,0h0l-8.66-5h0l-.06,0h0c-5.45-2.76-12.73-2-20.57,3.1-15.75,10.15-27.78,33.54-26.87,52.25.45,9.33,4,15.73,9.46,18.55h0l.05,0h0l8.65,5h0l.05,0h0c5.45,2.77,12.74,2,20.58-3.09,15.75-10.15,27.79-33.54,26.88-52.25C287.41,205.15,283.83,198.75,278.4,195.93Z"/><path class="cls-17" d="M239.94,269.57l-8.25-4.8h0l-.05,0c-5.43-2.83-9-9.23-9.46-18.55-.41-8.34,1.77-17.61,5.68-26.22l8.66,5c-3.93,8.6-6.09,17.87-5.69,26.22C231.27,260.34,234.71,266.66,239.94,269.57Z"/><path class="cls-12" d="M261,266.73c15.75-10.15,27.79-33.54,26.88-52.25S273.45,188.82,257.7,199s-27.78,33.54-26.87,52.25S245.24,276.87,261,266.73Z"/><path class="cls-8" d="M247.79,265.42c-9.28.45-10.79-10-11-14.5-.81-16.5,10.25-38,24.15-46.95a20.92,20.92,0,0,1,10-3.7c9.29-.45,10.8,10,11,14.5.8,16.5-10.26,38-24.15,47a21,21,0,0,1-10,3.7Z"/><path class="cls-9" d="M261.17,235.94a1,1,0,0,1-.33-.06,1,1,0,0,1-.68-.95V211.05a1,1,0,1,1,2,0V232l11.14-14.3a1,1,0,1,1,1.59,1.24L262,235.55A1,1,0,0,1,261.17,235.94Z"/><path class="cls-4" d="M255.47,253.57h-.14A.43.43,0,0,1,255,253l5.6-18.89a.43.43,0,0,1,.82.24l-5.61,18.89A.41.41,0,0,1,255.47,253.57Z"/><path class="cls-4" d="M260.85,230.15c1.85-1.19,3.44-.37,3.55,1.83a7.65,7.65,0,0,1-3.16,6.14c-1.86,1.2-3.45.38-3.55-1.82A7.66,7.66,0,0,1,260.85,230.15Z"/></g></g><g id="Pencil"><g id="Pencil-2" data-name="Pencil"><path id="Shadow-4" data-name="Shadow" class="cls-1" d="M48.56,392c-5.93,3,9,13.57,16.45,9.5l129.79-76L210.37,309a1,1,0,0,0-1.05-1.7l-30,9.17Z"/><path class="cls-18" d="M180.46,305l27.65-5.42a.86.86,0,0,1,.81,1.41l-18.76,21.24Z"/><path class="cls-17" d="M208.92,300.94a.86.86,0,0,0-.81-1.41l-5.4,1.06h0a4.75,4.75,0,0,1,2.23,4.41l0,.48Z"/><path class="cls-4" d="M87.05,381.31l2.26-1.3,2.74-1.55,98.11-56.28a12.64,12.64,0,0,0-.77-9.17c-2-4.39-5.77-7.85-8.93-8.05l-98,56.24-5.22,3C80.68,362.44,90.52,379.51,87.05,381.31Z"/><path class="cls-19" d="M95.68,376.4l5-2.91c1.49-.79.63-4.45-1.11-8.24-2.31-5-6.85-9.91-8.82-8.86l-3.73,2.14-1.31.78c2-1,6.52,3.83,8.82,8.86,1.67,3.63,2.51,7.17,1.25,8.12h0A.27.27,0,0,1,95.68,376.4Z"/><path class="cls-4" d="M96.93,375.66c3.47-1.84-6.46-18.92-9.92-17.09L82,361.47c3.46-1.84,13.39,15.25,9.92,17.08Z"/><path class="cls-19" d="M87.05,381.31l5-2.85c3.41-1.78-6-18.35-9.63-17.26a.6.6,0,0,0-.21.08l-5,2.91C80.68,362.44,90.52,379.51,87.05,381.31Z"/><path class="cls-20" d="M209,300l-.93-.48L188,310.5,84.3,370c-.19-.31-.35-.33-.48-.11,3,4.59,5.17,10.38,3.23,11.39l2.26-1.3,2.74-1.55,98.11-56.28h0l18.76-21.24A.83.83,0,0,0,209,300Z"/><path class="cls-14" d="M65.86,393.44l21.19-12.13c1.49-.77.66-4.4-1-8.16-2.29-5-6.81-10-8.8-9h0L55.91,376.37c-4.22,2.44-.34,11.61,4.37,15.71C62,393.63,64,394.31,65.86,393.44Z"/><path class="cls-5" d="M67.12,386.86c-1.22-4.77-5.09-9.46-8.64-10.46a3.47,3.47,0,0,0-3.18.43c-3.19,3,.53,11.37,5,15.25,1.72,1.52,3.64,2.2,5.47,1.4C67.33,392.55,68,390.1,67.12,386.86Z"/></g></g><g id="Character"><g id="Character-2" data-name="Character"><path class="cls-17" d="M344.85,296.59c.66.27.8,1.54.84,4.07,0,1.91.37,5.25-1.88,5.86s-5.52.2-6.91-1.63c-1.74-2.28-2.91-4.29-5.4-7.08-2.16-2.43-4.5-4.7-5.32-8.05-.74-3,0-4.33,2-5.16,2.85-1.14,7.2,2.9,9.4,3.57C339.52,288.74,344.18,296.33,344.85,296.59Z"/><path class="cls-18" d="M344.9,294.26l-.07,3.1a7.58,7.58,0,0,1-7.83,0c-.13-.3-.72-4.45-.72-4.45Z"/><path class="cls-17" d="M319.36,313.88s.83,2.71,1.26,5.07c.34,1.89.81,5,.12,6.42s-3.26,2.25-7.23,2.13c-2.56-.08-6.61,1.57-9.38,3s-8.77,2-11.75,1.59c-3.52-.49-7.13-2.62-7.66-4.09s.25-3,8.64-6.33c.08,0,11.64-3.51,15.77-7.86Z"/><path class="cls-18" d="M319.44,310.53s-.06,2.3-.08,3.61-1.62,3.23-5.63,3c-2.82-.16-4.77-1-4.6-3.29l.07-3.34Z"/><path class="cls-12" d="M347.84,253.21a83.83,83.83,0,0,0-3.3-16.21s1.42-13.9,2.25-27.08c.89-14.24,1.72-21.57-1.08-42.13,0,0-43.65-3.92-44.84,12.53s.5,58.45.88,65.7,1.49,13.68,2.72,25.45c1.21,11.61,4.73,39,4.73,39a10.89,10.89,0,0,0,10.24,0s4-32.87,3.83-41.23a71.59,71.59,0,0,0-2.76-18.3s1.18-13.56,2.21-25.36,2-17.45,2.28-22.59l1-.47s.55,20.41.93,27.66,1.37,14.21,3.16,27.7c1.56,11.71,6.41,36.5,6.41,36.5,5.19,3,8.4-.18,8.4-.18S349,263.36,347.84,253.21Z"/><path class="cls-9" d="M325,203.05s11.28-5.24,17-10.08c0,0-5.35,7.19-12.23,10.28,0,0-3,25.26-3,24.76l-.84-25Z"/><polygon class="cls-18" points="317.18 109.13 318.88 124.21 333.11 123.49 331.53 105.9 317.18 109.13"/><path class="cls-12" d="M338.48,114.91c5.3-.25,8,.55,10.37,5.12s3.31,18.23,4.14,25.27,1,12-1.86,12.73-14.18,1-14.18,1Z"/><path class="cls-4" d="M347.42,122.72c-.76-4.22-6.31-8.65-11.5-7.81-1.21.2-2.38.39-3.52.6-.63,2.53-7.58,4.12-14.21,2.55-2,.53-8.59,1.76-10.26,2.32-4.77,1.58-6.74,6.28-7.48,21.83,0,0,.38,35.24.2,42.26,11.77,5,24.14,5.1,31,3.76,14.3-2.78,16.15-8.65,16.15-8.65l-2.13-16.11S349.16,132.26,347.42,122.72Z"/><path class="cls-21" d="M347.42,122.72c-.76-4.22-6.31-8.65-11.5-7.81-1.21.2-2.38.39-3.52.6-.63,2.53-7.58,4.12-14.21,2.55-2,.53-8.59,1.76-10.26,2.32-4.77,1.58-6.74,6.28-7.48,21.83,0,0,.38,35.24.2,42.26,11.77,5,24.14,5.1,31,3.76,14.3-2.78,16.15-8.65,16.15-8.65l-2.13-16.11S349.16,132.26,347.42,122.72Z"/><path class="cls-12" d="M317.74,114.1l.11,1a21.08,21.08,0,0,0,8.74,0c4.62-1,5.55-2.33,5.55-2.33l-.09-1.08s1.15-.42,1.75,1.35a18,18,0,0,1,.67,2.16s.54,3.24-4.9,4.89A16.83,16.83,0,0,1,316,118.56l-2.13.45s1.84-4.25,2.4-5.12a1.4,1.4,0,0,1,1.33-.73Z"/><g id="Device_2" data-name="Device 2"><path class="cls-4" d="M257.33,141.57l-.43-.23a1.9,1.9,0,0,1-.8-.82l-8.93-25.08a.51.51,0,0,1,.29-.65l11.82-6.56a1.65,1.65,0,0,1,1.09.17l.43.23a1.79,1.79,0,0,1,.8.82l8.93,25.09a.49.49,0,0,1-.28.64l-11.83,6.56A1.65,1.65,0,0,1,257.33,141.57Z"/><path class="cls-21" d="M257.33,141.57l-.43-.23a1.9,1.9,0,0,1-.8-.82l-8.93-25.08a.51.51,0,0,1,.29-.65l11.82-6.56a1.65,1.65,0,0,1,1.09.17l.43.23a1.79,1.79,0,0,1,.8.82l8.93,25.09a.49.49,0,0,1-.28.64l-11.83,6.56A1.65,1.65,0,0,1,257.33,141.57Z"/><path class="cls-4" d="M258.34,141.77a1.92,1.92,0,0,1-1-.2l-.43-.23a1.9,1.9,0,0,1-.8-.82l-8.93-25.09a.55.55,0,0,1,0-.38l1.7.89a.55.55,0,0,0,0,.38l8.93,25.09A.54.54,0,0,0,258.34,141.77Z"/><path class="cls-10" d="M258.34,141.77a1.92,1.92,0,0,1-1-.2l-.43-.23a1.9,1.9,0,0,1-.8-.82l-8.93-25.09a.55.55,0,0,1,0-.38l1.7.89a.55.55,0,0,0,0,.38l8.93,25.09A.54.54,0,0,0,258.34,141.77Z"/><path class="cls-4" d="M248.87,116.32l8.92,25.09a.51.51,0,0,0,.63.33l11.83-6.56a.49.49,0,0,0,.28-.64l-8.93-25.09a.5.5,0,0,0-.63-.33l-11.82,6.56A.49.49,0,0,0,248.87,116.32Z"/><path class="cls-15" d="M248.87,116.32l8.92,25.09a.51.51,0,0,0,.63.33l11.83-6.56a.49.49,0,0,0,.28-.64l-8.93-25.09a.5.5,0,0,0-.63-.33l-11.82,6.56A.49.49,0,0,0,248.87,116.32Z"/><path class="cls-22" d="M250.52,117.76l10.53-5.88a.45.45,0,0,1,.54.29l7.18,20.22a.43.43,0,0,1-.24.55l-10.48,6a.43.43,0,0,1-.54-.28l-7.23-20.36A.43.43,0,0,1,250.52,117.76Z"/><path class="cls-17" d="M254.78,113.18a.35.35,0,0,1,.46.14.33.33,0,0,1-.11.46.35.35,0,0,1-.46-.14A.34.34,0,0,1,254.78,113.18Z"/><path class="cls-17" d="M254.31,114.56c.59-.3,1.6-.89,2.17-1.21a.2.2,0,0,1,.2.34l-2.18,1.21a.19.19,0,0,1-.27-.07A.19.19,0,0,1,254.31,114.56Z"/><path class="cls-17" d="M253.76,114.87a.2.2,0,0,1,.26.08.19.19,0,0,1-.06.25.19.19,0,0,1-.26-.07A.19.19,0,0,1,253.76,114.87Z"/><path class="cls-17" d="M264,136.48a.68.68,0,0,1,.85.44.65.65,0,0,1-.38.86.68.68,0,0,1-.85-.44A.65.65,0,0,1,264,136.48Z"/><path class="cls-4" d="M257.69,117.78,259.4,120a.2.2,0,0,0,.25.08l2.12-.91c.22-.09.42.26.34.59l-.8,3.23a.71.71,0,0,0,0,.41l1.25,2.92c.13.31,0,.71-.25.68l-2.2-.26a.24.24,0,0,0-.23.16l-1.35,2.72c-.14.28-.43.18-.49-.18l-.57-3.39a.39.39,0,0,0-.17-.3l-2.08-1.24a.58.58,0,0,1-.05-.79l1.85-1.83a.55.55,0,0,0,.12-.35l.07-3.49C257.24,117.73,257.51,117.54,257.69,117.78Z"/></g><path class="cls-18" d="M307.93,120.38c-6.51.56-9.29,1.75-14.18,10.57-5.31,9.57-15.51,26.9-16.81,29.09-1.8,3-2.14,7.67-.58,10.46,1.45,2.61,6.05,3.81,11.27-2.09,6.21-7,17.76-24.14,17.76-24.14S315.2,131.33,307.93,120.38Z"/><path class="cls-18" d="M279.06,172.51c-5-.6-16.67-16.43-20-21.6A37,37,0,0,0,249,140.24a6.83,6.83,0,0,1-2-2,5.17,5.17,0,0,1-.57-2.51,21.79,21.79,0,0,0-.06-3.43,7.78,7.78,0,0,1-.3-2c0-.66.39-1.26.5-1.9a11.28,11.28,0,0,0-.09-2.39,3,3,0,0,1,.31-1.55,6.82,6.82,0,0,1,1.07-1.21,14.55,14.55,0,0,1,1.65-1.19l1.73,4.72,1.65,4.52c.64.59,1.7,1.74,2.39.56a2.33,2.33,0,0,0,.28-1c.11-1.15,0-2.33.23-3.47a4.24,4.24,0,0,1,.86-2c.3-.36,1.18-1.19,1.68-.76a.92.92,0,0,1,.26.52c.11.54-.07,1,0,1.58s.34,1.34.46,2a25.88,25.88,0,0,1,.48,4.12c.05,1,0,2,.15,3.05a7.08,7.08,0,0,0,1.22,3.3c1.3,1.86,18.7,18.54,18.7,18.54Z"/><path class="cls-12" d="M309.19,120c-3.95-.1-8.69.53-12.37,5.3s-18.38,30.74-18.38,30.74l-8.25-7.4a14.37,14.37,0,0,0-6.35,9,89.75,89.75,0,0,0,7.48,10.14c3.48,3.83,7.37,6.48,10.56,5.31s6.45-3.71,13.32-13.27S309.56,139,309.56,139,314.3,128,309.19,120Z"/><path class="cls-14" d="M307.15,90.68S303.6,96.07,304,96.6s3,1,3,1Z"/><path class="cls-17" d="M308.81,94.15a4.24,4.24,0,1,1,4.24-4.24A4.24,4.24,0,0,1,308.81,94.15Zm0-7.53a3.3,3.3,0,1,0,3.3,3.29A3.3,3.3,0,0,0,308.81,86.62Z"/><path class="cls-18" d="M317,75.77c-7.19,1.51-9.27,4.67-9.95,16.1-.7,11.93.51,15.69,2.08,17.29,1.06,1.09,6.94,1.28,9.91.47,3.72-1,12.11-4,16-10,4.63-7.06,5.84-16.64.89-20.56C329,73.53,320,75.15,317,75.77Z"/><path class="cls-14" d="M317.27,110l-.33-2.2a14.15,14.15,0,0,1-7.38,1.67C310.94,110.11,314.52,110.3,317.27,110Z"/><polygon class="cls-17" points="304.98 89.03 317.76 90.68 317.25 91.58 304.98 89.99 304.98 89.03"/><path class="cls-17" d="M306.63,80.5a5.09,5.09,0,0,0,.55,3.18A5.15,5.15,0,0,0,312,86.22c-.33,0,.91,1.61,1,1.7a2.54,2.54,0,0,0,1.89.72c.26,1.61.14,3.28,1.91,4,0,0,1.14-4.41,4.86-3.86s4.25,5.33,1.89,8.23S319,98.85,319,98.84c.22.11.3,1.52.37,1.78a12.88,12.88,0,0,0,1,2.41,11.53,11.53,0,0,0,3.36,4,9.78,9.78,0,0,0,4.08,1.92c1.35.22,2.92-.39,4.29-.57a75.77,75.77,0,0,0,8.61-15.08,20.52,20.52,0,0,0,2.06-7.54c0-2.13-.06-4.42-1.36-6.22a6.92,6.92,0,0,0-4.67-2.77,7.4,7.4,0,0,0-4-5.51,13.81,13.81,0,0,0-6.86-1.36c-2.36.07-4.7.48-7.05.72a76.28,76.28,0,0,1-14.57-.31.8.8,0,0,0-.51.06.76.76,0,0,0-.29.52c-.76,3.25.74,6.61,4.12,7.41A5,5,0,0,0,306.63,80.5Z"/><path class="cls-17" d="M316.75,95.2l.13-5a2.5,2.5,0,0,0-.13,5Z"/></g></g></g></svg>