<svg xmlns="http://www.w3.org/2000/svg" viewBox="0 0 148.15 347.74"><defs><style>.cls-1{fill:#e6e6e6;}.cls-2{fill:#27debf;}.cls-18,.cls-3{opacity:0.1;}.cls-10,.cls-4{fill:#fff;}.cls-5{fill:#e0e0e0;}.cls-6{fill:#ffa8a7;}.cls-7{fill:#37474f;}.cls-8{fill:#263238;}.cls-9{fill:#455a64;}.cls-10{opacity:0.6;}.cls-11{fill:#ebebeb;}.cls-12{fill:#fafafa;}.cls-13{fill:#f5f5f5;}.cls-14{fill:#f0f0f0;}.cls-15{opacity:0.35;}.cls-16{opacity:0.25;}.cls-17{opacity:0.2;}.cls-19{fill:#f28f8f;}.cls-20{opacity:0.5;}</style></defs><g id="Layer_2" data-name="Layer 2"><g id="Shadows"><ellipse id="Shadow" class="cls-1" cx="84.43" cy="310.95" rx="63.72" ry="36.79"/></g><g id="Plants"><g id="Plants-2" data-name="Plants"><path class="cls-2" d="M59.06,262.37c.77-8.78-4-27.54-12.1-39.74s-21.71-21.8-32.2-19.22c-9.76,2.42-9.83,14.94,1,24.2s27.16,21.12,31,35.81l9.08,18.42Z"/><path class="cls-3" d="M59.06,262.37c.77-8.78-4-27.54-12.1-39.74s-21.71-21.8-32.2-19.22c-9.76,2.42-9.83,14.94,1,24.2s27.16,21.12,31,35.81l9.08,18.42Z"/><path class="cls-4" d="M58.65,274.45a.65.65,0,0,1-.53-.57c-3.25-30.5-25.37-57-39.41-63.66a.65.65,0,0,1-.31-.86.64.64,0,0,1,.86-.31c14.31,6.79,36.84,33.73,40.14,64.69a.64.64,0,0,1-.57.71Z"/><path class="cls-2" d="M52.49,293.24c-1-5.06-6.29-13.73-15.45-21.32-10.14-8.39-23.49-13-26.13-19.09-3.17-7.29,3.27-13.35,14.23-11S54.27,261,55.38,284.05Z"/><path class="cls-4" d="M55.09,288.25a.63.63,0,0,1-.51-.47c-6.94-26.49-25.75-37.23-34.72-39.21a.64.64,0,0,1,.27-1.26c9.93,2.19,28.61,13.1,35.69,40.14a.64.64,0,0,1-.46.79A.62.62,0,0,1,55.09,288.25Z"/></g></g><g id="Character_1" data-name="Character 1"><g id="Character"><path class="cls-1" d="M76.58,58.8c-7,.2-9,3-13.19,9S44.85,96.64,44.85,96.64l-20.31,7.8,2.67,11.85s17.19-3.43,26-5.23a7.54,7.54,0,0,0,5.52-3.75c1.12-1.72,12.41-19.48,12.41-19.48Z"/><path class="cls-5" d="M81.94,59c-6.61-1.66-9.53,2-11.73,6.07-3.53,6.47-5.64,19.66-5.94,43.78-.19,15.51-5.59,34.26-6.55,49-1.45,22.11-2.14,39.32-2.14,39.32A281,281,0,0,1,95,194.82Z"/><path class="cls-6" d="M120,283.92s4-27.14,2.31-43.05c-1.42-13.65-3.43-19.37-3.71-22.47,0,0-2.3-32.05-1.68-59.19.3-12.88-.36-27.06-9.51-42.24l-.33-.6c-.82,5-8.48,8.2-15.32,9q-9.89,1.11-24.61-3.91C65,134.3,62.52,158.82,60,185.56c-1.24,13.07-1,24.07-1.24,32.46-.29,11.41.74,56.07.74,56.07V276c-.07,2.09-.58,3.53-2,6.84a40.48,40.48,0,0,1-7.52,11.56c-1,1-7.74,6.51-8.64,7.71-2.93,3.19,2.85,5.24,7.2,4.8,4.6-.46,11.77-2,13.88-4.68,1.4-1.81,2.63-8.28,4.07-10.12,4.87-6.19,6.87-8.86,7-10.89.19-3.66-1-5.15-1.41-7.24.52-4.31,9.28-26.87,9.86-39.46.27-6-1.06-16.64-1.06-16.64l7.7-43.75c1.71,12.3,5,40,6.13,48.84,1.62,12.15,7.61,32.72,11.4,48.86,1.43,6.06,2.13,8.77,2.48,12.72,0,0,.08,1.41.08,1.43,0,1.79.19,20.92.76,25,1.2,8.47,8.72,7.65,10.14.89,1.21-5.76.53-23.74.58-25.94Z"/><path class="cls-7" d="M120.29,283.81c2.11.11.45,8.23.82,13.5.39,5.66,2.1,9.83,2.48,14.47.43,5.3-.12,7.49-2.15,11.77-1.59,3.32-9.14,7.7-11.78,2.78s-3.07-10.45-2.58-15.69c.52-5.42,1-9.38,1.22-13.51.22-3.64-2.3-12.29.45-12.72l.09,1.42c.92,2,10.24,3.67,11.47-.07Z"/><path class="cls-8" d="M74,285.53c.55,2.66-.35,9.85-.35,9.85s-1.23,2.45-5.34,4l-1.49-10.1Z"/><polygon points="68.27 299.36 59.41 296.12 57.52 288.1 67.41 293.53 68.27 299.36"/><path class="cls-7" d="M59.72,275.86l0-1.88c-1.23.55-4.24,10.26-8.08,16.85-3.51,6-10.17,9.23-12.38,11.83-3,3.48,2.41,8.26,11.34,6.66,4.44-.8,11.2-3.39,13.11-6.3s2.7-8.35,4.25-10.49,5.15-4.54,6-7a13.53,13.53,0,0,0,.2-6.86c-.61-2.29-1.13-5.05-1.91-4.83l-.11,1.72c-.63,1.19-2.82,2.53-7.31,2.63C62.69,278.23,60.64,277.84,59.72,275.86Z"/><path class="cls-9" d="M83,239.32a93.49,93.49,0,0,0-.75-20.63l6.46-43s4.4,41,5.14,47.32,12.54,74.84,12.54,74.84c6,3.58,13.79,2.44,18.83-.23,0-27.71-.86-55.46-1.87-63.13a130.25,130.25,0,0,0-3.59-15.53s-.64-40.41-.6-55.74-1.13-25.61-4-32.5a98.39,98.39,0,0,0-8-14.39s-2.25,7.57-20,7.58-19.72-4.48-19.72-4.48-5.2,18.16-6.94,45.61c-1.4,22.11-1.72,32.17-2.13,42-.36,8.4-.59,18.1-.78,35.07-.14,12.8-2,41-2,41s8.67,4.55,23-.63C78.56,282.43,82.14,250.37,83,239.32Z"/><path class="cls-7" d="M88.74,175.65l-3.52-26a22.26,22.26,0,0,1-13.59-6.58s2,6.31,10.33,9.85l4.71,22.83-3.44,36.65Z"/><path class="cls-2" d="M97,60.81l8.37.89c5.55,1.36,8.06,3.8,8.63,8.72a38.48,38.48,0,0,1-.29,16c-1.76,6.93-6.45,23.88-6.45,23.88s6.07,15.25,9,23c-19.74,12.87-44.1,7.78-52.28,0,.69-7.37,3.3-14.22,3.89-20.79,0,0-.43-10.26-1.24-14.71C60.37,91,61.17,84.5,64,79.25,69.14,69.55,77,61,79.47,61Z"/><path class="cls-10" d="M97,60.81l8.37.89c5.55,1.36,8.06,3.8,8.63,8.72a38.48,38.48,0,0,1-.29,16c-1.76,6.93-6.45,23.88-6.45,23.88s6.07,15.25,9,23c-19.74,12.87-44.1,7.78-52.28,0,.69-7.37,3.3-14.22,3.89-20.79,0,0-.43-10.26-1.24-14.71C60.37,91,61.17,84.5,64,79.25,69.14,69.55,77,61,79.47,61Z"/><path class="cls-11" d="M81.84,54.93c-2.47,0-2.76.42-4.89,3.27-1.27,1.7-9.29,14.93-9.29,14.93S74,64.74,78.85,62.19a10.73,10.73,0,0,1,3-1.18Z"/><path class="cls-12" d="M97.52,60.81s-6.9,18.12-8.46,30.41,3.82,49.45,4.65,71.47c.61,16,2.13,39.12,2.13,39.12a56.78,56.78,0,0,0,14.66-.45c8.11-1.53,10.62-2.86,15.25-5.88,0,0-4-40.27-6-55.92C117.91,124.82,110,110.3,110,110.3l9.51-39.41s-.46-6.65-6.72-8.51C106.84,60.62,97.52,60.81,97.52,60.81Z"/><path class="cls-13" d="M109.71,97.63s-1.29-4.69-3.08-12.69-1.5-12.66-.88-16.15l10.34,15.14L110,110.29h0a100.58,100.58,0,0,1,9.11,25.17h0c-6.23-17.64-13.06-22.92-13.06-22.92Z"/><path class="cls-2" d="M100.12,83.07c0-.77.07-2.41.2-4.49.65-10.15.94-19.32-2.49-20.06l-.3,1.4c2.51.54,1.68,13.64,1.36,18.57-.13,2.12-.24,3.8-.2,4.64Z"/><path class="cls-6" d="M118.93,165.39c1.32-2.52,1.31-4.34,3.37-6.64a7.24,7.24,0,0,0,1.81-3.36,24.26,24.26,0,0,0,.49-6.18l11.85.17c.1,3.94.63,9.6-.12,13.81-1.89,10.63-4,15.16-8.45,16.39-7.13,2-9.06-1-6.77-6.37a25.75,25.75,0,0,0,2-7,13,13,0,0,1-2.57,2.53,2.53,2.53,0,0,1-3.44-.22C116.74,168.12,117.89,167.37,118.93,165.39Z"/><path class="cls-14" d="M107.36,61.33s7.67-.49,12.15,3.19,7.28,13.93,10.57,24.18,6.23,20.24,7.32,27.44c.9,6-.28,37.83-.28,37.83a26.18,26.18,0,0,1-13.71-2.43l-3.2-33.93L107.36,82.75A33.3,33.3,0,0,1,107.36,61.33Z"/><polygon class="cls-2" points="12.22 85.87 50.22 99.27 60.68 144.49 59.84 145.4 23.71 131.9 11.37 86.77 12.22 85.87"/><polygon class="cls-15" points="49.38 100.18 59.84 145.4 60.68 144.49 50.22 99.27 49.38 100.18"/><polygon class="cls-16" points="11.37 86.77 49.38 100.18 59.84 145.4 23.71 131.9 11.37 86.77"/><g class="cls-17"><path d="M29.36,122.71c-.36.89-3.27,2.85-7.48,2.5l-.72-2.62Z"/></g><g class="cls-18"><path d="M22.82,96l-.31-1.51c-.18-.84,2-.4,5,1l6.86,2.08C37.27,99,40,100,40.21,100.82l.31,1.52Z"/></g><path class="cls-7" d="M20.56,89.17c-.11-.52.76-.41,2-.09l2.19.75s-.89-2.2,4.29-.8c5.7,1.54,5.82,4.39,5.82,4.39a24.87,24.87,0,0,0,2.74,1c1.89.61,2.1,1,2.25,1.51l.28,1L20.73,90.07S20.67,89.7,20.56,89.17Z"/><path class="cls-7" d="M22.6,92.08c1.79.82,2.54,1.21,2.81,2.5.3,1.48.37,2.09.37,2.09l10.08,4s-.54-2.17-.68-2.89,1.2-.73,3,.08L37.71,96,22,90.19Z"/><path class="cls-7" d="M22.3,96.06,22,94.54c-.18-.84,2.05-.4,5,1l6.86,2.08c2.92,1.38,5.68,2.41,5.86,3.25l.31,1.51Z"/><path class="cls-6" d="M15.6,102.24s1.35,5,1.7,6.21S23.88,112.58,27,113c6,.74,6.64,2,5.21,6.27-1.33,3.9-5.21,5.37-10.59,4.74a9.73,9.73,0,0,1-7.37-6.45c-1.75-5-.81-10.31-1.5-13.22S14.08,100.5,15.6,102.24Z"/><path class="cls-9" d="M111.58,16.43l-5.35,4.38a3.24,3.24,0,0,1,.46-4.69A3.57,3.57,0,0,1,111.58,16.43Z"/><path class="cls-9" d="M97.62,55.59c0-3.36,7.81-8.38,11.84-15.43s2-18.63-3.51-20.41c0,0-.1-10.54-14.32-13.34S72.94.46,70.42,0s-3,8.51.31,10.86a19.82,19.82,0,0,1-6.39-4.1c-2.07-2-2.89,8.42,1.57,12.08,0,0-3.69,2.16-3.25,7.65A9.14,9.14,0,0,0,69.74,35Z"/><path class="cls-6" d="M73.36,16.07c-3.43,1.48-6.68,6.73-6.64,21.4C66.77,49.9,70.58,53,72.5,54s5.69.45,9.34-.11V61s-2.74,2.69-1.78,4.39,4.51,3.12,10,1.39c6.25-2,7.68-6.13,7.68-6.13L97.88,45s2.1,2.21,5.8-1c3-2.68,4.15-7.26,1.86-9.78s-5.24-2.72-7.9.09l-1.91-1c-3.39-.4-8.43-1-12.07-2.83C74.26,25.68,73.29,20.47,73.36,16.07Z"/><path class="cls-9" d="M97.62,32.28l-.05,6.9a3.24,3.24,0,0,1-3.32-3.34A3.56,3.56,0,0,1,97.62,32.28Z"/><path class="cls-8" d="M73,33.24a1.65,1.65,0,1,1-1.71-1.66A1.68,1.68,0,0,1,73,33.24Z"/><path class="cls-8" d="M86.2,34a1.77,1.77,0,1,1-3.54.12,1.79,1.79,0,0,1,1.7-1.9A1.82,1.82,0,0,1,86.2,34Z"/><path class="cls-19" d="M83.51,44.16l-5.33,1.65a2.73,2.73,0,0,0,3.41,2A3.06,3.06,0,0,0,83.51,44.16Z"/><path class="cls-8" d="M68.67,30.17l4.25-1.69A2.19,2.19,0,0,0,70,27.18,2.36,2.36,0,0,0,68.67,30.17Z"/><polygon class="cls-19" points="77.07 31.9 77.28 42.09 71.8 40.86 77.07 31.9"/><path class="cls-19" d="M81.84,53.86c3.85-.45,11.8-2.66,13.09-5.89a8.47,8.47,0,0,1-2.85,4.1c-2.4,2.06-10.24,4.2-10.24,4.2Z"/><path class="cls-11" d="M97.8,55c1-.21,1.91.23,2.73,1.62S103.16,61,103.16,61s.93,9.76,0,12.18c-.81,2.1-9.73,10-9.73,10s2.33,8.76,2.41,11.64-5.53,13.8-6.16,19.38c0,0-1.77-17.57-.94-23.87,1.44-11,6.59-25.13,9-29.62Z"/><path class="cls-9" d="M98,115.36a7.82,7.82,0,0,1-4.38,1.27l.12-1a6.37,6.37,0,0,0,3.38-.94,12.3,12.3,0,0,1-2.51-2.7c-1.43-2.21-3.69-17.36-2.31-20.73,1.15-2.8,4.49-8.87,7-8.87h.07c2.55.11,5.41,6.53,6.32,9.44,1.09,3.47-2.44,18.38-4.06,20.46A12,12,0,0,1,99,114.78a6.51,6.51,0,0,0,3.29,1.22l0,1h-.12A8,8,0,0,1,98,115.36ZM93.26,91.65c-1.27,3.09.89,17.75,2.22,19.81a11.49,11.49,0,0,0,2.6,2.69,11.51,11.51,0,0,0,2.82-2.46c1.5-1.94,4.9-16.36,3.89-19.55-1.22-3.91-3.91-8.67-5.4-8.74h0C97.85,83.4,94.8,87.89,93.26,91.65Z"/><path class="cls-8" d="M92.24,116.07a1.47,1.47,0,1,0,2.94.13,1.47,1.47,0,0,0-2.94-.13Z"/><path class="cls-8" d="M100.8,116.44a1.46,1.46,0,0,0,1.4,1.53,1.47,1.47,0,1,0,.13-2.94A1.47,1.47,0,0,0,100.8,116.44Z"/><path class="cls-2" d="M92.08,97.84l.85-.06a.33.33,0,0,0,.3-.35,17,17,0,0,1,.26-5.69C95,88.13,98,83.6,99.38,83.65s4,4.84,5.18,8.56a17.19,17.19,0,0,1-.23,5.69.34.34,0,0,0,.28.38l.83.12a.34.34,0,0,0,.38-.28c.46-3.11.52-5.25.17-6.36-.63-2-3.58-9.48-6.55-9.61s-6.54,7.08-7.34,9c-.44,1.07-.56,3.21-.37,6.35A.34.34,0,0,0,92.08,97.84Z"/></g></g><g id="Icons"><g id="Red_Cross" data-name="Red Cross"><polygon class="cls-2" points="4.61 29.72 4.61 42.14 15.37 35.93 15.37 48.35 26.13 42.14 26.13 29.72 36.89 23.5 36.89 11.08 26.1 17.31 26.13 4.87 15.37 11.08 15.37 23.5 4.61 29.72"/><polygon class="cls-2" points="4.61 42.14 0 39.48 0 27.05 4.61 29.72 4.61 42.14"/><polygon class="cls-2" points="15.37 23.5 10.76 20.84 0 27.05 4.61 29.72 15.37 23.5"/><polygon class="cls-2" points="15.37 11.08 10.76 8.42 10.76 20.84 15.37 23.5 15.37 11.08"/><polygon class="cls-2" points="26.13 4.87 21.52 2.21 10.76 8.42 15.37 11.08 26.13 4.87"/><polygon class="cls-2" points="15.37 48.35 10.76 45.69 10.76 38.59 15.37 35.93 15.37 48.35"/><g class="cls-17"><polygon points="4.61 42.14 0 39.48 0 27.05 4.61 29.72 4.61 42.14"/><polygon points="15.37 11.08 10.76 8.42 10.76 20.84 15.37 23.5 15.37 11.08"/><polygon points="15.37 48.35 10.76 45.69 10.76 38.59 15.37 35.93 15.37 48.35"/></g><polygon class="cls-2" points="36.89 11.08 32.28 8.42 26.11 11.96 26.1 17.31 36.89 11.08"/><g class="cls-20"><polygon class="cls-4" points="15.37 23.5 10.76 20.84 0 27.05 4.61 29.72 15.37 23.5"/><polygon class="cls-4" points="26.13 4.87 21.52 2.21 10.76 8.42 15.37 11.08 26.13 4.87"/><polygon class="cls-4" points="36.89 11.08 32.28 8.42 26.11 11.96 26.1 17.31 36.89 11.08"/></g></g></g></g></svg>