<svg xmlns="http://www.w3.org/2000/svg" viewBox="0 0 741.37 125.86"><defs><style>.cls-1{isolation:isolate;}.cls-2{fill:#288f98;}.cls-3{fill:#f2f2f2;}.cls-4{fill:#c1c1c1;mix-blend-mode:multiply;}.cls-5{fill:#3f475e;}.cls-6{font-size:76px;fill:#fff;font-family:Helvetica-Bold, Helvetica;font-weight:700;}.cls-7{font-size:21px;}.cls-10,.cls-8,.cls-9{font-size:36px;}.cls-9{letter-spacing:-0.07em;}.cls-10{letter-spacing:-0.04em;}</style></defs><g class="cls-1"><g id="Layer_2" data-name="Layer 2"><g id="OBJECTS"><path class="cls-2" d="M48,51C32,51,18.92,63.38,18.92,78.7A26.89,26.89,0,0,0,26.12,97h0l.13.13a30.73,30.73,0,0,0,2.48,2.36L48,117.82,67.06,99.66a27.17,27.17,0,0,0,10-21C77.11,63.38,64.09,51,48,51Z"/><polygon class="cls-3" points="59.29 59.08 48.41 69.78 37.53 59.08 26.65 70.97 48.41 97.13 70.17 70.97 59.29 59.08"/><polygon class="cls-4" points="59.29 59.08 63.94 70.92 48.41 97.13 70.17 70.97 59.29 59.08"/><path class="cls-5" d="M41.37,20.48c3.46,6.79,7,16.26.94,24.57-4.89,6.76-15.12,7.07-19.81-.72C20,40.11,18,26.31,24.26,17.54S38.26,14.37,41.37,20.48Z"/><path class="cls-5" d="M14.58,39.45C19,44.1,24.06,51,21.57,59.61c-2,7-9.8,10.24-15.38,5.11C3.17,62-1.87,51,.71,41.94S10.64,35.27,14.58,39.45Z"/><path class="cls-5" d="M52.48,20.58c-3.32,7.5-6.51,17.71.62,25,5.79,5.87,17,4.24,21.57-4.5C77.15,36.3,78.39,22,71,14.37S55.46,13.83,52.48,20.58Z"/><path class="cls-5" d="M78,42.35c-4.11,5-8.67,12-4.67,18,3.25,4.94,12.2,5.11,17.54-.64,2.88-3.1,6.79-13.25,2.63-19.65S81.71,37.85,78,42.35Z"/><text class="cls-6" transform="translate(93.98 65.35)">Rivo Pets<tspan class="cls-7"><tspan x="0" y="43.2" xml:space="preserve">                                          </tspan><tspan class="cls-8" x="245.05" y="43.2">BE</tspan><tspan class="cls-9" x="295.06" y="43.2">T</tspan><tspan class="cls-10" x="314.39" y="43.2">A</tspan></tspan></text></g></g></g></svg>