<svg xmlns="http://www.w3.org/2000/svg" viewBox="0 0 150.49 356.06"><defs><style>.cls-1{fill:#e6e6e6;}.cls-2{fill:#27debf;}.cls-3{opacity:0.1;}.cls-10,.cls-17,.cls-4{fill:#fff;}.cls-5{fill:#ffbda7;}.cls-6{fill:#f0f0f0;}.cls-7{fill:#e0e0e0;}.cls-8{fill:#37474f;}.cls-9{fill:#263238;}.cls-10{opacity:0.6;}.cls-11{opacity:0.2;}.cls-12{fill:#455a64;}.cls-13{fill:#f0997a;}.cls-14{fill:#fafafa;}.cls-15{fill:#ebebeb;}.cls-16{fill:#f5f5f5;}.cls-17{opacity:0.4;}</style></defs><g id="Layer_2" data-name="Layer 2"><g id="Shadows"><ellipse id="Shadow" class="cls-1" cx="63.72" cy="319.27" rx="63.72" ry="36.79"/></g><g id="Plants"><g id="Plants-2" data-name="Plants"><path class="cls-2" d="M81.85,282.49c-.81-9.23,4.49-38.93,13-51.75S118.8,205,129.82,207.69c10.26,2.54,10.33,15.7-1,25.42s-28.53,22.2-32.53,37.63l-10,26.1Z"/><path class="cls-3" d="M81.85,282.49c-.81-9.23,4.49-38.93,13-51.75S118.8,205,129.82,207.69c10.26,2.54,10.33,15.7-1,25.42s-28.53,22.2-32.53,37.63l-10,26.1Z"/><path class="cls-4" d="M83.71,282.33a.68.68,0,0,0,.56-.6c3.41-32.05,26.65-59.89,41.41-66.89a.68.68,0,0,0,.32-.9.66.66,0,0,0-.9-.32c-15,7.13-38.71,35.44-42.18,68a.67.67,0,0,0,.6.74Z"/><path class="cls-2" d="M90.18,302.08c1-5.32,5.3-14.35,14.31-23,11-10.61,28.64-15.79,31.41-22.17,3.33-7.66-2.94-13.38-14.35-10.46-15.35,3.93-33.24,21.78-34.41,46Z"/><path class="cls-4" d="M87.45,296.83a.68.68,0,0,0,.54-.49c7.29-27.84,30.89-41.71,40.32-43.78a.68.68,0,1,0-.29-1.33c-10.42,2.3-33.9,16.35-41.34,44.76a.67.67,0,0,0,.48.83A.57.57,0,0,0,87.45,296.83Z"/></g></g><g id="Character_3" data-name="Character 3"><g id="Character"><path class="cls-5" d="M94.16,102.48C88,96.12,77.73,81.29,77.73,81.29L71.41,59.4a40.25,40.25,0,0,0,4.24,0c6.83.46,8.84,1,13.09,5.69,3.37,3.69,15.85,23.08,20.32,29l12.26-16.94c2.85-4.3,2.39-9.11,3.86-12.62S129,59.46,131,56.29s2.37-5.25,3.94-3.63-.24,6-.48,7-2.62,4,1.37,2.42S146,53.23,147.55,51.73s2.43.82,2.07,2.65,1.36,6,.74,9c-.66,3.21-1.14,4.68-4.23,7.8-2.88,2.9-9.94,6.46-12.7,10.27s-8.65,15.65-12.25,22.79c-4.57,9.07-9.6,14.23-15.51,9.16C101.12,109.48,96.45,104.84,94.16,102.48Z"/><path class="cls-6" d="M78.38,59.26c5.22.48,8,1.67,13.22,8.51s17.34,24.85,17.34,24.85L119.4,79.81s7.21,5.49,11,11.91c0,0-10.13,17-14.18,21.29s-7.21,4.63-12.73,0S82,90.82,82,90.82Z"/><path class="cls-7" d="M108.94,92.62c-2.38,3.44-3.91,9-3.49,11.81,0,0-3.3-3.8,2.26-13.63Z"/><polygon class="cls-5" points="32.23 314.33 44.12 314.33 46.49 293.28 32.23 293.28 32.23 314.33"/><polygon class="cls-5" points="71.51 292.68 84.18 293.1 83.95 271.31 69.63 271.03 71.51 292.68"/><path class="cls-8" d="M32.36,145.13c-.23,11.54-2.67,87.92-2.67,87.92a168.29,168.29,0,0,0-1.52,18.81c-.32,15.26,2.88,51.48,2.88,51.48.71,3.29,13,4.63,14.64,1.66,0,0,6.72-52.54,8.62-67.64,1.66-13.18,7.15-56.28,7.15-56.28l4.25,42.32A132.29,132.29,0,0,0,66,238.23c.49,7,4,48.19,4,48.19.06,2.57,12.84,4.7,15,.91,0,0,4-60.16,4.17-66.57.14-7.31-.88-76.46-.88-76.46Z"/><path class="cls-9" d="M44.8,308.29l.21-1.8c.66,0,.94.74,1.21,2.32a34.77,34.77,0,0,0,3.15,9.69c2,4.15,3.2,5.88,7.18,10.88.94,1.19,3.07,3.08,3.82,4.4s1,5-.26,5.85c-4.64,3.09-11.69,3.18-16.68,1.72a9.58,9.58,0,0,1-7.24-8.14c-.81-4.54-1.23-7.35-3.55-10.78-.85-1.26-2.22-2.27-2.79-3.68-1-2.53-.21-5.37.45-7.89.57-2.17,1.19-4.56,1.93-4.36v1.34c.9,1,4,2,6.81,2.08C40.84,310,44.82,309.66,44.8,308.29Z"/><path class="cls-9" d="M84.14,289.67c.32.2,1,1,2.31,2.21a45.12,45.12,0,0,0,4.1,3.17,75.94,75.94,0,0,0,9.13,5.73c3.77,2.07,7.16,3.33,11.67,5.36a3.71,3.71,0,0,1,1.26.84,2.56,2.56,0,0,1,.55,1.12,4.66,4.66,0,0,1-1.89,4.5,12.31,12.31,0,0,1-4.71,2,24.19,24.19,0,0,1-11.74.35,33.33,33.33,0,0,1-9.44-4.36,20.92,20.92,0,0,0-8.07-3.46c-2.53-.37-5.64-.25-7.83-1.76C67,303.7,68,300.11,68.7,297c.75-3.36.92-8.5,2.46-8.39l.11,1.35c.14,1.45,3.66,2.12,6.38,2.12,2.26,0,6.53-.59,6.51-1.65Z"/><path class="cls-9" d="M62.77,164.92a38.6,38.6,0,0,0,13-8.34s-2.07,6-10.56,11l.56,52.69-4.28-39.22Z"/><path class="cls-2" d="M51.52,58c-2.15.52-9,2.36-14.55,4.32a15.46,15.46,0,0,0-7,5.36c-4,5.9-.39,19,2.58,43.64-.23,15.92-.69,35.72-.69,35.72,7.32,5.33,41.47,9,56.88-2.3,0,0,.51-59.75-.51-67.52-1.94-14.87-7.77-18.85-19.79-19.55Z"/><path class="cls-10" d="M51.52,58c-2.15.52-9,2.36-14.55,4.32a15.46,15.46,0,0,0-7,5.36c-4,5.9-.39,19,2.58,43.64-.23,15.92-.69,35.72-.69,35.72,7.32,5.33,41.47,9,56.88-2.3,0,0,.51-59.75-.51-67.52-1.94-14.87-7.77-18.85-19.79-19.55Z"/><path class="cls-2" d="M72.51,75.42c1.08,3.72,7.47,29.86,6.57,39.06a56.92,56.92,0,0,1-3.8,13.74c-2.77,6.56-4.61.69-6.16-3.18a48.79,48.79,0,0,1-2.6-11.17c-.51-4.94,1.48-20,.72-37.55A3.78,3.78,0,0,1,72.51,75.42Z"/><path class="cls-11" d="M72.51,75.42c1.08,3.72,7.47,29.86,6.57,39.06a56.92,56.92,0,0,1-3.8,13.74c-2.77,6.56-4.61.69-6.16-3.18a48.79,48.79,0,0,1-2.6-11.17c-.51-4.94,1.48-20,.72-37.55A3.78,3.78,0,0,1,72.51,75.42Z"/><path class="cls-2" d="M72.75,67c2.53,2.16-.24,8.39-.24,8.39a7.17,7.17,0,0,0-5.27.9s-5-2.15-5.06-5.89c0-3.4,3.61-2.31,6.18-2.76C71.09,67.2,72.45,65.21,72.75,67Z"/><path class="cls-11" d="M72.75,67c2.53,2.16-.24,8.39-.24,8.39a7.17,7.17,0,0,0-5.27.9s-5-2.15-5.06-5.89c0-3.4,3.61-2.31,6.18-2.76C71.09,67.2,72.45,65.21,72.75,67Z"/><path class="cls-11" d="M72.51,75.42c-.41-1.46-2.4-1.32-4-1.82a4.3,4.3,0,0,1-2.14-1.84c-.82-1.41,0-3.75,1.14-4h0c-2.45.17-5.36-.38-5.35,2.66,0,3.74,5.06,5.89,5.06,5.89A7.17,7.17,0,0,1,72.51,75.42Z"/><path class="cls-12" d="M55.13,23.4A15.56,15.56,0,1,0,70.31,7.47,15.55,15.55,0,0,0,55.13,23.4Z"/><path class="cls-12" d="M44.05,34.73s2.81,11.78,3.87,13.71a5.33,5.33,0,0,0,3.16,2.42l-.38-8.33Z"/><path class="cls-12" d="M46.81,17.68A5.83,5.83,0,0,0,42,19.5c-2,2.17-.71,8.79,2,15.23l4.77.43Z"/><path class="cls-5" d="M50.24,35.13c-.94.59-2.34-1.2-3.54-2.41S41.62,29.94,39.8,34s1.92,9.49,5,10.37c5.24,1.51,5.94-1.85,5.94-1.85l.89,21.24h0C55.3,68.3,64,68.55,68.36,67.67c3.46-.7,3.52-3.15.1-6.91l-.16-6.09a32.73,32.73,0,0,0,7,.2c3.81-.69,6.15-3.76,7.2-7.93,1.6-6.37,2-13.48.39-25.12-2-14.31-18.75-14-27.62-8.17S50.24,35.13,50.24,35.13Z"/><path class="cls-12" d="M50.28,36.73c-.48,0-2.37-3-3.58-4-1.68-1.45.11-15,.11-15a6.57,6.57,0,0,1,1-7.33C50,7.82,53,4.72,63.27,5.69c7.29.68,15.27,2.76,21.6-.53a10.91,10.91,0,0,1-3.52,11.66S79.07,18.37,73,19.25s-15.59.23-16.89.09c-1.77-.2-2.11,1.52-3,6.22C52.41,29.69,51.89,36.66,50.28,36.73Z"/><path class="cls-12" d="M46.85,18.74l-5.83-3a3.16,3.16,0,0,1,4.32-1.54A3.43,3.43,0,0,1,46.85,18.74Z"/><path class="cls-13" d="M68.31,54.67s-8.58-1.51-11.61-3a9.8,9.8,0,0,1-4.22-4,13.46,13.46,0,0,0,2.46,4.76c2.25,2.74,13.42,4.7,13.42,4.7Z"/><path class="cls-9" d="M65.43,33a1.71,1.71,0,1,1-1.62-1.87A1.75,1.75,0,0,1,65.43,33Z"/><path class="cls-9" d="M64.32,26.6l-3.76,1.83a2.21,2.21,0,0,1,1-2.87A2,2,0,0,1,64.32,26.6Z"/><path class="cls-13" d="M66.42,44.56,71.75,46a2.72,2.72,0,0,1-3.34,2A2.9,2.9,0,0,1,66.42,44.56Z"/><path class="cls-9" d="M82,28.19l-4-1.37a2,2,0,0,1,2.61-1.35A2.23,2.23,0,0,1,82,28.19Z"/><path class="cls-9" d="M80.08,32.56a1.73,1.73,0,0,1-1.54,1.92,1.76,1.76,0,0,1-1.87-1.62,1.71,1.71,0,1,1,3.41-.3Z"/><polygon class="cls-13" points="70.83 31.59 71.44 41.88 76.81 40.02 70.83 31.59"/><path class="cls-2" d="M68.36,67.67c-4.75-1-16-5.39-17.06-10.88l-.14-3c-1.84,0-2.69,2.06-3.6,5-.38,7.76,7.81,14.85,16,16.76a14.37,14.37,0,0,1,1.81-5.1A7,7,0,0,1,68.36,67.67Z"/><path class="cls-2" d="M68.33,55.47a8,8,0,0,1,3.31,2c6.16,6.37,2.64,14.72,2.64,14.72A6.12,6.12,0,0,0,72,68.69a5.86,5.86,0,0,0-3.68-1c1.51-1.61.92-4.42.1-6.91Z"/><path class="cls-8" d="M86.2,27.91l-.83-.08a27.45,27.45,0,0,0-8.33.26c-2.69.73-3.66,1.55-5.13,1.56s-2.53-.81-5.34-1.52a31.24,31.24,0,0,0-8.89-.22l-.9.1L44.05,31.45A5,5,0,0,1,46.92,33l9.27-2.53.35.45a1.67,1.67,0,0,1,.27.61,23.27,23.27,0,0,0,.93,4.24,5,5,0,0,0,1.08,1.52,4.8,4.8,0,0,0,.56.45l.33.2a5.67,5.67,0,0,0,1,.42l.16,0,.26.07.28.06a5.67,5.67,0,0,0,.88.12c.12,0,.25,0,.37,0h.48c3.65,0,5.23-1.56,6.2-3.17s.82-3.88,2.5-3.88H72l.14,0c1.24.25,1,2.34,1.74,3.84A5.83,5.83,0,0,0,75,37.1l.28.25a.81.81,0,0,0,.14.12l.16.12.14.09.15.1.13.07.08,0a5.53,5.53,0,0,0,1.44.52l.13,0a8.62,8.62,0,0,0,1.77.16c3.43,0,4.67-1.82,5.27-3a26.05,26.05,0,0,0,1.21-4.25,1.28,1.28,0,0,1,.33-.56,2.88,2.88,0,0,0,.83-1.56A1.26,1.26,0,0,0,86.2,27.91ZM68.44,34a4.75,4.75,0,0,1-1.35,2.24h0a5.59,5.59,0,0,1-4,1.29,4.46,4.46,0,0,1-3.77-1.62l-.12-.16a.86.86,0,0,1-.1-.16L59,35.41a.83.83,0,0,1-.07-.13l-.06-.11a.93.93,0,0,1-.05-.1l-.07-.16h0c-.07-.16-.12-.32-.17-.47h0l-.09-.28-.11-.45a.29.29,0,0,0,0-.09v-.08c-.24-1.13-.5-3.33.15-3.83s2.33-1,5-.8l.29,0a10.15,10.15,0,0,1,1.23.19l.48.1a12.17,12.17,0,0,1,1.2.35,3,3,0,0,1,.36.14l.4.17.08,0,.14.08a2.5,2.5,0,0,1,.8.58C69,31.26,68.8,32.72,68.44,34Zm15.89-.53a5.06,5.06,0,0,1-2.71,3.61,5.19,5.19,0,0,1-2,.4,4.46,4.46,0,0,1-4-1.67v0a.61.61,0,0,1-.07-.1l-.08-.12a.21.21,0,0,0,0-.06l-.09-.18-.11-.21a1,1,0,0,1,0-.1s0,0,0-.05a.36.36,0,0,1,0-.09.14.14,0,0,1,0-.06,4.88,4.88,0,0,1-.23-.84c-.24-1.25-.33-2.7.21-3.4s2.57-1.45,4.51-1.67q.67-.07,1.26-.09h1.1l.34,0a5.36,5.36,0,0,1,.62.1L83,29h0l.1,0,.15,0,.18.05a2,2,0,0,1,.29.11l0,0a2.3,2.3,0,0,1,.66.38C85.05,30.11,84.64,32.32,84.33,33.44Z"/><path class="cls-14" d="M51.32,57.12s3.62,18.17,5.19,30.46,1.26,47,.43,69c-.61,16-3,45.68-3,45.68s-4,.8-13.51-.78c-8.14-1.34-12.26-3.75-14-4.8,0,0,1.51-45.07,2.65-60.81,1.05-14.51,1-22.49,1-22.49L26.66,80.25s.26-20.82,6.72-21.7C40.09,57.64,51.32,57.12,51.32,57.12Z"/><path class="cls-2" d="M45.14,86.92c0-.76-.07-2.4-.21-4.48-.64-10.15.29-24.83,3.72-25.57l.3,1.4c-2.51.54-2.9,19.15-2.59,24.08.14,2.12.24,3.8.21,4.64Z"/><path class="cls-5" d="M32.16,165.3c-1.66-2.81-1.74-4.9-4.23-7.42a8.37,8.37,0,0,1-2.26-3.75c-.76-2.25-.72-4.6-.9-7.06l-14.45.67a91.33,91.33,0,0,0,1.78,16c2.75,12.08,5.39,17.15,10.58,18.32,8.28,1.87,10.32-1.69,7.41-7.67a29.88,29.88,0,0,1-2.66-7.88,15.53,15.53,0,0,0,3.09,2.76,2.91,2.91,0,0,0,3.93-.44C34.81,168.3,33.45,167.51,32.16,165.3Z"/><path class="cls-6" d="M36,58.55s-7.68-.11-12,3.77S17.43,76.58,14.63,87s-5.26,20.51-6,27.75C8,120.79,10,152.6,10,152.6s8.79,1.85,15.55-1.85l.29-35.36L37,80A33.29,33.29,0,0,0,36,58.55Z"/><path class="cls-15" d="M51.06,51.2c-1-.21-1.93.32-2.75,1.72s-2.63,4.34-2.63,4.34-.93,9.76,0,12.19c.81,2.1,6.18,12,6.18,12s-.35,9.65-.43,12.52,5.49,14.9,6.11,20.48c0,0,.28-22.69-.55-29-1.44-11-3.24-24.1-5.67-28.59Z"/><path class="cls-12" d="M43.08,120.59H43l0-1a6.42,6.42,0,0,0,3.29-1.22,12.54,12.54,0,0,1-2.74-2.47c-1.61-2.09-5.14-17-4-20.47.91-2.91,3.77-9.33,6.32-9.43h.06c2.54,0,5.89,6.07,7,8.87,1.39,3.37-.87,18.52-2.3,20.74a12.27,12.27,0,0,1-2.51,2.69,6.15,6.15,0,0,0,3.38.94l.12,1A7.8,7.8,0,0,1,47.22,119,8.06,8.06,0,0,1,43.08,120.59ZM45.89,87h0c-1.5.06-4.18,4.83-5.41,8.73-1,3.19,2.4,17.62,3.9,19.55a11.54,11.54,0,0,0,2.82,2.47,11.72,11.72,0,0,0,2.6-2.7C51.1,113,53.26,98.33,52,95.23,50.45,91.47,47.4,87,45.89,87Z"/><path class="cls-9" d="M53,119.66a1.47,1.47,0,1,1-1.54-1.41A1.47,1.47,0,0,1,53,119.66Z"/><path class="cls-9" d="M44.45,120a1.47,1.47,0,1,1-1.53-1.41A1.48,1.48,0,0,1,44.45,120Z"/><path class="cls-2" d="M53.16,101.42l-.84-.06A.32.32,0,0,1,52,101a16.81,16.81,0,0,0-.27-5.68c-1.48-3.62-4.54-8.15-5.88-8.09s-4,4.83-5.18,8.56a17.32,17.32,0,0,0,.22,5.68.33.33,0,0,1-.27.38l-.83.13a.34.34,0,0,1-.38-.29c-.46-3.11-.52-5.25-.17-6.35.63-2,3.57-9.49,6.55-9.61s6.54,7.08,7.34,9c.44,1.07.56,3.2.37,6.35A.35.35,0,0,1,53.16,101.42Z"/><path class="cls-14" d="M68.3,54.67c1.32.12,2.47,2.07,5.52,3,5.67,1.68,10.83,4.27,12.43,7.76,2.63,5.77,3.06,6.91,4,32.65s1.26,99.05,1.26,99.05a19.87,19.87,0,0,1-8.68,1.76s.22-80.91-.32-99.1-3.3-27.07-7.24-33.06c-1.1-5-4.64-8.35-6.94-10.79Z"/><path class="cls-15" d="M75.28,66.7c3.94,6,6.7,14.86,7.24,33.06.06,2.16.12,5.2.17,8.85h0s3.25-16.48,2.67-20S81,77.87,81,77.87c.49-6-.91-12.86-3.21-17a11.38,11.38,0,0,0-2-2.63,18.16,18.16,0,0,0-2.45-1.66,10.84,10.84,0,0,0-5-1.93l0,1.24C70.64,58.35,74.18,61.67,75.28,66.7Z"/></g></g><g id="Icons"><g id="Pill"><path class="cls-16" d="M127.07,19.2c0,1.23.81,2.45,2.42,3.38a13,13,0,0,0,11.73,0c1.61-.93,2.42-2.15,2.42-3.38V8.3a8.3,8.3,0,1,0-16.6,0Z"/><path class="cls-2" d="M127,33.59a8.3,8.3,0,1,0,16.6,0V19.2c0,1.23-.81,2.45-2.42,3.38a13,13,0,0,1-11.73,0c-1.61-.93-2.42-2.15-2.42-3.38Z"/><path class="cls-17" d="M138.52,38.06a3.18,3.18,0,0,1-3.18-3.17V18a12,12,0,0,1,5.88,1.4l.48.31V34.89A3.18,3.18,0,0,1,138.52,38.06Z"/><path class="cls-16" d="M127.07,19.2c0,1.23.81,2.45,2.42,3.38a13,13,0,0,0,11.73,0c1.61-.93,2.42-2.15,2.42-3.38V8.3a8.3,8.3,0,1,0-16.6,0Z"/><path class="cls-3" d="M141.22,22.58a13,13,0,0,1-11.73,0c-1.61-.93-2.42-2.15-2.42-3.38v1.2c0,1.23.81,2.45,2.42,3.39a13,13,0,0,0,11.73,0c1.61-.94,2.42-2.16,2.42-3.39V19.2C143.64,20.43,142.83,21.65,141.22,22.58Z"/><path class="cls-7" d="M140.23,1.6h0A8.29,8.29,0,0,0,127,8.3l0,10.9c0,1.23.81,2.45,2.42,3.38a9.88,9.88,0,0,0,2.38,1V6.81C131.87,2,137.85.28,140.23,1.6Z"/><path class="cls-4" d="M138.52,3.92a3.18,3.18,0,0,0-3.18,3.18V24a12,12,0,0,0,5.88-1.41c.17-.09.32-.2.48-.3V7.1A3.18,3.18,0,0,0,138.52,3.92Z"/><path class="cls-3" d="M136.38,41.82l.47-.08.34-.06.36-.1.38-.11.19-.07a8.16,8.16,0,0,0,1.55-.74l0,0c.18-.11.35-.23.52-.35h0c-2.38,1.32-8.36-.43-8.36-5.21V23.54a9.88,9.88,0,0,1-2.38-1c-1.61-.93-2.42-2.15-2.42-3.38l0,14.39a8.31,8.31,0,0,0,8.3,8.3c.26,0,.52,0,.77,0Z"/></g></g></g></svg>