<svg xmlns="http://www.w3.org/2000/svg" viewBox="0 0 143.91 367.4"><defs><style>.cls-1{fill:#e6e6e6;}.cls-2{fill:#b16668;}.cls-3,.cls-8{fill:#27debf;}.cls-14,.cls-4{fill:#263238;}.cls-4{opacity:0.2;}.cls-5{fill:#ffa8a7;}.cls-6{fill:#455a64;}.cls-7,.cls-9{fill:#fff;}.cls-7{opacity:0.9;}.cls-8,.cls-9{opacity:0.8;}.cls-10{fill:#fafafa;}.cls-11{fill:#ebebeb;}.cls-12{opacity:0.1;}.cls-13{fill:#37474f;}.cls-15{fill:#9a4a4d;}</style></defs><g id="Layer_2" data-name="Layer 2"><g id="Shadows"><ellipse id="Shadow" class="cls-1" cx="71.96" cy="325.86" rx="71.96" ry="41.54"/></g><g id="Character_2" data-name="Character 2"><g id="Character"><path class="cls-2" d="M88.19,57.62c7.55-.11,11.61,3.28,17.15,12C110.07,77,121,94.78,124.1,100.14c3.48,6,4,8.49,1.24,13-2.59,4.3-27.14,32.66-27.14,32.66l-6.34-11.24,15.78-26.38L89.14,80.87Z"/><path class="cls-3" d="M87.7,57.29c5.46-.29,8.86.84,12.15,4S120.1,93,120.1,93s-2.45,5.83-16.75,13.44l-14-19Z"/><path class="cls-4" d="M87.7,57.29c5.46-.29,8.86.84,12.15,4S120.1,93,120.1,93s-2.45,5.83-16.75,13.44l-14-19Z"/><path class="cls-5" d="M97.26,290.76c-.15-4.25,2.94-46.12,2.94-46.12L79.83,259.41c4.18,25,5.07,30.84,5.14,34.93h0a3.82,3.82,0,0,0-.11,1c0,4.85,5.49,7.47,9.76,10.7a80.26,80.26,0,0,0,11.55,7.53c3.1,1.56,9.39,1.7,10.17-.29-5.19-4-12.74-9.9-16.87-14.43C97.49,296.72,97.42,295,97.26,290.76Z"/><path class="cls-6" d="M125.2,318.54c.26,0,.67,2.93-.78,4.18-1.67,1.44-6.57,3.8-13,3s-10-2.84-12.57-5-6.22-5.22-9.15-5.87c-2.72-.6-5.68-1.84-6.55-2.68s-.75-4.58-.75-4.58Z"/><path class="cls-3" d="M84.93,293.15a1,1,0,0,0-1,.88c-.2,1-.41,4-.84,5.71a30.31,30.31,0,0,0-.64,9.09c.36,1.92,4.79,3.25,7.63,4.33a35.92,35.92,0,0,1,9.18,5.8c3,2.51,9.45,5.12,13.67,5.09,5,0,10.61-1.65,11.9-4,1.6-2.86.35-4.52-7.06-8-1.4-.65-6.32-3.56-8-4.62-4.54-2.86-9-6.83-11.12-11.89a2.84,2.84,0,0,0-1.07-1.55,2.35,2.35,0,0,0-1.44-.13A12.33,12.33,0,0,0,92.6,295c-1,.47-2.41,1-2.39,2.29a4.44,4.44,0,0,0,.28,1.3c.09.26.16.6-.07.76s-.49,0-.69-.2a19.11,19.11,0,0,1-2-2.39,7,7,0,0,0-1.18-1.2,10.9,10.9,0,0,1-1.26-.82C84.85,294.3,85,293.75,84.93,293.15Z"/><path class="cls-7" d="M84.93,293.15a1,1,0,0,0-1,.88c-.2,1-.41,4-.84,5.71a30.31,30.31,0,0,0-.64,9.09c.36,1.92,4.79,3.25,7.63,4.33a35.92,35.92,0,0,1,9.18,5.8c3,2.51,9.45,5.12,13.67,5.09,5,0,10.61-1.65,11.9-4,1.6-2.86.35-4.52-7.06-8-1.4-.65-6.32-3.56-8-4.62-4.54-2.86-9-6.83-11.12-11.89a2.84,2.84,0,0,0-1.07-1.55,2.35,2.35,0,0,0-1.44-.13A12.33,12.33,0,0,0,92.6,295c-1,.47-2.41,1-2.39,2.29a4.44,4.44,0,0,0,.28,1.3c.09.26.16.6-.07.76s-.49,0-.69-.2a19.11,19.11,0,0,1-2-2.39,7,7,0,0,0-1.18-1.2,10.9,10.9,0,0,1-1.26-.82C84.85,294.3,85,293.75,84.93,293.15Z"/><path class="cls-8" d="M99.28,319a48.76,48.76,0,0,0-4-3h0s8.71,5.29,12.23,2.89c2.27-1.55,1.19-3.43,1.13-4s5.54-3.18,7.74-3.44h0c.62.34,1.13.61,1.45.76,7.41,3.44,8.66,5.1,7.06,8-1.28,2.32-5.36,4.12-11.81,4.12C108.82,324.2,102.33,321.47,99.28,319Z"/><path class="cls-9" d="M99.28,319a48.76,48.76,0,0,0-4-3h0s8.71,5.29,12.23,2.89c2.27-1.55,1.19-3.43,1.13-4s5.54-3.18,7.74-3.44h0c.62.34,1.13.61,1.45.76,7.41,3.44,8.66,5.1,7.06,8-1.28,2.32-5.36,4.12-11.81,4.12C108.82,324.2,102.33,321.47,99.28,319Z"/><path class="cls-3" d="M108,313.05c4.6,1.84,2.64,2.7,1.35,2.88s-9-4.34-13.77-8.08c-4.93-3.9-8-8.17-9.87-9.6-.68-.53-1.42-1.19-2.07-1.8.12-1,.22-1.94.31-2.42a1,1,0,0,1,1-.88c0,.6-.08,1.15.37,1.6a10.9,10.9,0,0,0,1.26.82,7,7,0,0,1,1.18,1.2,19.11,19.11,0,0,0,2,2.39C93.75,304.27,103.39,311.2,108,313.05Z"/><path class="cls-10" d="M109,315.25a.46.46,0,0,1-.29-.1.46.46,0,0,1-.06-.64,11,11,0,0,1,8.43-3.33.48.48,0,0,1,.41.51.45.45,0,0,1-.51.4,10.15,10.15,0,0,0-7.63,3A.44.44,0,0,1,109,315.25Z"/><path class="cls-10" d="M105,312.78a.42.42,0,0,1-.28-.1.45.45,0,0,1-.07-.64,11,11,0,0,1,8.44-3.33.46.46,0,0,1,.4.51.45.45,0,0,1-.5.4,10.1,10.1,0,0,0-7.63,3A.45.45,0,0,1,105,312.78Z"/><path class="cls-10" d="M101,310.44a.43.43,0,0,1-.29-.1.45.45,0,0,1-.07-.64,11,11,0,0,1,8.44-3.33.46.46,0,0,1-.1.91,10.15,10.15,0,0,0-7.63,3A.46.46,0,0,1,101,310.44Z"/><path class="cls-10" d="M97.26,307.77a.43.43,0,0,1-.28-.11.45.45,0,0,1-.07-.64,11,11,0,0,1,8.44-3.32.45.45,0,1,1-.1.9,10.19,10.19,0,0,0-7.63,3A.46.46,0,0,1,97.26,307.77Z"/><path class="cls-10" d="M93.62,305.09a.46.46,0,0,1-.29-.1.46.46,0,0,1-.07-.64c1.79-2.25,5.83-3.74,9.21-3.37a.48.48,0,0,1,.41.51.47.47,0,0,1-.51.4c-3.05-.33-6.81,1-8.4,3A.46.46,0,0,1,93.62,305.09Z"/><path class="cls-5" d="M57.94,259.55l-20.56-.37c.3,13.72,2.48,29,2.84,41.83.07,2.43-.06,18.84.85,23.83,1.38,7.49,10.27,6.48,10.74,2s-.57-23.64-.54-25.62c-.08-8.25,3.79-22.2,5.82-37C57.19,263.46,57.84,260.26,57.94,259.55Z"/><path class="cls-6" d="M55.17,330c.18,4.41-.21,7.38-1.5,10.1s-4.15,3.83-7.19,3.37-7-2.08-8.28-5.77-1.32-6.3-1.05-10.42Z"/><path class="cls-3" d="M40.17,299.44c-1.21.22-1,6.13-1.1,12.09-.12,6.38-1.74,9.18-1.89,14.42-.18,6,.39,8.6,2.82,12s10.12,6.14,13.21.66c2.53-4.47,2.19-9.11,1.32-15-.89-6.07-1.56-10.33-1.78-15-.21-4.45-.33-8.77-1.44-9.15,0,.66,0,1.49,0,2.14,0,.49.1,2.9-.58,3a9.17,9.17,0,0,1-.18-1.66,2,2,0,0,0-.48-1.4,2.33,2.33,0,0,0-1.42-.47,34.94,34.94,0,0,0-3.69-.19c-.62,0-1.23,0-1.84.1a5,5,0,0,0-1.53.38,1.13,1.13,0,0,0-.6.67,1.73,1.73,0,0,0,0,.68,4.61,4.61,0,0,1,0,1.23c0,.18-.12.4-.3.38s-.22-.19-.24-.34c-.07-.71,0-1.24-.08-2.07,0-.39,0-.92,0-1.3S40.18,299.82,40.17,299.44Z"/><path class="cls-7" d="M40.17,299.44c-1.21.22-1,6.13-1.1,12.09-.12,6.38-1.74,9.18-1.89,14.42-.18,6,.39,8.6,2.82,12s10.12,6.14,13.21.66c2.53-4.47,2.19-9.11,1.32-15-.89-6.07-1.56-10.33-1.78-15-.21-4.45-.33-8.77-1.44-9.15,0,.66,0,1.49,0,2.14,0,.49.1,2.9-.58,3a9.17,9.17,0,0,1-.18-1.66,2,2,0,0,0-.48-1.4,2.33,2.33,0,0,0-1.42-.47,34.94,34.94,0,0,0-3.69-.19c-.62,0-1.23,0-1.84.1a5,5,0,0,0-1.53.38,1.13,1.13,0,0,0-.6.67,1.73,1.73,0,0,0,0,.68,4.61,4.61,0,0,1,0,1.23c0,.18-.12.4-.3.38s-.22-.19-.24-.34c-.07-.71,0-1.24-.08-2.07,0-.39,0-.92,0-1.3S40.18,299.82,40.17,299.44Z"/><path class="cls-3" d="M37.28,324.24c0,.87-.18,6.58,1.46,7.45s2.24-3.6,2.24-3.6,3.78-1.59,9.71.33c-.2.94,1,3.88,2.47,3.08s1.45-7.32,1.45-7.41c.8,5.64,1.06,10.14-1.4,14.48-3.09,5.48-10.78,2.71-13.21-.66s-3-6-2.82-12C37.19,325.35,37.23,324.79,37.28,324.24Z"/><path class="cls-9" d="M37.28,324.24c0,.87-.18,6.58,1.46,7.45s2.24-3.6,2.24-3.6,3.78-1.59,9.71.33c-.2.94,1,3.88,2.47,3.08s1.45-7.32,1.45-7.41c.8,5.64,1.06,10.14-1.4,14.48-3.09,5.48-10.78,2.71-13.21-.66s-3-6-2.82-12C37.19,325.35,37.23,324.79,37.28,324.24Z"/><path class="cls-3" d="M41.46,328.43c.19,2.13-2,1.63-2.39-1.38s.54-10.33,0-15.52c.12-6-.11-11.87,1.1-12.09,0,.07,0,.14,0,.22l.14,3c0,.44,0,.83.06,1.29.41,4.36.64,12.84.67,16.86A69.16,69.16,0,0,0,41.46,328.43Z"/><path class="cls-3" d="M50,328.43a69.16,69.16,0,0,0,.41-7.62c0-4,.26-12.37.66-16.76a10.61,10.61,0,0,0,.18-2.47c0-.61,0-1.37,0-2a.66.66,0,0,0,0-.14c.81.3,1.09,2.65,1.27,5.62,0,1.73,0,3.87-.17,6.47-.54,5.19.41,12.55,0,15.56S49.83,330.56,50,328.43Z"/><path class="cls-10" d="M50.83,328.58a.47.47,0,0,1-.17,0,14.54,14.54,0,0,0-9.52,0,.46.46,0,0,1-.59-.27.44.44,0,0,1,.27-.58,15.24,15.24,0,0,1,10.18,0,.46.46,0,0,1,.25.59A.45.45,0,0,1,50.83,328.58Z"/><path class="cls-10" d="M51.38,323.84l-.15,0a18.07,18.07,0,0,0-10.66,0,.47.47,0,0,1-.58-.29.46.46,0,0,1,.29-.58,18.53,18.53,0,0,1,11.25,0,.45.45,0,0,1,.28.58A.46.46,0,0,1,51.38,323.84Z"/><path class="cls-10" d="M40.42,319.35a.45.45,0,0,1-.41-.26.46.46,0,0,1,.22-.61c5.3-2.41,11-.17,11.24-.07a.46.46,0,0,1-.34.85c-.06,0-5.59-2.2-10.52.05A.41.41,0,0,1,40.42,319.35Z"/><path class="cls-10" d="M40.32,315.17a.46.46,0,0,1-.2-.87,14.17,14.17,0,0,1,11.46-.13.46.46,0,0,1,.21.61.46.46,0,0,1-.61.22,13.4,13.4,0,0,0-10.66.12A.53.53,0,0,1,40.32,315.17Z"/><path class="cls-11" d="M40.22,310.46a.45.45,0,0,1-.2-.86c5.44-2.68,11.3-.12,11.55,0a.45.45,0,0,1,.23.6.46.46,0,0,1-.61.23s-5.72-2.5-10.77,0A.45.45,0,0,1,40.22,310.46Z"/><path class="cls-3" d="M47.68,117.56a84.1,84.1,0,0,0-6.46,24.21c-2.34,30.39-1.07,74-1.07,74-.27,3.17-2.29,10.38-3.64,24.36-1.6,16.51.41,72.46.41,72.46s9.88,5.88,17.56-.82c0,0,8.93-76.91,11-93.32,1.81-14.33,6.86-45.32,6.86-45.32L78.25,219s-.54,12.88-.16,21.22c.44,9.69,3.15,59.06,3.15,59.06s13.57,4.59,19.64-1.93c0,0,1.44-68.48,1.64-80.14.4-22.88,0-64.56-3.71-88.54Z"/><path class="cls-4" d="M47.68,117.56a84.1,84.1,0,0,0-6.46,24.21c-2.34,30.39-1.07,74-1.07,74-.27,3.17-2.29,10.38-3.64,24.36-1.6,16.51.41,72.46.41,72.46s9.88,5.88,17.56-.82c0,0,8.93-76.91,11-93.32,1.81-14.33,6.86-45.32,6.86-45.32L78.25,219s-.54,12.88-.16,21.22c.44,9.69,3.15,59.06,3.15,59.06s13.57,4.59,19.64-1.93c0,0,1.44-68.48,1.64-80.14.4-22.88,0-64.56-3.71-88.54Z"/><path class="cls-4" d="M72.34,173.13l2.12-14.59s12.32-1.64,17.9-6.89a20.24,20.24,0,0,1-14.51,9.18L75.67,174l1.88,39.46Z"/><path class="cls-3" d="M97.88,95.6c-.53,6-.67,17.71-.67,17.71,2.17,15.33,3.91,30.28,3.91,30.28-22.87,12.21-57.41,2.33-61.75-2.7,2.14-15,6.89-24.34,10-32.79L43.61,82.57s9.88-8.21,9-24.86l13.52-1.4,12.9.36,9.17.65a77.49,77.49,0,0,1,12,14.95C104.61,79.44,104.78,88.38,97.88,95.6Z"/><path class="cls-12" d="M82.36,94.68s-6,5.28-13.31,3.2a12.32,12.32,0,0,1-8.78-8.29s-.23,8.25,9,10.47A11.9,11.9,0,0,0,82.36,94.68Z"/><path class="cls-13" d="M63.3,48.21c0-2.29-3.21-7.07-6.16-12.41s-6.1-14,0-22S77.07.91,85.21,4.72,95.63,17.84,95.63,17.84Z"/><path class="cls-3" d="M54.55,29.15a.07.07,0,0,0,0,0,2.25,2.25,0,0,0-1.3-1,4.92,4.92,0,0,0-1.9-.3c-.78,0-2.25.55-2.2,1.54,0,1.19,2,1.31,2.84,1.28a8,8,0,0,0,2.15-.34,13.82,13.82,0,0,1-.59,4.12A4.12,4.12,0,0,1,52.4,36a2.84,2.84,0,0,1-2.41.51c-.46-.09-.27.59,0,.68a3.46,3.46,0,0,0,4.05-1.81c1-1.77.64-3.82,1.07-5.74C55.23,29.34,54.85,29.11,54.55,29.15Zm-3.81.62c-.15,0-.54-.1-.63-.24s0-.21.14-.31a2.67,2.67,0,0,1,2.58-.4,3.86,3.86,0,0,1,.71.22l.36.18.14.08.09.06a4.76,4.76,0,0,1-2,.46A4.62,4.62,0,0,1,50.74,29.77Z"/><path class="cls-2" d="M90.11,10.73c3,1.56,7.32,4.89,6.66,20.44-.52,12.15-5,17.75-7,18.82s-4.64,1.31-8.7.89v6.91s4.68,12.42,1.85,18.73a56.79,56.79,0,0,1-10.49-7.31c-6.88-6.62-8.93-9.71-8.93-9.71l-.25-18.4s-2.71,2-6.93-1.28c-3.49-2.69-4.9-7.5-2.48-10.28a5.51,5.51,0,0,1,5.13-1.71,6.76,6.76,0,0,1,4.67,3.75,1.31,1.31,0,0,0,.89.8,1,1,0,0,0,.82-.37,2.55,2.55,0,0,0,.42-.84c.86-2.57.45-5.28,1.06-7.9a15.19,15.19,0,0,1,2.64-5.6,18.92,18.92,0,0,1,12.1-7.07A25.23,25.23,0,0,1,90.11,10.73Z"/><path class="cls-2" d="M95.73,18.21h0a20.63,20.63,0,0,0-13.62-2.91,38,38,0,0,0-14.54,5.58,15.79,15.79,0,0,1,1.86-3.21,18.84,18.84,0,0,1,12.1-7.07,24.91,24.91,0,0,1,8.57.12C92,11.71,94.38,13.36,95.73,18.21Z"/><path class="cls-14" d="M78.12,27.7a1.79,1.79,0,0,1-1.57,1.94,1.7,1.7,0,0,1-1.91-1.51,1.81,1.81,0,0,1,1.58-1.94A1.68,1.68,0,0,1,78.12,27.7Z"/><path class="cls-15" d="M78.64,39.31l6.11,1.54A3.1,3.1,0,0,1,81,43.24,3.28,3.28,0,0,1,78.64,39.31Z"/><path class="cls-14" d="M93.84,23.58l-3.55-1.75a1.89,1.89,0,0,1,2.59-.94A2.07,2.07,0,0,1,93.84,23.58Z"/><path class="cls-14" d="M76.61,22.24,73,23.92a1.91,1.91,0,0,1,.88-2.62A2.08,2.08,0,0,1,76.61,22.24Z"/><path class="cls-14" d="M92.26,26.85a1.79,1.79,0,0,1-1.57,1.94,1.68,1.68,0,0,1-1.9-1.51,1.78,1.78,0,0,1,1.57-1.93A1.68,1.68,0,0,1,92.26,26.85Z"/><polygon class="cls-15" points="83.35 26.51 84.22 36.45 89.37 34.51 83.35 26.51"/><path class="cls-15" d="M81,50.88c-4.28-.64-13.35-2.93-14.92-6.29A10,10,0,0,0,69.6,49.4C72.33,51.47,81,53.32,81,53.32Z"/><path class="cls-3" d="M95.73,18.21s-2.22-3.57-12.38-2.62a38.54,38.54,0,0,0-15.78,5.3,22.5,22.5,0,0,0-7.39,7.33,4.66,4.66,0,0,0-1.25-.38,5.46,5.46,0,0,0-5.13,1.71l0,.05c-1.86-3.38-3.23-6.82-2.46-11.84,1.08-7.07,8.09-12,15.89-15.27,9.2-3.91,19.3-2.91,23.35.9S95.63,17.85,95.73,18.21Z"/><path class="cls-2" d="M52.78,145.39a35.53,35.53,0,0,1-7.48-6.66,23.92,23.92,0,0,0,5.46,0c2.47-.53,3-1.57,2.83-2.47-.09-.7-1.81-.47-4.53-1.33a49.84,49.84,0,0,0-9.57-2.25A6.67,6.67,0,0,1,35.58,130c-.86-1.07-5.93-10-10.41-19.48L45.88,84.88C51,79.09,57.22,68.71,51,58.07c-14.23,3-14.12,2.65-42.58,44.77-4.91,7.27-4.51,10.7,13,32.38a139.49,139.49,0,0,0,11.37,12.49c10.11,9.44,17.42,10.12,21.62,7.56C60.18,151.78,58.31,149,52.78,145.39Z"/><path class="cls-3" d="M52.59,57.71c-7.79.36-13.52,1.46-19,8.15C27.71,73,14.12,92.66,14.12,92.66s3.64,11.22,18.28,15L50.84,84S57.58,70.78,52.59,57.71Z"/><path class="cls-4" d="M52.59,57.71c-7.79.36-13.52,1.46-19,8.15C27.71,73,14.12,92.66,14.12,92.66s3.64,11.22,18.28,15L50.84,84S57.58,70.78,52.59,57.71Z"/></g></g></g></svg>